<svg width="380" height="934" viewBox="0 0 380 934" fill="none" xmlns="http://www.w3.org/2000/svg">
<circle cx="220" cy="844" r="6" fill="#C4C4C4"/>
<rect x="1" width="379" height="934" fill="#F1F1F1"/>
<path d="M115.386 655.4H119.868C122.856 655.4 124.35 656.756 124.35 659.468C124.35 660.872 123.972 661.916 123.216 662.6C122.46 663.284 121.362 663.626 119.922 663.626H117.69V668H115.386V655.4ZM119.652 661.7C120.444 661.7 121.032 661.52 121.416 661.16C121.812 660.8 122.01 660.248 122.01 659.504C122.01 658.76 121.812 658.214 121.416 657.866C121.02 657.506 120.414 657.326 119.598 657.326H117.69V661.7H119.652ZM127.782 668.18C127.038 668.18 126.414 667.94 125.91 667.46C125.418 666.968 125.172 666.308 125.172 665.48C125.172 664.7 125.454 664.076 126.018 663.608C126.582 663.128 127.248 662.792 128.016 662.6C128.784 662.396 129.522 662.282 130.23 662.258C130.206 661.73 130.068 661.352 129.816 661.124C129.576 660.896 129.174 660.782 128.61 660.782C128.214 660.782 127.824 660.836 127.44 660.944C127.068 661.052 126.636 661.226 126.144 661.466L125.946 659.648C127.038 659.12 128.13 658.856 129.222 658.856C130.278 658.856 131.082 659.144 131.634 659.72C132.198 660.296 132.48 661.214 132.48 662.474V664.904C132.48 665.36 132.498 665.69 132.534 665.894C132.582 666.086 132.654 666.212 132.75 666.272C132.858 666.32 133.032 666.344 133.272 666.344H133.56L133.362 668.18H132.552C132.06 668.18 131.646 668.09 131.31 667.91C130.974 667.718 130.716 667.46 130.536 667.136C130.248 667.46 129.852 667.718 129.348 667.91C128.856 668.09 128.334 668.18 127.782 668.18ZM128.718 666.47C128.946 666.47 129.204 666.416 129.492 666.308C129.78 666.188 130.032 666.026 130.248 665.822V663.77C129.528 663.806 128.892 663.962 128.34 664.238C127.788 664.514 127.512 664.898 127.512 665.39C127.512 665.762 127.608 666.038 127.8 666.218C127.992 666.386 128.298 666.47 128.718 666.47ZM143.311 659V672.356H141.079V667.442C140.443 667.934 139.651 668.18 138.703 668.18C137.839 668.18 137.095 667.97 136.471 667.55C135.847 667.13 135.373 666.566 135.049 665.858C134.725 665.15 134.563 664.37 134.563 663.518C134.563 662.666 134.725 661.886 135.049 661.178C135.373 660.47 135.847 659.906 136.471 659.486C137.095 659.066 137.839 658.856 138.703 658.856C139.711 658.856 140.581 659.18 141.313 659.828L141.601 659H143.311ZM139.063 666.344C139.771 666.344 140.299 666.092 140.647 665.588C141.007 665.084 141.187 664.394 141.187 663.518C141.187 662.642 141.007 661.952 140.647 661.448C140.299 660.944 139.771 660.692 139.063 660.692C138.367 660.692 137.821 660.95 137.425 661.466C137.041 661.982 136.849 662.666 136.849 663.518C136.849 664.37 137.041 665.054 137.425 665.57C137.821 666.086 138.367 666.344 139.063 666.344ZM153.552 659V668H151.464L151.428 667.46C151.152 667.664 150.834 667.838 150.474 667.982C150.114 668.114 149.766 668.18 149.43 668.18C148.098 668.18 147.126 667.796 146.514 667.028C145.914 666.26 145.614 665.198 145.614 663.842V659H147.846V663.842C147.846 664.682 147.984 665.306 148.26 665.714C148.548 666.11 149.004 666.308 149.628 666.308C150.324 666.308 150.888 666.056 151.32 665.552V659H153.552ZM160.273 668.18C159.229 668.18 158.335 667.97 157.591 667.55C156.859 667.118 156.307 666.548 155.935 665.84C155.575 665.12 155.395 664.322 155.395 663.446C155.395 662.606 155.569 661.838 155.917 661.142C156.265 660.446 156.769 659.894 157.429 659.486C158.089 659.066 158.875 658.856 159.787 658.856C160.627 658.856 161.335 659.03 161.911 659.378C162.499 659.726 162.937 660.194 163.225 660.782C163.525 661.37 163.675 662.03 163.675 662.762C163.675 663.122 163.627 663.53 163.531 663.986H157.717C157.837 664.778 158.149 665.372 158.653 665.768C159.157 666.152 159.763 666.344 160.471 666.344C161.443 666.344 162.343 666.098 163.171 665.606L163.279 667.496C162.895 667.7 162.445 667.868 161.929 668C161.425 668.12 160.873 668.18 160.273 668.18ZM161.407 662.474C161.407 662.006 161.275 661.592 161.011 661.232C160.747 660.872 160.339 660.692 159.787 660.692C159.235 660.692 158.791 660.854 158.455 661.178C158.119 661.502 157.891 661.934 157.771 662.474H161.407ZM168.433 668.18C167.641 668.18 167.041 667.952 166.633 667.496C166.225 667.028 166.021 666.47 166.021 665.822V660.836H164.743L164.941 659H166.021V657.02L168.253 656.786V659H170.233V660.836H168.253V664.904C168.253 665.384 168.277 665.72 168.325 665.912C168.385 666.092 168.499 666.212 168.667 666.272C168.847 666.32 169.165 666.344 169.621 666.344H170.233L170.035 668.18H168.433ZM176.325 668.18C175.281 668.18 174.387 667.97 173.643 667.55C172.911 667.118 172.359 666.548 171.987 665.84C171.627 665.12 171.447 664.322 171.447 663.446C171.447 662.606 171.621 661.838 171.969 661.142C172.317 660.446 172.821 659.894 173.481 659.486C174.141 659.066 174.927 658.856 175.839 658.856C176.679 658.856 177.387 659.03 177.963 659.378C178.551 659.726 178.989 660.194 179.277 660.782C179.577 661.37 179.727 662.03 179.727 662.762C179.727 663.122 179.679 663.53 179.583 663.986H173.769C173.889 664.778 174.201 665.372 174.705 665.768C175.209 666.152 175.815 666.344 176.523 666.344C177.495 666.344 178.395 666.098 179.223 665.606L179.331 667.496C178.947 667.7 178.497 667.868 177.981 668C177.477 668.12 176.925 668.18 176.325 668.18ZM177.459 662.474C177.459 662.006 177.327 661.592 177.063 661.232C176.799 660.872 176.391 660.692 175.839 660.692C175.287 660.692 174.843 660.854 174.507 661.178C174.171 661.502 173.943 661.934 173.823 662.474H177.459ZM184.106 668.18C183.53 668.18 183.002 668.126 182.522 668.018C182.054 667.91 181.568 667.742 181.064 667.514L181.262 665.606C181.766 665.906 182.234 666.134 182.666 666.29C183.11 666.434 183.566 666.506 184.034 666.506C184.946 666.506 185.402 666.206 185.402 665.606C185.402 665.282 185.282 665.036 185.042 664.868C184.802 664.688 184.37 664.478 183.746 664.238C182.858 663.914 182.204 663.548 181.784 663.14C181.364 662.72 181.154 662.156 181.154 661.448C181.154 660.668 181.454 660.038 182.054 659.558C182.654 659.066 183.464 658.82 184.484 658.82C185.504 658.82 186.434 659.054 187.274 659.522L187.076 661.43C186.62 661.118 186.188 660.878 185.78 660.71C185.384 660.542 184.964 660.458 184.52 660.458C184.136 660.458 183.836 660.536 183.62 660.692C183.416 660.848 183.314 661.07 183.314 661.358C183.314 661.586 183.374 661.772 183.494 661.916C183.626 662.06 183.806 662.192 184.034 662.312C184.262 662.42 184.64 662.576 185.168 662.78C186.044 663.116 186.674 663.488 187.058 663.896C187.442 664.292 187.634 664.826 187.634 665.498C187.634 666.35 187.328 667.01 186.716 667.478C186.104 667.946 185.234 668.18 184.106 668.18ZM200.681 665.012H196.091L195.047 668H192.815L197.297 655.4H199.475L203.957 668H201.725L200.681 665.012ZM199.961 662.996L198.395 658.496L196.811 662.996H199.961ZM209.32 668.18C208.324 668.18 207.466 667.976 206.746 667.568C206.038 667.148 205.504 666.584 205.144 665.876C204.784 665.168 204.604 664.382 204.604 663.518C204.604 662.642 204.784 661.85 205.144 661.142C205.504 660.422 206.044 659.858 206.764 659.45C207.484 659.03 208.36 658.82 209.392 658.82C210.316 658.82 211.12 659.012 211.804 659.396L211.624 661.196C210.976 660.86 210.304 660.692 209.608 660.692C208.756 660.692 208.09 660.95 207.61 661.466C207.13 661.982 206.89 662.666 206.89 663.518C206.89 664.334 207.136 665.012 207.628 665.552C208.12 666.08 208.774 666.344 209.59 666.344C210.274 666.344 210.958 666.146 211.642 665.75L211.84 667.64C211.516 667.808 211.132 667.94 210.688 668.036C210.256 668.132 209.8 668.18 209.32 668.18ZM216.569 668.18C215.777 668.18 215.177 667.952 214.769 667.496C214.361 667.028 214.157 666.47 214.157 665.822V660.836H212.879L213.077 659H214.157V657.02L216.389 656.786V659H218.369V660.836H216.389V664.904C216.389 665.384 216.413 665.72 216.461 665.912C216.521 666.092 216.635 666.212 216.803 666.272C216.983 666.32 217.301 666.344 217.757 666.344H218.369L218.171 668.18H216.569ZM220.123 655.4H222.355V657.632H220.123V655.4ZM220.123 659H222.355V668H220.123V659ZM223.757 659H225.953L228.167 665.228L230.381 659H232.577L229.121 668H227.213L223.757 659ZM237.904 668.18C236.956 668.18 236.134 667.97 235.438 667.55C234.742 667.13 234.208 666.566 233.836 665.858C233.464 665.15 233.278 664.37 233.278 663.518C233.278 662.666 233.464 661.88 233.836 661.16C234.208 660.44 234.742 659.87 235.438 659.45C236.134 659.03 236.956 658.82 237.904 658.82C238.852 658.82 239.674 659.03 240.37 659.45C241.066 659.87 241.6 660.44 241.972 661.16C242.344 661.88 242.53 662.666 242.53 663.518C242.53 664.37 242.344 665.15 241.972 665.858C241.6 666.566 241.066 667.13 240.37 667.55C239.674 667.97 238.852 668.18 237.904 668.18ZM237.904 666.344C238.636 666.344 239.206 666.086 239.614 665.57C240.034 665.054 240.244 664.37 240.244 663.518C240.244 662.654 240.034 661.964 239.614 661.448C239.206 660.92 238.636 660.656 237.904 660.656C237.172 660.656 236.596 660.92 236.176 661.448C235.768 661.964 235.564 662.654 235.564 663.518C235.564 664.37 235.768 665.054 236.176 665.57C236.596 666.086 237.172 666.344 237.904 666.344ZM246.94 668.18C246.364 668.18 245.836 668.126 245.356 668.018C244.888 667.91 244.402 667.742 243.898 667.514L244.096 665.606C244.6 665.906 245.068 666.134 245.5 666.29C245.944 666.434 246.4 666.506 246.868 666.506C247.78 666.506 248.236 666.206 248.236 665.606C248.236 665.282 248.116 665.036 247.876 664.868C247.636 664.688 247.204 664.478 246.58 664.238C245.692 663.914 245.038 663.548 244.618 663.14C244.198 662.72 243.988 662.156 243.988 661.448C243.988 660.668 244.288 660.038 244.888 659.558C245.488 659.066 246.298 658.82 247.318 658.82C248.338 658.82 249.268 659.054 250.108 659.522L249.91 661.43C249.454 661.118 249.022 660.878 248.614 660.71C248.218 660.542 247.798 660.458 247.354 660.458C246.97 660.458 246.67 660.536 246.454 660.692C246.25 660.848 246.148 661.07 246.148 661.358C246.148 661.586 246.208 661.772 246.328 661.916C246.46 662.06 246.64 662.192 246.868 662.312C247.096 662.42 247.474 662.576 248.002 662.78C248.878 663.116 249.508 663.488 249.892 663.896C250.276 664.292 250.468 664.826 250.468 665.498C250.468 666.35 250.162 667.01 249.55 667.478C248.938 667.946 248.068 668.18 246.94 668.18Z" fill="#4CA734"/>
<path d="M64.96 709.6H67.732C68.628 709.6 69.324 709.82 69.82 710.26C70.324 710.692 70.576 711.38 70.576 712.324C70.576 713.252 70.324 713.94 69.82 714.388C69.316 714.836 68.62 715.06 67.732 715.06H66.16V718H64.96V709.6ZM67.564 714.04C68.18 714.04 68.64 713.9 68.944 713.62C69.248 713.34 69.4 712.912 69.4 712.336C69.4 711.752 69.252 711.32 68.956 711.04C68.668 710.76 68.204 710.62 67.564 710.62H66.16V714.04H67.564ZM76.6529 712.12V718H75.6929L75.5729 717.352C75.3809 717.616 75.1529 717.812 74.8889 717.94C74.6329 718.06 74.3169 718.12 73.9409 718.12C73.2369 718.12 72.6969 717.908 72.3209 717.484C71.9529 717.052 71.7689 716.404 71.7689 715.54V712.12H72.8489V715.24C72.8489 715.88 72.9569 716.36 73.1729 716.68C73.3969 717 73.7449 717.16 74.2169 717.16C74.4969 717.16 74.7569 717.104 74.9969 716.992C75.2449 716.88 75.4369 716.716 75.5729 716.5V712.12H76.6529ZM81.2418 718.12C80.5698 718.12 79.9938 717.984 79.5138 717.712C79.0418 717.432 78.6818 717.056 78.4338 716.584C78.1858 716.112 78.0618 715.588 78.0618 715.012C78.0618 714.46 78.1738 713.956 78.3978 713.5C78.6298 713.036 78.9618 712.672 79.3938 712.408C79.8338 712.136 80.3498 712 80.9418 712C81.6938 712 82.3018 712.22 82.7658 712.66C83.2378 713.1 83.4738 713.708 83.4738 714.484C83.4738 714.684 83.4578 714.876 83.4258 715.06H79.1658C79.2378 715.82 79.4698 716.36 79.8618 716.68C80.2538 717 80.7578 717.16 81.3738 717.16C81.9898 717.16 82.5538 717.044 83.0658 716.812L83.2098 717.664C82.5298 717.968 81.8738 718.12 81.2418 718.12ZM82.3578 714.316C82.3578 713.892 82.2378 713.56 81.9978 713.32C81.7578 713.08 81.3978 712.96 80.9178 712.96C80.4538 712.96 80.0898 713.076 79.8258 713.308C79.5618 713.532 79.3738 713.868 79.2618 714.316H82.3578ZM90.0705 709V718H89.1105L88.9905 717.28C88.7905 717.552 88.5305 717.76 88.2105 717.904C87.8905 718.048 87.5505 718.12 87.1905 718.12C86.6945 718.12 86.2425 717.984 85.8345 717.712C85.4265 717.44 85.1025 717.072 84.8625 716.608C84.6305 716.144 84.5145 715.632 84.5145 715.072C84.5145 714.528 84.6225 714.02 84.8385 713.548C85.0625 713.076 85.3785 712.7 85.7865 712.42C86.1945 712.14 86.6625 712 87.1905 712C87.5425 712 87.8745 712.064 88.1865 712.192C88.4985 712.32 88.7665 712.516 88.9905 712.78V709H90.0705ZM87.3825 717.16C87.6705 717.16 87.9465 717.088 88.2105 716.944C88.4745 716.792 88.6905 716.56 88.8585 716.248C89.0265 715.936 89.1105 715.544 89.1105 715.072C89.1105 714.632 89.0265 714.252 88.8585 713.932C88.6905 713.612 88.4705 713.372 88.1985 713.212C87.9345 713.044 87.6625 712.96 87.3825 712.96C86.8385 712.96 86.4065 713.16 86.0865 713.56C85.7745 713.952 85.6185 714.456 85.6185 715.072C85.6185 715.664 85.7785 716.16 86.0985 716.56C86.4185 716.96 86.8465 717.16 87.3825 717.16ZM94.6387 718.12C93.9667 718.12 93.3907 717.984 92.9107 717.712C92.4387 717.432 92.0787 717.056 91.8307 716.584C91.5827 716.112 91.4587 715.588 91.4587 715.012C91.4587 714.46 91.5707 713.956 91.7947 713.5C92.0267 713.036 92.3587 712.672 92.7907 712.408C93.2307 712.136 93.7467 712 94.3387 712C95.0907 712 95.6987 712.22 96.1627 712.66C96.6347 713.1 96.8707 713.708 96.8707 714.484C96.8707 714.684 96.8547 714.876 96.8227 715.06H92.5627C92.6347 715.82 92.8667 716.36 93.2587 716.68C93.6507 717 94.1547 717.16 94.7707 717.16C95.3867 717.16 95.9507 717.044 96.4627 716.812L96.6067 717.664C95.9267 717.968 95.2707 718.12 94.6387 718.12ZM95.7547 714.316C95.7547 713.892 95.6347 713.56 95.3947 713.32C95.1547 713.08 94.7947 712.96 94.3147 712.96C93.8507 712.96 93.4867 713.076 93.2227 713.308C92.9587 713.532 92.7707 713.868 92.6587 714.316H95.7547ZM99.9273 718.12C99.4633 718.12 99.0553 718.068 98.7033 717.964C98.3593 717.852 98.0953 717.732 97.9113 717.604L98.0433 716.56C98.2033 716.704 98.4473 716.84 98.7753 716.968C99.1113 717.096 99.4793 717.16 99.8793 717.16C100.255 717.16 100.543 717.096 100.743 716.968C100.951 716.84 101.055 716.66 101.055 716.428C101.055 716.156 100.943 715.952 100.719 715.816C100.495 715.672 100.215 715.552 99.8793 715.456C99.5113 715.36 99.1993 715.26 98.9433 715.156C98.6953 715.044 98.4793 714.876 98.2953 714.652C98.1193 714.428 98.0313 714.132 98.0313 713.764C98.0313 713.26 98.2113 712.84 98.5713 712.504C98.9313 712.168 99.4873 712 100.239 712C100.583 712 100.875 712.036 101.115 712.108C101.355 712.172 101.595 712.264 101.835 712.384L101.703 713.368C101.511 713.208 101.299 713.084 101.067 712.996C100.835 712.9 100.567 712.852 100.263 712.852C99.9113 712.852 99.6313 712.92 99.4233 713.056C99.2233 713.184 99.1233 713.38 99.1233 713.644C99.1233 713.82 99.1713 713.964 99.2673 714.076C99.3633 714.18 99.4993 714.268 99.6753 714.34C99.8513 714.412 100.123 714.504 100.491 714.616C100.947 714.752 101.339 714.944 101.667 715.192C102.003 715.44 102.171 715.832 102.171 716.368C102.171 716.848 101.999 717.26 101.655 717.604C101.319 717.948 100.743 718.12 99.9273 718.12ZM105.899 712.12H107.099L108.743 716.812L110.375 712.12H111.587L109.355 718H108.143L105.899 712.12ZM115.444 718.12C114.772 718.12 114.196 717.984 113.716 717.712C113.244 717.432 112.884 717.056 112.636 716.584C112.388 716.112 112.264 715.588 112.264 715.012C112.264 714.46 112.376 713.956 112.6 713.5C112.832 713.036 113.164 712.672 113.596 712.408C114.036 712.136 114.552 712 115.144 712C115.896 712 116.504 712.22 116.968 712.66C117.44 713.1 117.676 713.708 117.676 714.484C117.676 714.684 117.66 714.876 117.628 715.06H113.368C113.44 715.82 113.672 716.36 114.064 716.68C114.456 717 114.96 717.16 115.576 717.16C116.192 717.16 116.756 717.044 117.268 716.812L117.412 717.664C116.732 717.968 116.076 718.12 115.444 718.12ZM116.56 714.316C116.56 713.892 116.44 713.56 116.2 713.32C115.96 713.08 115.6 712.96 115.12 712.96C114.656 712.96 114.292 713.076 114.028 713.308C113.764 713.532 113.576 713.868 113.464 714.316H116.56ZM119.065 712.12H119.953L120.085 713.092C120.389 712.716 120.677 712.44 120.949 712.264C121.229 712.088 121.521 712 121.825 712C121.921 712 122.013 712.012 122.101 712.036L121.993 713.224C121.889 713.2 121.769 713.188 121.633 713.188C121.337 713.188 121.057 713.256 120.793 713.392C120.529 713.52 120.337 713.672 120.217 713.848V718H119.065V712.12ZM127.957 717.736L125.509 712.12H126.709L128.545 716.488L130.201 712.12H131.401L127.801 720.904H126.601L127.957 717.736ZM136.879 718.12C136.335 718.12 135.895 717.96 135.559 717.64C135.231 717.32 135.067 716.912 135.067 716.416C135.067 715.672 135.419 715.14 136.123 714.82C136.827 714.5 137.647 714.332 138.583 714.316C138.583 713.788 138.479 713.432 138.271 713.248C138.071 713.056 137.747 712.96 137.299 712.96C137.051 712.96 136.803 713 136.555 713.08C136.307 713.152 136.039 713.288 135.751 713.488L135.595 712.612C135.835 712.428 136.131 712.28 136.483 712.168C136.835 712.056 137.203 712 137.587 712C138.091 712 138.491 712.088 138.787 712.264C139.091 712.44 139.311 712.732 139.447 713.14C139.591 713.548 139.663 714.108 139.663 714.82V716.02C139.663 716.34 139.675 716.584 139.699 716.752C139.731 716.912 139.795 717.036 139.891 717.124C139.987 717.212 140.135 717.256 140.335 717.256H140.443L140.275 718.12H140.191C139.855 718.12 139.591 718.088 139.399 718.024C139.207 717.96 139.059 717.868 138.955 717.748C138.859 717.628 138.767 717.464 138.679 717.256C138.183 717.832 137.583 718.12 136.879 718.12ZM137.083 717.256C137.371 717.256 137.647 717.184 137.911 717.04C138.183 716.896 138.407 716.704 138.583 716.464V715.06C137.719 715.092 137.099 715.208 136.723 715.408C136.355 715.6 136.171 715.916 136.171 716.356C136.171 716.66 136.251 716.888 136.411 717.04C136.579 717.184 136.803 717.256 137.083 717.256ZM146.785 709V718H145.825L145.705 717.28C145.505 717.552 145.245 717.76 144.925 717.904C144.605 718.048 144.265 718.12 143.905 718.12C143.409 718.12 142.957 717.984 142.549 717.712C142.141 717.44 141.817 717.072 141.577 716.608C141.345 716.144 141.229 715.632 141.229 715.072C141.229 714.528 141.337 714.02 141.553 713.548C141.777 713.076 142.093 712.7 142.501 712.42C142.909 712.14 143.377 712 143.905 712C144.257 712 144.589 712.064 144.901 712.192C145.213 712.32 145.481 712.516 145.705 712.78V709H146.785ZM144.097 717.16C144.385 717.16 144.661 717.088 144.925 716.944C145.189 716.792 145.405 716.56 145.573 716.248C145.741 715.936 145.825 715.544 145.825 715.072C145.825 714.632 145.741 714.252 145.573 713.932C145.405 713.612 145.185 713.372 144.913 713.212C144.649 713.044 144.377 712.96 144.097 712.96C143.553 712.96 143.121 713.16 142.801 713.56C142.489 713.952 142.333 714.456 142.333 715.072C142.333 715.664 142.493 716.16 142.813 716.56C143.133 716.96 143.561 717.16 144.097 717.16ZM155.397 712C156.901 712 157.653 712.844 157.653 714.532V718H156.573V714.544C156.573 713.992 156.465 713.592 156.249 713.344C156.033 713.088 155.681 712.96 155.193 712.96C154.153 712.96 153.633 713.504 153.633 714.592V718H152.553V714.76C152.553 714.088 152.433 713.62 152.193 713.356C151.961 713.092 151.621 712.96 151.173 712.96C150.821 712.96 150.509 713.024 150.237 713.152C149.965 713.28 149.757 713.472 149.613 713.728V718H148.533V712.12H149.373L149.493 712.744C149.789 712.48 150.085 712.292 150.381 712.18C150.685 712.06 151.009 712 151.353 712C152.249 712 152.881 712.392 153.249 713.176C153.657 712.392 154.373 712 155.397 712ZM159.356 709.6H160.436V710.8H159.356V709.6ZM159.356 712.12H160.436V718H159.356V712.12ZM165.103 712C166.703 712 167.503 712.92 167.503 714.76V718H166.423V714.76C166.423 714.128 166.303 713.672 166.063 713.392C165.831 713.104 165.439 712.96 164.887 712.96C164.535 712.96 164.215 713.024 163.927 713.152C163.639 713.28 163.423 713.472 163.279 713.728V718H162.199V712.12H163.039L163.159 712.744C163.471 712.464 163.783 712.272 164.095 712.168C164.415 712.056 164.751 712 165.103 712ZM169.202 709.6H170.282V710.8H169.202V709.6ZM169.202 712.12H170.282V718H169.202V712.12ZM173.713 718.12C173.249 718.12 172.841 718.068 172.489 717.964C172.145 717.852 171.881 717.732 171.697 717.604L171.829 716.56C171.989 716.704 172.233 716.84 172.561 716.968C172.897 717.096 173.265 717.16 173.665 717.16C174.041 717.16 174.329 717.096 174.529 716.968C174.737 716.84 174.841 716.66 174.841 716.428C174.841 716.156 174.729 715.952 174.505 715.816C174.281 715.672 174.001 715.552 173.665 715.456C173.297 715.36 172.985 715.26 172.729 715.156C172.481 715.044 172.265 714.876 172.081 714.652C171.905 714.428 171.817 714.132 171.817 713.764C171.817 713.26 171.997 712.84 172.357 712.504C172.717 712.168 173.273 712 174.025 712C174.369 712 174.661 712.036 174.901 712.108C175.141 712.172 175.381 712.264 175.621 712.384L175.489 713.368C175.297 713.208 175.085 713.084 174.853 712.996C174.621 712.9 174.353 712.852 174.049 712.852C173.697 712.852 173.417 712.92 173.209 713.056C173.009 713.184 172.909 713.38 172.909 713.644C172.909 713.82 172.957 713.964 173.053 714.076C173.149 714.18 173.285 714.268 173.461 714.34C173.637 714.412 173.909 714.504 174.277 714.616C174.733 714.752 175.125 714.944 175.453 715.192C175.789 715.44 175.957 715.832 175.957 716.368C175.957 716.848 175.785 717.26 175.441 717.604C175.105 717.948 174.529 718.12 173.713 718.12ZM179.342 718.12C178.822 718.12 178.434 717.984 178.178 717.712C177.93 717.44 177.806 717.108 177.806 716.716V712.96H176.798L176.894 712.12H177.806V710.668L178.886 710.56V712.12H180.434V712.96H178.886V716.056C178.886 716.464 178.91 716.744 178.958 716.896C179.006 717.048 179.106 717.148 179.258 717.196C179.418 717.236 179.706 717.256 180.122 717.256H180.398L180.314 718.12H179.342ZM181.657 712.12H182.545L182.677 713.092C182.981 712.716 183.269 712.44 183.541 712.264C183.821 712.088 184.113 712 184.417 712C184.513 712 184.605 712.012 184.693 712.036L184.585 713.224C184.481 713.2 184.361 713.188 184.225 713.188C183.929 713.188 183.649 713.256 183.385 713.392C183.121 713.52 182.929 713.672 182.809 713.848V718H181.657V712.12ZM187.04 718.12C186.496 718.12 186.056 717.96 185.72 717.64C185.392 717.32 185.228 716.912 185.228 716.416C185.228 715.672 185.58 715.14 186.284 714.82C186.988 714.5 187.808 714.332 188.744 714.316C188.744 713.788 188.64 713.432 188.432 713.248C188.232 713.056 187.908 712.96 187.46 712.96C187.212 712.96 186.964 713 186.716 713.08C186.468 713.152 186.2 713.288 185.912 713.488L185.756 712.612C185.996 712.428 186.292 712.28 186.644 712.168C186.996 712.056 187.364 712 187.748 712C188.252 712 188.652 712.088 188.948 712.264C189.252 712.44 189.472 712.732 189.608 713.14C189.752 713.548 189.824 714.108 189.824 714.82V716.02C189.824 716.34 189.836 716.584 189.86 716.752C189.892 716.912 189.956 717.036 190.052 717.124C190.148 717.212 190.296 717.256 190.496 717.256H190.604L190.436 718.12H190.352C190.016 718.12 189.752 718.088 189.56 718.024C189.368 717.96 189.22 717.868 189.116 717.748C189.02 717.628 188.928 717.464 188.84 717.256C188.344 717.832 187.744 718.12 187.04 718.12ZM187.244 717.256C187.532 717.256 187.808 717.184 188.072 717.04C188.344 716.896 188.568 716.704 188.744 716.464V715.06C187.88 715.092 187.26 715.208 186.884 715.408C186.516 715.6 186.332 715.916 186.332 716.356C186.332 716.66 186.412 716.888 186.572 717.04C186.74 717.184 186.964 717.256 187.244 717.256ZM191.737 712.12H192.625L192.757 713.092C193.061 712.716 193.349 712.44 193.621 712.264C193.901 712.088 194.193 712 194.497 712C194.593 712 194.685 712.012 194.773 712.036L194.665 713.224C194.561 713.2 194.441 713.188 194.305 713.188C194.009 713.188 193.729 713.256 193.465 713.392C193.201 713.52 193.009 713.672 192.889 713.848V718H191.737V712.12ZM200.858 718.12C200.338 718.12 199.95 717.984 199.694 717.712C199.446 717.44 199.322 717.108 199.322 716.716V712.96H198.314L198.41 712.12H199.322V710.668L200.402 710.56V712.12H201.95V712.96H200.402V716.056C200.402 716.464 200.426 716.744 200.474 716.896C200.522 717.048 200.622 717.148 200.774 717.196C200.934 717.236 201.222 717.256 201.638 717.256H201.914L201.83 718.12H200.858ZM207.997 712.12V718H207.037L206.917 717.352C206.725 717.616 206.497 717.812 206.233 717.94C205.977 718.06 205.661 718.12 205.285 718.12C204.581 718.12 204.041 717.908 203.665 717.484C203.297 717.052 203.113 716.404 203.113 715.54V712.12H204.193V715.24C204.193 715.88 204.301 716.36 204.517 716.68C204.741 717 205.089 717.16 205.561 717.16C205.841 717.16 206.101 717.104 206.341 716.992C206.589 716.88 206.781 716.716 206.917 716.5V712.12H207.997ZM211.434 718.12C210.97 718.12 210.562 718.068 210.21 717.964C209.866 717.852 209.602 717.732 209.418 717.604L209.55 716.56C209.71 716.704 209.954 716.84 210.282 716.968C210.618 717.096 210.986 717.16 211.386 717.16C211.762 717.16 212.05 717.096 212.25 716.968C212.458 716.84 212.562 716.66 212.562 716.428C212.562 716.156 212.45 715.952 212.226 715.816C212.002 715.672 211.722 715.552 211.386 715.456C211.018 715.36 210.706 715.26 210.45 715.156C210.202 715.044 209.986 714.876 209.802 714.652C209.626 714.428 209.538 714.132 209.538 713.764C209.538 713.26 209.718 712.84 210.078 712.504C210.438 712.168 210.994 712 211.746 712C212.09 712 212.382 712.036 212.622 712.108C212.862 712.172 213.102 712.264 213.342 712.384L213.21 713.368C213.018 713.208 212.806 713.084 212.574 712.996C212.342 712.9 212.074 712.852 211.77 712.852C211.418 712.852 211.138 712.92 210.93 713.056C210.73 713.184 210.63 713.38 210.63 713.644C210.63 713.82 210.678 713.964 210.774 714.076C210.87 714.18 211.006 714.268 211.182 714.34C211.358 714.412 211.63 714.504 211.998 714.616C212.454 714.752 212.846 714.944 213.174 715.192C213.51 715.44 213.678 715.832 213.678 716.368C213.678 716.848 213.506 717.26 213.162 717.604C212.826 717.948 212.25 718.12 211.434 718.12Z" fill="black"/>
<path d="M218.222 709.6H221.21C223.202 709.6 224.198 710.504 224.198 712.312C224.198 713.248 223.946 713.944 223.442 714.4C222.938 714.856 222.206 715.084 221.246 715.084H219.758V718H218.222V709.6ZM221.066 713.8C221.594 713.8 221.986 713.68 222.242 713.44C222.506 713.2 222.638 712.832 222.638 712.336C222.638 711.84 222.506 711.476 222.242 711.244C221.978 711.004 221.574 710.884 221.03 710.884H219.758V713.8H221.066ZM226.586 718.12C226.09 718.12 225.674 717.96 225.338 717.64C225.01 717.312 224.846 716.872 224.846 716.32C224.846 715.8 225.034 715.384 225.41 715.072C225.786 714.752 226.23 714.528 226.742 714.4C227.254 714.264 227.746 714.188 228.218 714.172C228.202 713.82 228.11 713.568 227.942 713.416C227.782 713.264 227.514 713.188 227.138 713.188C226.874 713.188 226.614 713.224 226.358 713.296C226.11 713.368 225.822 713.484 225.494 713.644L225.362 712.432C226.09 712.08 226.818 711.904 227.546 711.904C228.25 711.904 228.786 712.096 229.154 712.48C229.53 712.864 229.718 713.476 229.718 714.316V715.936C229.718 716.24 229.73 716.46 229.754 716.596C229.786 716.724 229.834 716.808 229.898 716.848C229.97 716.88 230.086 716.896 230.246 716.896H230.438L230.306 718.12H229.766C229.438 718.12 229.162 718.06 228.938 717.94C228.714 717.812 228.542 717.64 228.422 717.424C228.23 717.64 227.966 717.812 227.63 717.94C227.302 718.06 226.954 718.12 226.586 718.12ZM227.21 716.98C227.362 716.98 227.534 716.944 227.726 716.872C227.918 716.792 228.086 716.684 228.23 716.548V715.18C227.75 715.204 227.326 715.308 226.958 715.492C226.59 715.676 226.406 715.932 226.406 716.26C226.406 716.508 226.47 716.692 226.598 716.812C226.726 716.924 226.93 716.98 227.21 716.98ZM237.038 712V720.904H235.55V717.628C235.126 717.956 234.598 718.12 233.966 718.12C233.39 718.12 232.894 717.98 232.478 717.7C232.062 717.42 231.746 717.044 231.53 716.572C231.314 716.1 231.206 715.58 231.206 715.012C231.206 714.444 231.314 713.924 231.53 713.452C231.746 712.98 232.062 712.604 232.478 712.324C232.894 712.044 233.39 711.904 233.966 711.904C234.638 711.904 235.218 712.12 235.706 712.552L235.898 712H237.038ZM234.206 716.896C234.678 716.896 235.03 716.728 235.262 716.392C235.502 716.056 235.622 715.596 235.622 715.012C235.622 714.428 235.502 713.968 235.262 713.632C235.03 713.296 234.678 713.128 234.206 713.128C233.742 713.128 233.378 713.3 233.114 713.644C232.858 713.988 232.73 714.444 232.73 715.012C232.73 715.58 232.858 716.036 233.114 716.38C233.378 716.724 233.742 716.896 234.206 716.896ZM243.966 712V718H242.574L242.55 717.64C242.366 717.776 242.154 717.892 241.914 717.988C241.674 718.076 241.442 718.12 241.218 718.12C240.33 718.12 239.682 717.864 239.274 717.352C238.874 716.84 238.674 716.132 238.674 715.228V712H240.162V715.228C240.162 715.788 240.254 716.204 240.438 716.476C240.63 716.74 240.934 716.872 241.35 716.872C241.814 716.872 242.19 716.704 242.478 716.368V712H243.966ZM248.547 718.12C247.851 718.12 247.255 717.98 246.759 717.7C246.271 717.412 245.903 717.032 245.655 716.56C245.415 716.08 245.295 715.548 245.295 714.964C245.295 714.404 245.411 713.892 245.643 713.428C245.875 712.964 246.211 712.596 246.651 712.324C247.091 712.044 247.615 711.904 248.223 711.904C248.783 711.904 249.255 712.02 249.639 712.252C250.031 712.484 250.323 712.796 250.515 713.188C250.715 713.58 250.815 714.02 250.815 714.508C250.815 714.748 250.783 715.02 250.719 715.324H246.843C246.923 715.852 247.131 716.248 247.467 716.512C247.803 716.768 248.207 716.896 248.679 716.896C249.327 716.896 249.927 716.732 250.479 716.404L250.551 717.664C250.295 717.8 249.995 717.912 249.651 718C249.315 718.08 248.947 718.12 248.547 718.12ZM249.303 714.316C249.303 714.004 249.215 713.728 249.039 713.488C248.863 713.248 248.591 713.128 248.223 713.128C247.855 713.128 247.559 713.236 247.335 713.452C247.111 713.668 246.959 713.956 246.879 714.316H249.303ZM254.086 718.12C253.558 718.12 253.158 717.968 252.886 717.664C252.614 717.352 252.478 716.98 252.478 716.548V713.224H251.626L251.758 712H252.478V710.68L253.966 710.524V712H255.286V713.224H253.966V715.936C253.966 716.256 253.982 716.48 254.014 716.608C254.054 716.728 254.13 716.808 254.242 716.848C254.362 716.88 254.574 716.896 254.878 716.896H255.286L255.154 718.12H254.086ZM259.447 718.12C258.751 718.12 258.155 717.98 257.659 717.7C257.171 717.412 256.803 717.032 256.555 716.56C256.315 716.08 256.195 715.548 256.195 714.964C256.195 714.404 256.311 713.892 256.543 713.428C256.775 712.964 257.111 712.596 257.551 712.324C257.991 712.044 258.515 711.904 259.123 711.904C259.683 711.904 260.155 712.02 260.539 712.252C260.931 712.484 261.223 712.796 261.415 713.188C261.615 713.58 261.715 714.02 261.715 714.508C261.715 714.748 261.683 715.02 261.619 715.324H257.743C257.823 715.852 258.031 716.248 258.367 716.512C258.703 716.768 259.107 716.896 259.579 716.896C260.227 716.896 260.827 716.732 261.379 716.404L261.451 717.664C261.195 717.8 260.895 717.912 260.551 718C260.215 718.08 259.847 718.12 259.447 718.12ZM260.203 714.316C260.203 714.004 260.115 713.728 259.939 713.488C259.763 713.248 259.491 713.128 259.123 713.128C258.755 713.128 258.459 713.236 258.235 713.452C258.011 713.668 257.859 713.956 257.779 714.316H260.203ZM264.735 718.12C264.351 718.12 263.999 718.084 263.679 718.012C263.367 717.94 263.043 717.828 262.707 717.676L262.839 716.404C263.175 716.604 263.487 716.756 263.775 716.86C264.071 716.956 264.375 717.004 264.687 717.004C265.295 717.004 265.599 716.804 265.599 716.404C265.599 716.188 265.519 716.024 265.359 715.912C265.199 715.792 264.911 715.652 264.495 715.492C263.903 715.276 263.467 715.032 263.187 714.76C262.907 714.48 262.767 714.104 262.767 713.632C262.767 713.112 262.967 712.692 263.367 712.372C263.767 712.044 264.307 711.88 264.987 711.88C265.667 711.88 266.287 712.036 266.847 712.348L266.715 713.62C266.411 713.412 266.123 713.252 265.851 713.14C265.587 713.028 265.307 712.972 265.011 712.972C264.755 712.972 264.555 713.024 264.411 713.128C264.275 713.232 264.207 713.38 264.207 713.572C264.207 713.724 264.247 713.848 264.327 713.944C264.415 714.04 264.535 714.128 264.687 714.208C264.839 714.28 265.091 714.384 265.443 714.52C266.027 714.744 266.447 714.992 266.703 715.264C266.959 715.528 267.087 715.884 267.087 716.332C267.087 716.9 266.883 717.34 266.475 717.652C266.067 717.964 265.487 718.12 264.735 718.12ZM275.985 716.008H272.925L272.229 718H270.741L273.729 709.6H275.181L278.169 718H276.681L275.985 716.008ZM275.505 714.664L274.461 711.664L273.405 714.664H275.505ZM281.844 718.12C281.18 718.12 280.608 717.984 280.128 717.712C279.656 717.432 279.3 717.056 279.06 716.584C278.82 716.112 278.7 715.588 278.7 715.012C278.7 714.428 278.82 713.9 279.06 713.428C279.3 712.948 279.66 712.572 280.14 712.3C280.62 712.02 281.204 711.88 281.892 711.88C282.508 711.88 283.044 712.008 283.5 712.264L283.38 713.464C282.948 713.24 282.5 713.128 282.036 713.128C281.468 713.128 281.024 713.3 280.704 713.644C280.384 713.988 280.224 714.444 280.224 715.012C280.224 715.556 280.388 716.008 280.716 716.368C281.044 716.72 281.48 716.896 282.024 716.896C282.48 716.896 282.936 716.764 283.392 716.5L283.524 717.76C283.308 717.872 283.052 717.96 282.756 718.024C282.468 718.088 282.164 718.12 281.844 718.12ZM286.777 718.12C286.249 718.12 285.849 717.968 285.577 717.664C285.305 717.352 285.169 716.98 285.169 716.548V713.224H284.317L284.449 712H285.169V710.68L286.657 710.524V712H287.977V713.224H286.657V715.936C286.657 716.256 286.673 716.48 286.705 716.608C286.745 716.728 286.821 716.808 286.933 716.848C287.053 716.88 287.265 716.896 287.569 716.896H287.977L287.845 718.12H286.777ZM289.246 709.6H290.734V711.088H289.246V709.6ZM289.246 712H290.734V718H289.246V712ZM291.769 712H293.233L294.709 716.152L296.185 712H297.649L295.345 718H294.073L291.769 712ZM301.3 718.12C300.668 718.12 300.12 717.98 299.656 717.7C299.192 717.42 298.836 717.044 298.588 716.572C298.34 716.1 298.216 715.58 298.216 715.012C298.216 714.444 298.34 713.92 298.588 713.44C298.836 712.96 299.192 712.58 299.656 712.3C300.12 712.02 300.668 711.88 301.3 711.88C301.932 711.88 302.48 712.02 302.944 712.3C303.408 712.58 303.764 712.96 304.012 713.44C304.26 713.92 304.384 714.444 304.384 715.012C304.384 715.58 304.26 716.1 304.012 716.572C303.764 717.044 303.408 717.42 302.944 717.7C302.48 717.98 301.932 718.12 301.3 718.12ZM301.3 716.896C301.788 716.896 302.168 716.724 302.44 716.38C302.72 716.036 302.86 715.58 302.86 715.012C302.86 714.436 302.72 713.976 302.44 713.632C302.168 713.28 301.788 713.104 301.3 713.104C300.812 713.104 300.428 713.28 300.148 713.632C299.876 713.976 299.74 714.436 299.74 715.012C299.74 715.58 299.876 716.036 300.148 716.38C300.428 716.724 300.812 716.896 301.3 716.896ZM307.424 718.12C307.04 718.12 306.688 718.084 306.368 718.012C306.056 717.94 305.732 717.828 305.396 717.676L305.528 716.404C305.864 716.604 306.176 716.756 306.464 716.86C306.76 716.956 307.064 717.004 307.376 717.004C307.984 717.004 308.288 716.804 308.288 716.404C308.288 716.188 308.208 716.024 308.048 715.912C307.888 715.792 307.6 715.652 307.184 715.492C306.592 715.276 306.156 715.032 305.876 714.76C305.596 714.48 305.456 714.104 305.456 713.632C305.456 713.112 305.656 712.692 306.056 712.372C306.456 712.044 306.996 711.88 307.676 711.88C308.356 711.88 308.976 712.036 309.536 712.348L309.404 713.62C309.1 713.412 308.812 713.252 308.54 713.14C308.276 713.028 307.996 712.972 307.7 712.972C307.444 712.972 307.244 713.024 307.1 713.128C306.964 713.232 306.896 713.38 306.896 713.572C306.896 713.724 306.936 713.848 307.016 713.944C307.104 714.04 307.224 714.128 307.376 714.208C307.528 714.28 307.78 714.384 308.132 714.52C308.716 714.744 309.136 714.992 309.392 715.264C309.648 715.528 309.776 715.884 309.776 716.332C309.776 716.9 309.572 717.34 309.164 717.652C308.756 717.964 308.176 718.12 307.424 718.12Z" fill="#4CA734"/>
<path d="M192.902 593.5L0.888724 496.703L0.888681 3.31332e-05L379.889 0L379.888 496.703L192.902 593.5Z" fill="white"/>
<path fill-rule="evenodd" clip-rule="evenodd" d="M76.5877 0.5L0.888672 41.142V87.2541L121.287 22.5132L248.838 91.5293V132.346L121.301 64.0797V64.0715L121.293 64.0756L121.284 64.0707V64.0806L48.9806 102.797L48.7285 102.661L12.0566 121.956L157.063 201.045L121.285 221.399L0.888672 155.196V195.946L121.284 259.99L121.29 259.992V259.987L230.502 200.62L228.935 199.782L84.8449 122.126L121.293 102.666L291.888 196.169V195.427V154.61V68.5234L165.778 0.5H76.5877ZM121.284 346.818L0.888672 282.7V236.763L121.285 300.807L248.838 232.532L291.888 255.538L121.29 346.816V346.821L121.285 346.818L121.284 346.819V346.818Z" fill="#F1F1F1"/>
<path d="M127.66 72.0177V76.4086L142.828 67.6976L139.001 65.5022L127.66 72.0177Z" fill="#4CA734"/>
<path d="M127.66 64.4398V68.1225L137.37 62.4568L134.039 60.5447L127.66 64.4398Z" fill="#4CA734"/>
<path d="M127.661 76.4087V72.0178L116.249 65.5022V61.6071L127.661 68.1226V64.4399L112.422 55.4457V55.5873V59.4116V67.6977L127.661 76.4087Z" fill="#4CA734"/>
<path d="M127.661 45.46V41.0691L112.422 49.8509L116.249 52.0463L127.661 45.46Z" fill="#4CA734"/>
<path d="M127.662 53.1087V49.426L119.652 54.0294L122.842 55.8707L127.662 53.1087Z" fill="#4CA734"/>
<path d="M127.66 41.0691V45.46L139.001 52.0463V55.9415L127.66 49.426V53.1086L142.828 62.0321V61.9613V58.0661V49.8509L127.66 41.0691Z" fill="#4CA734"/>
<path d="M134.039 64.369L137.371 62.4569L121.211 53.1085L117.95 54.9499L134.039 64.369Z" fill="#4CA734"/>
<path d="M160.264 62.8819C160.264 64.0859 159.981 65.1482 159.343 65.998C158.705 66.8479 157.854 67.5561 156.791 68.0518C155.657 68.5476 154.452 68.76 152.964 68.76C152.539 68.76 152.042 68.76 151.475 68.6892C150.908 68.6184 150.129 68.4768 149.136 68.2643C148.144 68.0518 147.152 67.6977 146.159 67.202V62.457C147.152 63.0235 148.073 63.5901 148.995 63.9442C149.916 64.3691 150.908 64.5108 152.042 64.5108C153.035 64.5108 153.673 64.3691 153.956 64.015C154.24 63.6609 154.381 63.3777 154.381 63.0944C154.381 62.5986 154.098 62.1737 153.602 61.7488C153.106 61.3947 152.397 61.0406 151.404 60.6156C150.341 60.1907 149.42 59.695 148.64 59.1992C147.861 58.7035 147.223 57.9953 146.656 57.2162C146.159 56.4372 145.876 55.5165 145.876 54.4542C145.876 53.3919 146.159 52.4712 146.656 51.6214C147.152 50.7715 147.931 50.1342 148.995 49.6384C150.058 49.1427 151.334 48.8594 152.822 48.8594C153.885 48.8594 154.877 48.9302 155.799 49.1427C156.72 49.3551 157.429 49.5676 158.067 49.8509C158.634 50.1342 159.059 50.3466 159.272 50.4883V55.0208C158.492 54.4542 157.642 53.9585 156.649 53.5336C155.657 53.1086 154.665 52.8962 153.531 52.8962C152.822 52.8962 152.255 53.0378 151.971 53.3211C151.617 53.6044 151.475 53.9585 151.475 54.3834C151.475 54.7375 151.617 55.0916 151.971 55.3749C152.326 55.6582 152.893 56.0123 153.673 56.3664C155.161 57.0746 156.366 57.712 157.216 58.2077C158.138 58.7743 158.776 59.4117 159.272 60.1199C159.981 60.8989 160.264 61.8196 160.264 62.8819Z" fill="black"/>
<path d="M177.061 68.4768H172.029V61.1822C172.029 61.1114 172.029 61.0406 172.029 61.0406C172.029 60.9697 172.029 60.8989 172.029 60.6865C172.029 59.9783 171.887 59.4117 171.604 58.8451C171.32 58.2786 170.753 57.9953 169.974 57.9953C169.336 57.9953 168.769 58.2077 168.273 58.6327C167.776 59.0576 167.351 59.5533 166.926 60.1907V68.4768H161.894V49.2843H166.926V56.4372C167.776 55.5874 168.556 54.95 169.336 54.6667C170.115 54.3126 170.966 54.1709 171.887 54.1709C175.289 54.1709 176.991 56.0831 176.991 59.9074V68.4768H177.061Z" fill="black"/>
<path d="M183.866 68.4766H178.834V54.3124H183.866V68.4766ZM183.512 51.1255C183.512 51.692 183.299 52.1878 182.874 52.6127C182.449 53.0376 181.953 53.2501 181.386 53.2501C181.031 53.2501 180.677 53.1793 180.322 52.9668C179.968 52.7544 179.755 52.5419 179.543 52.1878C179.33 51.8337 179.259 51.4796 179.259 51.1255C179.259 50.5589 179.472 50.0632 179.897 49.6382C180.322 49.2133 180.819 49.0009 181.386 49.0009C181.953 49.0009 182.449 49.2133 182.874 49.6382C183.299 50.0632 183.512 50.4881 183.512 51.1255Z" fill="black"/>
<path d="M201.444 61.3237C201.444 62.2443 201.302 63.165 201.018 64.0857C200.735 64.9355 200.31 65.7854 199.814 66.4936C199.247 67.2018 198.538 67.7684 197.687 68.1933C196.837 68.6182 195.844 68.8307 194.639 68.8307C193.718 68.8307 193.009 68.7599 192.442 68.5474C191.875 68.3349 191.379 68.1225 190.883 67.7684V74.9921H185.851V54.454H190.883V55.7288C191.379 55.3039 191.946 54.9498 192.513 54.6665C193.151 54.3832 193.931 54.2416 194.994 54.2416C196.057 54.2416 197.049 54.5249 198.042 55.0206C199.034 55.5164 199.814 56.2954 200.451 57.4285C201.16 58.3492 201.444 59.6948 201.444 61.3237ZM196.199 61.4653C196.199 60.6155 196.057 59.9072 195.774 59.4115C195.49 58.8449 195.136 58.4908 194.71 58.2784C194.285 58.0659 193.86 57.9243 193.364 57.9243C192.797 57.9243 192.3 57.9951 191.875 58.2075C191.521 58.42 191.166 58.6325 190.812 58.9158V64.2981C190.954 64.369 191.166 64.5106 191.379 64.5814C191.592 64.7231 191.804 64.7939 191.946 64.8647C192.159 64.9355 192.371 65.0064 192.584 65.0772C192.797 65.148 193.08 65.148 193.293 65.148C194.072 65.148 194.71 64.7939 195.277 64.1565C195.915 63.5191 196.199 62.5984 196.199 61.4653Z" fill="black"/>
<path d="M235.112 63.0236C235.112 64.6524 234.545 65.998 233.411 66.9895C232.277 67.981 230.717 68.4768 228.662 68.4768H217.534V49.2843H226.819C228.024 49.2843 229.087 49.4259 229.938 49.6384C230.859 49.8509 231.568 50.205 232.064 50.5591C232.631 50.984 232.986 51.4089 233.269 51.9755C233.553 52.5421 233.694 53.1086 233.694 53.746C233.694 54.4542 233.553 55.0916 233.269 55.729C232.986 56.2956 232.631 56.7913 232.206 57.2162C231.781 57.5703 231.355 57.8536 230.93 57.9953C232.277 58.491 233.269 59.1992 233.907 59.9783C234.758 60.7573 235.112 61.7488 235.112 63.0236ZM228.308 54.8083C228.308 53.8877 228.024 53.2503 227.386 52.967C226.748 52.6837 225.827 52.5421 224.551 52.5421H223.346V57.1454H224.622C225.969 57.1454 226.89 57.0038 227.457 56.7205C228.024 56.2956 228.308 55.729 228.308 54.8083ZM229.3 62.8111C229.3 61.1822 228.095 60.3324 225.685 60.3324H223.346V65.2898H225.685C228.095 65.2898 229.3 64.44 229.3 62.8111Z" fill="black"/>
<path d="M252.194 61.3948C252.194 62.8112 251.91 64.086 251.272 65.1483C250.634 66.2814 249.713 67.1313 248.508 67.7687C247.303 68.4061 245.815 68.7602 244.043 68.7602C242.271 68.7602 240.782 68.4061 239.577 67.7687C238.372 67.1313 237.451 66.2814 236.813 65.1483C236.175 64.0152 235.892 62.8112 235.892 61.3948C235.892 60.3325 236.033 59.341 236.388 58.4911C236.742 57.6413 237.238 56.8623 237.947 56.154C238.656 55.5167 239.506 54.9501 240.499 54.596C241.491 54.2419 242.696 54.0294 243.972 54.0294C245.318 54.0294 246.452 54.2419 247.516 54.596C248.508 54.9501 249.358 55.4458 250.067 56.154C250.705 56.7914 251.272 57.5705 251.556 58.4911C252.052 59.341 252.194 60.3325 252.194 61.3948ZM246.949 61.3948C246.949 60.2617 246.736 59.4118 246.24 58.7744C245.744 58.137 245.035 57.8537 244.113 57.8537C243.192 57.8537 242.483 58.137 241.987 58.7744C241.491 59.4118 241.278 60.2617 241.278 61.3948C241.278 62.5279 241.491 63.3778 241.987 64.0152C242.483 64.6526 243.192 65.0067 244.113 65.0067C245.035 65.0067 245.744 64.6526 246.24 64.0152C246.736 63.3778 246.949 62.5279 246.949 61.3948Z" fill="black"/>
<path d="M268.355 68.4768H262.189L259.425 64.44L256.731 68.4768H251.274L256.731 61.5363L251.132 54.3126H257.298L259.921 58.1369L262.543 54.3126H268.001L262.685 61.0406L268.355 68.4768Z" fill="black"/>
<path d="M217.887 68.3352H212.501L211.508 67.2729C210.87 67.6978 210.091 68.0519 209.24 68.2644C208.39 68.4769 207.539 68.5477 206.689 68.5477C204.917 68.5477 203.499 68.1228 202.578 67.3437C201.656 66.5647 201.16 65.5732 201.16 64.5109C201.16 63.7319 201.373 63.0237 201.869 62.3863C202.365 61.7489 203.287 60.9699 204.633 60.0492C204.208 59.6243 203.924 59.2702 203.641 58.8452C203.357 58.4911 203.216 58.0662 203.074 57.7121C202.932 57.358 202.861 56.9331 202.861 56.579C202.861 55.7999 203.074 55.0917 203.499 54.4543C203.924 53.817 204.562 53.2504 205.342 52.8963C206.192 52.4714 207.114 52.3297 208.248 52.3297C209.028 52.3297 209.807 52.4714 210.445 52.6838C211.083 52.9671 211.579 53.2504 212.004 53.6753C212.43 54.1002 212.713 54.4543 212.926 54.9501C213.139 55.375 213.209 55.7999 213.209 56.2249C213.209 57.0039 212.926 57.7829 212.359 58.4911C211.792 59.1993 211.083 59.7659 210.091 60.2617L212.217 62.5279C212.855 61.9614 213.493 61.1823 213.989 60.2617H217.816C216.824 62.103 215.69 63.6611 214.414 64.7942L217.887 68.3352ZM209.382 65.0775L206.618 62.1738C205.625 62.8112 205.129 63.4486 205.129 64.086C205.129 64.4401 205.342 64.865 205.696 65.2191C206.051 65.5732 206.547 65.7857 207.256 65.7857C208.035 65.7857 208.744 65.5732 209.382 65.0775ZM210.02 56.2957C210.02 56.0832 209.949 55.8708 209.878 55.6583C209.736 55.4458 209.595 55.2334 209.311 55.1625C209.028 55.0209 208.744 54.9501 208.39 54.9501C207.894 54.9501 207.468 55.0917 207.185 55.375C206.901 55.6583 206.83 55.9416 206.83 56.2249C206.83 56.4373 206.901 56.6498 207.043 56.8622C207.185 57.0747 207.397 57.2872 207.61 57.5705C207.823 57.8537 208.106 58.0662 208.319 58.2787C209.453 57.7829 210.02 57.1455 210.02 56.2957Z" fill="#4CA734"/>
<path d="M190.388 400.564C278.374 400.564 349.701 397.276 349.701 393.219C349.701 389.163 278.374 385.875 190.388 385.875C102.403 385.875 31.0762 389.163 31.0762 393.219C31.0762 397.276 102.403 400.564 190.388 400.564Z" fill="#D1D1D1"/>
<path d="M181.896 386.679L135.729 396.122L134.68 396.017L94.1084 391.925V340.512L143.773 332.118L179.798 336.315L179.808 336.542L179.812 336.654L181.896 386.679Z" fill="#4CA734"/>
<path opacity="0.1" d="M181.895 386.679L135.728 396.122L134.679 396.018V343.31L179.807 336.542L181.895 386.679Z" fill="black"/>
<path opacity="0.05" d="M179.812 336.654L179.798 336.664L134.68 343.31L94.1084 340.512L143.773 332.118L179.798 336.315L179.808 336.542L179.812 336.654Z" fill="black"/>
<path d="M232.611 388.778L186.444 398.221L185.395 398.116L144.823 394.024V342.61L194.488 334.216L230.513 338.413L230.523 338.641L230.527 338.752L232.611 388.778Z" fill="#7E7E83"/>
<path opacity="0.1" d="M232.611 388.778L186.444 398.221L185.395 398.116V345.408L230.523 338.641L232.611 388.778Z" fill="black"/>
<path opacity="0.05" d="M230.527 338.752L230.513 338.763L185.395 345.408L144.823 342.61L194.488 334.216L230.513 338.413L230.523 338.641L230.527 338.752Z" fill="black"/>
<path d="M200.784 338.413L154.617 347.857L153.567 347.752L112.996 343.66V292.246L162.661 283.852L198.685 288.049L198.696 288.276L198.699 288.388L200.784 338.413Z" fill="#7E7E83"/>
<path opacity="0.1" d="M200.783 338.413L154.616 347.857L153.566 347.752V295.044L198.695 288.276L200.783 338.413Z" fill="black"/>
<path opacity="0.05" d="M198.699 288.388L198.685 288.399L153.567 295.044L112.996 292.246L162.661 283.852L198.685 288.049L198.696 288.276L198.699 288.388Z" fill="black"/>
<path d="M227.014 340.568L202.919 345.499L202.37 345.443L181.196 343.306V316.473L207.116 312.091L225.919 314.284L225.926 314.403V314.459L227.014 340.568Z" fill="#7E7E83"/>
<path opacity="0.1" d="M227.015 340.568L202.92 345.499L202.371 345.443V317.935L225.927 314.403L227.015 340.568Z" fill="black"/>
<path opacity="0.05" d="M225.926 314.459L225.919 314.466L202.37 317.935L181.196 316.473L207.116 312.091L225.919 314.284L225.926 314.403V314.459Z" fill="black"/>
<path d="M162.311 288.454L138.216 293.382L137.667 293.33L116.493 291.193V264.36L142.413 259.978L161.216 262.17L161.223 262.289V262.345L162.311 288.454Z" fill="#7E7E83"/>
<path opacity="0.1" d="M162.312 288.455L138.217 293.383L137.668 293.33V265.822L161.224 262.29L162.312 288.455Z" fill="black"/>
<path opacity="0.05" d="M161.223 262.345L161.216 262.352L137.667 265.822L116.493 264.36L142.413 259.978L161.216 262.17L161.223 262.289V262.345Z" fill="black"/>
<path d="M204.631 287.405L180.537 292.333L179.987 292.281L158.813 290.144V263.311L184.734 258.928L203.536 261.121L203.543 261.24V261.296L204.631 287.405Z" fill="#4CA734"/>
<path opacity="0.1" d="M204.631 287.405L180.536 292.333L179.987 292.281V264.773L203.543 261.24L204.631 287.405Z" fill="black"/>
<path opacity="0.05" d="M203.543 261.296L203.536 261.303L179.988 264.773L158.813 263.311L184.734 258.928L203.536 261.121L203.543 261.24V261.296Z" fill="black"/>
<path d="M217.222 260.474L193.127 265.402L192.578 265.35L171.404 263.213V236.38L197.324 231.997L216.127 234.19L216.134 234.309V234.365L217.222 260.474Z" fill="#7E7E83"/>
<path opacity="0.1" d="M217.221 260.474L193.126 265.402L192.577 265.35V237.842L216.133 234.309L217.221 260.474Z" fill="black"/>
<path opacity="0.05" d="M216.134 234.365L216.127 234.372L192.578 237.842L171.404 236.38L197.324 231.997L216.127 234.19L216.134 234.309V234.365Z" fill="black"/>
<path d="M233.632 205.619C233.377 207.893 231.642 209.725 230.998 211.915C230.033 215.22 231.698 218.77 233.992 221.358C235.841 223.414 238.08 225.084 240.579 226.269C243.077 227.454 245.786 228.131 248.549 228.262C249.36 228.332 250.178 228.243 250.955 228C251.647 227.718 252.271 227.291 252.784 226.748C254.505 225.016 255.432 222.621 255.799 220.204C256.167 217.787 256.027 215.328 255.883 212.891C255.883 212.386 255.791 211.886 255.61 211.415C255.376 210.966 255.054 210.57 254.663 210.25C253.422 209.11 252.055 208.116 250.588 207.287C249.958 206.938 249.283 206.588 248.881 205.983C248.605 205.501 248.426 204.97 248.353 204.42L247.902 202.125C247.822 201.464 247.596 200.828 247.241 200.264C246.447 199.194 244.925 199.047 243.593 198.995L238.696 198.802C237.175 198.743 235.174 198.306 233.688 198.607C232.289 198.883 232.761 200.163 233.013 201.324C233.377 202.729 233.585 204.169 233.632 205.619Z" fill="#FFC0C6"/>
<path opacity="0.1" d="M233.632 205.619C233.377 207.893 231.642 209.725 230.998 211.915C230.033 215.22 231.698 218.77 233.992 221.358C235.841 223.414 238.08 225.084 240.579 226.269C243.077 227.454 245.786 228.131 248.549 228.262C249.36 228.332 250.178 228.243 250.955 228C251.647 227.718 252.271 227.291 252.784 226.748C254.505 225.016 255.432 222.621 255.799 220.204C256.167 217.787 256.027 215.328 255.883 212.891C255.883 212.386 255.791 211.886 255.61 211.415C255.376 210.966 255.054 210.57 254.663 210.25C253.422 209.11 252.055 208.116 250.588 207.287C249.958 206.938 249.283 206.588 248.881 205.983C248.605 205.501 248.426 204.97 248.353 204.42L247.902 202.125C247.822 201.464 247.596 200.828 247.241 200.264C246.447 199.194 244.925 199.047 243.593 198.995L238.696 198.802C237.175 198.743 235.174 198.306 233.688 198.607C232.289 198.883 232.761 200.163 233.013 201.324C233.377 202.729 233.585 204.169 233.632 205.619Z" fill="black"/>
<path d="M264.728 308.013L262.651 330.789C262.109 336.763 261.556 342.761 260.493 348.658C260.143 350.69 259.695 352.711 259.185 354.715C257.765 360.28 255.705 365.719 255.04 371.423C255.019 371.587 255.002 371.773 254.984 371.923C254.848 373.182 254.729 374.455 254.285 375.631C253.935 376.501 253.442 377.295 253.082 378.156C252.382 379.877 252.27 381.779 252.183 383.643C249.661 382.22 246.9 381.272 244.037 380.845C242.638 380.639 241.116 380.496 240.19 379.446C239.14 378.306 239.263 376.561 239.438 375.029C239.988 370.272 240.536 365.518 241.081 360.766C241.263 358.721 241.614 356.695 242.131 354.708C242.32 354.047 242.547 353.397 242.778 352.746C243.096 351.851 243.418 350.956 243.659 350.036C243.994 348.558 244.225 347.058 244.352 345.548C244.915 340.764 245.593 335.99 246.188 331.209L246.219 330.957C247.111 323.71 247.79 316.428 247.594 309.129C247.566 308.048 247.52 306.967 247.45 305.883C247.353 304.313 247.209 303.48 248.5 302.497C249.937 301.413 251.829 300.654 253.473 299.944C254.358 299.559 264.102 296.097 264.316 296.859C264.768 298.479 265.003 300.151 265.015 301.833C265.035 303.897 264.939 305.96 264.728 308.013Z" fill="#2F2E41"/>
<path opacity="0.1" d="M260.493 348.657C260.143 350.689 259.696 352.711 259.185 354.715C257.765 360.28 255.705 365.718 255.04 371.423C255.019 371.587 255.002 371.773 254.985 371.923C250.641 365.718 246.982 359.045 242.743 352.774C243.061 351.879 243.383 350.983 243.625 350.063C243.972 348.577 244.215 347.068 244.352 345.548C244.915 340.763 245.594 335.989 246.188 331.208L246.22 330.956C246.465 331.971 246.817 332.957 247.269 333.898C250.116 339.683 256.88 342.607 260.189 348.143C260.298 348.316 260.4 348.487 260.493 348.657Z" fill="black"/>
<path d="M225.245 297.796C225.388 302.434 226.13 307.033 226.871 311.615L228.4 321.058C229.236 326.235 230.11 331.513 232.558 336.147C234.391 339.616 237.028 342.575 239.417 345.685C245.286 353.33 249.696 361.994 255.261 369.863C256.88 372.15 259.192 374.627 261.952 374.147C263.763 373.836 265.078 372.325 266.498 371.164C268.177 369.793 270.199 368.789 271.521 367.068C272.843 365.348 273.102 362.494 271.311 361.27C270.699 360.853 269.954 360.696 269.261 360.43C266.488 359.381 264.69 356.667 263.55 353.925C262.41 351.183 261.714 348.241 260.192 345.692C256.884 340.155 250.116 337.231 247.269 331.443C245.674 328.204 245.52 324.448 245.401 320.856L245.09 311.654C245.055 310.646 245.03 309.601 245.44 308.681C246.527 306.232 249.815 306.002 252.48 305.69C255.503 305.337 258.431 304.414 261.109 302.969C262.644 302.14 264.141 301.084 264.956 299.545C265.704 298.146 265.806 296.499 265.893 294.911L266.817 278.231C266.897 276.797 266.967 275.311 266.467 273.968C265.197 270.589 260.93 269.484 257.324 269.645C250.616 269.946 244.425 272.831 238.088 274.783C236.518 275.265 234.94 275.699 233.321 276.024C231.922 276.308 230.173 276.192 228.83 276.647C226.424 277.458 226.483 282.726 226.144 284.908C225.444 289.167 225.143 293.482 225.245 297.796Z" fill="#2F2E41"/>
<path d="M261.043 374.854C261.634 375.452 261.826 376.326 261.98 377.152C262.835 381.733 263.28 386.381 263.309 391.04C263.271 391.475 263.357 391.912 263.557 392.3C263.725 392.529 263.951 392.71 264.212 392.824C265.922 393.639 267.905 392.502 269.332 391.254C271.973 388.942 274.207 385.836 274.358 382.328C274.396 381.426 274.295 380.513 274.452 379.621C274.683 378.299 275.456 377.148 276.135 375.994C277.296 374.027 278.234 371.936 278.933 369.762C279.191 368.943 279.366 367.915 278.723 367.345C278.497 367.166 278.24 367.031 277.964 366.95L270.234 364.082C269.563 363.833 267.898 368.111 267.636 368.579C266.989 369.723 266.345 370.37 265.047 370.636C263.75 370.902 262.148 370.517 260.91 371.178C258.811 372.294 259.857 373.661 261.043 374.854Z" fill="#535070"/>
<path d="M249.124 377.495C248.98 377.209 248.78 376.955 248.536 376.75C248.179 376.522 247.772 376.384 247.35 376.347C245.881 376.096 244.14 375.931 243.122 377.026C242.171 378.051 242.335 379.719 241.541 380.873C241.289 381.223 240.946 381.538 240.73 381.922C240.46 382.511 240.34 383.158 240.38 383.804C240.338 385.584 240.296 387.372 240.422 389.148C240.523 390.638 240.772 392.202 241.705 393.37C243.202 395.245 245.902 395.514 248.295 395.633L250.236 395.734C250.77 395.797 251.311 395.747 251.824 395.587C252.142 395.441 252.427 395.232 252.663 394.973C252.898 394.714 253.079 394.41 253.195 394.08C254.206 391.569 252.607 388.865 251.621 386.347C250.484 383.447 250.687 380.233 249.124 377.495Z" fill="#535070"/>
<path d="M233.073 192.801C233.048 192.546 233.085 192.29 233.181 192.052C233.464 191.552 234.206 191.703 234.765 191.829C237.014 192.395 239.386 191.881 241.704 192.014C244.023 192.147 246.632 193.305 247.098 195.578C248.78 194.387 250.23 192.898 251.375 191.185C252.019 190.223 252.578 189.122 252.491 187.967C252.365 186.303 250.969 185.057 249.693 184.001L245.845 180.853C245.339 180.389 244.754 180.017 244.118 179.755C243.229 179.451 242.257 179.598 241.32 179.598C238.522 179.598 235.521 178.321 233.027 179.598C231.978 180.133 231.198 181.053 230.442 181.948L227.004 186.019C226.744 186.279 226.554 186.6 226.452 186.953C226.354 187.45 226.609 187.939 226.7 188.44C226.861 189.349 226.469 190.321 226.77 191.196C227.27 192.644 229.033 192.85 230.11 193.682C230.509 193.99 231.138 195.043 231.618 195.029C232.46 195.011 233.048 193.472 233.073 192.801Z" fill="#3F3D56"/>
<path d="M238.907 204.808C244.991 204.808 249.924 199.875 249.924 193.791C249.924 187.706 244.991 182.773 238.907 182.773C232.822 182.773 227.89 187.706 227.89 193.791C227.89 199.875 232.822 204.808 238.907 204.808Z" fill="#FFB6B6"/>
<path d="M241.486 217.899C241.113 216.831 240.41 215.91 239.479 215.267C238.548 214.625 237.437 214.295 236.307 214.325C235.982 214.386 235.647 214.344 235.348 214.202C235.179 214.073 235.044 213.905 234.953 213.713C234.285 212.507 233.747 211.234 233.348 209.914C233.173 209.33 232.931 208.641 232.34 208.491C231.865 208.368 231.379 208.676 231.06 209.05C230.778 209.452 230.472 209.836 230.144 210.201C228.745 211.439 226.297 210.309 224.831 211.446C224.59 211.632 224.391 211.869 224.132 212.041C223.88 212.194 223.608 212.312 223.324 212.39C220.479 213.316 217.69 214.406 214.972 215.654C215.951 221.543 216.951 227.545 219.246 233.054C220.337 235.677 221.572 238.248 222.446 240.951C224.384 246.943 224.467 253.353 224.492 259.653C224.492 263.961 224.492 268.361 223.093 272.439C222.778 273.363 222.393 274.279 222.306 275.238C222.219 276.196 222.505 277.28 223.292 277.854C223.748 278.154 224.27 278.338 224.814 278.389C227.231 278.739 229.665 278.102 232.043 277.549C238.419 276.073 244.924 275.227 251.412 274.402L262.29 273.003C263.07 272.948 263.834 272.75 264.542 272.419C266.532 271.331 266.721 268.337 265.483 266.434C264.892 265.521 264.056 264.773 263.556 263.808C263.056 262.842 263.017 261.485 263.874 260.817C265.623 259.453 265.098 256.924 265.182 254.714C265.415 248.53 265.384 242.351 265.088 236.177C264.999 234.897 264.978 233.613 265.025 232.33C265.147 230.154 265.686 228.024 266.224 225.908L269.53 212.898C268.666 211.534 267.011 210.666 265.448 210.274C263.885 209.883 262.251 209.767 260.709 209.288C257.561 208.309 254.735 205.826 251.437 206.056C251.187 206.061 250.941 206.121 250.716 206.231C249.975 206.655 250.09 207.725 250.045 208.578C249.94 210.47 248.548 212.048 247.016 213.156C245.484 214.265 243.728 215.07 242.319 216.332C242.074 216.517 241.873 216.753 241.729 217.023C241.585 217.294 241.502 217.593 241.486 217.899Z" fill="#CFCCE0"/>
<path d="M197.834 230.242C197.105 230.716 196.329 231.116 195.519 231.435C194.749 231.739 193.928 231.98 193.298 232.512C192.986 232.782 192.725 233.105 192.525 233.467C192.152 234.128 191.964 234.877 191.979 235.636C191.995 236.395 192.214 237.136 192.613 237.782C193.013 238.427 193.578 238.954 194.25 239.306C194.923 239.659 195.677 239.825 196.435 239.787C197.446 239.734 198.401 239.325 199.328 238.923L207.099 235.541C208.414 234.971 209.834 234.306 210.457 233.012C210.528 232.891 210.555 232.749 210.534 232.61C210.474 232.457 210.359 232.333 210.212 232.26C208.461 231.121 206.929 229.675 205.69 227.993C205.371 227.559 204.99 226.538 204.529 226.276C202.885 225.363 199.153 229.388 197.834 230.242Z" fill="#FFB6B6"/>
<path d="M280.908 227.496L283.772 230.77C284.388 231.469 285.003 232.169 285.563 232.924C286.94 234.821 288.044 236.901 288.844 239.105C289.466 240.738 289.984 242.48 289.767 244.214C289.622 245.104 289.381 245.975 289.05 246.813C288.525 248.424 287.874 249.991 287.102 251.5C286.457 252.644 285.729 253.74 284.923 254.777C282.704 257.717 280.277 260.493 277.659 263.084C276.679 264.052 276.26 265.623 275.843 266.931C275.056 269.348 273.185 271.233 271.377 273.017C270.795 273.631 270.152 274.185 269.457 274.667C268.416 275.339 267.198 275.685 265.959 275.661C265.419 275.664 264.884 275.553 264.389 275.335C263.151 274.748 262.521 273.317 262.392 271.953C262.278 270.714 262.485 269.466 262.993 268.33C264.637 264.689 268.859 263.112 271.842 260.453C273.591 258.897 274.931 256.938 276.253 255.004C277.148 253.795 277.896 252.484 278.481 251.098C279.145 249.317 278.886 247.212 279.47 245.407C279.715 244.641 280.17 243.952 280.418 243.193C280.666 242.434 280.75 241.535 280.285 240.881C279.937 240.463 279.491 240.137 278.988 239.93C277.082 238.965 274.948 237.719 274.584 235.61C274.439 234.443 274.744 233.263 275.438 232.312C276.128 231.374 276.935 230.527 277.84 229.794C278.669 229.046 280.072 228.217 280.908 227.496Z" fill="#FFB6B6"/>
<path d="M195.995 234.81C195.491 233.788 194.858 232.746 193.837 232.239C193.34 232.024 192.804 231.914 192.263 231.914C191.722 231.914 191.186 232.024 190.689 232.239C189.7 232.667 188.772 233.227 187.933 233.904L185.464 235.726C184.904 236.093 184.409 236.551 183.999 237.079C183.607 237.721 183.348 238.435 183.236 239.178C182.886 240.881 182.603 242.633 182.848 244.358C183.24 247.156 184.918 249.576 186.765 251.703C187.919 253.025 189.346 254.361 191.102 254.42C191.861 254.445 192.704 254.144 193.019 253.455C193.128 253.181 193.186 252.889 193.19 252.594C193.379 249.489 192.267 246.456 190.973 243.627C190.623 242.857 190.245 242.06 190.273 241.217C190.262 241.074 190.299 240.931 190.378 240.811C190.489 240.695 190.638 240.622 190.798 240.605C192.571 240.255 195.628 241.633 196.869 239.664C197.674 238.363 196.569 235.967 195.995 234.81Z" fill="#FFC0C6"/>
<path d="M232.49 189.335C232.468 189.08 232.507 188.824 232.602 188.586C232.886 188.083 233.627 188.237 234.187 188.362C236.436 188.929 238.807 188.415 241.126 188.548C243.445 188.681 246.05 189.838 246.519 192.112C248.2 190.919 249.649 189.431 250.796 187.719C251.44 186.754 252 185.652 251.912 184.498C251.786 182.833 250.387 181.588 249.114 180.535L245.267 177.387C244.761 176.922 244.177 176.551 243.543 176.289C242.651 175.985 241.682 176.132 240.744 176.132C237.946 176.132 234.946 174.855 232.452 176.132C231.403 176.667 230.623 177.587 229.867 178.482L226.426 182.553C226.167 182.813 225.978 183.134 225.876 183.487C225.779 183.984 226.034 184.473 226.125 184.973C226.286 185.883 225.894 186.855 226.195 187.726C226.695 189.177 228.458 189.384 229.535 190.216C229.934 190.524 230.563 191.577 231.042 191.563C231.871 191.545 232.459 190.006 232.49 189.335Z" fill="#3F3D56"/>
<path d="M209.093 219.525C208.649 219.814 208.259 220.177 207.939 220.599C207.537 221.211 207.453 221.998 207.107 222.628C206.365 224.006 204.627 224.499 203.546 225.628C203.371 225.783 203.249 225.988 203.197 226.216C203.19 226.524 203.293 226.824 203.487 227.062L208.712 235.275C210.461 235.429 212.119 234.337 213.861 234.484C214.508 234.537 215.176 234.76 215.798 234.568C216.243 234.37 216.66 234.115 217.04 233.809C218.089 233.152 219.46 233.075 220.331 232.211C221.202 231.347 221.275 230.077 221.265 228.899C221.28 227.876 221.176 226.854 220.954 225.856C220.184 222.708 217.774 220.281 216.263 217.49C215.525 216.129 215.127 215.335 213.57 216.269C212.014 217.203 210.566 218.448 209.093 219.525Z" fill="#CFCCE0"/>
<path d="M272.542 215.374C273.524 216.011 274.41 216.786 275.172 217.675C275.966 218.7 276.417 219.959 277.183 221.008C277.949 222.057 278.932 222.813 279.772 223.75C281.048 225.17 281.912 226.898 282.758 228.615C280.686 231.311 278.429 233.859 276.001 236.24C275.73 236.558 275.373 236.792 274.973 236.911C274.701 236.941 274.427 236.902 274.174 236.799C273.922 236.695 273.698 236.531 273.525 236.32C273.147 235.929 272.881 235.439 272.521 235.03C271.672 234.154 270.541 233.608 269.328 233.487C268.125 233.37 266.914 233.353 265.708 233.435C265.443 233.466 265.175 233.421 264.935 233.305C264.756 233.183 264.612 233.017 264.515 232.823C263.116 230.417 263.553 227.395 264.054 224.646L265.197 218.35C265.364 217.148 265.685 215.973 266.152 214.853C266.586 213.926 267.551 212.352 268.747 212.632C269.943 212.911 271.531 214.646 272.542 215.374Z" fill="#CFCCE0"/>
<path d="M172.803 261.524L148.708 266.452L148.159 266.399L126.985 264.262V237.429L152.906 233.047L171.708 235.24L171.715 235.359V235.415L172.803 261.524Z" fill="#4CA734"/>
<path opacity="0.1" d="M172.802 261.524L148.707 266.452L148.158 266.399V238.891L171.714 235.359L172.802 261.524Z" fill="black"/>
<path opacity="0.05" d="M171.715 235.415L171.708 235.422L148.159 238.891L126.985 237.429L152.906 233.047L171.708 235.24L171.715 235.359V235.415Z" fill="black"/>
<path d="M185.395 234.942L161.3 239.874L160.751 239.818L139.577 237.681V210.848L165.497 206.465L184.3 208.658L184.307 208.777V208.833L185.395 234.942Z" fill="#7E7E83"/>
<path opacity="0.1" d="M185.395 234.942L161.3 239.874L160.751 239.818V212.31L184.307 208.777L185.395 234.942Z" fill="black"/>
<path opacity="0.05" d="M184.307 208.833L184.3 208.84L160.751 212.31L139.577 210.848L165.497 206.465L184.3 208.658L184.307 208.777V208.833Z" fill="black"/>
<path d="M176.122 775.667C175.189 775.667 174.354 775.457 173.616 775.037C172.888 774.617 172.319 774.024 171.908 773.259C171.498 772.484 171.292 771.588 171.292 770.571C171.292 769.553 171.498 768.662 171.908 767.897C172.319 767.122 172.888 766.525 173.616 766.105C174.354 765.685 175.189 765.475 176.122 765.475C177.056 765.475 177.886 765.685 178.614 766.105C179.352 766.525 179.926 767.122 180.336 767.897C180.747 768.662 180.952 769.553 180.952 770.571C180.952 771.588 180.747 772.484 180.336 773.259C179.926 774.024 179.352 774.617 178.614 775.037C177.886 775.457 177.056 775.667 176.122 775.667ZM176.122 774.379C176.85 774.379 177.471 774.215 177.984 773.889C178.498 773.553 178.88 773.1 179.132 772.531C179.394 771.952 179.524 771.299 179.524 770.571C179.524 769.843 179.394 769.194 179.132 768.625C178.88 768.046 178.498 767.593 177.984 767.267C177.471 766.931 176.85 766.763 176.122 766.763C175.394 766.763 174.774 766.931 174.26 767.267C173.747 767.593 173.36 768.046 173.098 768.625C172.846 769.194 172.72 769.843 172.72 770.571C172.72 771.299 172.846 771.952 173.098 772.531C173.36 773.1 173.747 773.553 174.26 773.889C174.774 774.215 175.394 774.379 176.122 774.379ZM190.572 768.471C192.327 768.471 193.204 769.455 193.204 771.425V775.471H191.944V771.439C191.944 770.795 191.818 770.328 191.566 770.039C191.314 769.74 190.903 769.591 190.334 769.591C189.121 769.591 188.514 770.225 188.514 771.495V775.471H187.254V771.691C187.254 770.907 187.114 770.361 186.834 770.053C186.563 769.745 186.167 769.591 185.644 769.591C185.233 769.591 184.869 769.665 184.552 769.815C184.235 769.964 183.992 770.188 183.824 770.487V775.471H182.564V768.611H183.544L183.684 769.339C184.029 769.031 184.375 768.811 184.72 768.681C185.075 768.541 185.453 768.471 185.854 768.471C186.899 768.471 187.637 768.928 188.066 769.843C188.542 768.928 189.377 768.471 190.572 768.471ZM195.142 765.671H196.402V767.071H195.142V765.671ZM195.142 768.611H196.402V775.471H195.142V768.611ZM200.774 775.611C200.168 775.611 199.715 775.452 199.416 775.135C199.127 774.817 198.982 774.43 198.982 773.973V769.591H197.806L197.918 768.611H198.982V766.917L200.242 766.791V768.611H202.048V769.591H200.242V773.203C200.242 773.679 200.27 774.005 200.326 774.183C200.382 774.36 200.499 774.477 200.676 774.533C200.863 774.579 201.199 774.603 201.684 774.603H202.006L201.908 775.611H200.774ZM203.425 765.671H204.685V767.071H203.425V765.671ZM203.425 768.611H204.685V775.471H203.425V768.611ZM206.692 768.611H207.728L207.882 769.745C208.237 769.306 208.573 768.984 208.89 768.779C209.217 768.573 209.557 768.471 209.912 768.471C210.024 768.471 210.131 768.485 210.234 768.513L210.108 769.899C209.987 769.871 209.847 769.857 209.688 769.857C209.343 769.857 209.016 769.936 208.708 770.095C208.4 770.244 208.176 770.421 208.036 770.627V775.471H206.692V768.611Z" fill="black"/>
<circle r="3.5" transform="matrix(-1 0 0 1 169.5 818.971)" fill="#C4C4C4"/>
<circle r="3.5" transform="matrix(-1 0 0 1 193.5 818.971)" fill="#C4C4C4"/>
<circle cx="220" cy="819.471" r="6" fill="#C4C4C4"/>
<rect x="107" y="845.471" width="180" height="49" rx="4" fill="#4CA734"/>
<path d="M170.868 866.071H176.244V867.559H172.44V869.347H175.392V870.835H172.44V872.983H176.364V874.471H170.868V866.071ZM184.936 874.471L184.216 868.843L182.068 872.707L179.908 868.855L179.188 874.471H177.592L178.756 866.071H180.016L182.068 869.899L184.108 866.071H185.368L186.532 874.471H184.936ZM188.226 866.071H191.214C193.206 866.071 194.202 866.975 194.202 868.783C194.202 869.719 193.95 870.415 193.446 870.871C192.942 871.327 192.21 871.555 191.25 871.555H189.762V874.471H188.226V866.071ZM191.07 870.271C191.598 870.271 191.99 870.151 192.246 869.911C192.51 869.671 192.642 869.303 192.642 868.807C192.642 868.311 192.51 867.947 192.246 867.715C191.982 867.475 191.578 867.355 191.034 867.355H189.762V870.271H191.07ZM195.674 866.071H201.05V867.559H197.246V869.347H200.198V870.835H197.246V872.983H201.17V874.471H195.674V866.071ZM204.342 873.103H208.302V874.471H201.966L205.986 867.439H202.506V866.071H208.362L204.342 873.103ZM214.025 872.479H210.965L210.269 874.471H208.781L211.769 866.071H213.221L216.209 874.471H214.721L214.025 872.479ZM213.545 871.135L212.501 868.135L211.445 871.135H213.545ZM217.469 866.071H220.541C221.437 866.071 222.141 866.287 222.653 866.719C223.173 867.143 223.433 867.775 223.433 868.615C223.433 869.199 223.309 869.679 223.061 870.055C222.813 870.423 222.461 870.719 222.005 870.943L223.901 874.471H222.185L220.565 871.351H220.505H219.005V874.471H217.469V866.071ZM220.133 870.067C221.261 870.067 221.825 869.611 221.825 868.699C221.825 868.259 221.697 867.927 221.441 867.703C221.185 867.471 220.769 867.355 220.193 867.355H219.005V870.067H220.133Z" fill="white"/>
</svg>
