<svg width="13" height="16" viewBox="0 0 13 16" fill="none" xmlns="http://www.w3.org/2000/svg">
<path d="M8.37359 0.615929C8.30234 0.543488 8.20466 0.5 8.10341 0.5H2.0418C0.923273 0.5 0 1.38772 0 2.46735V13.5325C0 14.6123 0.923273 15.5 2.0418 15.5H10.269C11.3875 15.5 12.3108 14.6123 12.3108 13.5325V4.74633C12.3108 4.65215 12.2657 4.56162 12.2019 4.49273L8.37359 0.615929ZM8.48242 1.77899L11.046 4.3768H9.37949C8.88407 4.3768 8.48242 3.99274 8.48242 3.51449V1.77899ZM10.269 14.7754H2.0418C1.33998 14.7754 0.750663 14.2138 0.750663 13.5325V2.46735C0.750663 1.78986 1.33618 1.22464 2.0418 1.22464H7.73176V3.51449C7.73176 4.39488 8.46748 5.10144 9.37949 5.10144H11.5601V13.5325C11.5601 14.2138 10.9746 14.7754 10.269 14.7754Z" fill="#4CA734"/>
<path d="M9.24465 12.2754H3.06674C2.86034 12.2754 2.69141 12.4384 2.69141 12.6377C2.69141 12.837 2.86034 13 3.06674 13H9.24844C9.45484 13 9.62378 12.837 9.62378 12.6377C9.62378 12.4384 9.45484 12.2754 9.24465 12.2754Z" fill="#4CA734"/>
<path d="M4.23324 8.37695L5.77962 6.7718V10.7284C5.77962 10.9276 5.94855 11.0907 6.15495 11.0907C6.36147 11.0907 6.53028 10.9276 6.53028 10.7284V6.7718L8.07666 8.37695C8.1517 8.45293 8.24939 8.49287 8.35063 8.49287C8.44073 8.49287 8.53462 8.46026 8.60587 8.39503C8.75607 8.25735 8.76733 8.02905 8.62472 7.88416L6.42525 5.60519C6.35388 5.53275 6.25631 5.48926 6.15128 5.48926C6.04612 5.48926 5.94855 5.53275 5.8773 5.60519L3.67783 7.88416C3.53522 8.02905 3.54648 8.2609 3.69656 8.39503C3.85424 8.5327 4.09063 8.52183 4.23324 8.37695Z" fill="#4CA734"/>
</svg>
