<svg width="21" height="20" viewBox="0 0 21 20" fill="none" xmlns="http://www.w3.org/2000/svg">
<path d="M1.12105 7.35828L10.0603 10.7932L13.9231 19.7355C13.9922 19.8951 14.1497 19.9977 14.3223 19.9977C14.3297 19.9977 14.3366 19.9977 14.344 19.9973C14.5254 19.9881 14.6815 19.8677 14.7367 19.695L20.8246 0.561541C20.8312 0.541538 20.8299 0.5211 20.8333 0.501097C20.8368 0.481094 20.8412 0.46196 20.8416 0.441087C20.8429 0.398472 20.8364 0.357596 20.8255 0.317154C20.8229 0.308022 20.8251 0.298456 20.822 0.289324C20.8216 0.287584 20.8199 0.28628 20.8194 0.28454C20.8016 0.234532 20.7746 0.188438 20.7398 0.147562C20.7285 0.134081 20.7137 0.125384 20.7011 0.113643C20.6803 0.0945099 20.662 0.0732021 20.6368 0.0579823C20.6307 0.0545035 20.6237 0.0536337 20.6176 0.0505898C20.5994 0.0405882 20.5802 0.0353699 20.5607 0.0279775C20.5302 0.0166713 20.5002 0.00710455 20.4685 0.00275602C20.4485 0.000146908 20.4289 -0.000287944 20.408 0.000146909C20.3733 0.000581761 20.3398 0.00493029 20.3059 0.0136273C20.2941 0.0166713 20.2824 0.0140622 20.2706 0.0179759L1.13714 6.54076C0.9632 6.59947 0.845355 6.7608 0.841876 6.94387C0.838397 7.12694 0.949719 7.29262 1.12105 7.35828ZM14.2601 18.3231L10.9031 10.5514L19.4535 2.00047L14.2601 18.3231ZM18.7804 1.44429L10.2795 9.94522L2.55302 6.97648L18.7804 1.44429Z" fill="#4CA734"/>
<path d="M1.27627 19.9978C1.38759 19.9978 1.49891 19.9552 1.58371 19.8704L7.67164 13.7824C7.84167 13.6124 7.84167 13.3376 7.67164 13.1676C7.50162 12.9975 7.22679 12.9975 7.05676 13.1676L0.968829 19.2555C0.798802 19.4255 0.798802 19.7004 0.968829 19.8704C1.05363 19.9552 1.16495 19.9978 1.27627 19.9978Z" fill="#4CA734"/>
<path d="M8.79599 16.2115L5.75203 19.2555C5.582 19.4255 5.582 19.7003 5.75203 19.8703C5.83683 19.9551 5.94815 19.9978 6.05947 19.9978C6.17079 19.9978 6.28212 19.9551 6.36691 19.8703L9.41087 16.8264C9.5809 16.6564 9.5809 16.3815 9.41087 16.2115C9.24084 16.0415 8.96602 16.0415 8.79599 16.2115Z" fill="#4CA734"/>
<path d="M1.27627 15.2143C1.38759 15.2143 1.49891 15.1717 1.58371 15.0869L4.62768 12.0429C4.7977 11.8729 4.7977 11.5981 4.62768 11.4281C4.45765 11.258 4.18282 11.258 4.0128 11.4281L0.968829 14.472C0.798802 14.6421 0.798802 14.9169 0.968829 15.0869C1.05363 15.1717 1.16495 15.2143 1.27627 15.2143Z" fill="#4CA734"/>
</svg>
