<svg width="24" height="20" viewBox="0 0 24 20" fill="none" xmlns="http://www.w3.org/2000/svg">
<path d="M0.863016 6.25571L2.29159 0.541429C2.37016 0.222857 2.6573 0 2.98444 0H21.5559C21.883 0 22.1702 0.222857 22.2487 0.541429L23.6773 6.25571C23.6916 6.31143 23.6987 6.37 23.6987 6.42857C23.6987 7.62571 23.1316 8.68143 22.2702 9.33V19.2857C22.2702 19.68 21.9502 20 21.5559 20H14.413C14.0187 20 13.6987 19.68 13.6987 19.2857V14.2857H10.8416V19.2857C10.8416 19.68 10.5216 20 10.1273 20H2.98444C2.59016 20 2.27016 19.68 2.27016 19.2857V9.33C1.40873 8.68143 0.841587 7.62571 0.841587 6.42857C0.841587 6.37 0.84873 6.31143 0.863016 6.25571ZM3.69873 18.5714H9.41302V13.5714C9.41302 13.1771 9.73302 12.8571 10.1273 12.8571H14.413C14.8073 12.8571 15.1273 13.1771 15.1273 13.5714V18.5714H20.8416V9.94286C20.6659 9.97286 20.4887 10 20.3059 10C19.2173 10 18.2487 9.45857 17.6273 8.61857C17.0059 9.45857 16.0373 10 14.9487 10C13.8602 10 12.8916 9.45857 12.2702 8.61857C11.6487 9.45857 10.6802 10 9.59159 10C8.50302 10 7.53444 9.45857 6.91302 8.61857C6.29159 9.45857 5.32302 10 4.23444 10C4.05159 10 3.87444 9.97286 3.69873 9.94286V18.5714ZM4.23444 8.57143C5.3173 8.57143 6.19873 7.61 6.19873 6.42857C6.19873 6.03429 6.51873 5.71429 6.91302 5.71429C7.3073 5.71429 7.6273 6.03429 7.6273 6.42857C7.6273 7.61 8.50873 8.57143 9.59159 8.57143C10.6744 8.57143 11.5559 7.61 11.5559 6.42857C11.5559 6.03429 11.8759 5.71429 12.2702 5.71429C12.6644 5.71429 12.9844 6.03429 12.9844 6.42857C12.9844 7.61 13.8659 8.57143 14.9487 8.57143C16.0316 8.57143 16.913 7.61 16.913 6.42857C16.913 6.03429 17.233 5.71429 17.6273 5.71429C18.0216 5.71429 18.3416 6.03429 18.3416 6.42857C18.3416 7.61 19.223 8.57143 20.3059 8.57143C21.363 8.57143 22.2287 7.65429 22.2687 6.51143L20.9973 1.42857H3.54159L2.27016 6.51143C2.31159 7.65429 3.1773 8.57143 4.23444 8.57143Z" fill="#4CA734"/>
</svg>
