<svg width="23" height="18" viewBox="0 0 23 18" fill="none" xmlns="http://www.w3.org/2000/svg">
<path d="M22.1094 3.04C21.6702 2.57993 21.0637 2.30806 20.3736 2.30806H16.9021V2.26624C16.9021 1.74343 16.693 1.24152 16.3375 0.906924C15.982 0.551411 15.501 0.342285 14.9782 0.342285H8.70443C8.1607 0.342285 7.67971 0.551411 7.3242 0.906924C6.96868 1.26244 6.75956 1.74343 6.75956 2.26624V2.30806H3.30899C2.61888 2.30806 2.01241 2.57993 1.57325 3.04C1.13408 3.47917 0.841309 4.10654 0.841309 4.77574V15.1902C0.841309 15.8803 1.11317 16.4868 1.57325 16.9259C2.01241 17.3651 2.63979 17.6579 3.30899 17.6579H20.3736C21.0637 17.6579 21.6702 17.386 22.1094 16.9259C22.5485 16.4868 22.8413 15.8594 22.8413 15.1902V4.77574C22.8413 4.08563 22.5694 3.47917 22.1094 3.04ZM21.7539 15.1902H21.7329C21.7329 15.5666 21.5866 15.9012 21.3356 16.1522C21.0847 16.4031 20.7501 16.5495 20.3736 16.5495H3.30899C2.93256 16.5495 2.59796 16.4031 2.34701 16.1522C2.09606 15.9012 1.94967 15.5666 1.94967 15.1902V4.77574C1.94967 4.39932 2.09606 4.06472 2.34701 3.81377C2.59796 3.56282 2.93256 3.41643 3.30899 3.41643H7.34511C7.6588 3.41643 7.90975 3.16548 7.90975 2.85179V2.24533C7.90975 2.01529 7.9934 1.80616 8.13979 1.65978C8.28618 1.51339 8.4953 1.42974 8.72534 1.42974H14.9782C15.2082 1.42974 15.4174 1.51339 15.5637 1.65978C15.7101 1.80616 15.7938 2.01529 15.7938 2.24533V2.85179C15.7938 3.16548 16.0447 3.41643 16.3584 3.41643H20.3945C20.771 3.41643 21.1056 3.56282 21.3565 3.81377C21.6075 4.06472 21.7539 4.39932 21.7539 4.77574V15.1902Z" fill="#4CA734"/>
<path d="M11.8413 4.83838C10.4192 4.83838 9.12263 5.42393 8.20248 6.34408C7.26142 7.28515 6.69678 8.56081 6.69678 9.98287C6.69678 11.4049 7.28233 12.7015 8.20248 13.6216C9.14355 14.5627 10.4192 15.1274 11.8413 15.1274C13.2633 15.1274 14.5599 14.5418 15.48 13.6216C16.4211 12.6806 16.9857 11.4049 16.9857 9.98287C16.9857 8.56081 16.4002 7.26424 15.48 6.34408C14.5599 5.42393 13.2633 4.83838 11.8413 4.83838ZM14.6854 12.8479C13.9534 13.5589 12.9496 14.019 11.8413 14.019C10.7329 14.019 9.7291 13.5589 8.99716 12.8479C8.26522 12.1159 7.82606 11.1121 7.82606 10.0038C7.82606 8.89541 8.28613 7.89161 8.99716 7.15967C9.7291 6.42773 10.7329 5.98857 11.8413 5.98857C12.9496 5.98857 13.9534 6.44865 14.6854 7.15967C15.4173 7.89161 15.8565 8.89541 15.8565 10.0038C15.8774 11.1121 15.4173 12.1159 14.6854 12.8479Z" fill="#4CA734"/>
<path d="M19.2859 6.86681C19.8519 6.86681 20.3107 6.40803 20.3107 5.8421C20.3107 5.27616 19.8519 4.81738 19.2859 4.81738C18.72 4.81738 18.2612 5.27616 18.2612 5.8421C18.2612 6.40803 18.72 6.86681 19.2859 6.86681Z" fill="#4CA734"/>
</svg>
