<svg width="18" height="17" viewBox="0 0 18 17" fill="none" xmlns="http://www.w3.org/2000/svg">
<path d="M17.0045 15.4843L12.9585 11.2762C13.9988 10.0396 14.5688 8.48359 14.5688 6.86374C14.5688 3.07913 11.4897 0 7.70505 0C3.92044 0 0.841309 3.07913 0.841309 6.86374C0.841309 10.6484 3.92044 13.7275 7.70505 13.7275C9.12585 13.7275 10.4798 13.299 11.6374 12.4854L15.7141 16.7255C15.8845 16.9024 16.1137 17 16.3593 17C16.5918 17 16.8123 16.9114 16.9798 16.7502C17.3355 16.4079 17.3468 15.8403 17.0045 15.4843ZM7.70505 1.79054C10.5025 1.79054 12.7783 4.06632 12.7783 6.86374C12.7783 9.66117 10.5025 11.9369 7.70505 11.9369C4.90763 11.9369 2.63185 9.66117 2.63185 6.86374C2.63185 4.06632 4.90763 1.79054 7.70505 1.79054Z" fill="#4CA734"/>
</svg>
