<svg width="13" height="21" viewBox="0 0 13 21" fill="none" xmlns="http://www.w3.org/2000/svg">
<path d="M8.26611 1.75H6.16611C5.87597 1.75 5.64111 1.98486 5.64111 2.275C5.64111 2.56514 5.87597 2.8 6.16611 2.8H8.26611C8.55626 2.8 8.79111 2.56514 8.79111 2.275C8.79111 1.98486 8.55626 1.75 8.26611 1.75Z" fill="#4CA734"/>
<path d="M10.5415 0H2.1415C0.983715 0 0.0415039 0.942211 0.0415039 2.1V18.9C0.0415039 20.0578 0.983715 21 2.1415 21H10.5415C11.6993 21 12.6415 20.0578 12.6415 18.9V2.1C12.6415 0.942211 11.6993 0 10.5415 0ZM11.5915 18.9C11.5915 19.48 11.1215 19.95 10.5415 19.95H2.1415C1.56154 19.95 1.0915 19.48 1.0915 18.9V2.1C1.0915 1.52004 1.56154 1.05 2.1415 1.05H10.5415C11.1215 1.05 11.5915 1.52004 11.5915 2.1V18.9Z" fill="#4CA734"/>
<path d="M6.3415 19.2499C6.9214 19.2499 7.3915 18.7798 7.3915 18.1999C7.3915 17.62 6.9214 17.1499 6.3415 17.1499C5.76161 17.1499 5.2915 17.62 5.2915 18.1999C5.2915 18.7798 5.76161 19.2499 6.3415 19.2499Z" fill="#4CA734"/>
<path d="M4.41611 2.8C4.70606 2.8 4.94111 2.56495 4.94111 2.275C4.94111 1.98505 4.70606 1.75 4.41611 1.75C4.12616 1.75 3.89111 1.98505 3.89111 2.275C3.89111 2.56495 4.12616 2.8 4.41611 2.8Z" fill="#4CA734"/>
</svg>
