<svg width="28" height="28" viewBox="0 0 28 28" fill="none" xmlns="http://www.w3.org/2000/svg">
<circle cx="14" cy="14" r="14" fill="#4CA734"/>
<path d="M15.1966 13.82C15.7379 13.9973 16.1626 14.2913 16.4706 14.702C16.7879 15.1127 16.9466 15.6167 16.9466 16.214C16.9466 17.1567 16.6292 17.8893 15.9946 18.412C15.3692 18.9347 14.5246 19.196 13.4606 19.196C12.9192 19.196 12.4059 19.1353 11.9206 19.014C11.4446 18.8927 11.0386 18.7433 10.7026 18.566L11.1366 17.054C11.9392 17.4553 12.7139 17.656 13.4606 17.656C13.9832 17.656 14.3939 17.5347 14.6926 17.292C15.0006 17.0493 15.1546 16.69 15.1546 16.214C15.1546 15.2247 14.5526 14.73 13.3486 14.73H12.3546V13.05H13.3346C13.8386 13.05 14.2212 12.938 14.4826 12.714C14.7532 12.4807 14.8886 12.154 14.8886 11.734C14.8886 11.37 14.7626 11.0807 14.5106 10.866C14.2679 10.6513 13.9179 10.544 13.4606 10.544C13.0872 10.544 12.7232 10.6 12.3686 10.712C12.0232 10.824 11.6639 10.9873 11.2906 11.202L11.0246 9.62C11.8086 9.20933 12.6812 9.004 13.6426 9.004C14.5759 9.004 15.2992 9.23733 15.8126 9.704C16.3352 10.1613 16.5966 10.7633 16.5966 11.51C16.5966 12.042 16.4752 12.5087 16.2326 12.91C15.9899 13.302 15.6446 13.6053 15.1966 13.82Z" fill="#F3F3F3"/>
</svg>
