<svg width="220" height="50" viewBox="0 0 220 50" fill="none" xmlns="http://www.w3.org/2000/svg">
<path d="M21.5 43.7001V49.9001L42.9 37.6001L37.5 34.5001L21.5 43.7001Z" fill="#4CA734"/>
<path d="M21.5 33.0001V38.2001L35.2 30.2001L30.5 27.5001L21.5 33.0001Z" fill="#4CA734"/>
<path d="M21.5 49.9001V43.7001L5.4 34.5V29L21.5 38.2001V33L0 20.3V20.5V25.9V37.6L21.5 49.9001Z" fill="#4CA734"/>
<path d="M21.5 6.2V0L0 12.4L5.4 15.5L21.5 6.2Z" fill="#4CA734"/>
<path d="M21.5002 17V11.8L10.2002 18.3L14.7002 20.9L21.5002 17Z" fill="#4CA734"/>
<path d="M21.5 0V6.2L37.5 15.5V21L21.5 11.8V17L42.9 29.6V29.5V24V12.4L21.5 0Z" fill="#4CA734"/>
<path d="M30.4998 32.9L35.1998 30.2L12.3998 17L7.7998 19.6L30.4998 32.9Z" fill="#4CA734"/>
<path d="M67.5002 30.8C67.5002 32.5 67.1002 34 66.2002 35.2C65.3002 36.4 64.1002 37.4 62.6002 38.1C61.0002 38.8 59.3002 39.1 57.2002 39.1C56.6002 39.1 55.9002 39.1 55.1002 39C54.3002 38.9 53.2002 38.7 51.8002 38.4C50.4002 38.1 49.0002 37.6 47.6002 36.9V30.2C49.0002 31 50.3002 31.8 51.6002 32.3C52.9002 32.9 54.3002 33.1 55.9002 33.1C57.3002 33.1 58.2002 32.9 58.6002 32.4C59.0002 31.9 59.2002 31.5 59.2002 31.1C59.2002 30.4 58.8002 29.8 58.1002 29.2C57.4002 28.7 56.4002 28.2 55.0002 27.6C53.5002 27 52.2002 26.3 51.1002 25.6C50.0002 24.9 49.1002 23.9 48.3002 22.8C47.6002 21.7 47.2002 20.4 47.2002 18.9C47.2002 17.4 47.6002 16.1 48.3002 14.9C49.0002 13.7 50.1002 12.8 51.6002 12.1C53.1002 11.4 54.9002 11 57.0002 11C58.5002 11 59.9002 11.1 61.2002 11.4C62.5002 11.7 63.5002 12 64.4002 12.4C65.2002 12.8 65.8002 13.1 66.1002 13.3V19.7C65.0002 18.9 63.8002 18.2 62.4002 17.6C61.0002 17 59.6002 16.7 58.0002 16.7C57.0002 16.7 56.2002 16.9 55.8002 17.3C55.3002 17.7 55.1002 18.2 55.1002 18.8C55.1002 19.3 55.3002 19.8 55.8002 20.2C56.3002 20.6 57.1002 21.1 58.2002 21.6C60.3002 22.6 62.0002 23.5 63.2002 24.2C64.5002 25 65.4002 25.9 66.1002 26.9C67.1002 28 67.5002 29.3 67.5002 30.8Z" fill="#222222"/>
<path d="M91.2003 38.7H84.1003V28.4C84.1003 28.3 84.1003 28.2 84.1003 28.2C84.1003 28.1 84.1003 28 84.1003 27.7C84.1003 26.7 83.9003 25.9 83.5003 25.1C83.1003 24.3 82.3003 23.9 81.2003 23.9C80.3003 23.9 79.5003 24.2 78.8003 24.8C78.1003 25.4 77.5003 26.1 76.9003 27V38.7H69.8003V11.6H76.9003V21.7C78.1003 20.5 79.2003 19.6 80.3003 19.2C81.4003 18.7 82.6003 18.5 83.9003 18.5C88.7003 18.5 91.1003 21.2 91.1003 26.6V38.7H91.2003Z" fill="#222222"/>
<path d="M100.8 38.7H93.7002V18.7H100.8V38.7ZM100.3 14.2C100.3 15 100 15.7 99.4002 16.3C98.8002 16.9 98.1002 17.2 97.3002 17.2C96.8002 17.2 96.3002 17.1 95.8002 16.8C95.3002 16.5 95.0002 16.2 94.7002 15.7C94.4002 15.2 94.3002 14.7 94.3002 14.2C94.3002 13.4 94.6002 12.7 95.2002 12.1C95.8002 11.5 96.5002 11.2 97.3002 11.2C98.1002 11.2 98.8002 11.5 99.4002 12.1C100 12.7 100.3 13.3 100.3 14.2Z" fill="#222222"/>
<path d="M125.6 28.6C125.6 29.9 125.4 31.2 125 32.5C124.6 33.7 124 34.9 123.3 35.9C122.5 36.9 121.5 37.7 120.3 38.3C119.1 38.9 117.7 39.2 116 39.2C114.7 39.2 113.7 39.1 112.9 38.8C112.1 38.5 111.4 38.2 110.7 37.7V47.9H103.6V18.9H110.7V20.7C111.4 20.1 112.2 19.6 113 19.2C113.9 18.8 115 18.6 116.5 18.6C118 18.6 119.4 19 120.8 19.7C122.2 20.4 123.3 21.5 124.2 23.1C125.2 24.4 125.6 26.3 125.6 28.6ZM118.2 28.8C118.2 27.6 118 26.6 117.6 25.9C117.2 25.1 116.7 24.6 116.1 24.3C115.5 24 114.9 23.8 114.2 23.8C113.4 23.8 112.7 23.9 112.1 24.2C111.6 24.5 111.1 24.8 110.6 25.2V32.8C110.8 32.9 111.1 33.1 111.4 33.2C111.7 33.4 112 33.5 112.2 33.6C112.5 33.7 112.8 33.8 113.1 33.9C113.4 34 113.8 34 114.1 34C115.2 34 116.1 33.5 116.9 32.6C117.8 31.7 118.2 30.4 118.2 28.8Z" fill="#222222"/>
<path d="M173.1 31C173.1 33.3 172.3 35.2 170.7 36.6C169.1 38 166.9 38.7 164 38.7H148.3V11.6H161.4C163.1 11.6 164.6 11.8 165.8 12.1C167.1 12.4 168.1 12.9 168.8 13.4C169.6 14 170.1 14.6 170.5 15.4C170.9 16.2 171.1 17 171.1 17.9C171.1 18.9 170.9 19.8 170.5 20.7C170.1 21.5 169.6 22.2 169 22.8C168.4 23.3 167.8 23.7 167.2 23.9C169.1 24.6 170.5 25.6 171.4 26.7C172.6 27.8 173.1 29.2 173.1 31ZM163.5 19.4C163.5 18.1 163.1 17.2 162.2 16.8C161.3 16.4 160 16.2 158.2 16.2H156.5V22.7H158.3C160.2 22.7 161.5 22.5 162.3 22.1C163.1 21.5 163.5 20.7 163.5 19.4ZM164.9 30.7C164.9 28.4 163.2 27.2 159.8 27.2H156.5V34.2H159.8C163.2 34.2 164.9 33 164.9 30.7Z" fill="#222222"/>
<path d="M197.2 28.7C197.2 30.7 196.8 32.5 195.9 34C195 35.6 193.7 36.8 192 37.7C190.3 38.6 188.2 39.1 185.7 39.1C183.2 39.1 181.1 38.6 179.4 37.7C177.7 36.8 176.4 35.6 175.5 34C174.6 32.4 174.2 30.7 174.2 28.7C174.2 27.2 174.4 25.8 174.9 24.6C175.4 23.4 176.1 22.3 177.1 21.3C178.1 20.4 179.3 19.6 180.7 19.1C182.1 18.6 183.8 18.3 185.6 18.3C187.5 18.3 189.1 18.6 190.6 19.1C192 19.6 193.2 20.3 194.2 21.3C195.1 22.2 195.9 23.3 196.3 24.6C197 25.8 197.2 27.2 197.2 28.7ZM189.8 28.7C189.8 27.1 189.5 25.9 188.8 25C188.1 24.1 187.1 23.7 185.8 23.7C184.5 23.7 183.5 24.1 182.8 25C182.1 25.9 181.8 27.1 181.8 28.7C181.8 30.3 182.1 31.5 182.8 32.4C183.5 33.3 184.5 33.8 185.8 33.8C187.1 33.8 188.1 33.3 188.8 32.4C189.5 31.5 189.8 30.3 189.8 28.7Z" fill="#222222"/>
<path d="M220 38.7H211.3L207.4 33L203.6 38.7H195.9L203.6 28.9L195.7 18.7H204.4L208.1 24.1L211.8 18.7H219.5L212 28.2L220 38.7Z" fill="#222222"/>
<path d="M148.8 38.5H141.2L139.8 37C138.9 37.6 137.8 38.1 136.6 38.4C135.4 38.7 134.2 38.8 133 38.8C130.5 38.8 128.5 38.2 127.2 37.1C125.9 36 125.2 34.6 125.2 33.1C125.2 32 125.5 31 126.2 30.1C126.9 29.2 128.2 28.1 130.1 26.8C129.5 26.2 129.1 25.7 128.7 25.1C128.3 24.6 128.1 24 127.9 23.5C127.7 23 127.6 22.4 127.6 21.9C127.6 20.8 127.9 19.8 128.5 18.9C129.1 18 130 17.2 131.1 16.7C132.3 16.1 133.6 15.9 135.2 15.9C136.3 15.9 137.4 16.1 138.3 16.4C139.2 16.8 139.9 17.2 140.5 17.8C141.1 18.4 141.5 18.9 141.8 19.6C142.1 20.2 142.2 20.8 142.2 21.4C142.2 22.5 141.8 23.6 141 24.6C140.2 25.6 139.2 26.4 137.8 27.1L140.8 30.3C141.7 29.5 142.6 28.4 143.3 27.1H148.7C147.3 29.7 145.7 31.9 143.9 33.5L148.8 38.5ZM136.8 33.9L132.9 29.8C131.5 30.7 130.8 31.6 130.8 32.5C130.8 33 131.1 33.6 131.6 34.1C132.1 34.6 132.8 34.9 133.8 34.9C134.9 34.9 135.9 34.6 136.8 33.9ZM137.7 21.5C137.7 21.2 137.6 20.9 137.5 20.6C137.3 20.3 137.1 20 136.7 19.9C136.3 19.7 135.9 19.6 135.4 19.6C134.7 19.6 134.1 19.8 133.7 20.2C133.3 20.6 133.2 21 133.2 21.4C133.2 21.7 133.3 22 133.5 22.3C133.7 22.6 134 22.9 134.3 23.3C134.6 23.7 135 24 135.3 24.3C136.9 23.6 137.7 22.7 137.7 21.5Z" fill="#4CA734"/>
</svg>
