<svg width="27" height="19" viewBox="0 0 27 19" fill="none" xmlns="http://www.w3.org/2000/svg">
<path fill-rule="evenodd" clip-rule="evenodd" d="M18.4498 0.714421C19.2602 0.714421 19.9171 1.35414 19.9171 2.14326V4.127H13.6826C10.9212 4.127 8.68261 6.36558 8.68261 9.127V10.6826C8.68261 10.8938 8.69572 11.1021 8.72116 11.3065H7.3061L7.20351 11.4995C6.94837 11.9794 6.46351 12.7479 6.04852 13.2702C6.02257 13.3028 5.99713 13.3342 5.97226 13.3642C6.03979 12.9119 6.13052 12.2302 6.01684 11.6017L5.96344 11.3065H3.04237C2.23196 11.3065 1.57499 10.6668 1.57499 9.87764V2.14326C1.57499 1.35413 2.23196 0.714421 3.04237 0.714421H18.4498ZM8.86374 12.0209H7.74916C7.46356 12.5272 7.02206 13.2125 6.62877 13.7074C6.51647 13.8487 6.40439 13.9792 6.29781 14.0876C6.1957 14.1915 6.08083 14.2937 5.96229 14.3599C5.86919 14.4119 5.61063 14.5284 5.37701 14.3449C5.27652 14.266 5.22979 14.1629 5.20701 14.0841C5.18381 14.004 5.17675 13.9199 5.17675 13.8406C5.17675 13.7217 5.20261 13.5505 5.22753 13.3856L5.23145 13.3596C5.28937 12.9754 5.36113 12.4855 5.32992 12.0209H3.04237C1.82676 12.0209 0.841309 11.0613 0.841309 9.87764V2.14326C0.841309 0.959571 1.82676 0 3.04237 0H18.4498C19.6654 0 20.6508 0.959572 20.6508 2.14326V4.127H21.8413C24.6028 4.127 26.8413 6.36557 26.8413 9.127V10.6826C26.8413 13.1796 25.0109 15.2491 22.6186 15.6225C22.4964 16.2611 22.5983 16.9865 22.666 17.4688L22.666 17.4689C22.6929 17.6602 22.7144 17.8133 22.7144 17.9075C22.7144 18.9009 21.3263 16.6966 20.8242 15.6826H13.6826C11.3847 15.6826 9.44892 14.1325 8.86374 12.0209ZM5.58611 13.7458C5.58605 13.746 5.5878 13.7452 5.59158 13.7433L5.58728 13.7452L5.58611 13.7458ZM15.6986 9.90482C15.6986 10.3607 15.329 10.7302 14.8732 10.7302C14.4173 10.7302 14.0478 10.3607 14.0478 9.90482C14.0478 9.44897 14.4173 9.07942 14.8732 9.07942C15.329 9.07942 15.6986 9.44897 15.6986 9.90482ZM18.5874 9.90485C18.5874 10.3607 18.2179 10.7303 17.762 10.7303C17.3062 10.7303 16.9366 10.3607 16.9366 9.90485C16.9366 9.449 17.3062 9.07946 17.762 9.07946C18.2179 9.07946 18.5874 9.449 18.5874 9.90485ZM20.651 10.7303C21.1068 10.7303 21.4764 10.3607 21.4764 9.90485C21.4764 9.449 21.1068 9.07946 20.651 9.07946C20.1951 9.07946 19.8256 9.449 19.8256 9.90485C19.8256 10.3607 20.1951 10.7303 20.651 10.7303Z" fill="#4CA734"/>
</svg>
