<svg width="24" height="21" viewBox="0 0 24 21" fill="none" xmlns="http://www.w3.org/2000/svg">
<path d="M13.0151 0H12.3413H0.841309V20.2148C2.02487 20.2148 22.6585 20.2148 23.8413 20.2148V0H13.0151ZM2.18896 18.8672V17.5195H9.3669L10.7146 18.8672H2.18896ZM11.6675 17.9143L9.9251 16.1719H2.18896V1.34766H11.6675V17.9143ZM22.4937 18.8672H13.9681L15.3157 17.5195H22.4937V18.8672ZM22.4937 16.1719H14.7575L13.0151 17.9143V1.34766H22.4937V16.1719Z" fill="#4CA734"/>
<path d="M3.53662 5.39062V12.1289H10.3198V5.39062H3.53662ZM8.97217 10.7812H4.88428V6.73828H8.97217V10.7812Z" fill="#4CA734"/>
<path d="M21.146 4.04297H14.3628V5.39062H21.146V4.04297Z" fill="#4CA734"/>
<path d="M21.146 8.08594H14.3628V9.43359H21.146V8.08594Z" fill="#4CA734"/>
<path d="M21.146 12.1289H14.3628V13.4766H21.146V12.1289Z" fill="#4CA734"/>
</svg>
