<svg width="21" height="20" viewBox="0 0 21 20" fill="none" xmlns="http://www.w3.org/2000/svg">
<mask id="path-1-inside-1" fill="white">
<path d="M16.6331 12.3892C16.2236 11.9628 15.7297 11.7349 15.2063 11.7349C14.6871 11.7349 14.189 11.9586 13.7627 12.385L12.4288 13.7146C12.3191 13.6555 12.2093 13.6006 12.1038 13.5458C11.9518 13.4698 11.8083 13.398 11.6859 13.3221C10.4364 12.5285 9.30095 11.4943 8.2119 10.1562C7.68426 9.48926 7.32968 8.92785 7.07219 8.358C7.41832 8.04141 7.73913 7.71216 8.05149 7.39558C8.16969 7.27739 8.28788 7.15497 8.40607 7.03678C9.29251 6.15034 9.29251 5.00219 8.40607 4.11576L7.2537 2.96338C7.12284 2.83253 6.98777 2.69745 6.86113 2.56238C6.60787 2.30067 6.34193 2.03051 6.06756 1.77725C5.65811 1.37202 5.16846 1.15674 4.65348 1.15674C4.1385 1.15674 3.64041 1.37202 3.21829 1.77725C3.21407 1.78147 3.21407 1.78147 3.20985 1.78569L1.77466 3.23354C1.23436 3.77384 0.926216 4.43234 0.858678 5.19637C0.757371 6.42894 1.12039 7.57709 1.39898 8.32845C2.08281 10.1731 3.10432 11.8826 4.62815 13.7146C6.47701 15.9223 8.70155 17.6656 11.2427 18.894C12.2135 19.3541 13.5094 19.8986 14.9573 19.9915C15.0459 19.9957 15.1388 19.9999 15.2232 19.9999C16.1983 19.9999 17.0172 19.6495 17.6588 18.9531C17.663 18.9446 17.6715 18.9404 17.6757 18.9319C17.8952 18.666 18.1485 18.4254 18.4144 18.1679C18.5959 17.9949 18.7816 17.8133 18.9631 17.6234C19.381 17.1886 19.6005 16.6821 19.6005 16.1629C19.6005 15.6395 19.3768 15.1371 18.9505 14.715L16.6331 12.3892ZM18.1442 16.834C18.14 16.834 18.14 16.8383 18.1442 16.834C17.9796 17.0113 17.8108 17.1717 17.6293 17.349C17.3549 17.6107 17.0763 17.8851 16.8146 18.1932C16.3882 18.6491 15.8859 18.8644 15.2274 18.8644C15.1641 18.8644 15.0966 18.8644 15.0333 18.8602C13.7796 18.78 12.6145 18.2903 11.7408 17.8724C9.3516 16.7158 7.2537 15.0738 5.51037 12.9928C4.07096 11.2579 3.10854 9.65389 2.47115 7.93166C2.07859 6.8806 1.93507 6.0617 1.99838 5.28923C2.0406 4.79536 2.23055 4.38591 2.5809 4.03555L4.02031 2.59615C4.22714 2.40197 4.44664 2.29645 4.66192 2.29645C4.92785 2.29645 5.14313 2.45685 5.27821 2.59192C5.28243 2.59615 5.28665 2.60037 5.29087 2.60459C5.54836 2.84519 5.79319 3.09424 6.05068 3.36017C6.18153 3.49525 6.31661 3.63032 6.45168 3.76962L7.60405 4.92199C8.05149 5.36943 8.05149 5.7831 7.60405 6.23054C7.48164 6.35296 7.36345 6.47537 7.24104 6.59356C6.88646 6.95658 6.54877 7.29427 6.18153 7.62352C6.17309 7.63196 6.16465 7.63618 6.16043 7.64463C5.79741 8.00764 5.86495 8.36222 5.94093 8.60282C5.94515 8.61549 5.94937 8.62815 5.95359 8.64081C6.25329 9.36685 6.6754 10.0507 7.31702 10.8654L7.32124 10.8696C8.48627 12.3048 9.71462 13.4234 11.0696 14.2803C11.2427 14.39 11.42 14.4786 11.5888 14.5631C11.7408 14.639 11.8843 14.7108 12.0067 14.7868C12.0236 14.7952 12.0405 14.8079 12.0574 14.8163C12.2009 14.8881 12.3359 14.9219 12.4752 14.9219C12.8256 14.9219 13.0451 14.7024 13.1169 14.6306L14.5605 13.187C14.704 13.0435 14.9319 12.8704 15.1979 12.8704C15.4596 12.8704 15.6749 13.035 15.8057 13.1785C15.8099 13.1828 15.8099 13.1828 15.8142 13.187L18.14 15.5128C18.5748 15.9434 18.5748 16.3866 18.1442 16.834Z"/>
</mask>
<path d="M16.6331 12.3892C16.2236 11.9628 15.7297 11.7349 15.2063 11.7349C14.6871 11.7349 14.189 11.9586 13.7627 12.385L12.4288 13.7146C12.3191 13.6555 12.2093 13.6006 12.1038 13.5458C11.9518 13.4698 11.8083 13.398 11.6859 13.3221C10.4364 12.5285 9.30095 11.4943 8.2119 10.1562C7.68426 9.48926 7.32968 8.92785 7.07219 8.358C7.41832 8.04141 7.73913 7.71216 8.05149 7.39558C8.16969 7.27739 8.28788 7.15497 8.40607 7.03678C9.29251 6.15034 9.29251 5.00219 8.40607 4.11576L7.2537 2.96338C7.12284 2.83253 6.98777 2.69745 6.86113 2.56238C6.60787 2.30067 6.34193 2.03051 6.06756 1.77725C5.65811 1.37202 5.16846 1.15674 4.65348 1.15674C4.1385 1.15674 3.64041 1.37202 3.21829 1.77725C3.21407 1.78147 3.21407 1.78147 3.20985 1.78569L1.77466 3.23354C1.23436 3.77384 0.926216 4.43234 0.858678 5.19637C0.757371 6.42894 1.12039 7.57709 1.39898 8.32845C2.08281 10.1731 3.10432 11.8826 4.62815 13.7146C6.47701 15.9223 8.70155 17.6656 11.2427 18.894C12.2135 19.3541 13.5094 19.8986 14.9573 19.9915C15.0459 19.9957 15.1388 19.9999 15.2232 19.9999C16.1983 19.9999 17.0172 19.6495 17.6588 18.9531C17.663 18.9446 17.6715 18.9404 17.6757 18.9319C17.8952 18.666 18.1485 18.4254 18.4144 18.1679C18.5959 17.9949 18.7816 17.8133 18.9631 17.6234C19.381 17.1886 19.6005 16.6821 19.6005 16.1629C19.6005 15.6395 19.3768 15.1371 18.9505 14.715L16.6331 12.3892ZM18.1442 16.834C18.14 16.834 18.14 16.8383 18.1442 16.834C17.9796 17.0113 17.8108 17.1717 17.6293 17.349C17.3549 17.6107 17.0763 17.8851 16.8146 18.1932C16.3882 18.6491 15.8859 18.8644 15.2274 18.8644C15.1641 18.8644 15.0966 18.8644 15.0333 18.8602C13.7796 18.78 12.6145 18.2903 11.7408 17.8724C9.3516 16.7158 7.2537 15.0738 5.51037 12.9928C4.07096 11.2579 3.10854 9.65389 2.47115 7.93166C2.07859 6.8806 1.93507 6.0617 1.99838 5.28923C2.0406 4.79536 2.23055 4.38591 2.5809 4.03555L4.02031 2.59615C4.22714 2.40197 4.44664 2.29645 4.66192 2.29645C4.92785 2.29645 5.14313 2.45685 5.27821 2.59192C5.28243 2.59615 5.28665 2.60037 5.29087 2.60459C5.54836 2.84519 5.79319 3.09424 6.05068 3.36017C6.18153 3.49525 6.31661 3.63032 6.45168 3.76962L7.60405 4.92199C8.05149 5.36943 8.05149 5.7831 7.60405 6.23054C7.48164 6.35296 7.36345 6.47537 7.24104 6.59356C6.88646 6.95658 6.54877 7.29427 6.18153 7.62352C6.17309 7.63196 6.16465 7.63618 6.16043 7.64463C5.79741 8.00764 5.86495 8.36222 5.94093 8.60282C5.94515 8.61549 5.94937 8.62815 5.95359 8.64081C6.25329 9.36685 6.6754 10.0507 7.31702 10.8654L7.32124 10.8696C8.48627 12.3048 9.71462 13.4234 11.0696 14.2803C11.2427 14.39 11.42 14.4786 11.5888 14.5631C11.7408 14.639 11.8843 14.7108 12.0067 14.7868C12.0236 14.7952 12.0405 14.8079 12.0574 14.8163C12.2009 14.8881 12.3359 14.9219 12.4752 14.9219C12.8256 14.9219 13.0451 14.7024 13.1169 14.6306L14.5605 13.187C14.704 13.0435 14.9319 12.8704 15.1979 12.8704C15.4596 12.8704 15.6749 13.035 15.8057 13.1785C15.8099 13.1828 15.8099 13.1828 15.8142 13.187L18.14 15.5128C18.5748 15.9434 18.5748 16.3866 18.1442 16.834Z" fill="#4CA734"/>
<path d="M16.6331 12.3892L15.9118 13.0819L15.9182 13.0885L15.9247 13.095L16.6331 12.3892ZM13.7627 12.385L14.4687 13.0932L14.4698 13.0921L13.7627 12.385ZM12.4288 13.7146L11.9547 14.5951L12.6087 14.9473L13.1348 14.4228L12.4288 13.7146ZM12.1038 13.5458L12.5651 12.6586L12.5581 12.6549L12.551 12.6513L12.1038 13.5458ZM11.6859 13.3221L11.1497 14.1662L11.1585 14.1717L11.6859 13.3221ZM8.2119 10.1562L7.42758 10.7767L7.43631 10.7874L8.2119 10.1562ZM7.07219 8.358L6.39728 7.6201L5.86245 8.10927L6.1609 8.76976L7.07219 8.358ZM8.05149 7.39558L7.34437 6.68846L7.33966 6.69323L8.05149 7.39558ZM8.40607 4.11576L9.11318 3.40865L9.11318 3.40865L8.40607 4.11576ZM7.2537 2.96338L6.54659 3.67049L6.54659 3.67049L7.2537 2.96338ZM6.86113 2.56238L7.59067 1.87844L7.58525 1.87265L7.57974 1.86696L6.86113 2.56238ZM6.06756 1.77725L5.36413 2.48801L5.37649 2.50025L5.38928 2.51205L6.06756 1.77725ZM3.21829 1.77725L2.52576 1.05586L2.5184 1.06292L2.51119 1.07014L3.21829 1.77725ZM3.20985 1.78569L2.50274 1.07857L2.49965 1.08169L3.20985 1.78569ZM1.77466 3.23354L2.48178 3.94065L2.48487 3.93753L1.77466 3.23354ZM0.858678 5.19637L-0.137457 5.10831L-0.137961 5.11445L0.858678 5.19637ZM1.39898 8.32845L2.33663 7.98086L2.33661 7.98079L1.39898 8.32845ZM4.62815 13.7146L3.85935 14.3541L3.8615 14.3567L4.62815 13.7146ZM11.2427 18.894L10.8075 19.7943L10.8144 19.7976L11.2427 18.894ZM14.9573 19.9915L14.8933 20.9894L14.9015 20.9899L14.9097 20.9903L14.9573 19.9915ZM17.6588 18.9531L18.3943 19.6306L18.49 19.5267L18.5532 19.4003L17.6588 18.9531ZM17.6757 18.9319L16.9045 18.2954L16.8321 18.3831L16.7813 18.4847L17.6757 18.9319ZM18.4144 18.1679L17.7243 17.4442L17.7188 17.4495L18.4144 18.1679ZM18.9631 17.6234L18.2422 16.9304L18.2401 16.9325L18.9631 17.6234ZM18.9505 14.715L18.2421 15.4209L18.2469 15.4256L18.9505 14.715ZM18.1442 16.834V17.834H18.5698L18.8648 17.5274L18.1442 16.834ZM18.1442 16.834L18.877 17.5145L17.4371 16.1269L18.1442 16.834ZM17.6293 17.349L18.3195 18.0727L18.328 18.0644L17.6293 17.349ZM16.8146 18.1932L17.545 18.8763L17.5613 18.8588L17.5768 18.8406L16.8146 18.1932ZM15.0333 18.8602L15.0998 17.8624L15.0971 17.8622L15.0333 18.8602ZM11.7408 17.8724L11.305 18.7725L11.3093 18.7746L11.7408 17.8724ZM5.51037 12.9928L4.74076 13.6313L4.74381 13.635L5.51037 12.9928ZM2.47115 7.93166L3.40899 7.58457L3.40794 7.58178L2.47115 7.93166ZM1.99838 5.28923L1.00201 5.20407L1.00173 5.20754L1.99838 5.28923ZM2.5809 4.03555L3.28801 4.74266L3.28801 4.74266L2.5809 4.03555ZM4.02031 2.59615L3.33587 1.86707L3.32436 1.87788L3.3132 1.88904L4.02031 2.59615ZM5.27821 2.59192L4.5711 3.29903L5.27821 2.59192ZM5.29087 2.60459L4.58376 3.3117L4.59575 3.32368L4.60813 3.33525L5.29087 2.60459ZM6.05068 3.36017L5.33226 4.05578L5.33244 4.05597L6.05068 3.36017ZM6.45168 3.76962L5.73378 4.46577L5.73914 4.47129L5.74458 4.47673L6.45168 3.76962ZM7.24104 6.59356L6.54644 5.87416L6.5359 5.88434L6.52566 5.89482L7.24104 6.59356ZM6.18153 7.62352L5.51399 6.87895L5.49369 6.89714L5.47442 6.91641L6.18153 7.62352ZM6.16043 7.64463L6.86753 8.35173L6.98228 8.23698L7.05485 8.09184L6.16043 7.64463ZM5.94093 8.60282L4.98734 8.90395L4.98973 8.91152L4.99224 8.91905L5.94093 8.60282ZM5.95359 8.64081L5.00491 8.95704L5.01594 8.99013L5.02925 9.02237L5.95359 8.64081ZM7.31702 10.8654L6.53141 11.4841L6.56804 11.5306L6.60991 11.5725L7.31702 10.8654ZM7.32124 10.8696L8.09763 10.2393L8.06498 10.1991L8.02834 10.1625L7.32124 10.8696ZM11.0696 14.2803L11.6051 13.4357L11.6041 13.4351L11.0696 14.2803ZM11.5888 14.5631L11.1416 15.4575L11.5888 14.5631ZM12.0067 14.7868L11.4793 15.6364L11.5184 15.6607L11.5595 15.6812L12.0067 14.7868ZM12.0574 14.8163L11.6101 15.7108L12.0574 14.8163ZM13.1169 14.6306L13.824 15.3377L13.1169 14.6306ZM15.8057 13.1785L15.0668 13.8523L15.0823 13.8693L15.0986 13.8856L15.8057 13.1785ZM15.8142 13.187L16.5213 12.4799L15.8142 13.187ZM18.14 15.5128L17.4329 16.2199L17.4364 16.2234L18.14 15.5128ZM17.3543 11.6965C16.7851 11.1038 16.0409 10.7349 15.2063 10.7349V12.7349C15.4186 12.7349 15.6621 12.8219 15.9118 13.0819L17.3543 11.6965ZM15.2063 10.7349C14.38 10.7349 13.6376 11.0959 13.0556 11.6779L14.4698 13.0921C14.7405 12.8214 14.9943 12.7349 15.2063 12.7349V10.7349ZM13.0567 11.6767L11.7228 13.0064L13.1348 14.4228L14.4687 13.0932L13.0567 11.6767ZM12.9029 12.8341C12.7862 12.7713 12.6505 12.7029 12.5651 12.6586L11.6424 14.433C11.7681 14.4984 11.8519 14.5397 11.9547 14.5951L12.9029 12.8341ZM12.551 12.6513C12.3883 12.57 12.289 12.5194 12.2133 12.4724L11.1585 14.1717C11.3276 14.2767 11.5153 14.3696 11.6566 14.4402L12.551 12.6513ZM12.222 12.4779C11.0767 11.7505 10.0195 10.793 8.98749 9.52496L7.43631 10.7874C8.58242 12.1957 9.79617 13.3065 11.1498 14.1662L12.222 12.4779ZM8.99614 9.53575C8.50343 8.91297 8.19824 8.42151 7.98348 7.94623L6.1609 8.76976C6.46112 9.43419 6.86508 10.0656 7.42765 10.7767L8.99614 9.53575ZM7.7471 9.0959C8.11655 8.75799 8.45812 8.40726 8.76333 8.09792L7.33966 6.69323C7.02014 7.01707 6.7201 7.32484 6.39728 7.6201L7.7471 9.0959ZM8.7586 8.10268C8.82135 8.03993 8.88356 7.97661 8.94212 7.917C9.00175 7.8563 9.05774 7.79933 9.11318 7.74389L7.69896 6.32967C7.63621 6.39243 7.574 6.45575 7.51545 6.51536C7.45581 6.57606 7.39983 6.63303 7.34439 6.68847L8.7586 8.10268ZM9.11318 7.74389C9.7119 7.14517 10.0709 6.39224 10.0709 5.57627C10.0709 4.7603 9.7119 4.00737 9.11318 3.40865L7.69896 4.82286C7.98668 5.11058 8.0709 5.37495 8.0709 5.57627C8.0709 5.77759 7.98668 6.04196 7.69896 6.32967L9.11318 7.74389ZM9.11318 3.40865L7.96081 2.25628L6.54659 3.67049L7.69896 4.82286L9.11318 3.40865ZM7.96081 2.25628C7.82787 2.12334 7.70438 1.99973 7.59067 1.87844L6.1316 3.24632C6.27115 3.39518 6.41782 3.54172 6.54659 3.67049L7.96081 2.25628ZM7.57974 1.86696C7.32407 1.60276 7.04196 1.31578 6.74584 1.04244L5.38928 2.51205C5.64191 2.74525 5.89166 2.99857 6.14253 3.2578L7.57974 1.86696ZM6.77099 1.06648C6.19917 0.500552 5.4649 0.156738 4.65348 0.156738V2.15674C4.87202 2.15674 5.11705 2.24348 5.36413 2.48801L6.77099 1.06648ZM4.65348 0.156738C3.84479 0.156738 3.10677 0.498088 2.52576 1.05586L3.91083 2.49863C4.17404 2.24594 4.43221 2.15674 4.65348 2.15674V0.156738ZM2.51119 1.07014C2.50907 1.07226 2.50801 1.07332 2.50695 1.07437C2.5059 1.07543 2.50485 1.07648 2.50274 1.07858L3.91696 2.49279C3.91907 2.49068 3.92013 2.48962 3.92119 2.48856C3.92225 2.48751 3.9233 2.48646 3.9254 2.48435L2.51119 1.07014ZM2.49965 1.08169L1.06446 2.52954L2.48487 3.93753L3.92006 2.48968L2.49965 1.08169ZM1.06756 2.52643C0.361337 3.23265 -0.0492115 4.11025 -0.137438 5.10831L1.85479 5.28442C1.90164 4.75443 2.10738 4.31504 2.48177 3.94064L1.06756 2.52643ZM-0.137961 5.11445C-0.257953 6.57436 0.171273 7.89375 0.461362 8.67611L2.33661 7.98079C2.0695 7.26043 1.77269 6.28352 1.85532 5.27828L-0.137961 5.11445ZM0.461338 8.67604C1.19139 10.6454 2.27695 12.4517 3.85935 14.3541L5.39695 13.0751C3.93169 11.3136 2.97423 9.7008 2.33663 7.98086L0.461338 8.67604ZM3.8615 14.3567C5.79913 16.6703 8.13581 18.5028 10.8075 19.7943L11.6779 17.9936C9.26729 16.8284 7.15489 15.1742 5.39481 13.0726L3.8615 14.3567ZM10.8144 19.7976C11.8091 20.269 13.2475 20.8838 14.8933 20.9894L15.0213 18.9935C13.7713 18.9133 12.618 18.4391 11.6709 17.9903L10.8144 19.7976ZM14.9097 20.9903C14.9952 20.9944 15.1113 20.9999 15.2232 20.9999V18.9999C15.1663 18.9999 15.0966 18.997 15.0048 18.9926L14.9097 20.9903ZM15.2232 20.9999C16.4665 20.9999 17.5558 20.5408 18.3943 19.6306L16.9233 18.2755C16.4785 18.7583 15.9301 18.9999 15.2232 18.9999V20.9999ZM18.5532 19.4003C18.5091 19.4884 18.4601 19.553 18.426 19.5933C18.4093 19.6131 18.395 19.6283 18.3866 19.6371C18.3823 19.6416 18.3788 19.6451 18.3768 19.6471C18.3751 19.6489 18.3737 19.6503 18.3744 19.6496C18.3744 19.6495 18.3767 19.6473 18.3792 19.6447C18.382 19.642 18.3862 19.6376 18.3913 19.6323C18.4013 19.6219 18.417 19.6051 18.4353 19.5836C18.4723 19.5398 18.5239 19.4716 18.5701 19.3792L16.7813 18.4847C16.8253 18.3966 16.8744 18.332 16.9085 18.2917C16.9252 18.2719 16.9395 18.2567 16.9479 18.2479C16.9522 18.2434 16.9557 18.2399 16.9576 18.2379C16.9594 18.2361 16.9608 18.2347 16.9601 18.2354C16.96 18.2355 16.9578 18.2377 16.9553 18.2403C16.9525 18.243 16.9483 18.2474 16.9432 18.2527C16.9332 18.2631 16.9174 18.2799 16.8992 18.3014C16.8622 18.3452 16.8106 18.4134 16.7644 18.5058L18.5532 19.4003ZM18.4469 19.5685C18.6229 19.3553 18.8293 19.1581 19.11 18.8863L17.7188 17.4495C17.4676 17.6927 17.1675 17.9767 16.9045 18.2954L18.4469 19.5685ZM19.1045 18.8917C19.2916 18.7133 19.4896 18.5199 19.6861 18.3143L18.2401 16.9325C18.0736 17.1068 17.9002 17.2765 17.7243 17.4442L19.1045 18.8917ZM19.6841 18.3164C20.2521 17.7254 20.6005 16.9793 20.6005 16.1629H18.6005C18.6005 16.3848 18.5099 16.6519 18.2422 16.9304L19.6841 18.3164ZM20.6005 16.1629C20.6005 15.3361 20.2425 14.587 19.654 14.0044L18.2469 15.4256C18.5111 15.6872 18.6005 15.9428 18.6005 16.1629H20.6005ZM19.6589 14.0092L17.3415 11.6834L15.9247 13.095L18.2421 15.4208L19.6589 14.0092ZM18.1442 15.834C17.9768 15.834 17.7883 15.8764 17.6119 15.9866C17.5265 16.04 17.4305 16.118 17.3458 16.2291C17.2771 16.3193 17.1411 16.5302 17.1411 16.8356C17.1411 17.0037 17.1846 17.2163 17.3262 17.4153C17.4701 17.6178 17.6648 17.7347 17.843 17.7904C18.1568 17.8884 18.4121 17.8025 18.493 17.7722C18.6913 17.6978 18.8127 17.5798 18.8513 17.5411L17.4371 16.1269C17.4737 16.0904 17.5935 15.9734 17.7907 15.8995C17.8711 15.8694 18.126 15.7834 18.4395 15.8814C18.6176 15.9371 18.8122 16.0539 18.9561 16.2563C19.0975 16.4552 19.1411 16.6677 19.1411 16.8356C19.1411 17.1408 19.0051 17.3514 18.9367 17.4412C18.8523 17.552 18.7567 17.6296 18.6719 17.6826C18.4965 17.7922 18.3095 17.834 18.1442 17.834V15.834ZM17.4114 16.1536C17.2684 16.3077 17.1253 16.4434 16.9305 16.6336L18.328 18.0644C18.4962 17.9001 18.6908 17.715 18.877 17.5145L17.4114 16.1536ZM16.939 16.6254C16.6589 16.8926 16.3493 17.1963 16.0524 17.5459L17.5768 18.8406C17.8033 18.5739 18.0508 18.3289 18.3195 18.0726L16.939 16.6254ZM16.0842 17.5102C15.855 17.7553 15.6211 17.8644 15.2274 17.8644V19.8644C16.1507 19.8644 16.9215 19.543 17.545 18.8763L16.0842 17.5102ZM15.2274 17.8644C15.1575 17.8644 15.124 17.864 15.0998 17.8624L14.9667 19.858C15.0691 19.8648 15.1707 19.8644 15.2274 19.8644V17.8644ZM15.0971 17.8622C14.0442 17.7949 13.0237 17.3776 12.1722 16.9703L11.3093 18.7746C12.2053 19.2031 13.5149 19.7651 14.9694 19.8581L15.0971 17.8622ZM12.1765 16.9724C9.91726 15.8787 7.93137 14.3255 6.27693 12.3506L4.74381 13.635C6.57603 15.8221 8.78595 17.553 11.305 18.7725L12.1765 16.9724ZM6.27997 12.3543C4.89712 10.6876 3.99951 9.18016 3.40898 7.58457L1.53332 8.27875C2.21758 10.1276 3.24481 11.8283 4.74077 13.6313L6.27997 12.3543ZM3.40794 7.58178C3.0469 6.61511 2.94765 5.94914 2.99504 5.37092L1.00173 5.20754C0.922488 6.17426 1.11027 7.14609 1.53436 8.28155L3.40794 7.58178ZM2.99475 5.37439C3.01695 5.11473 3.1049 4.92577 3.28801 4.74266L1.87379 3.32845C1.3562 3.84604 1.06425 4.47599 1.00202 5.20407L2.99475 5.37439ZM3.28801 4.74266L4.72742 3.30325L3.3132 1.88904L1.87379 3.32845L3.28801 4.74266ZM4.70475 3.32522C4.74704 3.28551 4.76834 3.27614 4.76375 3.2783C4.76077 3.2797 4.75024 3.28431 4.73241 3.28857C4.71429 3.2929 4.69036 3.29645 4.66192 3.29645V1.29645C4.10934 1.29645 3.65713 1.56548 3.33587 1.86707L4.70475 3.32522ZM4.66192 3.29645C4.58917 3.29645 4.54482 3.27391 4.53841 3.2704C4.53507 3.26857 4.53737 3.26949 4.54466 3.27521C4.55183 3.28084 4.56087 3.2888 4.5711 3.29903L5.98531 1.88482C5.78805 1.68756 5.32916 1.29645 4.66192 1.29645V3.29645ZM4.5711 3.29903C4.5732 3.30113 4.57531 3.30324 4.57742 3.30535C4.57953 3.30746 4.58165 3.30958 4.58376 3.3117L5.99798 1.89748C5.99588 1.89538 5.99377 1.89328 5.99166 1.89116C5.98955 1.88905 5.98743 1.88694 5.98531 1.88482L4.5711 3.29903ZM4.60813 3.33525C4.84632 3.55782 5.07667 3.79181 5.33226 4.05578L6.76909 2.66456C6.50971 2.39667 6.2504 2.13257 5.97362 1.87393L4.60813 3.33525ZM5.33244 4.05597C5.40113 4.12687 5.47043 4.19727 5.53699 4.26488C5.60446 4.33341 5.66933 4.3993 5.73378 4.46577L7.16958 3.07348C7.09896 3.00065 7.02875 2.92935 6.96221 2.86175C6.89475 2.79323 6.83108 2.72855 6.76892 2.66438L5.33244 4.05597ZM5.74458 4.47673L6.89695 5.6291L8.31116 4.21489L7.15879 3.06252L5.74458 4.47673ZM6.89695 5.6291C6.95715 5.6893 6.97022 5.71697 6.96655 5.70984C6.96403 5.70494 6.95697 5.68996 6.95064 5.66556C6.94417 5.6406 6.93963 5.61016 6.93963 5.57627C6.93963 5.54237 6.94417 5.51194 6.95064 5.48698C6.95697 5.46258 6.96403 5.4476 6.96655 5.4427C6.97022 5.43557 6.95715 5.46324 6.89695 5.52344L8.31116 6.93765C8.62991 6.61891 8.93963 6.16388 8.93963 5.57627C8.93963 4.98866 8.62991 4.53363 8.31116 4.21489L6.89695 5.6291ZM6.89695 5.52344C6.75701 5.66337 6.66148 5.76309 6.54644 5.87416L7.93563 7.31296C8.06542 7.18765 8.20627 7.04254 8.31116 6.93765L6.89695 5.52344ZM6.52566 5.89482C6.17496 6.25387 5.85588 6.57242 5.51399 6.87895L6.84908 8.36809C7.24166 8.01612 7.59796 7.65929 7.95641 7.2923L6.52566 5.89482ZM5.47442 6.91641C5.5014 6.88944 5.52392 6.87032 5.53265 6.863C5.53607 6.86014 5.53993 6.85696 5.53655 6.85975C5.5352 6.86086 5.52763 6.86708 5.5186 6.87482C5.48665 6.90221 5.35934 7.01073 5.266 7.19741L7.05485 8.09184C6.96573 8.27008 6.84476 8.37227 6.82019 8.39333C6.81626 8.39669 6.8131 8.39935 6.81115 8.40097C6.81015 8.4018 6.80935 8.40246 6.80884 8.40289C6.80834 8.4033 6.80799 8.40359 6.80796 8.40361C6.80654 8.40478 6.81242 8.39996 6.81788 8.39538C6.8307 8.38463 6.85744 8.36183 6.88864 8.33063L5.47442 6.91641ZM5.45332 6.93752C5.12128 7.26956 4.93902 7.65432 4.89268 8.05464C4.84948 8.4279 4.93467 8.73717 4.98734 8.90395L6.89451 8.30169C6.8835 8.26684 6.88078 8.25245 6.88018 8.24857C6.87982 8.24629 6.88224 8.26022 6.87942 8.28462C6.87801 8.29677 6.87548 8.30991 6.8716 8.32326C6.86769 8.33667 6.86309 8.34802 6.85873 8.35684C6.8494 8.37571 6.84623 8.37304 6.86753 8.35173L5.45332 6.93752ZM4.99224 8.91905C4.99435 8.92539 4.99647 8.93172 4.99858 8.93805C5.00069 8.94439 5.0028 8.95071 5.00491 8.95704L6.90227 8.32459C6.90016 8.31825 6.89805 8.31191 6.89594 8.30558C6.89383 8.29925 6.89172 8.29292 6.88961 8.2866L4.99224 8.91905ZM5.02925 9.02237C5.37416 9.85794 5.85196 10.6214 6.53141 11.4841L8.10263 10.2466C7.49885 9.47999 7.13242 8.87576 6.87793 8.25925L5.02925 9.02237ZM6.60991 11.5725L6.61413 11.5767L8.02834 10.1625L8.02412 10.1582L6.60991 11.5725ZM6.54484 11.4998C7.76776 13.0063 9.07522 14.2022 10.5351 15.1254L11.6041 13.4351C10.354 12.6445 9.20478 11.6032 8.09763 10.2393L6.54484 11.4998ZM10.5341 15.1248C10.7566 15.2659 10.9787 15.376 11.1416 15.4575L12.036 13.6686C11.8612 13.5813 11.7287 13.5141 11.6051 13.4357L10.5341 15.1248ZM11.1416 15.4575C11.3043 15.5388 11.4036 15.5894 11.4793 15.6364L12.5341 13.9371C12.3649 13.8322 12.1772 13.7392 12.036 13.6686L11.1416 15.4575ZM11.5595 15.6812C11.5349 15.6689 11.5169 15.6584 11.5088 15.6536C11.5016 15.6493 11.4961 15.6459 11.502 15.6496C11.5045 15.6511 11.5185 15.6599 11.5341 15.6692C11.5506 15.679 11.5771 15.6943 11.6101 15.7108L12.5046 13.9219C12.5291 13.9342 12.5472 13.9447 12.5552 13.9495C12.5625 13.9538 12.568 13.9573 12.562 13.9536C12.5595 13.952 12.5456 13.9432 12.5299 13.9339C12.5134 13.9241 12.4869 13.9089 12.4539 13.8924L11.5595 15.6812ZM11.6101 15.7108C11.8736 15.8425 12.1609 15.9219 12.4752 15.9219V13.9219C12.4811 13.9219 12.4877 13.9222 12.4947 13.9231C12.5017 13.924 12.5077 13.9252 12.5122 13.9263C12.5216 13.9287 12.5198 13.9295 12.5046 13.9219L11.6101 15.7108ZM12.4752 15.9219C13.2606 15.9219 13.7348 15.4269 13.824 15.3377L12.4098 13.9235C12.3944 13.9389 12.3915 13.9414 12.3886 13.9439C12.3858 13.9463 12.3863 13.9455 12.3904 13.9431C12.3947 13.9405 12.4049 13.935 12.4208 13.9302C12.4377 13.925 12.4568 13.9219 12.4752 13.9219V15.9219ZM13.824 15.3377L15.2676 13.8941L13.8534 12.4799L12.4098 13.9235L13.824 15.3377ZM15.2676 13.8941C15.2814 13.8803 15.2946 13.8685 15.3063 13.8592C15.3182 13.8497 15.3249 13.8457 15.3258 13.8452C15.3305 13.8425 15.2843 13.8704 15.1979 13.8704V11.8704C14.5168 11.8704 14.0416 12.2916 13.8534 12.4799L15.2676 13.8941ZM15.1979 13.8704C15.1146 13.8704 15.0632 13.8438 15.0528 13.8378C15.0472 13.8345 15.0471 13.8338 15.0516 13.8376C15.056 13.8412 15.0614 13.8464 15.0668 13.8523L16.5447 12.5048C16.3402 12.2805 15.8761 11.8704 15.1979 11.8704V13.8704ZM15.0986 13.8856C15.0993 13.8863 15.1009 13.8879 15.1011 13.8881C15.1017 13.8887 15.1015 13.8885 15.102 13.8891C15.1024 13.8895 15.102 13.8891 15.1024 13.8895C15.1026 13.8896 15.1025 13.8895 15.1026 13.8897C15.1028 13.8898 15.1027 13.8897 15.1028 13.8899C15.1032 13.8902 15.1029 13.8899 15.1032 13.8903C15.1058 13.8928 15.1011 13.8881 15.1036 13.8907C15.1042 13.8912 15.104 13.891 15.1046 13.8916C15.1048 13.8918 15.1064 13.8934 15.1071 13.8941L16.5213 12.4799C16.5206 12.4792 16.519 12.4776 16.5188 12.4774C16.5182 12.4768 16.5184 12.477 16.5179 12.4765C16.5174 12.476 16.5179 12.4765 16.5174 12.476C16.5173 12.4759 16.5174 12.476 16.5172 12.4758C16.5171 12.4757 16.5172 12.4758 16.5171 12.4757C16.5167 12.4753 16.517 12.4756 16.5167 12.4753C16.5141 12.4727 16.5188 12.4774 16.5162 12.4748C16.5157 12.4743 16.5159 12.4745 16.5153 12.4739C16.5151 12.4737 16.5135 12.4721 16.5128 12.4714L15.0986 13.8856ZM15.1071 13.8941L17.4329 16.2199L18.8471 14.8057L16.5213 12.4799L15.1071 13.8941ZM17.4364 16.2234C17.486 16.2725 17.4947 16.2942 17.4898 16.2843C17.4869 16.2786 17.4808 16.2649 17.4756 16.2437C17.4702 16.2223 17.4667 16.197 17.4666 16.1695C17.4666 16.1421 17.47 16.1177 17.4747 16.0981C17.4794 16.0788 17.4845 16.0673 17.486 16.0642C17.4882 16.0596 17.476 16.0862 17.4237 16.1407L18.8648 17.5274C19.186 17.1936 19.468 16.7346 19.4666 16.1647C19.4652 15.59 19.1767 15.132 18.8437 14.8023L17.4364 16.2234Z" fill="#4CA734" mask="url(#path-1-inside-1)"/>
<path d="M11.8335 3.63458L11.7495 4.12748C12.9845 4.33786 14.1105 4.9218 15.0046 5.81589C15.898 6.70931 16.4817 7.83428 16.6925 9.0682C16.6992 9.11323 16.6715 9.14394 16.6415 9.15108L16.6316 9.15232L16.619 9.15377C16.6185 9.15381 16.6181 9.15385 16.6178 9.15389C16.5812 9.15282 16.5569 9.12799 16.552 9.09896L16.552 9.09896L16.5516 9.09652C16.3441 7.8884 15.7761 6.7899 14.9012 5.91502C14.0272 5.04103 12.9286 4.46763 11.7179 4.26431L11.7179 4.2643L11.7151 4.26385C11.7 4.2614 11.688 4.25404 11.6785 4.2403C11.6684 4.22561 11.6636 4.20677 11.6672 4.18657C11.6739 4.1489 11.7091 4.12094 11.7534 4.12814L11.8335 3.63458ZM11.8335 3.63458C13.1716 3.86252 14.3915 4.49569 15.3581 5.46233C16.3247 6.42897 16.9579 7.64888 17.1859 8.98698M11.8335 3.63458C11.5211 3.58393 11.2298 3.79076 11.175 4.09891C11.1201 4.40705 11.3227 4.70675 11.6351 4.7574L17.1859 8.98698M17.1859 8.98698C17.2365 9.29935 17.0297 9.59483 16.7173 9.64548C16.7139 9.64591 16.7105 9.64633 16.7072 9.64676C16.6775 9.65051 16.6506 9.65392 16.6202 9.65392C16.3459 9.65392 16.1052 9.45975 16.0588 9.18116L17.1859 8.98698Z" fill="#4CA734" stroke="#4CA734"/>
<path d="M20.3106 8.90646L20.3106 8.90646L20.3113 8.91008C20.314 8.92531 20.3107 8.94085 20.3006 8.95497C20.2913 8.96806 20.2796 8.97505 20.2675 8.97756L20.264 8.97801L20.2535 8.97931L20.2409 8.98076C20.2363 8.98123 20.2378 8.98092 20.2421 8.98092C20.2041 8.98092 20.1788 8.95564 20.1739 8.92595L20.1737 8.92458C19.8227 6.8543 18.8448 4.96623 17.3454 3.46682L17.3449 3.4663C15.8466 1.97251 13.9598 0.990286 11.8897 0.638904C11.8486 0.631279 11.8238 0.59718 11.8285 0.556852C11.8383 0.51308 11.8768 0.496434 11.9021 0.500943L11.9057 0.501575C14.0063 0.859718 15.9174 1.84901 17.4403 3.37191C18.9632 4.89481 19.9525 6.80589 20.3106 8.90646Z" fill="#4CA734" stroke="#4CA734"/>
</svg>
