<svg width="22" height="15" viewBox="0 0 22 15" fill="none" xmlns="http://www.w3.org/2000/svg">
<path d="M10.3263 7.66926L2.62679 1.89418H19.0558L11.3563 7.66926L11.3556 7.66979C11.2376 7.75959 11.0451 7.82209 10.8418 7.82117L10.8407 7.82117C10.6375 7.82209 10.445 7.7596 10.327 7.66977L10.3263 7.66926ZM15.0605 8.24379L15.0606 8.2438L19.2663 13.4392H2.41629L6.62206 8.2438L6.62209 8.24377C6.79902 8.02502 6.76547 7.70425 6.54635 7.52693L6.54632 7.52691C6.32766 7.35005 6.00689 7.38346 5.82978 7.60237C5.82977 7.60238 5.82976 7.60239 5.82975 7.6024L1.73553 12.66V2.49996L9.71498 8.48457L9.71532 8.48482C10.048 8.73256 10.4494 8.83928 10.8409 8.84035L10.8415 8.84035C11.2325 8.83952 11.6343 8.73279 11.9672 8.48481L11.9675 8.48457L19.9469 2.49996V12.6599L15.8528 7.60239C15.8528 7.60238 15.8528 7.60238 15.8528 7.60237C15.6757 7.38356 15.3547 7.34992 15.1362 7.52698C14.9171 7.70405 14.8836 8.02513 15.0605 8.24379ZM19.8156 0.875H1.86697C1.2338 0.875 0.716309 1.39248 0.716309 2.02562V13.3077C0.716309 13.9408 1.23379 14.4584 1.86697 14.4584H19.8157C20.4488 14.4584 20.9663 13.9409 20.9663 13.3077V2.02562C20.9663 1.39248 20.4488 0.875 19.8156 0.875Z" fill="#4CA734" stroke="#4CA734" stroke-width="0.25"/>
</svg>
