<svg width="19" height="21" viewBox="0 0 19 21" fill="none" xmlns="http://www.w3.org/2000/svg">
<path d="M8.22921 3.47729C6.07233 3.47729 4.31787 5.23218 4.31787 7.38864C4.31787 9.54509 6.07233 11.3 8.22921 11.3C10.3861 11.3 12.1406 9.54509 12.1406 7.38864C12.1406 5.23218 10.3861 3.47729 8.22921 3.47729ZM8.22921 10.4308C6.55212 10.4308 5.18706 9.06617 5.18706 7.38864C5.18706 5.71111 6.55212 4.34648 8.22921 4.34648C9.90631 4.34648 11.2714 5.71111 11.2714 7.38864C11.2714 9.06617 9.90631 10.4308 8.22921 10.4308Z" fill="#4CA734"/>
<path fill-rule="evenodd" clip-rule="evenodd" d="M0.841309 7.38809C0.841309 3.31421 4.15552 0 8.2294 0C12.3033 0 15.6175 3.31421 15.6175 7.38809C15.6175 8.72968 15.0164 10.1721 14.9912 10.2325C14.8931 10.4655 14.7468 10.7636 14.5903 11.0557C14.346 11.019 14.0959 11 13.8413 11C13.7685 11 13.6961 11.0016 13.6241 11.0046C13.8343 10.6424 14.062 10.2001 14.1899 9.89526C14.1955 9.88223 14.7483 8.55106 14.7483 7.38809C14.7483 3.79357 11.8239 0.869187 8.2294 0.869187C4.63488 0.869187 1.7105 3.79357 1.7105 7.38809C1.7105 8.54721 2.25999 9.87218 2.26934 9.89472L2.26938 9.89483C2.44279 10.3081 2.79959 10.9748 3.04774 11.3512L8.1138 19.0269C8.21376 19.1786 8.24548 19.1786 8.34544 19.0269L9.1678 17.781C9.28803 18.0963 9.43926 18.3963 9.61777 18.6773L9.07121 19.5054C8.86391 19.8196 8.55708 20 8.2294 20C7.90172 20 7.59489 19.8196 7.38759 19.505L2.32197 11.8296C2.04557 11.4098 1.66226 10.6936 1.46799 10.2325L1.46747 10.2312C1.43547 10.1541 0.841309 8.72107 0.841309 7.38809Z" fill="#4CA734"/>
<path d="M13.8415 11.5884C11.4087 11.5884 9.42969 13.5673 9.42969 16.0001C9.42969 18.4329 11.4087 20.4119 13.8415 20.4119C16.2742 20.4119 18.2532 18.4326 18.2532 16.0001C18.2532 13.5677 16.2742 11.5884 13.8415 11.5884ZM13.8415 19.7284C11.7859 19.7284 10.1131 18.056 10.1131 16.0001C10.1131 13.9443 11.7859 12.2718 13.8415 12.2718C15.897 12.2718 17.5698 13.9443 17.5698 16.0001C17.5698 18.056 15.8973 19.7284 13.8415 19.7284Z" fill="#4CA734"/>
<path d="M15.5496 15.6274H14.1827V14.2604C14.1827 14.0718 14.0299 13.9187 13.8409 13.9187C13.6519 13.9187 13.4992 14.0718 13.4992 14.2604V15.6274H12.1323C11.9433 15.6274 11.7905 15.7805 11.7905 15.9691C11.7905 16.1577 11.9433 16.3108 12.1323 16.3108H13.4992V17.6778C13.4992 17.8664 13.6519 18.0195 13.8409 18.0195C14.0299 18.0195 14.1827 17.8664 14.1827 17.6778V16.3108H15.5496C15.7386 16.3108 15.8913 16.1577 15.8913 15.9691C15.8913 15.7805 15.7386 15.6274 15.5496 15.6274Z" fill="#4CA734"/>
</svg>
