<svg width="24" height="16" viewBox="0 0 24 16" fill="none" xmlns="http://www.w3.org/2000/svg">
<path d="M21.4439 0H5.3509C4.5943 0 3.90509 0.415678 3.55224 1.08482C3.36999 1.43038 3.50245 1.85826 3.84801 2.0405C4.19353 2.22274 4.62145 2.09033 4.80369 1.74472C4.91099 1.54122 5.12069 1.41477 5.3509 1.41477H6.14671V3.6586C5.82759 3.77179 5.54357 3.95929 5.31509 4.2002C5.12378 4.02428 4.91997 3.86516 4.72703 3.72819C4.4301 3.51739 3.39988 2.82955 2.60978 2.82955C2.23225 2.82955 1.53755 2.98805 1.12656 4.04961C0.947947 4.51092 0.841309 5.11259 0.841309 5.65909C0.841309 6.20559 0.947947 6.80727 1.12656 7.26858C1.53755 8.33014 2.23225 8.48864 2.60978 8.48864C3.39988 8.48864 4.4301 7.80079 4.72707 7.58999C4.91997 7.45303 5.12383 7.29391 5.31513 7.11799C5.54362 7.3589 5.82763 7.5464 6.14675 7.65958V14.1477H5.35094C5.00963 14.1477 4.73198 13.8701 4.73198 13.5288V9.90341C4.73198 9.51276 4.41525 9.19603 4.02459 9.19603C3.63394 9.19603 3.31721 9.51276 3.31721 9.90341V13.5288C3.31721 14.6502 4.22956 15.5625 5.35094 15.5625H21.444C22.5654 15.5625 23.4777 14.6502 23.4777 13.5288V2.03374C23.4777 0.912352 22.5653 0 21.4439 0ZM3.8095 6.50473C3.24399 6.88805 2.77636 7.05853 2.62689 7.07289C2.47294 6.95578 2.25608 6.33398 2.25608 5.65909C2.25608 4.98425 2.47294 4.36245 2.62689 4.24529C2.77659 4.25971 3.24412 4.43019 3.8095 4.81341C4.36989 5.19328 4.64311 5.51797 4.71779 5.65909C4.64311 5.80022 4.36989 6.12491 3.8095 6.50473ZM21.4439 1.41477C21.7853 1.41477 22.0629 1.69242 22.0629 2.03374V4.95171H12.8122C12.7637 4.62932 12.6848 4.31603 12.5816 4.04961C12.1706 2.98805 11.4759 2.82955 11.0984 2.82955C10.3083 2.82955 9.27809 3.51739 8.98112 3.72819C8.78822 3.86516 8.58436 4.02428 8.39306 4.2002C8.16457 3.95929 7.88056 3.77179 7.56144 3.6586V1.41477H21.4439ZM11.4521 5.65909C11.4521 6.33394 11.2352 6.95573 11.0813 7.07289C10.9316 7.05848 10.4641 6.888 9.89869 6.50477C9.3383 6.12495 9.06508 5.80026 8.9904 5.65914C9.06508 5.51801 9.3383 5.19332 9.89869 4.8135C10.4642 4.43019 10.9318 4.25971 11.0813 4.24534C11.2352 4.36241 11.4521 4.9842 11.4521 5.65909ZM6.85409 4.95171C7.24413 4.95171 7.56148 5.26906 7.56148 5.65909C7.56148 6.04913 7.24413 6.36648 6.85409 6.36648C6.46406 6.36648 6.14671 6.04913 6.14671 5.65909C6.14671 5.26906 6.46406 4.95171 6.85409 4.95171ZM21.4439 14.1477H7.56148V7.65958C7.8806 7.5464 8.16462 7.3589 8.3931 7.11799C8.58441 7.29391 8.78822 7.45303 8.98116 7.58999C9.27809 7.80079 10.3083 8.48864 11.0984 8.48864C11.4759 8.48864 12.1706 8.33014 12.5816 7.26858C12.6848 7.00216 12.7637 6.68887 12.8122 6.36648H22.0629V13.5288C22.0629 13.8701 21.7853 14.1477 21.4439 14.1477Z" fill="#4CA734"/>
</svg>
