<svg width="23" height="23" viewBox="0 0 23 23" fill="none" xmlns="http://www.w3.org/2000/svg">
<path fill-rule="evenodd" clip-rule="evenodd" d="M10.8413 0C13.5124 0 16.0237 1.04019 17.9124 2.92892C19.8011 4.81766 20.8413 7.3288 20.8413 10C20.8413 11.2441 20.6157 12.4535 20.1837 13.5815C19.8398 13.3988 19.4719 13.255 19.0861 13.1562C19.4628 12.1757 19.6694 11.1116 19.6694 10C19.6694 5.13214 15.7092 1.17188 10.8413 1.17188C5.97345 1.17188 2.01318 5.13214 2.01318 10C2.01318 12.5522 3.10236 14.8544 4.83957 16.4677C5.15497 15.3467 5.78149 14.3295 6.65933 13.535C7.19797 13.0475 7.81122 12.663 8.47025 12.3918C7.27899 11.6147 6.48981 10.2702 6.48981 8.74481C6.48981 6.34537 8.44186 4.39331 10.8413 4.39331C13.2408 4.39331 15.193 6.34537 15.193 8.74481C15.193 10.2702 14.4038 11.6147 13.2124 12.3918C13.8716 12.663 14.4846 13.0476 15.0233 13.5352C15.0948 13.5998 15.1646 13.666 15.2327 13.7336C14.896 13.9399 14.5856 14.1849 14.3077 14.4625C13.3993 13.6113 12.1776 13.0963 10.8413 13.0963C8.35962 13.0963 6.27283 14.8726 5.85458 17.2807C7.27441 18.2562 8.99225 18.8281 10.8413 18.8281C11.5413 18.8281 12.2226 18.7462 12.8759 18.5914C12.9227 18.9882 13.0159 19.3709 13.1501 19.7337C12.4023 19.9096 11.6287 20 10.8413 20C8.1701 20 5.65897 18.9598 3.77023 17.0711C1.8815 15.1823 0.841309 12.6711 0.841309 10C0.841309 7.3288 1.8815 4.81766 3.77023 2.92892C5.65897 1.04019 8.1701 0 10.8413 0ZM10.8413 5.56519C9.08807 5.56519 7.66168 6.99142 7.66168 8.74481C7.66168 10.498 9.08807 11.9244 10.8413 11.9244C12.5945 11.9244 14.0209 10.498 14.0209 8.74481C14.0209 6.99158 12.5945 5.56519 10.8413 5.56519Z" fill="#4CA734"/>
<path d="M17.8415 13.5884C15.4087 13.5884 13.4297 15.5673 13.4297 18.0001C13.4297 20.4329 15.4087 22.4119 17.8415 22.4119C20.2742 22.4119 22.2532 20.4326 22.2532 18.0001C22.2532 15.5677 20.2742 13.5884 17.8415 13.5884ZM17.8415 21.7284C15.7859 21.7284 14.1131 20.056 14.1131 18.0001C14.1131 15.9443 15.7859 14.2718 17.8415 14.2718C19.897 14.2718 21.5698 15.9443 21.5698 18.0001C21.5698 20.056 19.8973 21.7284 17.8415 21.7284Z" fill="#4CA734"/>
<path d="M19.5496 17.6274H18.1827V16.2604C18.1827 16.0718 18.0299 15.9187 17.8409 15.9187C17.6519 15.9187 17.4992 16.0718 17.4992 16.2604V17.6274H16.1323C15.9433 17.6274 15.7905 17.7805 15.7905 17.9691C15.7905 18.1577 15.9433 18.3108 16.1323 18.3108H17.4992V19.6778C17.4992 19.8664 17.6519 20.0195 17.8409 20.0195C18.0299 20.0195 18.1827 19.8664 18.1827 19.6778V18.3108H19.5496C19.7386 18.3108 19.8913 18.1577 19.8913 17.9691C19.8913 17.7805 19.7386 17.6274 19.5496 17.6274Z" fill="#4CA734"/>
</svg>
