<svg width="197" height="81" viewBox="0 0 197 81" fill="none" xmlns="http://www.w3.org/2000/svg">
<g filter="url(#filter0_d)">
<path d="M180.842 14H16V62.802H180.842V14Z" fill="#4CA734"/>
</g>
<path d="M77.078 34.2H80.564C82.888 34.2 84.05 35.2547 84.05 37.364C84.05 38.456 83.756 39.268 83.168 39.8C82.58 40.332 81.726 40.598 80.606 40.598H78.87V44H77.078V34.2ZM80.396 39.1C81.012 39.1 81.4693 38.96 81.768 38.68C82.076 38.4 82.23 37.9707 82.23 37.392C82.23 36.8133 82.076 36.3887 81.768 36.118C81.46 35.838 80.9887 35.698 80.354 35.698H78.87V39.1H80.396ZM89.953 41.676H86.383L85.571 44H83.835L87.321 34.2H89.015L92.501 44H90.765L89.953 41.676ZM89.393 40.108L88.175 36.608L86.943 40.108H89.393ZM97.8246 44.196C96.7979 44.196 95.9112 43.986 95.1646 43.566C94.4272 43.146 93.8626 42.5533 93.4706 41.788C93.0786 41.0133 92.8826 40.1127 92.8826 39.086C92.8826 38.078 93.0972 37.1913 93.5266 36.426C93.9652 35.6513 94.5719 35.054 95.3466 34.634C96.1212 34.214 97.0079 34.004 98.0066 34.004C98.5106 34.004 99.0006 34.0553 99.4766 34.158C99.9526 34.2607 100.363 34.4007 100.709 34.578L100.513 36.286C99.7006 35.9127 98.8652 35.726 98.0066 35.726C96.9612 35.726 96.1726 36.034 95.6406 36.65C95.1086 37.2567 94.8426 38.0593 94.8426 39.058C94.8426 40.094 95.1039 40.9247 95.6266 41.55C96.1492 42.166 96.9052 42.474 97.8946 42.474C98.2959 42.474 98.7439 42.4227 99.2386 42.32V40.57H97.8946V39.086H101.031V43.454C100.667 43.6687 100.2 43.846 99.6306 43.986C99.0706 44.126 98.4686 44.196 97.8246 44.196ZM107.849 41.676H104.279L103.467 44H101.731L105.217 34.2H106.911L110.397 44H108.661L107.849 41.676ZM107.289 40.108L106.071 36.608L104.839 40.108H107.289ZM111.517 34.2H115.101C116.147 34.2 116.968 34.452 117.565 34.956C118.172 35.4507 118.475 36.188 118.475 37.168C118.475 37.8493 118.331 38.4093 118.041 38.848C117.752 39.2773 117.341 39.6227 116.809 39.884L119.021 44H117.019L115.129 40.36H115.059H113.309V44H111.517V34.2ZM114.625 38.862C115.941 38.862 116.599 38.33 116.599 37.266C116.599 36.7527 116.45 36.3653 116.151 36.104C115.853 35.8333 115.367 35.698 114.695 35.698H113.309V38.862H114.625Z" fill="white"/>
<defs>
<filter id="filter0_d" x="0" y="0" width="196.842" height="80.802" filterUnits="userSpaceOnUse" color-interpolation-filters="sRGB">
<feFlood flood-opacity="0" result="BackgroundImageFix"/>
<feColorMatrix in="SourceAlpha" type="matrix" values="0 0 0 0 0 0 0 0 0 0 0 0 0 0 0 0 0 0 127 0"/>
<feOffset dy="2"/>
<feGaussianBlur stdDeviation="8"/>
<feColorMatrix type="matrix" values="0 0 0 0 0.537255 0 0 0 0 0.713726 0 0 0 0 0.556863 0 0 0 0.251 0"/>
<feBlend mode="normal" in2="BackgroundImageFix" result="effect1_dropShadow"/>
<feBlend mode="normal" in="SourceGraphic" in2="effect1_dropShadow" result="shape"/>
</filter>
</defs>
</svg>
