<svg width="21" height="20" viewBox="0 0 21 20" fill="none" xmlns="http://www.w3.org/2000/svg">
<path d="M10.8346 19.9999C10.7688 19.9999 10.7021 19.9841 10.6421 19.9524L1.06548 14.9524C0.927975 14.8807 0.841309 14.7382 0.841309 14.5832V5.20824C0.841309 5.06408 0.916309 4.92991 1.03881 4.85408C1.16131 4.77824 1.31548 4.77158 1.44381 4.83574L11.0205 9.62741C11.1613 9.69824 11.2505 9.84241 11.2505 9.99991V19.5832C11.2505 19.7291 11.1746 19.8641 11.0496 19.9399C10.9846 19.9799 10.9096 19.9999 10.8346 19.9999ZM1.67464 14.3307L10.418 18.8957V10.2574L1.67464 5.88241V14.3307Z" fill="#4CA734"/>
<path d="M10.8478 20C10.7728 20 10.6978 19.98 10.632 19.94C10.5078 19.8642 10.4312 19.7292 10.4312 19.5834V10C10.4312 9.84254 10.5203 9.69838 10.6612 9.62754L20.2378 4.83588C20.3653 4.77088 20.5203 4.77754 20.6428 4.85421C20.7662 4.93004 20.8412 5.06421 20.8412 5.20838V14.5834C20.8412 14.7384 20.7545 14.8809 20.617 14.9525L11.0403 19.9525C10.9803 19.9842 10.9137 20 10.8478 20V20ZM11.2645 10.2575V18.8959L20.0078 14.3309V5.88254L11.2645 10.2575ZM20.4245 14.5834H20.4328H20.4245Z" fill="#4CA734"/>
<path d="M1.25786 5.62507C1.10453 5.62507 0.957865 5.54091 0.884531 5.39507C0.781198 5.18924 0.865365 4.93924 1.0712 4.8359L10.6612 0.0442383C10.7787 -0.0140951 10.917 -0.0140951 11.0337 0.0442383L20.6104 4.8359C20.8162 4.93924 20.8995 5.18924 20.797 5.39507C20.6937 5.60091 20.4445 5.68341 20.2379 5.58174L10.8479 0.882572L1.44453 5.58091C1.38453 5.61091 1.3212 5.62507 1.25786 5.62507V5.62507Z" fill="#4CA734"/>
<path d="M15.8412 12.5C15.6112 12.5 15.4245 12.3133 15.4245 12.0833V7.75747L6.07786 3.08081C5.87203 2.97831 5.78869 2.72747 5.89203 2.52164C5.99536 2.31581 6.24536 2.23331 6.45119 2.33497L16.0279 7.12664C16.1687 7.19831 16.2579 7.34247 16.2579 7.49997V12.0833C16.2579 12.3133 16.0712 12.5 15.8412 12.5V12.5Z" fill="#4CA734"/>
</svg>
