<svg width="26" height="25" viewBox="0 0 26 25" fill="none" xmlns="http://www.w3.org/2000/svg">
<path d="M19.4274 18.5863C16.0028 22.0108 10.4606 22.0104 7.0365 18.5863C3.61197 15.1618 3.61245 9.61949 7.0365 6.19543C10.461 2.77091 16.0033 2.77138 19.4274 6.19543C22.8519 9.61996 22.8514 15.1623 19.4274 18.5863ZM18.4593 17.6183C21.3488 14.7288 21.3484 10.0526 18.4593 7.16347C15.5699 4.27401 10.8936 4.27439 8.00454 7.16347C5.11508 10.0529 5.11546 14.7292 8.00454 17.6183C10.894 20.5077 15.5703 20.5073 18.4593 17.6183Z" fill="#4CA734"/>
<rect x="12.5948" y="6.94531" width="1.27442" height="11.1512" rx="0.637212" fill="#4CA734"/>
<rect x="18.8074" y="11.8838" width="1.27442" height="11.1512" rx="0.637212" transform="rotate(90 18.8074 11.8838)" fill="#4CA734"/>
</svg>
