<svg width="22" height="20" viewBox="0 0 22 20" fill="none" xmlns="http://www.w3.org/2000/svg">
<path d="M10.4854 3.33841V4.16265C10.4854 5.52877 11.592 6.63539 12.9581 6.63539C14.3216 6.63539 15.431 5.5262 15.431 4.16265V3.33841C15.6586 3.33841 15.8431 3.15392 15.8431 2.92628C15.8431 2.69865 15.6586 2.51416 15.431 2.51416H14.6067C14.3791 2.51416 14.1946 2.69865 14.1946 2.92628C14.1946 3.15392 14.3791 3.33841 14.6067 3.33841V4.16265C14.6067 5.07158 13.8672 5.81114 12.9581 5.81114C12.0477 5.81114 11.3096 5.07335 11.3096 4.16265V3.33841C11.5372 3.33841 11.7217 3.15392 11.7217 2.92628C11.7217 2.69865 11.5372 2.51416 11.3096 2.51416H10.4854C10.2577 2.51416 10.0732 2.69865 10.0732 2.92628C10.0732 3.15392 10.2577 3.33841 10.4854 3.33841V3.33841Z" fill="#4CA734"/>
<path d="M5.63094 19.491C5.71144 19.5713 5.81672 19.6114 5.92217 19.6114C6.02761 19.6114 6.13306 19.5712 6.21355 19.4908L7.47906 18.2253C7.89134 17.8134 8.08983 17.2491 8.03252 16.6789L8.48634 16.2407C8.84646 15.8936 9.31992 15.7024 9.8193 15.7024H15.2455C16.2175 15.7024 17.1362 15.329 17.8323 14.6511C17.8426 14.6411 17.8523 14.6307 17.8615 14.6196L21.5535 10.186C22.1401 9.49186 22.0524 8.44964 21.3576 7.86237C20.6673 7.28057 19.6328 7.36428 19.0444 8.04686L18.6456 8.4593V0.412123C18.6456 0.184489 18.461 0 18.2335 0H7.64149C7.41402 0 7.22937 0.184489 7.22937 0.412123V9.64577C5.63336 9.98078 4.36753 10.9715 3.68576 12.4197C3.14807 12.3919 2.62374 12.5895 2.23464 12.9791L0.962692 14.2448C0.885097 14.3221 0.84147 14.427 0.841309 14.5365C0.841148 14.6461 0.884775 14.7511 0.962209 14.8285L5.63094 19.491ZM17.8214 0.824246V9.31156L16.6287 10.5447C16.3217 10.1675 15.8538 9.93248 15.3485 9.93248H10.5701C10.5437 9.93248 10.5151 9.92636 10.4863 9.91477C9.84425 9.65301 9.16441 9.52036 8.4659 9.52036C8.32793 9.52036 8.19045 9.52535 8.05377 9.53436V0.824246H17.8214ZM7.70057 10.3989C8.53431 10.2783 9.36806 10.3491 10.1767 10.6786C10.3052 10.7305 10.4376 10.7569 10.5701 10.7569H15.3485C15.7954 10.7569 16.1727 11.1214 16.1727 11.5811C16.1727 12.0356 15.803 12.4054 15.3485 12.4054H11.7629C11.5354 12.4054 11.3508 12.5899 11.3508 12.8175C11.3508 13.0451 11.5354 13.2296 11.7629 13.2296H15.3485C16.2576 13.2296 16.997 12.4901 16.997 11.5811C16.997 11.5084 16.9917 11.4361 16.9823 11.3648C17.0683 11.2767 19.5594 8.7003 19.6457 8.61095C19.652 8.60435 19.6582 8.59759 19.664 8.59067C19.9577 8.2439 20.4791 8.20012 20.826 8.49247C21.1733 8.78594 21.2172 9.30705 20.922 9.65639L17.2423 14.0751C16.7029 14.5932 15.9945 14.8781 15.2455 14.8781H9.8193C9.10533 14.8781 8.42887 15.1511 7.91404 15.6475L7.73229 15.8229C7.65952 15.7111 7.57484 15.6066 7.47922 15.5111L4.94788 12.9798C4.81266 12.8445 4.65924 12.7322 4.49326 12.6435C5.12287 11.4016 6.24752 10.6101 7.70057 10.3989V10.3989ZM2.81692 13.5625C3.24997 13.1288 3.94205 13.1395 4.36496 13.5627L6.89661 16.0942C7.32097 16.5178 7.32853 17.2106 6.89645 17.6422L5.92184 18.6167L1.83716 14.5375L2.81692 13.5625Z" fill="#4CA734"/>
</svg>
