<svg width="21" height="20" viewBox="0 0 21 20" fill="none" xmlns="http://www.w3.org/2000/svg">
<path d="M19.5127 1.50595e-06H1.68171C1.36722 -0.000593372 1.0789 0.175093 0.935138 0.454883C0.789393 0.73844 0.814973 1.0799 1.00117 1.33887L7.5337 10.5412C7.53588 10.5444 7.53826 10.5473 7.54044 10.5505C7.77779 10.871 7.90609 11.259 7.90688 11.658V19.1605C7.90549 19.3828 7.99274 19.5962 8.14939 19.7538C8.30604 19.9115 8.51901 19.9999 8.74109 19.9999C8.85412 19.9999 8.96576 19.9773 9.07006 19.9341L12.7408 18.5343C13.0698 18.434 13.2881 18.1237 13.2881 17.7499V11.658C13.2887 11.2592 13.4172 10.871 13.6544 10.5505C13.6566 10.5473 13.6589 10.5444 13.6611 10.5412L20.1934 1.33847C20.3796 1.0797 20.4052 0.73844 20.2595 0.454883C20.1157 0.175093 19.8274 -0.000593372 19.5127 1.50595e-06V1.50595e-06ZM12.8358 9.9491C12.471 10.4442 12.2737 11.0429 12.2725 11.658V17.6266L8.92214 18.904V11.658C8.92095 11.0429 8.72365 10.4442 8.35859 9.9491L2.01662 1.01526H19.178L12.8358 9.9491Z" fill="#4CA734"/>
</svg>
