<svg width="22" height="22" viewBox="0 0 22 22" fill="none" xmlns="http://www.w3.org/2000/svg">
<path fill-rule="evenodd" clip-rule="evenodd" d="M18.8292 3.19714C16.8552 1.13652 14.2298 0.00120849 11.4328 0C5.66948 0 0.97894 4.89025 0.976622 10.9008C0.975849 12.8221 1.45727 14.6977 2.37232 16.351L0.888916 22L6.43191 20.484C7.95924 21.3526 9.67871 21.8104 11.4286 21.8109H11.433C17.1957 21.8109 21.8867 16.9203 21.8889 10.9095C21.8901 7.99648 20.8035 5.25763 18.8292 3.19714ZM11.4328 19.9699H11.4292C9.86984 19.9692 8.34045 19.5323 7.00593 18.7068L6.68872 18.5104L3.39942 19.4101L4.27738 16.0664L4.07068 15.7236C3.2007 14.2809 2.7413 12.6135 2.74208 10.9014C2.74388 5.90565 6.64261 1.84121 11.4363 1.84121C13.7576 1.84202 15.9397 2.78572 17.5805 4.49843C19.2213 6.21113 20.1244 8.48767 20.1236 10.9088C20.1215 15.905 16.2231 19.9699 11.4328 19.9699V19.9699ZM16.1999 13.1836C15.9387 13.0472 14.6541 12.3884 14.4146 12.2974C14.1753 12.2065 14.0009 12.1612 13.8269 12.4338C13.6527 12.7064 13.1521 13.32 12.9996 13.5017C12.8471 13.6835 12.6948 13.7064 12.4335 13.5699C12.1722 13.4336 11.3304 13.1459 10.3325 12.2179C9.55585 11.4956 9.03154 10.6036 8.87905 10.331C8.72682 10.0582 8.87777 9.92498 8.99368 9.77512C9.2765 9.40895 9.55971 9.02505 9.64677 8.84337C9.73396 8.66156 9.6903 8.50244 9.62488 8.36615C9.55971 8.22986 9.03721 6.8891 8.81955 6.34353C8.60731 5.8126 8.3921 5.8843 8.23163 5.87598C8.0794 5.86805 7.90514 5.86644 7.73089 5.86644C7.55677 5.86644 7.27369 5.93452 7.03414 6.20737C6.79472 6.48009 6.11986 7.13899 6.11986 8.47975C6.11986 9.82051 7.05603 11.1157 7.18662 11.2976C7.31722 11.4794 9.02897 14.2307 11.6497 15.4105C12.2731 15.6914 12.7596 15.8588 13.1392 15.9844C13.7651 16.1917 14.3345 16.1624 14.7847 16.0923C15.2867 16.0141 16.3303 15.4333 16.5482 14.7971C16.7659 14.1608 16.7659 13.6155 16.7005 13.5017C16.6353 13.3881 16.4611 13.32 16.1999 13.1836V13.1836Z" fill="#4CA734"/>
</svg>
