<svg width="17" height="22" viewBox="0 0 17 22" fill="none" xmlns="http://www.w3.org/2000/svg">
<path d="M8.84131 0C4.43001 0 0.841309 3.58871 0.841309 8C0.841309 9.45223 1.4926 11.0141 1.5199 11.08C1.73025 11.5793 2.14531 12.3548 2.4446 12.8094L7.92978 21.1205C8.15425 21.4612 8.48649 21.6565 8.84131 21.6565C9.19613 21.6565 9.52837 21.4612 9.75284 21.1209L15.2385 12.8094C15.5382 12.3548 15.9528 11.5793 16.1632 11.08C16.1905 11.0146 16.8413 9.4527 16.8413 8C16.8413 3.58871 13.2526 0 8.84131 0ZM15.2954 10.7148C15.1077 11.1623 14.7213 11.8838 14.4526 12.2913L8.96696 20.6028C8.85872 20.7671 8.82437 20.7671 8.71613 20.6028L3.23048 12.2913C2.96178 11.8838 2.57543 11.1619 2.38766 10.7144C2.37966 10.6951 1.78249 9.25741 1.78249 8C1.78249 4.10776 4.94907 0.941176 8.84131 0.941176C12.7335 0.941176 15.9001 4.10776 15.9001 8C15.9001 9.25929 15.3015 10.7007 15.2954 10.7148Z" fill="#4CA734"/>
<path d="M8.84112 3.76562C6.5056 3.76562 4.60583 5.66586 4.60583 8.00092C4.60583 10.336 6.5056 12.2362 8.84112 12.2362C11.1766 12.2362 13.0764 10.336 13.0764 8.00092C13.0764 5.66586 11.1766 3.76562 8.84112 3.76562ZM8.84112 11.295C7.02513 11.295 5.54701 9.81739 5.54701 8.00092C5.54701 6.18445 7.02513 4.7068 8.84112 4.7068C10.6571 4.7068 12.1352 6.18445 12.1352 8.00092C12.1352 9.81739 10.6571 11.295 8.84112 11.295Z" fill="#4CA734"/>
</svg>
