<svg width="380" height="934" viewBox="0 0 380 934" fill="none" xmlns="http://www.w3.org/2000/svg">
<rect x="1" width="379" height="934" fill="#F1F1F1"/>
<circle r="6" transform="matrix(-1 0 0 1 172 819.471)" fill="#C4C4C4"/>
<circle cx="212.5" cy="818.971" r="3.5" fill="#C4C4C4"/>
<circle r="3.5" transform="matrix(-1 0 0 1 193.5 818.971)" fill="#C4C4C4"/>
<path d="M121.92 665.012H117.33L116.286 668H114.054L118.536 655.4H120.714L125.196 668H122.964L121.92 665.012ZM121.2 662.996L119.634 658.496L118.05 662.996H121.2ZM130 672.536C128.728 672.536 127.714 672.302 126.958 671.834C126.202 671.378 125.824 670.754 125.824 669.962C125.824 669.098 126.31 668.39 127.282 667.838C126.754 667.514 126.49 667.088 126.49 666.56C126.49 666.284 126.568 666.038 126.724 665.822C126.892 665.606 127.114 665.432 127.39 665.3C126.934 664.976 126.586 664.562 126.346 664.058C126.118 663.554 126.004 663.002 126.004 662.402C126.004 661.742 126.148 661.142 126.436 660.602C126.724 660.05 127.144 659.618 127.696 659.306C128.248 658.982 128.902 658.82 129.658 658.82C130.45 658.82 131.134 659.012 131.71 659.396C131.914 659.288 132.184 659.198 132.52 659.126C132.868 659.042 133.24 659 133.636 659H134.212L134.068 660.404H133.258C133.054 660.404 132.886 660.41 132.754 660.422C133.114 660.974 133.294 661.634 133.294 662.402C133.294 663.062 133.15 663.668 132.862 664.22C132.586 664.76 132.172 665.192 131.62 665.516C131.068 665.828 130.414 665.984 129.658 665.984C129.382 665.984 129.064 665.942 128.704 665.858C128.572 665.918 128.506 666.014 128.506 666.146C128.506 666.302 128.596 666.428 128.776 666.524C128.968 666.608 129.286 666.68 129.73 666.74L131.278 666.938C133.342 667.214 134.374 668.084 134.374 669.548C134.374 670.46 133.984 671.186 133.204 671.726C132.436 672.266 131.368 672.536 130 672.536ZM129.658 664.328C130.174 664.328 130.57 664.16 130.846 663.824C131.134 663.476 131.278 663.002 131.278 662.402C131.278 661.802 131.134 661.334 130.846 660.998C130.57 660.65 130.174 660.476 129.658 660.476C129.13 660.476 128.722 660.65 128.434 660.998C128.158 661.334 128.02 661.802 128.02 662.402C128.02 663.002 128.158 663.476 128.434 663.824C128.722 664.16 129.13 664.328 129.658 664.328ZM130.09 670.844C131.626 670.844 132.394 670.466 132.394 669.71C132.394 669.374 132.262 669.122 131.998 668.954C131.734 668.798 131.296 668.672 130.684 668.576L128.704 668.288C128.02 668.564 127.678 668.984 127.678 669.548C127.678 669.98 127.888 670.304 128.308 670.52C128.728 670.736 129.322 670.844 130.09 670.844ZM135.753 659H137.841L137.895 659.954C138.159 659.654 138.495 659.39 138.903 659.162C139.323 658.934 139.761 658.82 140.217 658.82C140.361 658.82 140.493 658.832 140.613 658.856L140.451 661.052C140.223 660.992 139.965 660.962 139.677 660.962C139.305 660.962 138.963 661.052 138.651 661.232C138.339 661.4 138.117 661.61 137.985 661.862V668H135.753V659ZM146.175 668.18C145.131 668.18 144.237 667.97 143.493 667.55C142.761 667.118 142.209 666.548 141.837 665.84C141.477 665.12 141.297 664.322 141.297 663.446C141.297 662.606 141.471 661.838 141.819 661.142C142.167 660.446 142.671 659.894 143.331 659.486C143.991 659.066 144.777 658.856 145.689 658.856C146.529 658.856 147.237 659.03 147.813 659.378C148.401 659.726 148.839 660.194 149.127 660.782C149.427 661.37 149.577 662.03 149.577 662.762C149.577 663.122 149.529 663.53 149.433 663.986H143.619C143.739 664.778 144.051 665.372 144.555 665.768C145.059 666.152 145.665 666.344 146.373 666.344C147.345 666.344 148.245 666.098 149.073 665.606L149.181 667.496C148.797 667.7 148.347 667.868 147.831 668C147.327 668.12 146.775 668.18 146.175 668.18ZM147.309 662.474C147.309 662.006 147.177 661.592 146.913 661.232C146.649 660.872 146.241 660.692 145.689 660.692C145.137 660.692 144.693 660.854 144.357 661.178C144.021 661.502 143.793 661.934 143.673 662.474H147.309ZM154.964 672.536C153.692 672.536 152.678 672.302 151.922 671.834C151.166 671.378 150.788 670.754 150.788 669.962C150.788 669.098 151.274 668.39 152.246 667.838C151.718 667.514 151.454 667.088 151.454 666.56C151.454 666.284 151.532 666.038 151.688 665.822C151.856 665.606 152.078 665.432 152.354 665.3C151.898 664.976 151.55 664.562 151.31 664.058C151.082 663.554 150.968 663.002 150.968 662.402C150.968 661.742 151.112 661.142 151.4 660.602C151.688 660.05 152.108 659.618 152.66 659.306C153.212 658.982 153.866 658.82 154.622 658.82C155.414 658.82 156.098 659.012 156.674 659.396C156.878 659.288 157.148 659.198 157.484 659.126C157.832 659.042 158.204 659 158.6 659H159.176L159.032 660.404H158.222C158.018 660.404 157.85 660.41 157.718 660.422C158.078 660.974 158.258 661.634 158.258 662.402C158.258 663.062 158.114 663.668 157.826 664.22C157.55 664.76 157.136 665.192 156.584 665.516C156.032 665.828 155.378 665.984 154.622 665.984C154.346 665.984 154.028 665.942 153.668 665.858C153.536 665.918 153.47 666.014 153.47 666.146C153.47 666.302 153.56 666.428 153.74 666.524C153.932 666.608 154.25 666.68 154.694 666.74L156.242 666.938C158.306 667.214 159.338 668.084 159.338 669.548C159.338 670.46 158.948 671.186 158.168 671.726C157.4 672.266 156.332 672.536 154.964 672.536ZM154.622 664.328C155.138 664.328 155.534 664.16 155.81 663.824C156.098 663.476 156.242 663.002 156.242 662.402C156.242 661.802 156.098 661.334 155.81 660.998C155.534 660.65 155.138 660.476 154.622 660.476C154.094 660.476 153.686 660.65 153.398 660.998C153.122 661.334 152.984 661.802 152.984 662.402C152.984 663.002 153.122 663.476 153.398 663.824C153.686 664.16 154.094 664.328 154.622 664.328ZM155.054 670.844C156.59 670.844 157.358 670.466 157.358 669.71C157.358 669.374 157.226 669.122 156.962 668.954C156.698 668.798 156.26 668.672 155.648 668.576L153.668 668.288C152.984 668.564 152.642 668.984 152.642 669.548C152.642 669.98 152.852 670.304 153.272 670.52C153.692 670.736 154.286 670.844 155.054 670.844ZM162.662 668.18C161.918 668.18 161.294 667.94 160.79 667.46C160.298 666.968 160.052 666.308 160.052 665.48C160.052 664.7 160.334 664.076 160.898 663.608C161.462 663.128 162.128 662.792 162.896 662.6C163.664 662.396 164.402 662.282 165.11 662.258C165.086 661.73 164.948 661.352 164.696 661.124C164.456 660.896 164.054 660.782 163.49 660.782C163.094 660.782 162.704 660.836 162.32 660.944C161.948 661.052 161.516 661.226 161.024 661.466L160.826 659.648C161.918 659.12 163.01 658.856 164.102 658.856C165.158 658.856 165.962 659.144 166.514 659.72C167.078 660.296 167.36 661.214 167.36 662.474V664.904C167.36 665.36 167.378 665.69 167.414 665.894C167.462 666.086 167.534 666.212 167.63 666.272C167.738 666.32 167.912 666.344 168.152 666.344H168.44L168.242 668.18H167.432C166.94 668.18 166.526 668.09 166.19 667.91C165.854 667.718 165.596 667.46 165.416 667.136C165.128 667.46 164.732 667.718 164.228 667.91C163.736 668.09 163.214 668.18 162.662 668.18ZM163.598 666.47C163.826 666.47 164.084 666.416 164.372 666.308C164.66 666.188 164.912 666.026 165.128 665.822V663.77C164.408 663.806 163.772 663.962 163.22 664.238C162.668 664.514 162.392 664.898 162.392 665.39C162.392 665.762 162.488 666.038 162.68 666.218C162.872 666.386 163.178 666.47 163.598 666.47ZM182.174 659V668H180.086L180.05 667.46C179.774 667.664 179.456 667.838 179.096 667.982C178.736 668.114 178.388 668.18 178.052 668.18C176.72 668.18 175.748 667.796 175.136 667.028C174.536 666.26 174.236 665.198 174.236 663.842V659H176.468V663.842C176.468 664.682 176.606 665.306 176.882 665.714C177.17 666.11 177.626 666.308 178.25 666.308C178.946 666.308 179.51 666.056 179.942 665.552V659H182.174ZM189.093 658.856C190.209 658.856 191.055 659.228 191.631 659.972C192.207 660.716 192.495 661.718 192.495 662.978V668H190.263V663.158C190.263 662.318 190.119 661.7 189.831 661.304C189.555 660.896 189.105 660.692 188.481 660.692C187.797 660.692 187.233 660.95 186.789 661.466V668H184.557V659H186.645L186.681 659.63C187.437 659.114 188.241 658.856 189.093 658.856ZM205.18 668.252C203.908 668.252 202.78 667.982 201.796 667.442C200.824 666.902 200.068 666.14 199.528 665.156C198.988 664.16 198.718 663.008 198.718 661.7C198.718 660.404 198.994 659.264 199.546 658.28C200.11 657.284 200.884 656.516 201.868 655.976C202.864 655.424 203.992 655.148 205.252 655.148C206.464 655.148 207.55 655.394 208.51 655.886L208.258 658.082C207.742 657.854 207.244 657.68 206.764 657.56C206.296 657.428 205.786 657.362 205.234 657.362C203.95 657.362 202.96 657.758 202.264 658.55C201.58 659.342 201.238 660.392 201.238 661.7C201.238 663.008 201.574 664.058 202.246 664.85C202.93 665.642 203.908 666.038 205.18 666.038C205.744 666.038 206.26 665.978 206.728 665.858C207.208 665.738 207.718 665.558 208.258 665.318L208.51 667.514C207.466 668.006 206.356 668.252 205.18 668.252ZM214.311 668.18C213.363 668.18 212.541 667.97 211.845 667.55C211.149 667.13 210.615 666.566 210.243 665.858C209.871 665.15 209.685 664.37 209.685 663.518C209.685 662.666 209.871 661.88 210.243 661.16C210.615 660.44 211.149 659.87 211.845 659.45C212.541 659.03 213.363 658.82 214.311 658.82C215.259 658.82 216.081 659.03 216.777 659.45C217.473 659.87 218.007 660.44 218.379 661.16C218.751 661.88 218.937 662.666 218.937 663.518C218.937 664.37 218.751 665.15 218.379 665.858C218.007 666.566 217.473 667.13 216.777 667.55C216.081 667.97 215.259 668.18 214.311 668.18ZM214.311 666.344C215.043 666.344 215.613 666.086 216.021 665.57C216.441 665.054 216.651 664.37 216.651 663.518C216.651 662.654 216.441 661.964 216.021 661.448C215.613 660.92 215.043 660.656 214.311 660.656C213.579 660.656 213.003 660.92 212.583 661.448C212.175 661.964 211.971 662.654 211.971 663.518C211.971 664.37 212.175 665.054 212.583 665.57C213.003 666.086 213.579 666.344 214.311 666.344ZM223.619 668.18C222.827 668.18 222.227 667.952 221.819 667.496C221.411 667.028 221.207 666.47 221.207 665.822V660.836H219.929L220.127 659H221.207V657.02L223.439 656.786V659H225.419V660.836H223.439V664.904C223.439 665.384 223.463 665.72 223.511 665.912C223.571 666.092 223.685 666.212 223.853 666.272C224.033 666.32 224.351 666.344 224.807 666.344H225.419L225.221 668.18H223.619ZM227.173 655.4H229.405V657.632H227.173V655.4ZM227.173 659H229.405V668H227.173V659ZM234.731 668.18C233.939 668.18 233.339 667.952 232.931 667.496C232.523 667.028 232.319 666.47 232.319 665.822V660.836H231.041L231.239 659H232.319V657.02L234.551 656.786V659H236.531V660.836H234.551V664.904C234.551 665.384 234.575 665.72 234.623 665.912C234.683 666.092 234.797 666.212 234.965 666.272C235.145 666.32 235.463 666.344 235.919 666.344H236.531L236.333 668.18H234.731ZM246.132 659V668H244.044L244.008 667.46C243.732 667.664 243.414 667.838 243.054 667.982C242.694 668.114 242.346 668.18 242.01 668.18C240.678 668.18 239.706 667.796 239.094 667.028C238.494 666.26 238.194 665.198 238.194 663.842V659H240.426V663.842C240.426 664.682 240.564 665.306 240.84 665.714C241.128 666.11 241.584 666.308 242.208 666.308C242.904 666.308 243.468 666.056 243.9 665.552V659H246.132ZM250.82 668.18C250.052 668.18 249.476 667.964 249.092 667.532C248.708 667.088 248.516 666.518 248.516 665.822V654.5H250.748V664.904C250.748 665.384 250.772 665.726 250.82 665.93C250.88 666.122 250.976 666.242 251.108 666.29C251.252 666.326 251.492 666.344 251.828 666.344L251.63 668.18H250.82ZM255.488 668.18C254.744 668.18 254.12 667.94 253.616 667.46C253.124 666.968 252.878 666.308 252.878 665.48C252.878 664.7 253.16 664.076 253.724 663.608C254.288 663.128 254.954 662.792 255.722 662.6C256.49 662.396 257.228 662.282 257.936 662.258C257.912 661.73 257.774 661.352 257.522 661.124C257.282 660.896 256.88 660.782 256.316 660.782C255.92 660.782 255.53 660.836 255.146 660.944C254.774 661.052 254.342 661.226 253.85 661.466L253.652 659.648C254.744 659.12 255.836 658.856 256.928 658.856C257.984 658.856 258.788 659.144 259.34 659.72C259.904 660.296 260.186 661.214 260.186 662.474V664.904C260.186 665.36 260.204 665.69 260.24 665.894C260.288 666.086 260.36 666.212 260.456 666.272C260.564 666.32 260.738 666.344 260.978 666.344H261.266L261.068 668.18H260.258C259.766 668.18 259.352 668.09 259.016 667.91C258.68 667.718 258.422 667.46 258.242 667.136C257.954 667.46 257.558 667.718 257.054 667.91C256.562 668.09 256.04 668.18 255.488 668.18ZM256.424 666.47C256.652 666.47 256.91 666.416 257.198 666.308C257.486 666.188 257.738 666.026 257.954 665.822V663.77C257.234 663.806 256.598 663.962 256.046 664.238C255.494 664.514 255.218 664.898 255.218 665.39C255.218 665.762 255.314 666.038 255.506 666.218C255.698 666.386 256.004 666.47 256.424 666.47ZM262.809 659H264.897L264.951 659.954C265.215 659.654 265.551 659.39 265.959 659.162C266.379 658.934 266.817 658.82 267.273 658.82C267.417 658.82 267.549 658.832 267.669 658.856L267.507 661.052C267.279 660.992 267.021 660.962 266.733 660.962C266.361 660.962 266.019 661.052 265.707 661.232C265.395 661.4 265.173 661.61 265.041 661.862V668H262.809V659Z" fill="#4CA734"/>
<path d="M119.304 715.732H116.088L115.284 718H114.084L117.096 709.6H118.296L121.308 718H120.108L119.304 715.732ZM118.944 714.7L117.696 711.196L116.448 714.7H118.944ZM124.709 721C123.877 721 123.201 720.848 122.681 720.544C122.169 720.24 121.913 719.808 121.913 719.248C121.913 718.632 122.253 718.172 122.933 717.868C122.549 717.676 122.357 717.428 122.357 717.124C122.357 716.74 122.589 716.456 123.053 716.272C122.725 716.072 122.473 715.8 122.297 715.456C122.121 715.112 122.033 714.724 122.033 714.292C122.033 713.86 122.129 713.472 122.321 713.128C122.521 712.776 122.801 712.5 123.161 712.3C123.529 712.1 123.961 712 124.457 712C124.985 712 125.465 712.152 125.897 712.456C126.321 712.216 126.809 712.096 127.361 712.096H127.457L127.325 712.816H127.049C126.977 712.816 126.873 712.824 126.737 712.84C126.601 712.856 126.481 712.876 126.377 712.9C126.545 713.092 126.673 713.308 126.761 713.548C126.849 713.788 126.893 714.036 126.893 714.292C126.893 714.74 126.793 715.144 126.593 715.504C126.401 715.856 126.121 716.136 125.753 716.344C125.385 716.544 124.953 716.644 124.457 716.644C124.169 716.644 123.905 716.608 123.665 716.536C123.481 716.6 123.389 716.704 123.389 716.848C123.389 717.04 123.609 717.168 124.049 717.232L125.621 717.484C126.277 717.588 126.773 717.776 127.109 718.048C127.445 718.32 127.613 718.696 127.613 719.176C127.613 719.776 127.353 720.228 126.833 720.532C126.321 720.844 125.613 721 124.709 721ZM124.457 715.78C124.905 715.78 125.249 715.648 125.489 715.384C125.737 715.112 125.861 714.752 125.861 714.304C125.861 713.872 125.737 713.524 125.489 713.26C125.249 712.996 124.905 712.864 124.457 712.864C124.009 712.864 123.665 712.996 123.425 713.26C123.185 713.524 123.065 713.872 123.065 714.304C123.065 714.752 123.185 715.112 123.425 715.384C123.665 715.648 124.009 715.78 124.457 715.78ZM124.805 720.04C125.357 720.04 125.781 719.968 126.077 719.824C126.373 719.68 126.521 719.472 126.521 719.2C126.521 718.992 126.429 718.824 126.245 718.696C126.069 718.576 125.801 718.48 125.441 718.408L123.761 718.12C123.521 718.232 123.325 718.368 123.173 718.528C123.021 718.696 122.945 718.88 122.945 719.08C122.945 719.408 123.109 719.648 123.437 719.8C123.765 719.96 124.221 720.04 124.805 720.04ZM128.609 712.12H129.497L129.629 713.092C129.933 712.716 130.221 712.44 130.493 712.264C130.773 712.088 131.065 712 131.369 712C131.465 712 131.557 712.012 131.645 712.036L131.537 713.224C131.433 713.2 131.313 713.188 131.177 713.188C130.881 713.188 130.601 713.256 130.337 713.392C130.073 713.52 129.881 713.672 129.761 713.848V718H128.609V712.12ZM135.374 718.12C134.702 718.12 134.126 717.984 133.646 717.712C133.174 717.432 132.814 717.056 132.566 716.584C132.318 716.112 132.194 715.588 132.194 715.012C132.194 714.46 132.306 713.956 132.53 713.5C132.762 713.036 133.094 712.672 133.526 712.408C133.966 712.136 134.482 712 135.074 712C135.826 712 136.434 712.22 136.898 712.66C137.37 713.1 137.606 713.708 137.606 714.484C137.606 714.684 137.59 714.876 137.558 715.06H133.298C133.37 715.82 133.602 716.36 133.994 716.68C134.386 717 134.89 717.16 135.506 717.16C136.122 717.16 136.686 717.044 137.198 716.812L137.342 717.664C136.662 717.968 136.006 718.12 135.374 718.12ZM136.49 714.316C136.49 713.892 136.37 713.56 136.13 713.32C135.89 713.08 135.53 712.96 135.05 712.96C134.586 712.96 134.222 713.076 133.958 713.308C133.694 713.532 133.506 713.868 133.394 714.316H136.49ZM141.371 721C140.539 721 139.863 720.848 139.343 720.544C138.831 720.24 138.575 719.808 138.575 719.248C138.575 718.632 138.915 718.172 139.595 717.868C139.211 717.676 139.019 717.428 139.019 717.124C139.019 716.74 139.251 716.456 139.715 716.272C139.387 716.072 139.135 715.8 138.959 715.456C138.783 715.112 138.695 714.724 138.695 714.292C138.695 713.86 138.791 713.472 138.983 713.128C139.183 712.776 139.463 712.5 139.823 712.3C140.191 712.1 140.623 712 141.119 712C141.647 712 142.127 712.152 142.559 712.456C142.983 712.216 143.471 712.096 144.023 712.096H144.119L143.987 712.816H143.711C143.639 712.816 143.535 712.824 143.399 712.84C143.263 712.856 143.143 712.876 143.039 712.9C143.207 713.092 143.335 713.308 143.423 713.548C143.511 713.788 143.555 714.036 143.555 714.292C143.555 714.74 143.455 715.144 143.255 715.504C143.063 715.856 142.783 716.136 142.415 716.344C142.047 716.544 141.615 716.644 141.119 716.644C140.831 716.644 140.567 716.608 140.327 716.536C140.143 716.6 140.051 716.704 140.051 716.848C140.051 717.04 140.271 717.168 140.711 717.232L142.283 717.484C142.939 717.588 143.435 717.776 143.771 718.048C144.107 718.32 144.275 718.696 144.275 719.176C144.275 719.776 144.015 720.228 143.495 720.532C142.983 720.844 142.275 721 141.371 721ZM141.119 715.78C141.567 715.78 141.911 715.648 142.151 715.384C142.399 715.112 142.523 714.752 142.523 714.304C142.523 713.872 142.399 713.524 142.151 713.26C141.911 712.996 141.567 712.864 141.119 712.864C140.671 712.864 140.327 712.996 140.087 713.26C139.847 713.524 139.727 713.872 139.727 714.304C139.727 714.752 139.847 715.112 140.087 715.384C140.327 715.648 140.671 715.78 141.119 715.78ZM141.467 720.04C142.019 720.04 142.443 719.968 142.739 719.824C143.035 719.68 143.183 719.472 143.183 719.2C143.183 718.992 143.091 718.824 142.907 718.696C142.731 718.576 142.463 718.48 142.103 718.408L140.423 718.12C140.183 718.232 139.987 718.368 139.835 718.528C139.683 718.696 139.607 718.88 139.607 719.08C139.607 719.408 139.771 719.648 140.099 719.8C140.427 719.96 140.883 720.04 141.467 720.04ZM146.639 718.12C146.095 718.12 145.655 717.96 145.319 717.64C144.991 717.32 144.827 716.912 144.827 716.416C144.827 715.672 145.179 715.14 145.883 714.82C146.587 714.5 147.407 714.332 148.343 714.316C148.343 713.788 148.239 713.432 148.031 713.248C147.831 713.056 147.507 712.96 147.059 712.96C146.811 712.96 146.563 713 146.315 713.08C146.067 713.152 145.799 713.288 145.511 713.488L145.355 712.612C145.595 712.428 145.891 712.28 146.243 712.168C146.595 712.056 146.963 712 147.347 712C147.851 712 148.251 712.088 148.547 712.264C148.851 712.44 149.071 712.732 149.207 713.14C149.351 713.548 149.423 714.108 149.423 714.82V716.02C149.423 716.34 149.435 716.584 149.459 716.752C149.491 716.912 149.555 717.036 149.651 717.124C149.747 717.212 149.895 717.256 150.095 717.256H150.203L150.035 718.12H149.951C149.615 718.12 149.351 718.088 149.159 718.024C148.967 717.96 148.819 717.868 148.715 717.748C148.619 717.628 148.527 717.464 148.439 717.256C147.943 717.832 147.343 718.12 146.639 718.12ZM146.843 717.256C147.131 717.256 147.407 717.184 147.671 717.04C147.943 716.896 148.167 716.704 148.343 716.464V715.06C147.479 715.092 146.859 715.208 146.483 715.408C146.115 715.6 145.931 715.916 145.931 716.356C145.931 716.66 146.011 716.888 146.171 717.04C146.339 717.184 146.563 717.256 146.843 717.256ZM157.14 712C157.884 712 158.452 712.244 158.844 712.732C159.236 713.22 159.432 713.884 159.432 714.724V718H158.352V714.856C158.352 714.208 158.232 713.732 157.992 713.428C157.76 713.116 157.396 712.96 156.9 712.96C156.596 712.96 156.316 713.032 156.06 713.176C155.804 713.312 155.588 713.508 155.412 713.764V718H154.32V709H155.412V712.684C155.644 712.46 155.896 712.292 156.168 712.18C156.448 712.06 156.772 712 157.14 712ZM162.504 718.12C161.96 718.12 161.52 717.96 161.184 717.64C160.856 717.32 160.692 716.912 160.692 716.416C160.692 715.672 161.044 715.14 161.748 714.82C162.452 714.5 163.272 714.332 164.208 714.316C164.208 713.788 164.104 713.432 163.896 713.248C163.696 713.056 163.372 712.96 162.924 712.96C162.676 712.96 162.428 713 162.18 713.08C161.932 713.152 161.664 713.288 161.376 713.488L161.22 712.612C161.46 712.428 161.756 712.28 162.108 712.168C162.46 712.056 162.828 712 163.212 712C163.716 712 164.116 712.088 164.412 712.264C164.716 712.44 164.936 712.732 165.072 713.14C165.216 713.548 165.288 714.108 165.288 714.82V716.02C165.288 716.34 165.3 716.584 165.324 716.752C165.356 716.912 165.42 717.036 165.516 717.124C165.612 717.212 165.76 717.256 165.96 717.256H166.068L165.9 718.12H165.816C165.48 718.12 165.216 718.088 165.024 718.024C164.832 717.96 164.684 717.868 164.58 717.748C164.484 717.628 164.392 717.464 164.304 717.256C163.808 717.832 163.208 718.12 162.504 718.12ZM162.708 717.256C162.996 717.256 163.272 717.184 163.536 717.04C163.808 716.896 164.032 716.704 164.208 716.464V715.06C163.344 715.092 162.724 715.208 162.348 715.408C161.98 715.6 161.796 715.916 161.796 716.356C161.796 716.66 161.876 716.888 162.036 717.04C162.204 717.184 162.428 717.256 162.708 717.256ZM168.87 718.12C168.406 718.12 167.998 718.068 167.646 717.964C167.302 717.852 167.038 717.732 166.854 717.604L166.986 716.56C167.146 716.704 167.39 716.84 167.718 716.968C168.054 717.096 168.422 717.16 168.822 717.16C169.198 717.16 169.486 717.096 169.686 716.968C169.894 716.84 169.998 716.66 169.998 716.428C169.998 716.156 169.886 715.952 169.662 715.816C169.438 715.672 169.158 715.552 168.822 715.456C168.454 715.36 168.142 715.26 167.886 715.156C167.638 715.044 167.422 714.876 167.238 714.652C167.062 714.428 166.974 714.132 166.974 713.764C166.974 713.26 167.154 712.84 167.514 712.504C167.874 712.168 168.43 712 169.182 712C169.526 712 169.818 712.036 170.058 712.108C170.298 712.172 170.538 712.264 170.778 712.384L170.646 713.368C170.454 713.208 170.242 713.084 170.01 712.996C169.778 712.9 169.51 712.852 169.206 712.852C168.854 712.852 168.574 712.92 168.366 713.056C168.166 713.184 168.066 713.38 168.066 713.644C168.066 713.82 168.114 713.964 168.21 714.076C168.306 714.18 168.442 714.268 168.618 714.34C168.794 714.412 169.066 714.504 169.434 714.616C169.89 714.752 170.282 714.944 170.61 715.192C170.946 715.44 171.114 715.832 171.114 716.368C171.114 716.848 170.942 717.26 170.598 717.604C170.262 717.948 169.686 718.12 168.87 718.12ZM174.498 718.12C173.978 718.12 173.59 717.984 173.334 717.712C173.086 717.44 172.962 717.108 172.962 716.716V712.96H171.954L172.05 712.12H172.962V710.668L174.042 710.56V712.12H175.59V712.96H174.042V716.056C174.042 716.464 174.066 716.744 174.114 716.896C174.162 717.048 174.262 717.148 174.414 717.196C174.574 717.236 174.862 717.256 175.278 717.256H175.554L175.47 718.12H174.498ZM178.181 718.12C177.637 718.12 177.197 717.96 176.861 717.64C176.533 717.32 176.369 716.912 176.369 716.416C176.369 715.672 176.721 715.14 177.425 714.82C178.129 714.5 178.949 714.332 179.885 714.316C179.885 713.788 179.781 713.432 179.573 713.248C179.373 713.056 179.049 712.96 178.601 712.96C178.353 712.96 178.105 713 177.857 713.08C177.609 713.152 177.341 713.288 177.053 713.488L176.897 712.612C177.137 712.428 177.433 712.28 177.785 712.168C178.137 712.056 178.505 712 178.889 712C179.393 712 179.793 712.088 180.089 712.264C180.393 712.44 180.613 712.732 180.749 713.14C180.893 713.548 180.965 714.108 180.965 714.82V716.02C180.965 716.34 180.977 716.584 181.001 716.752C181.033 716.912 181.097 717.036 181.193 717.124C181.289 717.212 181.437 717.256 181.637 717.256H181.745L181.577 718.12H181.493C181.157 718.12 180.893 718.088 180.701 718.024C180.509 717.96 180.361 717.868 180.257 717.748C180.161 717.628 180.069 717.464 179.981 717.256C179.485 717.832 178.885 718.12 178.181 718.12ZM178.385 717.256C178.673 717.256 178.949 717.184 179.213 717.04C179.485 716.896 179.709 716.704 179.885 716.464V715.06C179.021 715.092 178.401 715.208 178.025 715.408C177.657 715.6 177.473 715.916 177.473 716.356C177.473 716.66 177.553 716.888 177.713 717.04C177.881 717.184 178.105 717.256 178.385 717.256ZM187.902 718.12C187.382 718.12 186.994 717.984 186.738 717.712C186.49 717.44 186.366 717.108 186.366 716.716V712.96H185.358L185.454 712.12H186.366V710.668L187.446 710.56V712.12H188.994V712.96H187.446V716.056C187.446 716.464 187.47 716.744 187.518 716.896C187.566 717.048 187.666 717.148 187.818 717.196C187.978 717.236 188.266 717.256 188.682 717.256H188.958L188.874 718.12H187.902ZM190.217 712.12H191.105L191.237 713.092C191.541 712.716 191.829 712.44 192.101 712.264C192.381 712.088 192.673 712 192.977 712C193.073 712 193.165 712.012 193.253 712.036L193.145 713.224C193.041 713.2 192.921 713.188 192.785 713.188C192.489 713.188 192.209 713.256 191.945 713.392C191.681 713.52 191.489 713.672 191.369 713.848V718H190.217V712.12ZM196.982 718.12C196.31 718.12 195.734 717.984 195.254 717.712C194.782 717.432 194.422 717.056 194.174 716.584C193.926 716.112 193.802 715.588 193.802 715.012C193.802 714.46 193.914 713.956 194.138 713.5C194.37 713.036 194.702 712.672 195.134 712.408C195.574 712.136 196.09 712 196.682 712C197.434 712 198.042 712.22 198.506 712.66C198.978 713.1 199.214 713.708 199.214 714.484C199.214 714.684 199.198 714.876 199.166 715.06H194.906C194.978 715.82 195.21 716.36 195.602 716.68C195.994 717 196.498 717.16 197.114 717.16C197.73 717.16 198.294 717.044 198.806 716.812L198.95 717.664C198.27 717.968 197.614 718.12 196.982 718.12ZM198.098 714.316C198.098 713.892 197.978 713.56 197.738 713.32C197.498 713.08 197.138 712.96 196.658 712.96C196.194 712.96 195.83 713.076 195.566 713.308C195.302 713.532 195.114 713.868 195.002 714.316H198.098ZM202.27 718.12C201.806 718.12 201.398 718.068 201.046 717.964C200.702 717.852 200.438 717.732 200.254 717.604L200.386 716.56C200.546 716.704 200.79 716.84 201.118 716.968C201.454 717.096 201.822 717.16 202.222 717.16C202.598 717.16 202.886 717.096 203.086 716.968C203.294 716.84 203.398 716.66 203.398 716.428C203.398 716.156 203.286 715.952 203.062 715.816C202.838 715.672 202.558 715.552 202.222 715.456C201.854 715.36 201.542 715.26 201.286 715.156C201.038 715.044 200.822 714.876 200.638 714.652C200.462 714.428 200.374 714.132 200.374 713.764C200.374 713.26 200.554 712.84 200.914 712.504C201.274 712.168 201.83 712 202.582 712C202.926 712 203.218 712.036 203.458 712.108C203.698 712.172 203.938 712.264 204.178 712.384L204.046 713.368C203.854 713.208 203.642 713.084 203.41 712.996C203.178 712.9 202.91 712.852 202.606 712.852C202.254 712.852 201.974 712.92 201.766 713.056C201.566 713.184 201.466 713.38 201.466 713.644C201.466 713.82 201.514 713.964 201.61 714.076C201.706 714.18 201.842 714.268 202.018 714.34C202.194 714.412 202.466 714.504 202.834 714.616C203.29 714.752 203.682 714.944 204.01 715.192C204.346 715.44 204.514 715.832 204.514 716.368C204.514 716.848 204.342 717.26 203.998 717.604C203.662 717.948 203.086 718.12 202.27 718.12ZM212.838 718.168C212.022 718.168 211.294 717.988 210.654 717.628C210.014 717.268 209.51 716.76 209.142 716.104C208.782 715.44 208.602 714.672 208.602 713.8C208.602 712.928 208.786 712.164 209.154 711.508C209.522 710.844 210.03 710.332 210.678 709.972C211.326 709.612 212.062 709.432 212.886 709.432C213.294 709.432 213.694 709.476 214.086 709.564C214.478 709.652 214.826 709.772 215.13 709.924L215.01 710.98C214.29 710.636 213.578 710.464 212.874 710.464C212.234 710.464 211.686 710.612 211.23 710.908C210.774 711.196 210.43 711.592 210.198 712.096C209.966 712.6 209.85 713.168 209.85 713.8C209.85 714.432 209.966 715 210.198 715.504C210.43 716.008 210.77 716.408 211.218 716.704C211.666 716.992 212.21 717.136 212.85 717.136C213.602 717.136 214.322 716.968 215.01 716.632L215.13 717.688C214.434 718.008 213.67 718.168 212.838 718.168ZM218.965 718.12C218.365 718.12 217.845 717.988 217.405 717.724C216.965 717.452 216.629 717.084 216.397 716.62C216.165 716.156 216.049 715.636 216.049 715.06C216.049 714.484 216.165 713.964 216.397 713.5C216.629 713.036 216.965 712.672 217.405 712.408C217.845 712.136 218.365 712 218.965 712C219.557 712 220.073 712.136 220.513 712.408C220.961 712.672 221.301 713.036 221.533 713.5C221.765 713.964 221.881 714.484 221.881 715.06C221.881 715.636 221.765 716.156 221.533 716.62C221.301 717.084 220.961 717.452 220.513 717.724C220.073 717.988 219.557 718.12 218.965 718.12ZM218.965 717.16C219.541 717.16 219.985 716.976 220.297 716.608C220.617 716.24 220.777 715.724 220.777 715.06C220.777 714.396 220.617 713.88 220.297 713.512C219.985 713.144 219.541 712.96 218.965 712.96C218.389 712.96 217.941 713.144 217.621 713.512C217.309 713.88 217.153 714.396 217.153 715.06C217.153 715.724 217.309 716.24 217.621 716.608C217.941 716.976 218.389 717.16 218.965 717.16ZM225.24 718.12C224.72 718.12 224.332 717.984 224.076 717.712C223.828 717.44 223.704 717.108 223.704 716.716V712.96H222.696L222.792 712.12H223.704V710.668L224.784 710.56V712.12H226.332V712.96H224.784V716.056C224.784 716.464 224.808 716.744 224.856 716.896C224.904 717.048 225.004 717.148 225.156 717.196C225.316 717.236 225.604 717.256 226.02 717.256H226.296L226.212 718.12H225.24ZM227.555 709.6H228.635V710.8H227.555V709.6ZM227.555 712.12H228.635V718H227.555V712.12ZM232.426 718.12C231.906 718.12 231.518 717.984 231.262 717.712C231.014 717.44 230.89 717.108 230.89 716.716V712.96H229.882L229.978 712.12H230.89V710.668L231.97 710.56V712.12H233.518V712.96H231.97V716.056C231.97 716.464 231.994 716.744 232.042 716.896C232.09 717.048 232.19 717.148 232.342 717.196C232.502 717.236 232.79 717.256 233.206 717.256H233.482L233.398 718.12H232.426ZM239.565 712.12V718H238.605L238.485 717.352C238.293 717.616 238.065 717.812 237.801 717.94C237.545 718.06 237.229 718.12 236.853 718.12C236.149 718.12 235.609 717.908 235.233 717.484C234.865 717.052 234.681 716.404 234.681 715.54V712.12H235.761V715.24C235.761 715.88 235.869 716.36 236.085 716.68C236.309 717 236.657 717.16 237.129 717.16C237.409 717.16 237.669 717.104 237.909 716.992C238.157 716.88 238.349 716.716 238.485 716.5V712.12H239.565ZM242.846 718.12C242.318 718.12 241.93 717.984 241.682 717.712C241.442 717.44 241.322 717.104 241.322 716.704V709H242.402V716.08C242.402 716.432 242.422 716.688 242.462 716.848C242.51 717.008 242.598 717.116 242.726 717.172C242.854 717.228 243.062 717.256 243.35 717.256L243.194 718.12H242.846ZM245.838 718.12C245.294 718.12 244.854 717.96 244.518 717.64C244.19 717.32 244.026 716.912 244.026 716.416C244.026 715.672 244.378 715.14 245.082 714.82C245.786 714.5 246.606 714.332 247.542 714.316C247.542 713.788 247.438 713.432 247.23 713.248C247.03 713.056 246.706 712.96 246.258 712.96C246.01 712.96 245.762 713 245.514 713.08C245.266 713.152 244.998 713.288 244.71 713.488L244.554 712.612C244.794 712.428 245.09 712.28 245.442 712.168C245.794 712.056 246.162 712 246.546 712C247.05 712 247.45 712.088 247.746 712.264C248.05 712.44 248.27 712.732 248.406 713.14C248.55 713.548 248.622 714.108 248.622 714.82V716.02C248.622 716.34 248.634 716.584 248.658 716.752C248.69 716.912 248.754 717.036 248.85 717.124C248.946 717.212 249.094 717.256 249.294 717.256H249.402L249.234 718.12H249.15C248.814 718.12 248.55 718.088 248.358 718.024C248.166 717.96 248.018 717.868 247.914 717.748C247.818 717.628 247.726 717.464 247.638 717.256C247.142 717.832 246.542 718.12 245.838 718.12ZM246.042 717.256C246.33 717.256 246.606 717.184 246.87 717.04C247.142 716.896 247.366 716.704 247.542 716.464V715.06C246.678 715.092 246.058 715.208 245.682 715.408C245.314 715.6 245.13 715.916 245.13 716.356C245.13 716.66 245.21 716.888 245.37 717.04C245.538 717.184 245.762 717.256 246.042 717.256ZM250.536 712.12H251.424L251.556 713.092C251.86 712.716 252.148 712.44 252.42 712.264C252.7 712.088 252.992 712 253.296 712C253.392 712 253.484 712.012 253.572 712.036L253.464 713.224C253.36 713.2 253.24 713.188 253.104 713.188C252.808 713.188 252.528 713.256 252.264 713.392C252 713.52 251.808 713.672 251.688 713.848V718H250.536V712.12ZM257.3 718.12C256.628 718.12 256.052 717.984 255.572 717.712C255.1 717.432 254.74 717.056 254.492 716.584C254.244 716.112 254.12 715.588 254.12 715.012C254.12 714.46 254.232 713.956 254.456 713.5C254.688 713.036 255.02 712.672 255.452 712.408C255.892 712.136 256.408 712 257 712C257.752 712 258.36 712.22 258.824 712.66C259.296 713.1 259.532 713.708 259.532 714.484C259.532 714.684 259.516 714.876 259.484 715.06H255.224C255.296 715.82 255.528 716.36 255.92 716.68C256.312 717 256.816 717.16 257.432 717.16C258.048 717.16 258.612 717.044 259.124 716.812L259.268 717.664C258.588 717.968 257.932 718.12 257.3 718.12ZM258.416 714.316C258.416 713.892 258.296 713.56 258.056 713.32C257.816 713.08 257.456 712.96 256.976 712.96C256.512 712.96 256.148 713.076 255.884 713.308C255.62 713.532 255.432 713.868 255.32 714.316H258.416ZM262.589 718.12C262.125 718.12 261.717 718.068 261.365 717.964C261.021 717.852 260.757 717.732 260.573 717.604L260.705 716.56C260.865 716.704 261.109 716.84 261.437 716.968C261.773 717.096 262.141 717.16 262.541 717.16C262.917 717.16 263.205 717.096 263.405 716.968C263.613 716.84 263.717 716.66 263.717 716.428C263.717 716.156 263.605 715.952 263.381 715.816C263.157 715.672 262.877 715.552 262.541 715.456C262.173 715.36 261.861 715.26 261.605 715.156C261.357 715.044 261.141 714.876 260.957 714.652C260.781 714.428 260.693 714.132 260.693 713.764C260.693 713.26 260.873 712.84 261.233 712.504C261.593 712.168 262.149 712 262.901 712C263.245 712 263.537 712.036 263.777 712.108C264.017 712.172 264.257 712.264 264.497 712.384L264.365 713.368C264.173 713.208 263.961 713.084 263.729 712.996C263.497 712.9 263.229 712.852 262.925 712.852C262.573 712.852 262.293 712.92 262.085 713.056C261.885 713.184 261.785 713.38 261.785 713.644C261.785 713.82 261.833 713.964 261.929 714.076C262.025 714.18 262.161 714.268 262.337 714.34C262.513 714.412 262.785 714.504 263.153 714.616C263.609 714.752 264.001 714.944 264.329 715.192C264.665 715.44 264.833 715.832 264.833 716.368C264.833 716.848 264.661 717.26 264.317 717.604C263.981 717.948 263.405 718.12 262.589 718.12Z" fill="black"/>
<path d="M192.884 593.5L0.871146 496.703L0.871103 3.31332e-05L379.871 0L379.871 496.703L192.884 593.5Z" fill="white"/>
<path fill-rule="evenodd" clip-rule="evenodd" d="M76.5701 0.5L0.871094 41.142V87.2541L121.269 22.5132L248.821 91.5293V132.346L121.283 64.0797V64.0715L121.276 64.0756L121.266 64.0707V64.0806L48.9631 102.797L48.7109 102.661L12.0391 121.956L157.046 201.045L121.267 221.399L0.871094 155.196V195.946L121.266 259.99L121.272 259.992V259.987L230.485 200.62L228.917 199.782L84.8273 122.126L121.276 102.666L291.87 196.169V195.427V154.61V68.5234L165.76 0.5H76.5701ZM121.266 346.818L0.871094 282.7V236.763L121.267 300.807L248.821 232.532L291.87 255.538L121.272 346.816V346.821L121.267 346.818L121.266 346.819V346.818Z" fill="#F1F1F1"/>
<path d="M198.738 208.834H197.552V176.395C197.552 173.929 197.066 171.488 196.121 169.21C195.175 166.932 193.79 164.862 192.044 163.119C190.298 161.375 188.224 159.992 185.943 159.049C183.661 158.105 181.215 157.62 178.746 157.62H109.903C107.434 157.62 104.988 158.105 102.706 159.049C100.425 159.992 98.3514 161.375 96.605 163.119C94.8587 164.862 93.4734 166.932 92.5283 169.21C91.5831 171.488 91.0967 173.929 91.0967 176.395V354.359C91.0967 359.339 93.0781 364.114 96.605 367.635C100.132 371.156 104.915 373.134 109.903 373.134H178.746C183.733 373.134 188.517 371.156 192.044 367.635C195.571 364.114 197.552 359.339 197.552 354.359V231.925H198.738V208.834Z" fill="#3F3D56"/>
<path d="M179.505 162.504H170.518C170.932 163.516 171.089 164.613 170.978 165.7C170.866 166.786 170.488 167.829 169.878 168.736C169.268 169.642 168.443 170.385 167.478 170.899C166.512 171.412 165.435 171.681 164.341 171.681H124.902C123.807 171.681 122.73 171.412 121.764 170.899C120.799 170.385 119.974 169.642 119.364 168.736C118.754 167.829 118.376 166.786 118.264 165.7C118.153 164.613 118.311 163.516 118.724 162.504H110.331C106.606 162.504 103.034 163.981 100.4 166.611C97.7658 169.24 96.2861 172.806 96.2861 176.525V354.228C96.2861 356.07 96.6494 357.893 97.3552 359.594C98.061 361.295 99.0955 362.841 100.4 364.143C101.704 365.445 103.252 366.477 104.956 367.182C106.66 367.887 108.486 368.249 110.331 368.249H179.505C181.349 368.249 183.175 367.887 184.879 367.182C186.583 366.478 188.131 365.445 189.436 364.143C190.74 362.841 191.774 361.295 192.48 359.594C193.186 357.893 193.549 356.07 193.549 354.228V176.525C193.549 172.806 192.069 169.24 189.436 166.611C186.802 163.981 183.229 162.504 179.505 162.504Z" fill="white"/>
<path d="M146.246 311.164C141.152 311.169 136.107 310.171 131.4 308.227C126.693 306.283 122.416 303.432 118.814 299.836C115.212 296.24 112.356 291.97 110.409 287.271C108.462 282.572 107.462 277.536 107.467 272.45C107.46 265.309 109.434 258.306 113.17 252.217C116.906 246.128 122.259 241.191 128.635 237.954C133.256 235.606 138.302 234.206 143.473 233.836C148.645 233.465 153.839 234.132 158.749 235.796C167.444 238.754 174.806 244.698 179.522 252.568C184.238 260.438 186.003 269.724 184.502 278.772C183.001 287.819 178.332 296.041 171.326 301.974C164.32 307.906 155.432 311.163 146.246 311.164L146.246 311.164ZM146.246 235.254C140.363 235.237 134.561 236.626 129.326 239.306C124.75 241.633 120.706 244.88 117.446 248.842C114.187 252.804 111.783 257.396 110.386 262.33C108.989 267.264 108.629 272.432 109.328 277.512C110.027 282.591 111.77 287.471 114.448 291.846C117.126 296.221 120.681 299.996 124.89 302.933C129.099 305.871 133.87 307.909 138.906 308.918C143.941 309.928 149.13 309.887 154.149 308.798C159.168 307.71 163.907 305.598 168.069 302.594C170.081 301.145 171.942 299.497 173.623 297.674C178.539 292.364 181.798 285.737 183 278.606C184.202 271.474 183.294 264.148 180.389 257.523C177.483 250.899 172.706 245.264 166.642 241.309C160.578 237.354 153.49 235.249 146.246 235.254Z" fill="#F0F0F0"/>
<path d="M62.2171 238.093C63.2815 238.226 64.3037 238.591 65.2118 239.161C66.1198 239.731 66.8915 240.493 67.4725 241.394C68.0536 242.294 68.4299 243.31 68.5749 244.372C68.7198 245.433 68.63 246.513 68.3117 247.535L81.196 258.25L76.5837 267.654L58.6014 252.269C56.9158 251.621 55.5268 250.378 54.6976 248.776C53.8683 247.175 53.6565 245.325 54.1022 243.577C54.5479 241.83 55.6201 240.307 57.1157 239.296C58.6114 238.285 60.4265 237.857 62.2171 238.093L62.2171 238.093Z" fill="#FFB6B6"/>
<path d="M182.551 282.774C182.293 280.001 181.224 275.016 180.318 273.173C177.531 265.891 159.527 259.907 157.109 259.136L156.495 252.329L131.479 249.642L128.306 258.346L119.333 261.706C118.724 261.933 118.173 262.292 117.719 262.756C117.265 263.221 116.919 263.78 116.707 264.394L108.658 266.716L100.714 269.009L73.1178 249.596L71.8149 250.446L63.1062 256.119L61.7627 256.995L97.4751 289.161L110.741 286.053L120.717 283.71L121.569 287.162L119.364 299.287C125.752 305.667 134.208 309.566 143.216 310.285C152.223 311.003 161.192 308.495 168.514 303.209L174.182 298.189C178.131 293.925 181.047 288.812 182.703 283.245L182.551 282.774Z" fill="#E4E4E4"/>
<path d="M151.848 244.075C161.291 240.954 166.412 230.781 163.285 221.353C160.159 211.925 149.969 206.813 140.525 209.934C131.081 213.056 125.96 223.229 129.087 232.657C132.214 242.084 142.404 247.197 151.848 244.075Z" fill="#FFB6B6"/>
<path d="M131.959 206.505C133.71 204.009 136.338 202.261 139.32 201.61C142.269 201.004 145.338 201.566 147.88 203.177C150.643 202.066 153.623 201.328 156.551 201.703C159.478 202.078 162.348 203.711 163.702 206.4C163.987 207.097 164.333 207.767 164.736 208.404C165.929 209.993 168.147 210.199 170.106 210.276C169.116 210.852 168.125 211.429 167.134 212.006C168.122 212.465 169.109 212.924 170.096 213.383C168.752 213.895 167.409 214.407 166.066 214.919C169.192 217.663 169.949 222.547 168.765 226.641C167.644 230.518 165.074 233.781 162.204 236.575C161.644 234.49 162.26 232.23 162.67 230.072C163.103 227.791 163.173 225.125 161.573 223.515C160.494 222.429 158.912 222.101 157.42 221.837C149.892 220.508 142.296 219.608 134.666 219.14C133.645 218.999 132.605 219.105 131.633 219.449C129.776 220.273 129.03 222.535 128.492 224.541C128.235 221.02 128.441 217.481 129.105 214.014C129.614 211.36 130.416 208.704 131.959 206.505Z" fill="#2F2E41"/>
<path d="M155.371 329.404H134.081C133.342 329.404 132.632 329.111 132.11 328.589C131.587 328.067 131.293 327.359 131.293 326.621C131.293 325.883 131.587 325.175 132.11 324.653C132.632 324.131 133.342 323.837 134.081 323.837H155.371C156.111 323.837 156.82 324.131 157.343 324.653C157.866 325.175 158.16 325.883 158.16 326.621C158.16 327.359 157.866 328.067 157.343 328.589C156.82 329.111 156.111 329.404 155.371 329.404Z" fill="#4CA734"/>
<path d="M276.372 428.986L271.123 428.986L268.626 408.775L276.373 408.775L276.372 428.986Z" fill="#9F616A"/>
<path d="M278.435 436.238L258.396 436.237V435.984C258.397 433.919 259.218 431.939 260.681 430.478C262.144 429.018 264.128 428.198 266.196 428.198H266.197L269.857 425.425L276.686 428.198L278.436 428.198L278.435 436.238Z" fill="#2F2E41"/>
<path d="M273.313 333.998L270.998 305.82L269.18 295.244L279.361 292.999L282.74 307.478L279.797 334.779C280.39 335.506 280.753 336.393 280.838 337.327C280.923 338.26 280.726 339.198 280.273 340.019C279.82 340.841 279.132 341.508 278.296 341.936C277.46 342.363 276.515 342.532 275.583 342.419C274.651 342.307 273.773 341.919 273.064 341.305C272.354 340.691 271.844 339.879 271.6 338.973C271.356 338.068 271.389 337.111 271.694 336.224C271.999 335.337 272.563 334.562 273.313 333.998H273.313Z" fill="#FFB6B6"/>
<path d="M248.491 428.986L243.242 428.986L240.745 408.775L248.492 408.775L248.491 428.986Z" fill="#9F616A"/>
<path d="M240.091 340.385L237.764 344.403C237.764 344.403 235.207 345.1 236.043 353.421C236.878 361.741 236.914 411.036 240.959 417.102L241.691 422.311L249.328 423.04L249.521 418.418L258.628 354.206C258.628 354.206 263.991 417.242 268.428 418.784L270.031 424.036L277.03 424.039L276.617 417.85L277.068 339.734L240.091 340.385Z" fill="#2F2E41"/>
<path d="M237.533 344.097L237.372 344.056C242.175 326.123 240.789 302.901 237.398 277.965L237.398 277.862L249.657 266.652H260.303L270.856 273.451C277.678 276.856 279.228 284.068 279.243 284.14L279.254 284.192L275.074 298.758L278.223 340.885L278.226 340.934L278.208 340.979C277.189 343.559 274.458 343.192 271.296 342.766C268.139 342.341 256.506 346.227 252.939 346.227C245.968 346.227 238.031 344.225 237.533 344.097Z" fill="#E4E4E4"/>
<path d="M268.646 279.129L273.219 277.142L279.244 284.517L284.128 308.149L267.399 305.619L268.646 279.129Z" fill="#E4E4E4"/>
<path d="M198.306 322.707L219.212 303.635L226.478 295.727L234.487 302.392L225.084 313.921L201.654 328.304C201.442 329.217 200.961 330.047 200.274 330.685C199.586 331.323 198.723 331.742 197.795 331.887C196.867 332.032 195.917 331.897 195.067 331.499C194.217 331.1 193.505 330.458 193.023 329.653C192.542 328.848 192.313 327.917 192.365 326.981C192.417 326.045 192.748 325.146 193.316 324.399C193.884 323.652 194.663 323.092 195.552 322.791C196.441 322.489 197.4 322.46 198.306 322.707L198.306 322.707Z" fill="#FFB6B6"/>
<path d="M218.756 303.843L224.546 296.336C224.594 296.228 229.398 285.511 233.562 280.855C237.833 276.078 241.196 278.521 241.23 278.547L241.313 278.61L241.546 296.25L225.513 315.375L218.756 303.843Z" fill="#E4E4E4"/>
<path d="M263.557 256.093C264.42 250.782 260.807 245.778 255.487 244.917C250.167 244.055 245.155 247.661 244.292 252.972C243.428 258.283 247.041 263.287 252.361 264.149C257.681 265.011 262.693 261.404 263.557 256.093Z" fill="#FFB6B6"/>
<path d="M245.002 253.087C245.002 253.087 244.924 249.662 244.491 248.146C244.057 246.631 243.189 245.332 243.623 245.332C244.057 245.332 244.274 244.249 244.274 244.249C244.274 244.249 244.707 244.033 244.924 244.249C245.141 244.466 245.358 242.734 245.358 242.734C245.358 242.734 245.575 242.084 245.792 242.517C246.008 242.95 246.008 242.734 246.225 242.084C246.442 241.435 247.527 241.002 247.527 241.002C247.527 241.002 251.647 241.218 252.297 240.352C252.948 239.486 260.321 240.136 261.839 241.218C263.357 242.301 270.08 246.198 268.995 249.445C267.911 252.693 264.79 260.17 264.008 260.919C262.771 262.105 261.914 262.532 256.062 263.695C254.917 263.922 249.071 260.19 249.071 259.54C249.071 258.891 249.775 256.831 248.642 256.548C246.93 256.121 246.737 258.282 246.304 257.633C245.87 256.983 245.002 253.087 245.002 253.087Z" fill="#2F2E41"/>
<path d="M250.555 436.238L230.517 436.237V435.984C230.517 433.919 231.339 431.939 232.801 430.478C234.264 429.018 236.248 428.198 238.316 428.198H238.317L241.977 425.425L248.807 428.198L250.556 428.198L250.555 436.238Z" fill="#2F2E41"/>
<path d="M354.722 436.62H26.5977C26.4376 436.62 26.2841 436.556 26.1709 436.443C26.0577 436.33 25.9941 436.177 25.9941 436.017C25.9941 435.857 26.0577 435.704 26.1709 435.591C26.2841 435.478 26.4376 435.415 26.5977 435.415H354.722C354.882 435.415 355.035 435.478 355.149 435.591C355.262 435.704 355.325 435.857 355.325 436.017C355.325 436.177 355.262 436.33 355.149 436.443C355.035 436.556 354.882 436.62 354.722 436.62Z" fill="#CACACA"/>
<path fill-rule="evenodd" clip-rule="evenodd" d="M173.91 286.585C173.91 285.513 173.042 284.644 171.97 284.644C170.898 284.644 170.029 285.513 170.029 286.585V295.935H160.679C159.607 295.935 158.738 296.804 158.738 297.876C158.738 298.948 159.607 299.816 160.679 299.816H170.029V309.167C170.029 310.239 170.898 311.107 171.97 311.107C173.042 311.107 173.91 310.239 173.91 309.167V299.816H183.261C184.333 299.816 185.202 298.948 185.202 297.876C185.202 296.804 184.333 295.935 183.261 295.935H173.91V286.585Z" fill="#4CA734"/>
<path d="M127.643 72.1593V76.5502L142.81 67.8392L138.983 65.6438L127.643 72.1593Z" fill="#4CA734"/>
<path d="M127.643 64.5814V68.2641L137.353 62.5984L134.022 60.6863L127.643 64.5814Z" fill="#4CA734"/>
<path d="M127.643 76.5503V72.1594L116.232 65.6438V61.7487L127.643 68.2642V64.5815L112.404 55.5873V55.7289V59.5533V67.8393L127.643 76.5503Z" fill="#4CA734"/>
<path d="M127.643 45.6016V41.2107L112.404 49.9925L116.232 52.1879L127.643 45.6016Z" fill="#4CA734"/>
<path d="M127.644 53.2503V49.5676L119.635 54.171L122.824 56.0123L127.644 53.2503Z" fill="#4CA734"/>
<path d="M127.643 41.2107V45.6016L138.983 52.1879V56.0831L127.643 49.5676V53.2502L142.81 62.1737V62.1029V58.2077V49.9925L127.643 41.2107Z" fill="#4CA734"/>
<path d="M134.022 64.5106L137.353 62.5985L121.193 53.2501L117.933 55.0915L134.022 64.5106Z" fill="#4CA734"/>
<path d="M160.247 63.0235C160.247 64.2275 159.963 65.2898 159.325 66.1396C158.687 66.9895 157.837 67.6977 156.774 68.1934C155.64 68.6892 154.435 68.9016 152.946 68.9016C152.521 68.9016 152.025 68.9016 151.458 68.8308C150.891 68.76 150.111 68.6184 149.119 68.4059C148.126 68.1934 147.134 67.8393 146.142 67.3436V62.5986C147.134 63.1652 148.056 63.7317 148.977 64.0858C149.898 64.5107 150.891 64.6524 152.025 64.6524C153.017 64.6524 153.655 64.5107 153.938 64.1566C154.222 63.8025 154.364 63.5193 154.364 63.236C154.364 62.7402 154.08 62.3153 153.584 61.8904C153.088 61.5363 152.379 61.1822 151.387 60.7572C150.324 60.3323 149.402 59.8366 148.623 59.3408C147.843 58.8451 147.205 58.1369 146.638 57.3578C146.142 56.5788 145.858 55.6581 145.858 54.5958C145.858 53.5335 146.142 52.6128 146.638 51.763C147.134 50.9131 147.914 50.2758 148.977 49.78C150.04 49.2843 151.316 49.001 152.804 49.001C153.868 49.001 154.86 49.0718 155.781 49.2843C156.703 49.4967 157.412 49.7092 158.049 49.9925C158.616 50.2758 159.042 50.4882 159.254 50.6299V55.1624C158.475 54.5958 157.624 54.1001 156.632 53.6752C155.64 53.2502 154.647 53.0378 153.513 53.0378C152.804 53.0378 152.237 53.1794 151.954 53.4627C151.6 53.746 151.458 54.1001 151.458 54.525C151.458 54.8791 151.6 55.2332 151.954 55.5165C152.308 55.7998 152.875 56.1539 153.655 56.508C155.143 57.2162 156.348 57.8536 157.199 58.3493C158.12 58.9159 158.758 59.5533 159.254 60.2615C159.963 61.0405 160.247 61.9612 160.247 63.0235Z" fill="black"/>
<path d="M177.044 68.6184H172.012V61.3238C172.012 61.253 172.012 61.1822 172.012 61.1822C172.012 61.1113 172.012 61.0405 172.012 60.8281C172.012 60.1199 171.87 59.5533 171.586 58.9867C171.303 58.4202 170.736 58.1369 169.956 58.1369C169.318 58.1369 168.751 58.3493 168.255 58.7743C167.759 59.1992 167.334 59.6949 166.908 60.3323V68.6184H161.876V49.4259H166.908V56.5788C167.759 55.729 168.539 55.0916 169.318 54.8083C170.098 54.4542 170.948 54.3125 171.87 54.3125C175.272 54.3125 176.973 56.2247 176.973 60.049V68.6184H177.044Z" fill="black"/>
<path d="M183.849 68.6182H178.816V54.454H183.849V68.6182ZM183.494 51.2671C183.494 51.8336 183.282 52.3294 182.856 52.7543C182.431 53.1792 181.935 53.3917 181.368 53.3917C181.014 53.3917 180.659 53.3209 180.305 53.1084C179.95 52.896 179.738 52.6835 179.525 52.3294C179.313 51.9753 179.242 51.6212 179.242 51.2671C179.242 50.7005 179.454 50.2048 179.88 49.7798C180.305 49.3549 180.801 49.1425 181.368 49.1425C181.935 49.1425 182.431 49.3549 182.856 49.7798C183.282 50.2048 183.494 50.6297 183.494 51.2671Z" fill="black"/>
<path d="M201.426 61.4653C201.426 62.3859 201.284 63.3066 201.001 64.2273C200.717 65.0771 200.292 65.927 199.796 66.6352C199.229 67.3434 198.52 67.91 197.67 68.3349C196.819 68.7598 195.827 68.9723 194.622 68.9723C193.7 68.9723 192.992 68.9015 192.425 68.689C191.858 68.4765 191.361 68.2641 190.865 67.91V75.1337H185.833V54.5956H190.865V55.8704C191.361 55.4455 191.929 55.0914 192.496 54.8081C193.133 54.5248 193.913 54.3832 194.976 54.3832C196.039 54.3832 197.032 54.6665 198.024 55.1622C199.016 55.658 199.796 56.437 200.434 57.5701C201.143 58.4908 201.426 59.8364 201.426 61.4653ZM196.181 61.6069C196.181 60.7571 196.039 60.0488 195.756 59.5531C195.472 58.9865 195.118 58.6324 194.693 58.42C194.267 58.2075 193.842 58.0659 193.346 58.0659C192.779 58.0659 192.283 58.1367 191.858 58.3491C191.503 58.5616 191.149 58.7741 190.794 59.0574V64.4397C190.936 64.5106 191.149 64.6522 191.361 64.723C191.574 64.8647 191.787 64.9355 191.929 65.0063C192.141 65.0771 192.354 65.148 192.566 65.2188C192.779 65.2896 193.063 65.2896 193.275 65.2896C194.055 65.2896 194.693 64.9355 195.26 64.2981C195.898 63.6607 196.181 62.74 196.181 61.6069Z" fill="black"/>
<path d="M235.094 63.1652C235.094 64.794 234.527 66.1396 233.393 67.1311C232.259 68.1226 230.7 68.6184 228.644 68.6184H217.517V49.4259H226.802C228.007 49.4259 229.07 49.5675 229.92 49.78C230.842 49.9925 231.55 50.3466 232.047 50.7007C232.614 51.1256 232.968 51.5505 233.252 52.1171C233.535 52.6837 233.677 53.2502 233.677 53.8876C233.677 54.5958 233.535 55.2332 233.252 55.8706C232.968 56.4372 232.614 56.9329 232.188 57.3578C231.763 57.7119 231.338 57.9952 230.913 58.1369C232.259 58.6326 233.252 59.3408 233.889 60.1199C234.74 60.8989 235.094 61.8904 235.094 63.1652ZM228.29 54.9499C228.29 54.0293 228.007 53.3919 227.369 53.1086C226.731 52.8253 225.809 52.6837 224.534 52.6837H223.329V57.287H224.604C225.951 57.287 226.872 57.1454 227.44 56.8621C228.007 56.4372 228.29 55.8706 228.29 54.9499ZM229.282 62.9527C229.282 61.3238 228.077 60.474 225.668 60.474H223.329V65.4314H225.668C228.077 65.4314 229.282 64.5816 229.282 62.9527Z" fill="black"/>
<path d="M252.176 61.5364C252.176 62.9528 251.892 64.2276 251.255 65.2899C250.617 66.423 249.695 67.2729 248.49 67.9103C247.285 68.5477 245.797 68.9018 244.025 68.9018C242.253 68.9018 240.765 68.5477 239.56 67.9103C238.355 67.2729 237.433 66.423 236.795 65.2899C236.158 64.1568 235.874 62.9528 235.874 61.5364C235.874 60.4741 236.016 59.4826 236.37 58.6327C236.725 57.7829 237.221 57.0039 237.929 56.2956C238.638 55.6583 239.489 55.0917 240.481 54.7376C241.473 54.3835 242.678 54.171 243.954 54.171C245.301 54.171 246.435 54.3835 247.498 54.7376C248.49 55.0917 249.341 55.5874 250.05 56.2956C250.688 56.933 251.255 57.7121 251.538 58.6327C252.034 59.4826 252.176 60.4741 252.176 61.5364ZM246.931 61.5364C246.931 60.4033 246.718 59.5534 246.222 58.916C245.726 58.2786 245.017 57.9953 244.096 57.9953C243.174 57.9953 242.466 58.2786 241.97 58.916C241.473 59.5534 241.261 60.4033 241.261 61.5364C241.261 62.6695 241.473 63.5194 241.97 64.1568C242.466 64.7942 243.174 65.1483 244.096 65.1483C245.017 65.1483 245.726 64.7942 246.222 64.1568C246.718 63.5194 246.931 62.6695 246.931 61.5364Z" fill="black"/>
<path d="M268.338 68.6184H262.171L259.407 64.5816L256.714 68.6184H251.256L256.714 61.678L251.114 54.4542H257.281L259.903 58.2786L262.526 54.4542H267.983L262.667 61.1822L268.338 68.6184Z" fill="black"/>
<path d="M217.87 68.4768H212.483L211.491 67.4145C210.853 67.8394 210.073 68.1936 209.223 68.406C208.372 68.6185 207.522 68.6893 206.671 68.6893C204.899 68.6893 203.482 68.2644 202.56 67.4853C201.639 66.7063 201.143 65.7148 201.143 64.6525C201.143 63.8735 201.355 63.1653 201.851 62.5279C202.348 61.8905 203.269 61.1115 204.616 60.1908C204.19 59.7659 203.907 59.4118 203.623 58.9868C203.34 58.6327 203.198 58.2078 203.056 57.8537C202.915 57.4996 202.844 57.0747 202.844 56.7206C202.844 55.9415 203.056 55.2333 203.482 54.5959C203.907 53.9586 204.545 53.392 205.324 53.0379C206.175 52.613 207.096 52.4713 208.23 52.4713C209.01 52.4713 209.79 52.613 210.428 52.8254C211.066 53.1087 211.562 53.392 211.987 53.8169C212.412 54.2418 212.696 54.5959 212.908 55.0917C213.121 55.5166 213.192 55.9415 213.192 56.3665C213.192 57.1455 212.908 57.9245 212.341 58.6327C211.774 59.3409 211.066 59.9075 210.073 60.4033L212.2 62.6695C212.837 62.103 213.475 61.3239 213.971 60.4033H217.799C216.807 62.2446 215.673 63.8027 214.397 64.9358L217.87 68.4768ZM209.364 65.2191L206.6 62.3154C205.608 62.9528 205.112 63.5902 205.112 64.2276C205.112 64.5817 205.324 65.0066 205.679 65.3607C206.033 65.7148 206.529 65.9273 207.238 65.9273C208.018 65.9273 208.727 65.7148 209.364 65.2191ZM210.002 56.4373C210.002 56.2248 209.931 56.0124 209.861 55.7999C209.719 55.5874 209.577 55.375 209.294 55.3041C209.01 55.1625 208.727 55.0917 208.372 55.0917C207.876 55.0917 207.451 55.2333 207.167 55.5166C206.884 55.7999 206.813 56.0832 206.813 56.3665C206.813 56.5789 206.884 56.7914 207.025 57.0038C207.167 57.2163 207.38 57.4288 207.592 57.7121C207.805 57.9953 208.089 58.2078 208.301 58.4203C209.435 57.9245 210.002 57.2871 210.002 56.4373Z" fill="#4CA734"/>
<path d="M176.122 775.667C175.189 775.667 174.354 775.457 173.616 775.037C172.888 774.617 172.319 774.024 171.908 773.259C171.498 772.484 171.292 771.588 171.292 770.571C171.292 769.553 171.498 768.662 171.908 767.897C172.319 767.122 172.888 766.525 173.616 766.105C174.354 765.685 175.189 765.475 176.122 765.475C177.056 765.475 177.886 765.685 178.614 766.105C179.352 766.525 179.926 767.122 180.336 767.897C180.747 768.662 180.952 769.553 180.952 770.571C180.952 771.588 180.747 772.484 180.336 773.259C179.926 774.024 179.352 774.617 178.614 775.037C177.886 775.457 177.056 775.667 176.122 775.667ZM176.122 774.379C176.85 774.379 177.471 774.215 177.984 773.889C178.498 773.553 178.88 773.1 179.132 772.531C179.394 771.952 179.524 771.299 179.524 770.571C179.524 769.843 179.394 769.194 179.132 768.625C178.88 768.046 178.498 767.593 177.984 767.267C177.471 766.931 176.85 766.763 176.122 766.763C175.394 766.763 174.774 766.931 174.26 767.267C173.747 767.593 173.36 768.046 173.098 768.625C172.846 769.194 172.72 769.843 172.72 770.571C172.72 771.299 172.846 771.952 173.098 772.531C173.36 773.1 173.747 773.553 174.26 773.889C174.774 774.215 175.394 774.379 176.122 774.379ZM190.572 768.471C192.327 768.471 193.204 769.455 193.204 771.425V775.471H191.944V771.439C191.944 770.795 191.818 770.328 191.566 770.039C191.314 769.74 190.903 769.591 190.334 769.591C189.121 769.591 188.514 770.225 188.514 771.495V775.471H187.254V771.691C187.254 770.907 187.114 770.361 186.834 770.053C186.563 769.745 186.167 769.591 185.644 769.591C185.233 769.591 184.869 769.665 184.552 769.815C184.235 769.964 183.992 770.188 183.824 770.487V775.471H182.564V768.611H183.544L183.684 769.339C184.029 769.031 184.375 768.811 184.72 768.681C185.075 768.541 185.453 768.471 185.854 768.471C186.899 768.471 187.637 768.928 188.066 769.843C188.542 768.928 189.377 768.471 190.572 768.471ZM195.142 765.671H196.402V767.071H195.142V765.671ZM195.142 768.611H196.402V775.471H195.142V768.611ZM200.774 775.611C200.168 775.611 199.715 775.452 199.416 775.135C199.127 774.817 198.982 774.43 198.982 773.973V769.591H197.806L197.918 768.611H198.982V766.917L200.242 766.791V768.611H202.048V769.591H200.242V773.203C200.242 773.679 200.27 774.005 200.326 774.183C200.382 774.36 200.499 774.477 200.676 774.533C200.863 774.579 201.199 774.603 201.684 774.603H202.006L201.908 775.611H200.774ZM203.425 765.671H204.685V767.071H203.425V765.671ZM203.425 768.611H204.685V775.471H203.425V768.611ZM206.692 768.611H207.728L207.882 769.745C208.237 769.306 208.573 768.984 208.89 768.779C209.217 768.573 209.557 768.471 209.912 768.471C210.024 768.471 210.131 768.485 210.234 768.513L210.108 769.899C209.987 769.871 209.847 769.857 209.688 769.857C209.343 769.857 209.016 769.936 208.708 770.095C208.4 770.244 208.176 770.421 208.036 770.627V775.471H206.692V768.611Z" fill="black"/>
</svg>
