<svg width="21" height="26" viewBox="0 0 21 26" fill="none" xmlns="http://www.w3.org/2000/svg">
<path d="M13.5184 8.68189H9.38245C9.17211 8.68189 9.00159 8.51141 9.00159 8.30103C9.00159 8.09064 9.17211 7.92017 9.38245 7.92017H13.5184C13.7288 7.92017 13.8993 8.09064 13.8993 8.30103C13.8993 8.51141 13.7288 8.68189 13.5184 8.68189Z" fill="#4CA734"/>
<path d="M17.6553 6.7273H9.3833C9.17296 6.7273 9.00244 6.55682 9.00244 6.34644C9.00244 6.13605 9.17296 5.96558 9.3833 5.96558H17.6553C17.8657 5.96558 18.0362 6.13605 18.0362 6.34644C18.0362 6.55682 17.8657 6.7273 17.6553 6.7273Z" fill="#4CA734"/>
<path d="M13.5186 15.064H9.38257C9.17223 15.064 9.00171 14.8935 9.00171 14.6831C9.00171 14.4727 9.17223 14.3022 9.38257 14.3022H13.5186C13.7289 14.3022 13.8994 14.4727 13.8994 14.6831C13.8994 14.8935 13.7289 15.064 13.5186 15.064Z" fill="#4CA734"/>
<path d="M17.6554 13.1096H9.38342C9.17309 13.1096 9.00256 12.9391 9.00256 12.7288C9.00256 12.5184 9.17309 12.3479 9.38342 12.3479H17.6554C17.8658 12.3479 18.0363 12.5184 18.0363 12.7288C18.0363 12.9391 17.8658 13.1096 17.6554 13.1096Z" fill="#4CA734"/>
<path d="M13.5186 21.4475H9.38257C9.17223 21.4475 9.00171 21.277 9.00171 21.0667C9.00171 20.8563 9.17223 20.6858 9.38257 20.6858H13.5186C13.7289 20.6858 13.8994 20.8563 13.8994 21.0667C13.8994 21.277 13.7289 21.4475 13.5186 21.4475Z" fill="#4CA734"/>
<path d="M17.6554 19.4922H9.38342C9.17309 19.4922 9.00256 19.3217 9.00256 19.1113C9.00256 18.9009 9.17309 18.7305 9.38342 18.7305H17.6554C17.8658 18.7305 18.0363 18.9009 18.0363 19.1113C18.0363 19.3217 17.8658 19.4922 17.6554 19.4922Z" fill="#4CA734"/>
<path d="M13.8866 3.58775H7.30004C6.67401 3.58775 6.16467 3.07846 6.16467 2.45243V1.13537C6.16472 0.509336 6.67401 0 7.30004 0H13.8865C14.5126 0 15.0219 0.509336 15.0219 1.13537V2.45243C15.0219 3.07846 14.5126 3.58775 13.8866 3.58775ZM7.30004 0.761719C7.09402 0.761719 6.92639 0.929348 6.92639 1.13537V2.45243C6.92639 2.65845 7.09402 2.82603 7.30004 2.82603H13.8865C14.0925 2.82603 14.2602 2.6584 14.2602 2.45243V1.13537C14.2602 0.929297 14.0925 0.761719 13.8865 0.761719H7.30004Z" fill="#4CA734"/>
<path d="M5.86708 9.19278H4.17439C3.61056 9.19278 3.15186 8.73408 3.15186 8.17025V6.47761C3.15186 5.91379 3.61056 5.45508 4.17439 5.45508H5.86708C6.4309 5.45508 6.88961 5.91379 6.88961 6.47761V8.1703C6.88961 8.73408 6.4309 9.19278 5.86708 9.19278ZM4.17439 6.2168C4.03057 6.2168 3.91357 6.3338 3.91357 6.47761V8.1703C3.91357 8.31412 4.03057 8.43112 4.17439 8.43112H5.86708C6.01089 8.43112 6.12789 8.31412 6.12789 8.1703V6.47761C6.12789 6.3338 6.01089 6.2168 5.86708 6.2168H4.17439Z" fill="#4CA734"/>
<path d="M5.86635 15.5754H4.17365C3.60983 15.5754 3.15112 15.1167 3.15112 14.5529V12.8602C3.15112 12.2964 3.60983 11.8376 4.17365 11.8376H5.86635C6.43017 11.8376 6.88888 12.2964 6.88888 12.8602V14.5529C6.88888 15.1167 6.43017 15.5754 5.86635 15.5754ZM4.17365 12.5994C4.02984 12.5994 3.91284 12.7164 3.91284 12.8602V14.5529C3.91284 14.6967 4.02984 14.8137 4.17365 14.8137H5.86635C6.01016 14.8137 6.12716 14.6967 6.12716 14.5529V12.8602C6.12716 12.7164 6.01016 12.5994 5.86635 12.5994H4.17365Z" fill="#4CA734"/>
<path d="M5.86635 21.958H4.17365C3.60983 21.958 3.15112 21.4993 3.15112 20.9354V19.2428C3.15112 18.6789 3.60983 18.2202 4.17365 18.2202H5.86635C6.43017 18.2202 6.88888 18.6789 6.88888 19.2428V20.9354C6.88888 21.4993 6.43017 21.958 5.86635 21.958ZM4.17365 18.982C4.02984 18.982 3.91284 19.099 3.91284 19.2428V20.9355C3.91284 21.0793 4.02984 21.1964 4.17365 21.1964H5.86635C6.01016 21.1964 6.12716 21.0793 6.12716 20.9355V19.2428C6.12716 19.099 6.01016 18.982 5.86635 18.982H4.17365Z" fill="#4CA734"/>
<path d="M18.6955 26.0001H2.49112C1.58132 26.0001 0.841187 25.2599 0.841187 24.3501V3.06297C0.841187 2.15322 1.58137 1.41309 2.49112 1.41309H4.77349C4.98382 1.41309 5.15435 1.58356 5.15435 1.79395C5.15435 2.00433 4.98382 2.17481 4.77349 2.17481H2.49112C2.00134 2.17481 1.60291 2.57324 1.60291 3.06297V24.3501C1.60291 24.8399 2.00139 25.2383 2.49112 25.2383H18.6955C19.1853 25.2383 19.5837 24.8398 19.5837 24.3501V3.06297C19.5837 2.57318 19.1853 2.17481 18.6955 2.17481H16.4132C16.2028 2.17481 16.0323 2.00433 16.0323 1.79395C16.0323 1.58356 16.2028 1.41309 16.4132 1.41309H18.6955C19.6053 1.41309 20.3455 2.15322 20.3455 3.06297V24.3501C20.3455 25.2599 19.6053 26.0001 18.6955 26.0001Z" fill="#4CA734"/>
</svg>
