<svg width="22" height="15" viewBox="0 0 22 15" fill="none" xmlns="http://www.w3.org/2000/svg">
<path d="M19.5913 0H3.09131C1.84867 0 0.841309 1.00736 0.841309 2.25V12.75C0.841309 13.9926 1.84867 15 3.09131 15H19.5913C20.834 15 21.8413 13.9926 21.8413 12.75V2.25C21.8413 1.00736 20.834 0 19.5913 0ZM20.3413 12.75C20.3413 13.1642 20.0055 13.5 19.5913 13.5H3.09131C2.67708 13.5 2.3413 13.1642 2.3413 12.75V8.24999H20.3413V12.75ZM20.3413 6.75001H2.3413V5.25002H20.3413V6.75001ZM20.3413 3.74999H2.3413V2.25C2.3413 1.83577 2.67708 1.49999 3.09131 1.49999H19.5913C20.0056 1.49999 20.3414 1.83577 20.3414 2.25V3.74999H20.3413Z" fill="#4CA734"/>
<path d="M18.0913 9.75H15.0913C14.6771 9.75 14.3413 10.0858 14.3413 10.5C14.3413 10.9142 14.6771 11.25 15.0913 11.25H18.0913C18.5056 11.25 18.8414 10.9142 18.8414 10.5C18.8414 10.0858 18.5056 9.75 18.0913 9.75Z" fill="#4CA734"/>
</svg>
