<svg width="197" height="88" viewBox="0 0 197 88" fill="none" xmlns="http://www.w3.org/2000/svg">
<g filter="url(#filter0_d)">
<path d="M180.842 14H16V69.0111H180.842V14Z" fill="#4CA734"/>
<path d="M67.92 46.2317C67.3693 46.2317 66.7767 46.157 66.142 46.0077C65.5167 45.8584 65.0267 45.695 64.672 45.5177L64.882 43.6137C66.114 44.211 67.1967 44.5097 68.13 44.5097C68.6247 44.5097 69.012 44.4164 69.292 44.2297C69.572 44.0337 69.712 43.749 69.712 43.3757C69.712 43.0957 69.6327 42.867 69.474 42.6897C69.3247 42.503 69.1053 42.349 68.816 42.2277C68.5267 42.097 68.0647 41.9197 67.43 41.6957C66.8327 41.4904 66.338 41.2757 65.946 41.0517C65.554 40.8184 65.2413 40.5244 65.008 40.1697C64.784 39.8057 64.672 39.3624 64.672 38.8397C64.672 37.9997 64.98 37.323 65.596 36.8097C66.212 36.2964 67.094 36.0397 68.242 36.0397C68.7833 36.0397 69.32 36.1004 69.852 36.2217C70.3933 36.343 70.888 36.4924 71.336 36.6697L71.154 38.5037C70.5753 38.2517 70.0433 38.065 69.558 37.9437C69.082 37.813 68.606 37.7477 68.13 37.7477C67.598 37.7477 67.192 37.8364 66.912 38.0137C66.632 38.191 66.492 38.4477 66.492 38.7837C66.492 39.045 66.5667 39.2597 66.716 39.4277C66.8653 39.5957 67.066 39.7357 67.318 39.8477C67.5793 39.9597 67.962 40.095 68.466 40.2537C69.5953 40.6084 70.4167 41.019 70.93 41.4857C71.4527 41.943 71.714 42.573 71.714 43.3757C71.714 44.141 71.448 44.8084 70.916 45.3777C70.384 45.947 69.3853 46.2317 67.92 46.2317ZM73.1991 36.2357H74.9911V46.0357H73.1991V36.2357ZM81.5043 46.2317C80.4776 46.2317 79.5909 46.0217 78.8443 45.6017C78.1069 45.1817 77.5423 44.589 77.1503 43.8237C76.7583 43.049 76.5623 42.1484 76.5623 41.1217C76.5623 40.1137 76.7769 39.227 77.2063 38.4617C77.6449 37.687 78.2516 37.0897 79.0263 36.6697C79.8009 36.2497 80.6876 36.0397 81.6863 36.0397C82.1903 36.0397 82.6803 36.091 83.1563 36.1937C83.6323 36.2964 84.0429 36.4364 84.3883 36.6137L84.1923 38.3217C83.3803 37.9484 82.5449 37.7617 81.6863 37.7617C80.6409 37.7617 79.8523 38.0697 79.3203 38.6857C78.7883 39.2924 78.5223 40.095 78.5223 41.0937C78.5223 42.1297 78.7836 42.9604 79.3063 43.5857C79.8289 44.2017 80.5849 44.5097 81.5743 44.5097C81.9756 44.5097 82.4236 44.4584 82.9183 44.3557V42.6057H81.5743V41.1217H84.7103V45.4897C84.3463 45.7044 83.8796 45.8817 83.3103 46.0217C82.7503 46.1617 82.1483 46.2317 81.5043 46.2317ZM90.3951 46.2317C89.0511 46.2317 88.0385 45.8444 87.3571 45.0697C86.6758 44.2857 86.3351 43.2077 86.3351 41.8357V36.2357H88.1271V41.3737C88.1271 42.055 88.1878 42.6244 88.3091 43.0817C88.4305 43.5297 88.6545 43.8797 88.9811 44.1317C89.3171 44.3837 89.7885 44.5097 90.3951 44.5097C91.0018 44.5097 91.4685 44.3837 91.7951 44.1317C92.1311 43.8797 92.3598 43.5297 92.4811 43.0817C92.6025 42.6244 92.6631 42.055 92.6631 41.3737V36.2357H94.4551V41.8357C94.4551 43.2077 94.1145 44.2857 93.4331 45.0697C92.7518 45.8444 91.7391 46.2317 90.3951 46.2317ZM96.496 36.2357H98.288V46.0357H96.496V36.2357ZM100.447 36.2357H106.719V37.9717H102.281V40.0577H105.725V41.7937H102.281V44.2997H106.859V46.0357H100.447V36.2357ZM108.404 36.2357H110.168L114.354 42.5637V36.2357H116.146V46.0357H114.676L110.196 39.3157V46.0357H108.404V36.2357ZM120.207 37.9717H117.435V36.2357H124.771V37.9717H121.999V46.0357H120.207V37.9717ZM126.055 36.2357H132.327V37.9717H127.889V40.0577H131.333V41.7937H127.889V44.2997H132.467V46.0357H126.055V36.2357Z" fill="white"/>
</g>
<defs>
<filter id="filter0_d" x="0" y="0" width="196.842" height="87.0111" filterUnits="userSpaceOnUse" color-interpolation-filters="sRGB">
<feFlood flood-opacity="0" result="BackgroundImageFix"/>
<feColorMatrix in="SourceAlpha" type="matrix" values="0 0 0 0 0 0 0 0 0 0 0 0 0 0 0 0 0 0 127 0"/>
<feOffset dy="2"/>
<feGaussianBlur stdDeviation="8"/>
<feColorMatrix type="matrix" values="0 0 0 0 0.537255 0 0 0 0 0.713726 0 0 0 0 0.556863 0 0 0 0.251 0"/>
<feBlend mode="normal" in2="BackgroundImageFix" result="effect1_dropShadow"/>
<feBlend mode="normal" in="SourceGraphic" in2="effect1_dropShadow" result="shape"/>
</filter>
</defs>
</svg>
