<svg width="23" height="22" viewBox="0 0 23 22" fill="none" xmlns="http://www.w3.org/2000/svg">
<path d="M15.1598 15.5051C15.6277 15.5051 16.007 15.1257 16.007 14.6578C16.007 14.1899 15.6277 13.8105 15.1598 13.8105C14.6918 13.8105 14.3125 14.1899 14.3125 14.6578C14.3125 15.1257 14.6918 15.5051 15.1598 15.5051Z" fill="#4CA734"/>
<path d="M10.9236 19.9952H4.23031C3.29596 19.9952 2.53581 19.235 2.53581 18.3007V11.3532C2.53581 10.4189 3.29596 9.6587 4.23031 9.6587H16.4307C17.3651 9.6587 18.1252 10.4189 18.1252 11.3532V13.0477C18.1252 13.5157 18.5045 13.895 18.9725 13.895C19.4404 13.895 19.8197 13.5157 19.8197 13.0477V11.3532C19.8197 9.4845 18.2994 7.96419 16.4307 7.96419H15.4125V4.97618C15.4125 2.2323 13.132 0 10.329 0C7.52591 0 5.24545 2.2323 5.24545 4.97618V7.96419H4.23031C2.36162 7.96419 0.841309 9.4845 0.841309 11.3532V18.3007C0.841309 20.1694 2.36162 21.6897 4.23031 21.6897H10.9236C11.3915 21.6897 11.7708 21.3104 11.7708 20.8425C11.7708 20.3745 11.3915 19.9952 10.9236 19.9952ZM6.93995 4.97618C6.93995 3.16666 8.46026 1.69451 10.329 1.69451C12.1976 1.69451 13.718 3.16666 13.718 4.97618V7.96419H6.93995V4.97618V4.97618Z" fill="#4CA734"/>
<path d="M22.1769 13.7991C21.7964 13.5266 21.2671 13.6143 20.9948 13.9948L16.8187 19.8281C16.7047 19.9604 16.5617 19.9889 16.4851 19.994C16.4066 19.9992 16.2554 19.9893 16.1222 19.8643L13.4234 17.2306C13.0885 16.9037 12.5521 16.9104 12.2253 17.2452C11.8985 17.5801 11.905 18.1165 12.2399 18.4433L14.9435 21.0817C14.946 21.0842 14.9485 21.0866 14.9511 21.0891C15.3564 21.4749 15.8974 21.6896 16.454 21.6896C16.5019 21.6896 16.5498 21.688 16.5978 21.6848C17.2042 21.6444 17.7703 21.3495 18.151 20.8758C18.1609 20.8635 18.1704 20.851 18.1796 20.8382L22.3726 14.9812C22.645 14.6007 22.5574 14.0714 22.1769 13.7991Z" fill="#4CA734"/>
<path d="M11.9405 15.5051C12.4084 15.5051 12.7878 15.1257 12.7878 14.6578C12.7878 14.1899 12.4084 13.8105 11.9405 13.8105C11.4726 13.8105 11.0933 14.1899 11.0933 14.6578C11.0933 15.1257 11.4726 15.5051 11.9405 15.5051Z" fill="#4CA734"/>
<path d="M5.58602 15.5051C6.05394 15.5051 6.43327 15.1257 6.43327 14.6578C6.43327 14.1899 6.05394 13.8105 5.58602 13.8105C5.1181 13.8105 4.73877 14.1899 4.73877 14.6578C4.73877 15.1257 5.1181 15.5051 5.58602 15.5051Z" fill="#4CA734"/>
<path d="M8.76327 15.5051C9.23119 15.5051 9.61052 15.1257 9.61052 14.6578C9.61052 14.1899 9.23119 13.8105 8.76327 13.8105C8.29534 13.8105 7.91602 14.1899 7.91602 14.6578C7.91602 15.1257 8.29534 15.5051 8.76327 15.5051Z" fill="#4CA734"/>
</svg>
