<svg width="16" height="20" viewBox="0 0 16 20" fill="none" xmlns="http://www.w3.org/2000/svg">
<path d="M15.2192 4.28875L11.0526 0.12207C10.9744 0.0439453 10.8687 0 10.7579 0H2.00795C1.0892 0 0.341309 0.747461 0.341309 1.66668V18.3334C0.341309 19.2525 1.0892 20 2.00799 20H13.6747C14.5934 20 15.3413 19.2525 15.3413 18.3333V4.58332C15.3413 4.47266 15.2974 4.36687 15.2192 4.28875ZM11.1746 1.42254L13.9188 4.16668H12.0079C11.5481 4.16668 11.1746 3.79273 11.1746 3.33336V1.42254V1.42254ZM14.508 18.3333C14.508 18.7927 14.1344 19.1666 13.6747 19.1666H2.00799C1.54818 19.1666 1.17467 18.7927 1.17467 18.3333V1.66668C1.17467 1.2073 1.54822 0.833359 2.00799 0.833359H10.3413V3.33336C10.3413 4.25254 11.0892 5 12.008 5H14.508V18.3333Z" fill="#4CA734"/>
<path d="M12.4246 11.6667H3.25799C3.02768 11.6667 2.84131 11.8531 2.84131 12.0834C2.84131 12.3137 3.02768 12.5001 3.25799 12.5001H12.4247C12.655 12.5001 12.8413 12.3137 12.8413 12.0834C12.8413 11.8531 12.6549 11.6667 12.4246 11.6667Z" fill="#4CA734"/>
<path d="M12.4246 9.16675H3.25799C3.02768 9.16675 2.84131 9.35312 2.84131 9.58343C2.84131 9.81375 3.02768 10.0001 3.25799 10.0001H12.4247C12.655 10.0001 12.8413 9.81375 12.8413 9.58343C12.8413 9.35312 12.6549 9.16675 12.4246 9.16675Z" fill="#4CA734"/>
<path d="M12.4246 14.1667H3.25799C3.02768 14.1667 2.84131 14.3531 2.84131 14.5834C2.84131 14.8137 3.02768 15.0001 3.25799 15.0001H12.4247C12.655 15.0001 12.8413 14.8137 12.8413 14.5834C12.8413 14.3531 12.6549 14.1667 12.4246 14.1667Z" fill="#4CA734"/>
<path d="M8.25799 16.6667H3.25799C3.02768 16.6667 2.84131 16.8531 2.84131 17.0834C2.84131 17.3137 3.02768 17.5001 3.25799 17.5001H8.25799C8.4883 17.5001 8.67467 17.3137 8.67467 17.0834C8.67463 16.8531 8.4883 16.6667 8.25799 16.6667Z" fill="#4CA734"/>
<path d="M7.00806 7.08318C7.00806 7.3135 7.19442 7.49986 7.42474 7.49986H12.4248C12.6551 7.49986 12.8414 7.3135 12.8414 7.08318C12.8414 6.85287 12.6551 6.6665 12.4248 6.6665H7.42474C7.19442 6.66654 7.00806 6.85291 7.00806 7.08318Z" fill="#4CA734"/>
<path d="M4.09131 6.66658H3.25799C3.02768 6.66658 2.84131 6.85295 2.84131 7.08326C2.84131 7.31357 3.02768 7.49994 3.25799 7.49994H3.67467C3.67467 7.73025 3.86104 7.91662 4.09135 7.91662C4.32166 7.91662 4.50803 7.73025 4.50803 7.49994V7.42318C4.99193 7.25057 5.34131 6.7924 5.34131 6.2499C5.34131 5.56061 4.78061 4.9999 4.09131 4.9999C3.86182 4.9999 3.67463 4.81314 3.67463 4.58322C3.67463 4.35334 3.86182 4.16654 4.09131 4.16654H4.92463C5.15494 4.16654 5.34131 3.98018 5.34131 3.74986C5.34131 3.51955 5.15494 3.33318 4.92463 3.33318H4.50795C4.50795 3.10287 4.32158 2.9165 4.09127 2.9165C3.86096 2.9165 3.67459 3.10287 3.67459 3.33318V3.40994C3.19068 3.58256 2.84131 4.04072 2.84131 4.58322C2.84131 5.27252 3.40201 5.83322 4.09131 5.83322C4.3208 5.83322 4.50799 6.01998 4.50799 6.2499C4.50799 6.47982 4.3208 6.66658 4.09131 6.66658Z" fill="#4CA734"/>
</svg>
