<svg width="380" height="934" viewBox="0 0 380 934" fill="none" xmlns="http://www.w3.org/2000/svg">
<rect x="1" width="379" height="934" fill="#F1F1F1"/>
<circle cx="191" cy="819.471" r="6" fill="#C4C4C4"/>
<circle cx="212.5" cy="818.971" r="3.5" fill="#C4C4C4"/>
<circle cx="169.5" cy="818.971" r="3.5" fill="#C4C4C4"/>
<path d="M87.2846 665.012H82.6946L81.6506 668H79.4186L83.9006 655.4H86.0786L90.5606 668H88.3286L87.2846 665.012ZM86.5646 662.996L84.9986 658.496L83.4146 662.996H86.5646ZM99.9557 654.5V668H97.8497L97.8137 667.424C97.4657 667.676 97.0997 667.868 96.7157 668C96.3437 668.12 95.8997 668.18 95.3837 668.18C94.5077 668.18 93.7517 667.97 93.1157 667.55C92.4917 667.13 92.0177 666.566 91.6937 665.858C91.3697 665.15 91.2077 664.37 91.2077 663.518C91.2077 662.666 91.3697 661.886 91.6937 661.178C92.0177 660.47 92.4917 659.906 93.1157 659.486C93.7517 659.066 94.5077 658.856 95.3837 658.856C96.2597 658.856 97.0397 659.096 97.7237 659.576V654.5H99.9557ZM95.7077 666.344C96.4157 666.344 96.9437 666.092 97.2917 665.588C97.6517 665.084 97.8317 664.394 97.8317 663.518C97.8317 662.642 97.6517 661.952 97.2917 661.448C96.9437 660.944 96.4157 660.692 95.7077 660.692C95.0117 660.692 94.4657 660.95 94.0697 661.466C93.6857 661.982 93.4937 662.666 93.4937 663.518C93.4937 664.37 93.6857 665.054 94.0697 665.57C94.4657 666.086 95.0117 666.344 95.7077 666.344ZM112.429 658.856C113.629 658.856 114.517 659.222 115.093 659.954C115.681 660.674 115.975 661.688 115.975 662.996V668H113.743V663.158C113.743 662.306 113.611 661.682 113.347 661.286C113.083 660.89 112.651 660.692 112.051 660.692C111.463 660.692 111.019 660.896 110.719 661.304C110.419 661.7 110.269 662.264 110.269 662.996V668H108.037V663.158C108.037 662.306 107.899 661.682 107.623 661.286C107.347 660.89 106.909 660.692 106.309 660.692C105.601 660.692 105.019 660.95 104.563 661.466V668H102.331V659H104.239L104.311 659.72C105.127 659.144 106.009 658.856 106.957 658.856C108.109 658.856 108.967 659.27 109.531 660.098C109.843 659.702 110.251 659.396 110.755 659.18C111.259 658.964 111.817 658.856 112.429 658.856ZM118.275 655.4H120.507V657.632H118.275V655.4ZM118.275 659H120.507V668H118.275V659ZM127.436 658.856C128.552 658.856 129.398 659.228 129.974 659.972C130.55 660.716 130.838 661.718 130.838 662.978V668H128.606V663.158C128.606 662.318 128.462 661.7 128.174 661.304C127.898 660.896 127.448 660.692 126.824 660.692C126.14 660.692 125.576 660.95 125.132 661.466V668H122.9V659H124.988L125.024 659.63C125.78 659.114 126.584 658.856 127.436 658.856ZM133.131 655.4H135.363V657.632H133.131V655.4ZM133.131 659H135.363V668H133.131V659ZM140.312 668.18C139.736 668.18 139.208 668.126 138.728 668.018C138.26 667.91 137.774 667.742 137.27 667.514L137.468 665.606C137.972 665.906 138.44 666.134 138.872 666.29C139.316 666.434 139.772 666.506 140.24 666.506C141.152 666.506 141.608 666.206 141.608 665.606C141.608 665.282 141.488 665.036 141.248 664.868C141.008 664.688 140.576 664.478 139.952 664.238C139.064 663.914 138.41 663.548 137.99 663.14C137.57 662.72 137.36 662.156 137.36 661.448C137.36 660.668 137.66 660.038 138.26 659.558C138.86 659.066 139.67 658.82 140.69 658.82C141.71 658.82 142.64 659.054 143.48 659.522L143.282 661.43C142.826 661.118 142.394 660.878 141.986 660.71C141.59 660.542 141.17 660.458 140.726 660.458C140.342 660.458 140.042 660.536 139.826 660.692C139.622 660.848 139.52 661.07 139.52 661.358C139.52 661.586 139.58 661.772 139.7 661.916C139.832 662.06 140.012 662.192 140.24 662.312C140.468 662.42 140.846 662.576 141.374 662.78C142.25 663.116 142.88 663.488 143.264 663.896C143.648 664.292 143.84 664.826 143.84 665.498C143.84 666.35 143.534 667.01 142.922 667.478C142.31 667.946 141.44 668.18 140.312 668.18ZM148.601 668.18C147.809 668.18 147.209 667.952 146.801 667.496C146.393 667.028 146.189 666.47 146.189 665.822V660.836H144.911L145.109 659H146.189V657.02L148.421 656.786V659H150.401V660.836H148.421V664.904C148.421 665.384 148.445 665.72 148.493 665.912C148.553 666.092 148.667 666.212 148.835 666.272C149.015 666.32 149.333 666.344 149.789 666.344H150.401L150.203 668.18H148.601ZM152.154 659H154.242L154.296 659.954C154.56 659.654 154.896 659.39 155.304 659.162C155.724 658.934 156.162 658.82 156.618 658.82C156.762 658.82 156.894 658.832 157.014 658.856L156.852 661.052C156.624 660.992 156.366 660.962 156.078 660.962C155.706 660.962 155.364 661.052 155.052 661.232C154.74 661.4 154.518 661.61 154.386 661.862V668H152.154V659ZM160.234 668.18C159.49 668.18 158.866 667.94 158.362 667.46C157.87 666.968 157.624 666.308 157.624 665.48C157.624 664.7 157.906 664.076 158.47 663.608C159.034 663.128 159.7 662.792 160.468 662.6C161.236 662.396 161.974 662.282 162.682 662.258C162.658 661.73 162.52 661.352 162.268 661.124C162.028 660.896 161.626 660.782 161.062 660.782C160.666 660.782 160.276 660.836 159.892 660.944C159.52 661.052 159.088 661.226 158.596 661.466L158.398 659.648C159.49 659.12 160.582 658.856 161.674 658.856C162.73 658.856 163.534 659.144 164.086 659.72C164.65 660.296 164.932 661.214 164.932 662.474V664.904C164.932 665.36 164.95 665.69 164.986 665.894C165.034 666.086 165.106 666.212 165.202 666.272C165.31 666.32 165.484 666.344 165.724 666.344H166.012L165.814 668.18H165.004C164.512 668.18 164.098 668.09 163.762 667.91C163.426 667.718 163.168 667.46 162.988 667.136C162.7 667.46 162.304 667.718 161.8 667.91C161.308 668.09 160.786 668.18 160.234 668.18ZM161.17 666.47C161.398 666.47 161.656 666.416 161.944 666.308C162.232 666.188 162.484 666.026 162.7 665.822V663.77C161.98 663.806 161.344 663.962 160.792 664.238C160.24 664.514 159.964 664.898 159.964 665.39C159.964 665.762 160.06 666.038 160.252 666.218C160.444 666.386 160.75 666.47 161.17 666.47ZM174.832 668.18C174.04 668.18 173.44 667.952 173.032 667.496C172.624 667.028 172.42 666.47 172.42 665.822V660.836H171.142L171.34 659H172.42V657.02L174.652 656.786V659H176.632V660.836H174.652V664.904C174.652 665.384 174.676 665.72 174.724 665.912C174.784 666.092 174.898 666.212 175.066 666.272C175.246 666.32 175.564 666.344 176.02 666.344H176.632L176.434 668.18H174.832ZM186.234 659V668H184.146L184.11 667.46C183.834 667.664 183.516 667.838 183.156 667.982C182.796 668.114 182.448 668.18 182.112 668.18C180.78 668.18 179.808 667.796 179.196 667.028C178.596 666.26 178.296 665.198 178.296 663.842V659H180.528V663.842C180.528 664.682 180.666 665.306 180.942 665.714C181.23 666.11 181.686 666.308 182.31 666.308C183.006 666.308 183.57 666.056 184.002 665.552V659H186.234ZM191.173 668.18C190.597 668.18 190.069 668.126 189.589 668.018C189.121 667.91 188.635 667.742 188.131 667.514L188.329 665.606C188.833 665.906 189.301 666.134 189.733 666.29C190.177 666.434 190.633 666.506 191.101 666.506C192.013 666.506 192.469 666.206 192.469 665.606C192.469 665.282 192.349 665.036 192.109 664.868C191.869 664.688 191.437 664.478 190.813 664.238C189.925 663.914 189.271 663.548 188.851 663.14C188.431 662.72 188.221 662.156 188.221 661.448C188.221 660.668 188.521 660.038 189.121 659.558C189.721 659.066 190.531 658.82 191.551 658.82C192.571 658.82 193.501 659.054 194.341 659.522L194.143 661.43C193.687 661.118 193.255 660.878 192.847 660.71C192.451 660.542 192.031 660.458 191.587 660.458C191.203 660.458 190.903 660.536 190.687 660.692C190.483 660.848 190.381 661.07 190.381 661.358C190.381 661.586 190.441 661.772 190.561 661.916C190.693 662.06 190.873 662.192 191.101 662.312C191.329 662.42 191.707 662.576 192.235 662.78C193.111 663.116 193.741 663.488 194.125 663.896C194.509 664.292 194.701 664.826 194.701 665.498C194.701 666.35 194.395 667.01 193.783 667.478C193.171 667.946 192.301 668.18 191.173 668.18ZM206.92 668.252C205.648 668.252 204.52 667.982 203.536 667.442C202.564 666.902 201.808 666.14 201.268 665.156C200.728 664.16 200.458 663.008 200.458 661.7C200.458 660.404 200.734 659.264 201.286 658.28C201.85 657.284 202.624 656.516 203.608 655.976C204.604 655.424 205.732 655.148 206.992 655.148C208.204 655.148 209.29 655.394 210.25 655.886L209.998 658.082C209.482 657.854 208.984 657.68 208.504 657.56C208.036 657.428 207.526 657.362 206.974 657.362C205.69 657.362 204.7 657.758 204.004 658.55C203.32 659.342 202.978 660.392 202.978 661.7C202.978 663.008 203.314 664.058 203.986 664.85C204.67 665.642 205.648 666.038 206.92 666.038C207.484 666.038 208 665.978 208.468 665.858C208.948 665.738 209.458 665.558 209.998 665.318L210.25 667.514C209.206 668.006 208.096 668.252 206.92 668.252ZM216.051 668.18C215.103 668.18 214.281 667.97 213.585 667.55C212.889 667.13 212.355 666.566 211.983 665.858C211.611 665.15 211.425 664.37 211.425 663.518C211.425 662.666 211.611 661.88 211.983 661.16C212.355 660.44 212.889 659.87 213.585 659.45C214.281 659.03 215.103 658.82 216.051 658.82C216.999 658.82 217.821 659.03 218.517 659.45C219.213 659.87 219.747 660.44 220.119 661.16C220.491 661.88 220.677 662.666 220.677 663.518C220.677 664.37 220.491 665.15 220.119 665.858C219.747 666.566 219.213 667.13 218.517 667.55C217.821 667.97 216.999 668.18 216.051 668.18ZM216.051 666.344C216.783 666.344 217.353 666.086 217.761 665.57C218.181 665.054 218.391 664.37 218.391 663.518C218.391 662.654 218.181 661.964 217.761 661.448C217.353 660.92 216.783 660.656 216.051 660.656C215.319 660.656 214.743 660.92 214.323 661.448C213.915 661.964 213.711 662.654 213.711 663.518C213.711 664.37 213.915 665.054 214.323 665.57C214.743 666.086 215.319 666.344 216.051 666.344ZM225.359 668.18C224.567 668.18 223.967 667.952 223.559 667.496C223.151 667.028 222.947 666.47 222.947 665.822V660.836H221.669L221.867 659H222.947V657.02L225.179 656.786V659H227.159V660.836H225.179V664.904C225.179 665.384 225.203 665.72 225.251 665.912C225.311 666.092 225.425 666.212 225.593 666.272C225.773 666.32 226.091 666.344 226.547 666.344H227.159L226.961 668.18H225.359ZM228.912 655.4H231.144V657.632H228.912V655.4ZM228.912 659H231.144V668H228.912V659ZM240.718 666.11V668H232.816L237.19 660.89H233.23V659H240.682L236.308 666.11H240.718ZM244.271 668.18C243.527 668.18 242.903 667.94 242.399 667.46C241.907 666.968 241.661 666.308 241.661 665.48C241.661 664.7 241.943 664.076 242.507 663.608C243.071 663.128 243.737 662.792 244.505 662.6C245.273 662.396 246.011 662.282 246.719 662.258C246.695 661.73 246.557 661.352 246.305 661.124C246.065 660.896 245.663 660.782 245.099 660.782C244.703 660.782 244.313 660.836 243.929 660.944C243.557 661.052 243.125 661.226 242.633 661.466L242.435 659.648C243.527 659.12 244.619 658.856 245.711 658.856C246.767 658.856 247.571 659.144 248.123 659.72C248.687 660.296 248.969 661.214 248.969 662.474V664.904C248.969 665.36 248.987 665.69 249.023 665.894C249.071 666.086 249.143 666.212 249.239 666.272C249.347 666.32 249.521 666.344 249.761 666.344H250.049L249.851 668.18H249.041C248.549 668.18 248.135 668.09 247.799 667.91C247.463 667.718 247.205 667.46 247.025 667.136C246.737 667.46 246.341 667.718 245.837 667.91C245.345 668.09 244.823 668.18 244.271 668.18ZM245.207 666.47C245.435 666.47 245.693 666.416 245.981 666.308C246.269 666.188 246.521 666.026 246.737 665.822V663.77C246.017 663.806 245.381 663.962 244.829 664.238C244.277 664.514 244.001 664.898 244.001 665.39C244.001 665.762 244.097 666.038 244.289 666.218C244.481 666.386 244.787 666.47 245.207 666.47ZM255.767 668.18C254.771 668.18 253.913 667.976 253.193 667.568C252.485 667.148 251.951 666.584 251.591 665.876C251.231 665.168 251.051 664.382 251.051 663.518C251.051 662.642 251.231 661.85 251.591 661.142C251.951 660.422 252.491 659.858 253.211 659.45C253.931 659.03 254.807 658.82 255.839 658.82C256.763 658.82 257.567 659.012 258.251 659.396L258.071 661.196C257.423 660.86 256.751 660.692 256.055 660.692C255.203 660.692 254.537 660.95 254.057 661.466C253.577 661.982 253.337 662.666 253.337 663.518C253.337 664.334 253.583 665.012 254.075 665.552C254.567 666.08 255.221 666.344 256.037 666.344C256.721 666.344 257.405 666.146 258.089 665.75L258.287 667.64C257.963 667.808 257.579 667.94 257.135 668.036C256.703 668.132 256.247 668.18 255.767 668.18ZM260.083 655.4H262.315V657.632H260.083V655.4ZM260.083 659H262.315V668H260.083V659ZM268.793 668.18C267.845 668.18 267.023 667.97 266.327 667.55C265.631 667.13 265.097 666.566 264.725 665.858C264.353 665.15 264.167 664.37 264.167 663.518C264.167 662.666 264.353 661.88 264.725 661.16C265.097 660.44 265.631 659.87 266.327 659.45C267.023 659.03 267.845 658.82 268.793 658.82C269.741 658.82 270.563 659.03 271.259 659.45C271.955 659.87 272.489 660.44 272.861 661.16C273.233 661.88 273.419 662.666 273.419 663.518C273.419 664.37 273.233 665.15 272.861 665.858C272.489 666.566 271.955 667.13 271.259 667.55C270.563 667.97 269.741 668.18 268.793 668.18ZM268.793 666.344C269.525 666.344 270.095 666.086 270.503 665.57C270.923 665.054 271.133 664.37 271.133 663.518C271.133 662.654 270.923 661.964 270.503 661.448C270.095 660.92 269.525 660.656 268.793 660.656C268.061 660.656 267.485 660.92 267.065 661.448C266.657 661.964 266.453 662.654 266.453 663.518C266.453 664.37 266.657 665.054 267.065 665.57C267.485 666.086 268.061 666.344 268.793 666.344ZM279.809 658.856C280.925 658.856 281.771 659.228 282.347 659.972C282.923 660.716 283.211 661.718 283.211 662.978V668H280.979V663.158C280.979 662.318 280.835 661.7 280.547 661.304C280.271 660.896 279.821 660.692 279.197 660.692C278.513 660.692 277.949 660.95 277.505 661.466V668H275.273V659H277.361L277.397 659.63C278.153 659.114 278.957 658.856 279.809 658.856ZM289.842 668.18C288.798 668.18 287.904 667.97 287.16 667.55C286.428 667.118 285.876 666.548 285.504 665.84C285.144 665.12 284.964 664.322 284.964 663.446C284.964 662.606 285.138 661.838 285.486 661.142C285.834 660.446 286.338 659.894 286.998 659.486C287.658 659.066 288.444 658.856 289.356 658.856C290.196 658.856 290.904 659.03 291.48 659.378C292.068 659.726 292.506 660.194 292.794 660.782C293.094 661.37 293.244 662.03 293.244 662.762C293.244 663.122 293.196 663.53 293.1 663.986H287.286C287.406 664.778 287.718 665.372 288.222 665.768C288.726 666.152 289.332 666.344 290.04 666.344C291.012 666.344 291.912 666.098 292.74 665.606L292.848 667.496C292.464 667.7 292.014 667.868 291.498 668C290.994 668.12 290.442 668.18 289.842 668.18ZM290.976 662.474C290.976 662.006 290.844 661.592 290.58 661.232C290.316 660.872 289.908 660.692 289.356 660.692C288.804 660.692 288.36 660.854 288.024 661.178C287.688 661.502 287.46 661.934 287.34 662.474H290.976ZM297.624 668.18C297.048 668.18 296.52 668.126 296.04 668.018C295.572 667.91 295.086 667.742 294.582 667.514L294.78 665.606C295.284 665.906 295.752 666.134 296.184 666.29C296.628 666.434 297.084 666.506 297.552 666.506C298.464 666.506 298.92 666.206 298.92 665.606C298.92 665.282 298.8 665.036 298.56 664.868C298.32 664.688 297.888 664.478 297.264 664.238C296.376 663.914 295.722 663.548 295.302 663.14C294.882 662.72 294.672 662.156 294.672 661.448C294.672 660.668 294.972 660.038 295.572 659.558C296.172 659.066 296.982 658.82 298.002 658.82C299.022 658.82 299.952 659.054 300.792 659.522L300.594 661.43C300.138 661.118 299.706 660.878 299.298 660.71C298.902 660.542 298.482 660.458 298.038 660.458C297.654 660.458 297.354 660.536 297.138 660.692C296.934 660.848 296.832 661.07 296.832 661.358C296.832 661.586 296.892 661.772 297.012 661.916C297.144 662.06 297.324 662.192 297.552 662.312C297.78 662.42 298.158 662.576 298.686 662.78C299.562 663.116 300.192 663.488 300.576 663.896C300.96 664.292 301.152 664.826 301.152 665.498C301.152 666.35 300.846 667.01 300.234 667.478C299.622 667.946 298.752 668.18 297.624 668.18Z" fill="#4CA734"/>
<path d="M82.4599 715.732H79.2439L78.4399 718H77.2399L80.2519 709.6H81.4519L84.4639 718H83.2639L82.4599 715.732ZM82.0999 714.7L80.8519 711.196L79.6039 714.7H82.0999ZM90.6615 709V718H89.7015L89.5815 717.28C89.3815 717.552 89.1215 717.76 88.8015 717.904C88.4815 718.048 88.1415 718.12 87.7815 718.12C87.2855 718.12 86.8335 717.984 86.4255 717.712C86.0175 717.44 85.6935 717.072 85.4535 716.608C85.2215 716.144 85.1055 715.632 85.1055 715.072C85.1055 714.528 85.2135 714.02 85.4295 713.548C85.6535 713.076 85.9695 712.7 86.3775 712.42C86.7855 712.14 87.2535 712 87.7815 712C88.1335 712 88.4655 712.064 88.7775 712.192C89.0895 712.32 89.3575 712.516 89.5815 712.78V709H90.6615ZM87.9735 717.16C88.2615 717.16 88.5375 717.088 88.8015 716.944C89.0655 716.792 89.2815 716.56 89.4495 716.248C89.6175 715.936 89.7015 715.544 89.7015 715.072C89.7015 714.632 89.6175 714.252 89.4495 713.932C89.2815 713.612 89.0615 713.372 88.7895 713.212C88.5255 713.044 88.2535 712.96 87.9735 712.96C87.4295 712.96 86.9975 713.16 86.6775 713.56C86.3655 713.952 86.2095 714.456 86.2095 715.072C86.2095 715.664 86.3695 716.16 86.6895 716.56C87.0095 716.96 87.4375 717.16 87.9735 717.16ZM99.2737 712C100.778 712 101.53 712.844 101.53 714.532V718H100.45V714.544C100.45 713.992 100.342 713.592 100.126 713.344C99.9097 713.088 99.5577 712.96 99.0697 712.96C98.0297 712.96 97.5097 713.504 97.5097 714.592V718H96.4297V714.76C96.4297 714.088 96.3097 713.62 96.0697 713.356C95.8377 713.092 95.4977 712.96 95.0497 712.96C94.6977 712.96 94.3857 713.024 94.1137 713.152C93.8417 713.28 93.6337 713.472 93.4897 713.728V718H92.4097V712.12H93.2497L93.3697 712.744C93.6657 712.48 93.9617 712.292 94.2577 712.18C94.5617 712.06 94.8857 712 95.2297 712C96.1257 712 96.7577 712.392 97.1257 713.176C97.5337 712.392 98.2497 712 99.2737 712ZM103.233 709.6H104.313V710.8H103.233V709.6ZM103.233 712.12H104.313V718H103.233V712.12ZM108.98 712C110.58 712 111.38 712.92 111.38 714.76V718H110.3V714.76C110.3 714.128 110.18 713.672 109.94 713.392C109.708 713.104 109.316 712.96 108.764 712.96C108.412 712.96 108.092 713.024 107.804 713.152C107.516 713.28 107.3 713.472 107.156 713.728V718H106.076V712.12H106.916L107.036 712.744C107.348 712.464 107.66 712.272 107.972 712.168C108.292 712.056 108.628 712 108.98 712ZM113.079 709.6H114.159V710.8H113.079V709.6ZM113.079 712.12H114.159V718H113.079V712.12ZM117.59 718.12C117.126 718.12 116.718 718.068 116.366 717.964C116.022 717.852 115.758 717.732 115.574 717.604L115.706 716.56C115.866 716.704 116.11 716.84 116.438 716.968C116.774 717.096 117.142 717.16 117.542 717.16C117.918 717.16 118.206 717.096 118.406 716.968C118.614 716.84 118.718 716.66 118.718 716.428C118.718 716.156 118.606 715.952 118.382 715.816C118.158 715.672 117.878 715.552 117.542 715.456C117.174 715.36 116.862 715.26 116.606 715.156C116.358 715.044 116.142 714.876 115.958 714.652C115.782 714.428 115.694 714.132 115.694 713.764C115.694 713.26 115.874 712.84 116.234 712.504C116.594 712.168 117.15 712 117.902 712C118.246 712 118.538 712.036 118.778 712.108C119.018 712.172 119.258 712.264 119.498 712.384L119.366 713.368C119.174 713.208 118.962 713.084 118.73 712.996C118.498 712.9 118.23 712.852 117.926 712.852C117.574 712.852 117.294 712.92 117.086 713.056C116.886 713.184 116.786 713.38 116.786 713.644C116.786 713.82 116.834 713.964 116.93 714.076C117.026 714.18 117.162 714.268 117.338 714.34C117.514 714.412 117.786 714.504 118.154 714.616C118.61 714.752 119.002 714.944 119.33 715.192C119.666 715.44 119.834 715.832 119.834 716.368C119.834 716.848 119.662 717.26 119.318 717.604C118.982 717.948 118.406 718.12 117.59 718.12ZM123.219 718.12C122.699 718.12 122.311 717.984 122.055 717.712C121.807 717.44 121.683 717.108 121.683 716.716V712.96H120.675L120.771 712.12H121.683V710.668L122.763 710.56V712.12H124.311V712.96H122.763V716.056C122.763 716.464 122.787 716.744 122.835 716.896C122.883 717.048 122.983 717.148 123.135 717.196C123.295 717.236 123.583 717.256 123.999 717.256H124.275L124.191 718.12H123.219ZM125.534 712.12H126.422L126.554 713.092C126.858 712.716 127.146 712.44 127.418 712.264C127.698 712.088 127.99 712 128.294 712C128.39 712 128.482 712.012 128.57 712.036L128.462 713.224C128.358 713.2 128.238 713.188 128.102 713.188C127.806 713.188 127.526 713.256 127.262 713.392C126.998 713.52 126.806 713.672 126.686 713.848V718H125.534V712.12ZM130.917 718.12C130.373 718.12 129.933 717.96 129.597 717.64C129.269 717.32 129.105 716.912 129.105 716.416C129.105 715.672 129.457 715.14 130.161 714.82C130.865 714.5 131.685 714.332 132.621 714.316C132.621 713.788 132.517 713.432 132.309 713.248C132.109 713.056 131.785 712.96 131.337 712.96C131.089 712.96 130.841 713 130.593 713.08C130.345 713.152 130.077 713.288 129.789 713.488L129.633 712.612C129.873 712.428 130.169 712.28 130.521 712.168C130.873 712.056 131.241 712 131.625 712C132.129 712 132.529 712.088 132.825 712.264C133.129 712.44 133.349 712.732 133.485 713.14C133.629 713.548 133.701 714.108 133.701 714.82V716.02C133.701 716.34 133.713 716.584 133.737 716.752C133.769 716.912 133.833 717.036 133.929 717.124C134.025 717.212 134.173 717.256 134.373 717.256H134.481L134.313 718.12H134.229C133.893 718.12 133.629 718.088 133.437 718.024C133.245 717.96 133.097 717.868 132.993 717.748C132.897 717.628 132.805 717.464 132.717 717.256C132.221 717.832 131.621 718.12 130.917 718.12ZM131.121 717.256C131.409 717.256 131.685 717.184 131.949 717.04C132.221 716.896 132.445 716.704 132.621 716.464V715.06C131.757 715.092 131.137 715.208 130.761 715.408C130.393 715.6 130.209 715.916 130.209 716.356C130.209 716.66 130.289 716.888 130.449 717.04C130.617 717.184 130.841 717.256 131.121 717.256ZM140.638 718.12C140.118 718.12 139.73 717.984 139.474 717.712C139.226 717.44 139.102 717.108 139.102 716.716V712.96H138.094L138.19 712.12H139.102V710.668L140.182 710.56V712.12H141.73V712.96H140.182V716.056C140.182 716.464 140.206 716.744 140.254 716.896C140.302 717.048 140.402 717.148 140.554 717.196C140.714 717.236 141.002 717.256 141.418 717.256H141.694L141.61 718.12H140.638ZM147.777 712.12V718H146.817L146.697 717.352C146.505 717.616 146.277 717.812 146.013 717.94C145.757 718.06 145.441 718.12 145.065 718.12C144.361 718.12 143.821 717.908 143.445 717.484C143.077 717.052 142.893 716.404 142.893 715.54V712.12H143.973V715.24C143.973 715.88 144.081 716.36 144.297 716.68C144.521 717 144.869 717.16 145.341 717.16C145.621 717.16 145.881 717.104 146.121 716.992C146.369 716.88 146.561 716.716 146.697 716.5V712.12H147.777ZM151.214 718.12C150.75 718.12 150.342 718.068 149.99 717.964C149.646 717.852 149.382 717.732 149.198 717.604L149.33 716.56C149.49 716.704 149.734 716.84 150.062 716.968C150.398 717.096 150.766 717.16 151.166 717.16C151.542 717.16 151.83 717.096 152.03 716.968C152.238 716.84 152.342 716.66 152.342 716.428C152.342 716.156 152.23 715.952 152.006 715.816C151.782 715.672 151.502 715.552 151.166 715.456C150.798 715.36 150.486 715.26 150.23 715.156C149.982 715.044 149.766 714.876 149.582 714.652C149.406 714.428 149.318 714.132 149.318 713.764C149.318 713.26 149.498 712.84 149.858 712.504C150.218 712.168 150.774 712 151.526 712C151.87 712 152.162 712.036 152.402 712.108C152.642 712.172 152.882 712.264 153.122 712.384L152.99 713.368C152.798 713.208 152.586 713.084 152.354 712.996C152.122 712.9 151.854 712.852 151.55 712.852C151.198 712.852 150.918 712.92 150.71 713.056C150.51 713.184 150.41 713.38 150.41 713.644C150.41 713.82 150.458 713.964 150.554 714.076C150.65 714.18 150.786 714.268 150.962 714.34C151.138 714.412 151.41 714.504 151.778 714.616C152.234 714.752 152.626 714.944 152.954 715.192C153.29 715.44 153.458 715.832 153.458 716.368C153.458 716.848 153.286 717.26 152.942 717.604C152.606 717.948 152.03 718.12 151.214 718.12Z" fill="black"/>
<path d="M161.806 718.168C160.958 718.168 160.206 717.988 159.55 717.628C158.902 717.268 158.398 716.76 158.038 716.104C157.678 715.44 157.498 714.672 157.498 713.8C157.498 712.936 157.682 712.176 158.05 711.52C158.426 710.856 158.942 710.344 159.598 709.984C160.262 709.616 161.014 709.432 161.854 709.432C162.662 709.432 163.386 709.596 164.026 709.924L163.858 711.388C163.514 711.236 163.182 711.12 162.862 711.04C162.55 710.952 162.21 710.908 161.842 710.908C160.986 710.908 160.326 711.172 159.862 711.7C159.406 712.228 159.178 712.928 159.178 713.8C159.178 714.672 159.402 715.372 159.85 715.9C160.306 716.428 160.958 716.692 161.806 716.692C162.182 716.692 162.526 716.652 162.838 716.572C163.158 716.492 163.498 716.372 163.858 716.212L164.026 717.676C163.33 718.004 162.59 718.168 161.806 718.168ZM167.993 718.12C167.361 718.12 166.813 717.98 166.349 717.7C165.885 717.42 165.529 717.044 165.281 716.572C165.033 716.1 164.909 715.58 164.909 715.012C164.909 714.444 165.033 713.92 165.281 713.44C165.529 712.96 165.885 712.58 166.349 712.3C166.813 712.02 167.361 711.88 167.993 711.88C168.625 711.88 169.173 712.02 169.637 712.3C170.101 712.58 170.457 712.96 170.705 713.44C170.953 713.92 171.077 714.444 171.077 715.012C171.077 715.58 170.953 716.1 170.705 716.572C170.457 717.044 170.101 717.42 169.637 717.7C169.173 717.98 168.625 718.12 167.993 718.12ZM167.993 716.896C168.481 716.896 168.861 716.724 169.133 716.38C169.413 716.036 169.553 715.58 169.553 715.012C169.553 714.436 169.413 713.976 169.133 713.632C168.861 713.28 168.481 713.104 167.993 713.104C167.505 713.104 167.121 713.28 166.841 713.632C166.569 713.976 166.433 714.436 166.433 715.012C166.433 715.58 166.569 716.036 166.841 716.38C167.121 716.724 167.505 716.896 167.993 716.896ZM174.298 718.12C173.77 718.12 173.37 717.968 173.098 717.664C172.826 717.352 172.69 716.98 172.69 716.548V713.224H171.838L171.97 712H172.69V710.68L174.178 710.524V712H175.498V713.224H174.178V715.936C174.178 716.256 174.194 716.48 174.226 716.608C174.266 716.728 174.342 716.808 174.454 716.848C174.574 716.88 174.786 716.896 175.09 716.896H175.498L175.366 718.12H174.298ZM176.767 709.6H178.255V711.088H176.767V709.6ZM176.767 712H178.255V718H176.767V712ZM184.738 716.74V718H179.47L182.386 713.26H179.746V712H184.714L181.798 716.74H184.738ZM187.206 718.12C186.71 718.12 186.294 717.96 185.958 717.64C185.63 717.312 185.466 716.872 185.466 716.32C185.466 715.8 185.654 715.384 186.03 715.072C186.406 714.752 186.85 714.528 187.362 714.4C187.874 714.264 188.366 714.188 188.838 714.172C188.822 713.82 188.73 713.568 188.562 713.416C188.402 713.264 188.134 713.188 187.758 713.188C187.494 713.188 187.234 713.224 186.978 713.296C186.73 713.368 186.442 713.484 186.114 713.644L185.982 712.432C186.71 712.08 187.438 711.904 188.166 711.904C188.87 711.904 189.406 712.096 189.774 712.48C190.15 712.864 190.338 713.476 190.338 714.316V715.936C190.338 716.24 190.35 716.46 190.374 716.596C190.406 716.724 190.454 716.808 190.518 716.848C190.59 716.88 190.706 716.896 190.866 716.896H191.058L190.926 718.12H190.386C190.058 718.12 189.782 718.06 189.558 717.94C189.334 717.812 189.162 717.64 189.042 717.424C188.85 717.64 188.586 717.812 188.25 717.94C187.922 718.06 187.574 718.12 187.206 718.12ZM187.83 716.98C187.982 716.98 188.154 716.944 188.346 716.872C188.538 716.792 188.706 716.684 188.85 716.548V715.18C188.37 715.204 187.946 715.308 187.578 715.492C187.21 715.676 187.026 715.932 187.026 716.26C187.026 716.508 187.09 716.692 187.218 716.812C187.346 716.924 187.55 716.98 187.83 716.98ZM194.971 718.12C194.307 718.12 193.735 717.984 193.255 717.712C192.783 717.432 192.427 717.056 192.187 716.584C191.947 716.112 191.827 715.588 191.827 715.012C191.827 714.428 191.947 713.9 192.187 713.428C192.427 712.948 192.787 712.572 193.267 712.3C193.747 712.02 194.331 711.88 195.019 711.88C195.635 711.88 196.171 712.008 196.627 712.264L196.507 713.464C196.075 713.24 195.627 713.128 195.163 713.128C194.595 713.128 194.151 713.3 193.831 713.644C193.511 713.988 193.351 714.444 193.351 715.012C193.351 715.556 193.515 716.008 193.843 716.368C194.171 716.72 194.607 716.896 195.151 716.896C195.607 716.896 196.063 716.764 196.519 716.5L196.651 717.76C196.435 717.872 196.179 717.96 195.883 718.024C195.595 718.088 195.291 718.12 194.971 718.12ZM197.948 709.6H199.436V711.088H197.948V709.6ZM197.948 712H199.436V718H197.948V712ZM203.855 718.12C203.223 718.12 202.675 717.98 202.211 717.7C201.747 717.42 201.391 717.044 201.143 716.572C200.895 716.1 200.771 715.58 200.771 715.012C200.771 714.444 200.895 713.92 201.143 713.44C201.391 712.96 201.747 712.58 202.211 712.3C202.675 712.02 203.223 711.88 203.855 711.88C204.487 711.88 205.035 712.02 205.499 712.3C205.963 712.58 206.319 712.96 206.567 713.44C206.815 713.92 206.939 714.444 206.939 715.012C206.939 715.58 206.815 716.1 206.567 716.572C206.319 717.044 205.963 717.42 205.499 717.7C205.035 717.98 204.487 718.12 203.855 718.12ZM203.855 716.896C204.343 716.896 204.723 716.724 204.995 716.38C205.275 716.036 205.415 715.58 205.415 715.012C205.415 714.436 205.275 713.976 204.995 713.632C204.723 713.28 204.343 713.104 203.855 713.104C203.367 713.104 202.983 713.28 202.703 713.632C202.431 713.976 202.295 714.436 202.295 715.012C202.295 715.58 202.431 716.036 202.703 716.38C202.983 716.724 203.367 716.896 203.855 716.896ZM211.299 711.904C212.043 711.904 212.607 712.152 212.991 712.648C213.375 713.144 213.567 713.812 213.567 714.652V718H212.079V714.772C212.079 714.212 211.983 713.8 211.791 713.536C211.607 713.264 211.307 713.128 210.891 713.128C210.435 713.128 210.059 713.3 209.763 713.644V718H208.275V712H209.667L209.691 712.42C210.195 712.076 210.731 711.904 211.299 711.904ZM218.088 718.12C217.392 718.12 216.796 717.98 216.3 717.7C215.812 717.412 215.444 717.032 215.196 716.56C214.956 716.08 214.836 715.548 214.836 714.964C214.836 714.404 214.952 713.892 215.184 713.428C215.416 712.964 215.752 712.596 216.192 712.324C216.632 712.044 217.156 711.904 217.764 711.904C218.324 711.904 218.796 712.02 219.18 712.252C219.572 712.484 219.864 712.796 220.056 713.188C220.256 713.58 220.356 714.02 220.356 714.508C220.356 714.748 220.324 715.02 220.26 715.324H216.384C216.464 715.852 216.672 716.248 217.008 716.512C217.344 716.768 217.748 716.896 218.22 716.896C218.868 716.896 219.468 716.732 220.02 716.404L220.092 717.664C219.836 717.8 219.536 717.912 219.192 718C218.856 718.08 218.488 718.12 218.088 718.12ZM218.844 714.316C218.844 714.004 218.756 713.728 218.58 713.488C218.404 713.248 218.132 713.128 217.764 713.128C217.396 713.128 217.1 713.236 216.876 713.452C216.652 713.668 216.5 713.956 216.42 714.316H218.844ZM223.375 718.12C222.991 718.12 222.639 718.084 222.319 718.012C222.007 717.94 221.683 717.828 221.347 717.676L221.479 716.404C221.815 716.604 222.127 716.756 222.415 716.86C222.711 716.956 223.015 717.004 223.327 717.004C223.935 717.004 224.239 716.804 224.239 716.404C224.239 716.188 224.159 716.024 223.999 715.912C223.839 715.792 223.551 715.652 223.135 715.492C222.543 715.276 222.107 715.032 221.827 714.76C221.547 714.48 221.407 714.104 221.407 713.632C221.407 713.112 221.607 712.692 222.007 712.372C222.407 712.044 222.947 711.88 223.627 711.88C224.307 711.88 224.927 712.036 225.487 712.348L225.355 713.62C225.051 713.412 224.763 713.252 224.491 713.14C224.227 713.028 223.947 712.972 223.651 712.972C223.395 712.972 223.195 713.024 223.051 713.128C222.915 713.232 222.847 713.38 222.847 713.572C222.847 713.724 222.887 713.848 222.967 713.944C223.055 714.04 223.175 714.128 223.327 714.208C223.479 714.28 223.731 714.384 224.083 714.52C224.667 714.744 225.087 714.992 225.343 715.264C225.599 715.528 225.727 715.884 225.727 716.332C225.727 716.9 225.523 717.34 225.115 717.652C224.707 717.964 224.127 718.12 223.375 718.12Z" fill="#4CA734"/>
<path d="M231.445 718.12C230.901 718.12 230.461 717.96 230.125 717.64C229.797 717.32 229.633 716.912 229.633 716.416C229.633 715.672 229.985 715.14 230.689 714.82C231.393 714.5 232.213 714.332 233.149 714.316C233.149 713.788 233.045 713.432 232.837 713.248C232.637 713.056 232.313 712.96 231.865 712.96C231.617 712.96 231.369 713 231.121 713.08C230.873 713.152 230.605 713.288 230.317 713.488L230.161 712.612C230.401 712.428 230.697 712.28 231.049 712.168C231.401 712.056 231.769 712 232.153 712C232.657 712 233.057 712.088 233.353 712.264C233.657 712.44 233.877 712.732 234.013 713.14C234.157 713.548 234.229 714.108 234.229 714.82V716.02C234.229 716.34 234.241 716.584 234.265 716.752C234.297 716.912 234.361 717.036 234.457 717.124C234.553 717.212 234.701 717.256 234.901 717.256H235.009L234.841 718.12H234.757C234.421 718.12 234.157 718.088 233.965 718.024C233.773 717.96 233.625 717.868 233.521 717.748C233.425 717.628 233.333 717.464 233.245 717.256C232.749 717.832 232.149 718.12 231.445 718.12ZM231.649 717.256C231.937 717.256 232.213 717.184 232.477 717.04C232.749 716.896 232.973 716.704 233.149 716.464V715.06C232.285 715.092 231.665 715.208 231.289 715.408C230.921 715.6 230.737 715.916 230.737 716.356C230.737 716.66 230.817 716.888 230.977 717.04C231.145 717.184 231.369 717.256 231.649 717.256ZM238.843 718.12C238.203 718.12 237.651 717.988 237.187 717.724C236.731 717.46 236.387 717.1 236.155 716.644C235.923 716.18 235.807 715.664 235.807 715.096C235.807 714.168 236.067 713.42 236.587 712.852C237.115 712.284 237.895 712 238.927 712C239.535 712 240.071 712.116 240.535 712.348L240.367 713.296C239.879 713.072 239.391 712.96 238.903 712.96C238.263 712.96 237.771 713.144 237.427 713.512C237.083 713.872 236.911 714.384 236.911 715.048C236.911 715.712 237.075 716.232 237.403 716.608C237.739 716.984 238.231 717.172 238.879 717.172C239.399 717.172 239.899 717.052 240.379 716.812L240.523 717.676C240.347 717.796 240.103 717.9 239.791 717.988C239.487 718.076 239.171 718.12 238.843 718.12ZM243.92 718.12C243.4 718.12 243.012 717.984 242.756 717.712C242.508 717.44 242.384 717.108 242.384 716.716V712.96H241.376L241.472 712.12H242.384V710.668L243.464 710.56V712.12H245.012V712.96H243.464V716.056C243.464 716.464 243.488 716.744 243.536 716.896C243.584 717.048 243.684 717.148 243.836 717.196C243.996 717.236 244.284 717.256 244.7 717.256H244.976L244.892 718.12H243.92ZM246.235 709.6H247.315V710.8H246.235V709.6ZM246.235 712.12H247.315V718H246.235V712.12ZM248.454 712.12H249.654L251.298 716.812L252.93 712.12H254.142L251.91 718H250.698L248.454 712.12ZM256.582 718.12C256.038 718.12 255.598 717.96 255.262 717.64C254.934 717.32 254.77 716.912 254.77 716.416C254.77 715.672 255.122 715.14 255.826 714.82C256.53 714.5 257.35 714.332 258.286 714.316C258.286 713.788 258.182 713.432 257.974 713.248C257.774 713.056 257.45 712.96 257.002 712.96C256.754 712.96 256.506 713 256.258 713.08C256.01 713.152 255.742 713.288 255.454 713.488L255.298 712.612C255.538 712.428 255.834 712.28 256.186 712.168C256.538 712.056 256.906 712 257.29 712C257.794 712 258.194 712.088 258.49 712.264C258.794 712.44 259.014 712.732 259.15 713.14C259.294 713.548 259.366 714.108 259.366 714.82V716.02C259.366 716.34 259.378 716.584 259.402 716.752C259.434 716.912 259.498 717.036 259.594 717.124C259.69 717.212 259.838 717.256 260.038 717.256H260.146L259.978 718.12H259.894C259.558 718.12 259.294 718.088 259.102 718.024C258.91 717.96 258.762 717.868 258.658 717.748C258.562 717.628 258.47 717.464 258.382 717.256C257.886 717.832 257.286 718.12 256.582 718.12ZM256.786 717.256C257.074 717.256 257.35 717.184 257.614 717.04C257.886 716.896 258.11 716.704 258.286 716.464V715.06C257.422 715.092 256.802 715.208 256.426 715.408C256.058 715.6 255.874 715.916 255.874 716.356C255.874 716.66 255.954 716.888 256.114 717.04C256.282 717.184 256.506 717.256 256.786 717.256ZM262.947 718.12C262.483 718.12 262.075 718.068 261.723 717.964C261.379 717.852 261.115 717.732 260.931 717.604L261.063 716.56C261.223 716.704 261.467 716.84 261.795 716.968C262.131 717.096 262.499 717.16 262.899 717.16C263.275 717.16 263.563 717.096 263.763 716.968C263.971 716.84 264.075 716.66 264.075 716.428C264.075 716.156 263.963 715.952 263.739 715.816C263.515 715.672 263.235 715.552 262.899 715.456C262.531 715.36 262.219 715.26 261.963 715.156C261.715 715.044 261.499 714.876 261.315 714.652C261.139 714.428 261.051 714.132 261.051 713.764C261.051 713.26 261.231 712.84 261.591 712.504C261.951 712.168 262.507 712 263.259 712C263.603 712 263.895 712.036 264.135 712.108C264.375 712.172 264.615 712.264 264.855 712.384L264.723 713.368C264.531 713.208 264.319 713.084 264.087 712.996C263.855 712.9 263.587 712.852 263.283 712.852C262.931 712.852 262.651 712.92 262.443 713.056C262.243 713.184 262.143 713.38 262.143 713.644C262.143 713.82 262.191 713.964 262.287 714.076C262.383 714.18 262.519 714.268 262.695 714.34C262.871 714.412 263.143 714.504 263.511 714.616C263.967 714.752 264.359 714.944 264.687 715.192C265.023 715.44 265.191 715.832 265.191 716.368C265.191 716.848 265.019 717.26 264.675 717.604C264.339 717.948 263.763 718.12 262.947 718.12ZM271.343 717.736L268.895 712.12H270.095L271.931 716.488L273.587 712.12H274.787L271.187 720.904H269.987L271.343 717.736ZM281.885 712C282.405 712 282.857 712.136 283.241 712.408C283.633 712.672 283.933 713.036 284.141 713.5C284.349 713.964 284.453 714.484 284.453 715.06C284.453 715.644 284.353 716.168 284.153 716.632C283.961 717.088 283.673 717.452 283.289 717.724C282.905 717.988 282.437 718.12 281.885 718.12C281.477 718.12 281.105 718.048 280.769 717.904C280.433 717.76 280.169 717.552 279.977 717.28V720.904H278.897V712.12H279.737L279.857 712.936C280.353 712.312 281.029 712 281.885 712ZM281.681 717.16C282.201 717.16 282.609 716.976 282.905 716.608C283.201 716.232 283.349 715.716 283.349 715.06C283.349 714.404 283.201 713.892 282.905 713.524C282.609 713.148 282.201 712.96 281.681 712.96C281.169 712.96 280.745 713.14 280.409 713.5C280.081 713.86 279.917 714.38 279.917 715.06C279.917 715.764 280.081 716.292 280.409 716.644C280.737 716.988 281.161 717.16 281.681 717.16ZM290.701 712.12V718H289.741L289.621 717.352C289.429 717.616 289.201 717.812 288.937 717.94C288.681 718.06 288.365 718.12 287.989 718.12C287.285 718.12 286.745 717.908 286.369 717.484C286.001 717.052 285.817 716.404 285.817 715.54V712.12H286.897V715.24C286.897 715.88 287.005 716.36 287.221 716.68C287.445 717 287.793 717.16 288.265 717.16C288.545 717.16 288.805 717.104 289.045 716.992C289.293 716.88 289.485 716.716 289.621 716.5V712.12H290.701ZM295.29 718.12C294.618 718.12 294.042 717.984 293.562 717.712C293.09 717.432 292.73 717.056 292.482 716.584C292.234 716.112 292.11 715.588 292.11 715.012C292.11 714.46 292.222 713.956 292.446 713.5C292.678 713.036 293.01 712.672 293.442 712.408C293.882 712.136 294.398 712 294.99 712C295.742 712 296.35 712.22 296.814 712.66C297.286 713.1 297.522 713.708 297.522 714.484C297.522 714.684 297.506 714.876 297.474 715.06H293.214C293.286 715.82 293.518 716.36 293.91 716.68C294.302 717 294.806 717.16 295.422 717.16C296.038 717.16 296.602 717.044 297.114 716.812L297.258 717.664C296.578 717.968 295.922 718.12 295.29 718.12ZM296.406 714.316C296.406 713.892 296.286 713.56 296.046 713.32C295.806 713.08 295.446 712.96 294.966 712.96C294.502 712.96 294.138 713.076 293.874 713.308C293.61 713.532 293.422 713.868 293.31 714.316H296.406ZM304.119 709V718H303.159L303.039 717.28C302.839 717.552 302.579 717.76 302.259 717.904C301.939 718.048 301.599 718.12 301.239 718.12C300.743 718.12 300.291 717.984 299.883 717.712C299.475 717.44 299.151 717.072 298.911 716.608C298.679 716.144 298.563 715.632 298.563 715.072C298.563 714.528 298.671 714.02 298.887 713.548C299.111 713.076 299.427 712.7 299.835 712.42C300.243 712.14 300.711 712 301.239 712C301.591 712 301.923 712.064 302.235 712.192C302.547 712.32 302.815 712.516 303.039 712.78V709H304.119ZM301.431 717.16C301.719 717.16 301.995 717.088 302.259 716.944C302.523 716.792 302.739 716.56 302.907 716.248C303.075 715.936 303.159 715.544 303.159 715.072C303.159 714.632 303.075 714.252 302.907 713.932C302.739 713.612 302.519 713.372 302.247 713.212C301.983 713.044 301.711 712.96 301.431 712.96C300.887 712.96 300.455 713.16 300.135 713.56C299.823 713.952 299.667 714.456 299.667 715.072C299.667 715.664 299.827 716.16 300.147 716.56C300.467 716.96 300.895 717.16 301.431 717.16ZM308.687 718.12C308.015 718.12 307.439 717.984 306.959 717.712C306.487 717.432 306.127 717.056 305.879 716.584C305.631 716.112 305.507 715.588 305.507 715.012C305.507 714.46 305.619 713.956 305.843 713.5C306.075 713.036 306.407 712.672 306.839 712.408C307.279 712.136 307.795 712 308.387 712C309.139 712 309.747 712.22 310.211 712.66C310.683 713.1 310.919 713.708 310.919 714.484C310.919 714.684 310.903 714.876 310.871 715.06H306.611C306.683 715.82 306.915 716.36 307.307 716.68C307.699 717 308.203 717.16 308.819 717.16C309.435 717.16 309.999 717.044 310.511 716.812L310.655 717.664C309.975 717.968 309.319 718.12 308.687 718.12ZM309.803 714.316C309.803 713.892 309.683 713.56 309.443 713.32C309.203 713.08 308.843 712.96 308.363 712.96C307.899 712.96 307.535 713.076 307.271 713.308C307.007 713.532 306.819 713.868 306.707 714.316H309.803ZM313.975 718.12C313.511 718.12 313.103 718.068 312.751 717.964C312.407 717.852 312.143 717.732 311.959 717.604L312.091 716.56C312.251 716.704 312.495 716.84 312.823 716.968C313.159 717.096 313.527 717.16 313.927 717.16C314.303 717.16 314.591 717.096 314.791 716.968C314.999 716.84 315.103 716.66 315.103 716.428C315.103 716.156 314.991 715.952 314.767 715.816C314.543 715.672 314.263 715.552 313.927 715.456C313.559 715.36 313.247 715.26 312.991 715.156C312.743 715.044 312.527 714.876 312.343 714.652C312.167 714.428 312.079 714.132 312.079 713.764C312.079 713.26 312.259 712.84 312.619 712.504C312.979 712.168 313.535 712 314.287 712C314.631 712 314.923 712.036 315.163 712.108C315.403 712.172 315.643 712.264 315.883 712.384L315.751 713.368C315.559 713.208 315.347 713.084 315.115 712.996C314.883 712.9 314.615 712.852 314.311 712.852C313.959 712.852 313.679 712.92 313.471 713.056C313.271 713.184 313.171 713.38 313.171 713.644C313.171 713.82 313.219 713.964 313.315 714.076C313.411 714.18 313.547 714.268 313.723 714.34C313.899 714.412 314.171 714.504 314.539 714.616C314.995 714.752 315.387 714.944 315.715 715.192C316.051 715.44 316.219 715.832 316.219 716.368C316.219 716.848 316.047 717.26 315.703 717.604C315.367 717.948 314.791 718.12 313.975 718.12ZM75.1583 730C75.6783 730 76.1303 730.136 76.5143 730.408C76.9063 730.672 77.2063 731.036 77.4143 731.5C77.6223 731.964 77.7263 732.484 77.7263 733.06C77.7263 733.644 77.6263 734.168 77.4263 734.632C77.2343 735.088 76.9463 735.452 76.5623 735.724C76.1783 735.988 75.7103 736.12 75.1583 736.12C74.7503 736.12 74.3783 736.048 74.0423 735.904C73.7063 735.76 73.4423 735.552 73.2503 735.28V738.904H72.1703V730.12H73.0103L73.1303 730.936C73.6263 730.312 74.3023 730 75.1583 730ZM74.9543 735.16C75.4743 735.16 75.8823 734.976 76.1783 734.608C76.4743 734.232 76.6223 733.716 76.6223 733.06C76.6223 732.404 76.4743 731.892 76.1783 731.524C75.8823 731.148 75.4743 730.96 74.9543 730.96C74.4423 730.96 74.0183 731.14 73.6823 731.5C73.3543 731.86 73.1903 732.38 73.1903 733.06C73.1903 733.764 73.3543 734.292 73.6823 734.644C74.0103 734.988 74.4343 735.16 74.9543 735.16ZM80.518 736.12C79.974 736.12 79.534 735.96 79.198 735.64C78.87 735.32 78.706 734.912 78.706 734.416C78.706 733.672 79.058 733.14 79.762 732.82C80.466 732.5 81.286 732.332 82.222 732.316C82.222 731.788 82.118 731.432 81.91 731.248C81.71 731.056 81.386 730.96 80.938 730.96C80.69 730.96 80.442 731 80.194 731.08C79.946 731.152 79.678 731.288 79.39 731.488L79.234 730.612C79.474 730.428 79.77 730.28 80.122 730.168C80.474 730.056 80.842 730 81.226 730C81.73 730 82.13 730.088 82.426 730.264C82.73 730.44 82.95 730.732 83.086 731.14C83.23 731.548 83.302 732.108 83.302 732.82V734.02C83.302 734.34 83.314 734.584 83.338 734.752C83.37 734.912 83.434 735.036 83.53 735.124C83.626 735.212 83.774 735.256 83.974 735.256H84.082L83.914 736.12H83.83C83.494 736.12 83.23 736.088 83.038 736.024C82.846 735.96 82.698 735.868 82.594 735.748C82.498 735.628 82.406 735.464 82.318 735.256C81.822 735.832 81.222 736.12 80.518 736.12ZM80.722 735.256C81.01 735.256 81.286 735.184 81.55 735.04C81.822 734.896 82.046 734.704 82.222 734.464V733.06C81.358 733.092 80.738 733.208 80.362 733.408C79.994 733.6 79.81 733.916 79.81 734.356C79.81 734.66 79.89 734.888 80.05 735.04C80.218 735.184 80.442 735.256 80.722 735.256ZM87.5916 739C86.7596 739 86.0836 738.848 85.5636 738.544C85.0516 738.24 84.7956 737.808 84.7956 737.248C84.7956 736.632 85.1356 736.172 85.8156 735.868C85.4316 735.676 85.2396 735.428 85.2396 735.124C85.2396 734.74 85.4716 734.456 85.9356 734.272C85.6076 734.072 85.3556 733.8 85.1796 733.456C85.0036 733.112 84.9156 732.724 84.9156 732.292C84.9156 731.86 85.0116 731.472 85.2036 731.128C85.4036 730.776 85.6836 730.5 86.0436 730.3C86.4116 730.1 86.8436 730 87.3396 730C87.8676 730 88.3476 730.152 88.7796 730.456C89.2036 730.216 89.6916 730.096 90.2436 730.096H90.3396L90.2076 730.816H89.9316C89.8596 730.816 89.7556 730.824 89.6196 730.84C89.4836 730.856 89.3636 730.876 89.2596 730.9C89.4276 731.092 89.5556 731.308 89.6436 731.548C89.7316 731.788 89.7756 732.036 89.7756 732.292C89.7756 732.74 89.6756 733.144 89.4756 733.504C89.2836 733.856 89.0036 734.136 88.6356 734.344C88.2676 734.544 87.8356 734.644 87.3396 734.644C87.0516 734.644 86.7876 734.608 86.5476 734.536C86.3636 734.6 86.2716 734.704 86.2716 734.848C86.2716 735.04 86.4916 735.168 86.9316 735.232L88.5036 735.484C89.1596 735.588 89.6556 735.776 89.9916 736.048C90.3276 736.32 90.4956 736.696 90.4956 737.176C90.4956 737.776 90.2356 738.228 89.7156 738.532C89.2036 738.844 88.4956 739 87.5916 739ZM87.3396 733.78C87.7876 733.78 88.1316 733.648 88.3716 733.384C88.6196 733.112 88.7436 732.752 88.7436 732.304C88.7436 731.872 88.6196 731.524 88.3716 731.26C88.1316 730.996 87.7876 730.864 87.3396 730.864C86.8916 730.864 86.5476 730.996 86.3076 731.26C86.0676 731.524 85.9476 731.872 85.9476 732.304C85.9476 732.752 86.0676 733.112 86.3076 733.384C86.5476 733.648 86.8916 733.78 87.3396 733.78ZM87.6876 738.04C88.2396 738.04 88.6636 737.968 88.9596 737.824C89.2556 737.68 89.4036 737.472 89.4036 737.2C89.4036 736.992 89.3116 736.824 89.1276 736.696C88.9516 736.576 88.6836 736.48 88.3236 736.408L86.6436 736.12C86.4036 736.232 86.2076 736.368 86.0556 736.528C85.9036 736.696 85.8276 736.88 85.8276 737.08C85.8276 737.408 85.9916 737.648 86.3196 737.8C86.6476 737.96 87.1036 738.04 87.6876 738.04ZM92.8602 736.12C92.3162 736.12 91.8762 735.96 91.5402 735.64C91.2122 735.32 91.0482 734.912 91.0482 734.416C91.0482 733.672 91.4002 733.14 92.1042 732.82C92.8082 732.5 93.6282 732.332 94.5642 732.316C94.5642 731.788 94.4602 731.432 94.2522 731.248C94.0522 731.056 93.7282 730.96 93.2802 730.96C93.0322 730.96 92.7842 731 92.5362 731.08C92.2882 731.152 92.0202 731.288 91.7322 731.488L91.5762 730.612C91.8162 730.428 92.1122 730.28 92.4642 730.168C92.8162 730.056 93.1842 730 93.5682 730C94.0722 730 94.4722 730.088 94.7682 730.264C95.0722 730.44 95.2922 730.732 95.4282 731.14C95.5722 731.548 95.6442 732.108 95.6442 732.82V734.02C95.6442 734.34 95.6562 734.584 95.6802 734.752C95.7122 734.912 95.7762 735.036 95.8722 735.124C95.9682 735.212 96.1162 735.256 96.3162 735.256H96.4242L96.2562 736.12H96.1722C95.8362 736.12 95.5722 736.088 95.3802 736.024C95.1882 735.96 95.0402 735.868 94.9362 735.748C94.8402 735.628 94.7482 735.464 94.6602 735.256C94.1642 735.832 93.5642 736.12 92.8602 736.12ZM93.0642 735.256C93.3522 735.256 93.6282 735.184 93.8922 735.04C94.1642 734.896 94.3882 734.704 94.5642 734.464V733.06C93.7002 733.092 93.0802 733.208 92.7042 733.408C92.3362 733.6 92.1522 733.916 92.1522 734.356C92.1522 734.66 92.2322 734.888 92.3922 735.04C92.5602 735.184 92.7842 735.256 93.0642 735.256ZM97.5578 730.12H98.4458L98.5778 731.092C98.8818 730.716 99.1698 730.44 99.4418 730.264C99.7218 730.088 100.014 730 100.318 730C100.414 730 100.506 730.012 100.594 730.036L100.486 731.224C100.382 731.2 100.262 731.188 100.126 731.188C99.8298 731.188 99.5498 731.256 99.2858 731.392C99.0218 731.52 98.8298 731.672 98.7098 731.848V736H97.5578V730.12ZM109.858 727V736H108.898L108.778 735.28C108.578 735.552 108.318 735.76 107.998 735.904C107.678 736.048 107.338 736.12 106.978 736.12C106.482 736.12 106.03 735.984 105.622 735.712C105.214 735.44 104.89 735.072 104.65 734.608C104.418 734.144 104.302 733.632 104.302 733.072C104.302 732.528 104.41 732.02 104.626 731.548C104.85 731.076 105.166 730.7 105.574 730.42C105.982 730.14 106.45 730 106.978 730C107.33 730 107.662 730.064 107.974 730.192C108.286 730.32 108.554 730.516 108.778 730.78V727H109.858ZM107.17 735.16C107.458 735.16 107.734 735.088 107.998 734.944C108.262 734.792 108.478 734.56 108.646 734.248C108.814 733.936 108.898 733.544 108.898 733.072C108.898 732.632 108.814 732.252 108.646 731.932C108.478 731.612 108.258 731.372 107.986 731.212C107.722 731.044 107.45 730.96 107.17 730.96C106.626 730.96 106.194 731.16 105.874 731.56C105.562 731.952 105.406 732.456 105.406 733.072C105.406 733.664 105.566 734.16 105.886 734.56C106.206 734.96 106.634 735.16 107.17 735.16ZM114.426 736.12C113.754 736.12 113.178 735.984 112.698 735.712C112.226 735.432 111.866 735.056 111.618 734.584C111.37 734.112 111.246 733.588 111.246 733.012C111.246 732.46 111.358 731.956 111.582 731.5C111.814 731.036 112.146 730.672 112.578 730.408C113.018 730.136 113.534 730 114.126 730C114.878 730 115.486 730.22 115.95 730.66C116.422 731.1 116.658 731.708 116.658 732.484C116.658 732.684 116.642 732.876 116.61 733.06H112.35C112.422 733.82 112.654 734.36 113.046 734.68C113.438 735 113.942 735.16 114.558 735.16C115.174 735.16 115.738 735.044 116.25 734.812L116.394 735.664C115.714 735.968 115.058 736.12 114.426 736.12ZM115.542 732.316C115.542 731.892 115.422 731.56 115.182 731.32C114.942 731.08 114.582 730.96 114.102 730.96C113.638 730.96 113.274 731.076 113.01 731.308C112.746 731.532 112.558 731.868 112.446 732.316H115.542ZM125.866 730.12V736H124.906L124.786 735.352C124.594 735.616 124.366 735.812 124.102 735.94C123.846 736.06 123.53 736.12 123.154 736.12C122.45 736.12 121.91 735.908 121.534 735.484C121.166 735.052 120.982 734.404 120.982 733.54V730.12H122.062V733.24C122.062 733.88 122.17 734.36 122.386 734.68C122.61 735 122.958 735.16 123.43 735.16C123.71 735.16 123.97 735.104 124.21 734.992C124.458 734.88 124.65 734.716 124.786 734.5V730.12H125.866ZM130.539 730C132.139 730 132.939 730.92 132.939 732.76V736H131.859V732.76C131.859 732.128 131.739 731.672 131.499 731.392C131.267 731.104 130.875 730.96 130.323 730.96C129.971 730.96 129.651 731.024 129.363 731.152C129.075 731.28 128.859 731.472 128.715 731.728V736H127.635V730.12H128.475L128.595 730.744C128.907 730.464 129.219 730.272 129.531 730.168C129.851 730.056 130.187 730 130.539 730ZM139.002 736.12C138.458 736.12 138.018 735.96 137.682 735.64C137.354 735.32 137.19 734.912 137.19 734.416C137.19 733.672 137.542 733.14 138.246 732.82C138.95 732.5 139.77 732.332 140.706 732.316C140.706 731.788 140.602 731.432 140.394 731.248C140.194 731.056 139.87 730.96 139.422 730.96C139.174 730.96 138.926 731 138.678 731.08C138.43 731.152 138.162 731.288 137.874 731.488L137.718 730.612C137.958 730.428 138.254 730.28 138.606 730.168C138.958 730.056 139.326 730 139.71 730C140.214 730 140.614 730.088 140.91 730.264C141.214 730.44 141.434 730.732 141.57 731.14C141.714 731.548 141.786 732.108 141.786 732.82V734.02C141.786 734.34 141.798 734.584 141.822 734.752C141.854 734.912 141.918 735.036 142.014 735.124C142.11 735.212 142.258 735.256 142.458 735.256H142.566L142.398 736.12H142.314C141.978 736.12 141.714 736.088 141.522 736.024C141.33 735.96 141.182 735.868 141.078 735.748C140.982 735.628 140.89 735.464 140.802 735.256C140.306 735.832 139.706 736.12 139.002 736.12ZM139.206 735.256C139.494 735.256 139.77 735.184 140.034 735.04C140.306 734.896 140.53 734.704 140.706 734.464V733.06C139.842 733.092 139.222 733.208 138.846 733.408C138.478 733.6 138.294 733.916 138.294 734.356C138.294 734.66 138.374 734.888 138.534 735.04C138.702 735.184 138.926 735.256 139.206 735.256ZM143.699 730.12H144.587L144.719 731.092C145.023 730.716 145.311 730.44 145.583 730.264C145.863 730.088 146.155 730 146.459 730C146.555 730 146.647 730.012 146.735 730.036L146.627 731.224C146.523 731.2 146.403 731.188 146.267 731.188C145.971 731.188 145.691 731.256 145.427 731.392C145.163 731.52 144.971 731.672 144.851 731.848V736H143.699V730.12ZM149.824 736.12C149.304 736.12 148.916 735.984 148.66 735.712C148.412 735.44 148.288 735.108 148.288 734.716V730.96H147.28L147.376 730.12H148.288V728.668L149.368 728.56V730.12H150.916V730.96H149.368V734.056C149.368 734.464 149.392 734.744 149.44 734.896C149.488 735.048 149.588 735.148 149.74 735.196C149.9 735.236 150.188 735.256 150.604 735.256H150.88L150.796 736.12H149.824ZM152.139 730.12H153.219V736H152.139V730.12ZM151.563 728.356L153.807 727.036V728.212L151.563 729.088V728.356ZM157.682 736.12C157.042 736.12 156.49 735.988 156.026 735.724C155.57 735.46 155.226 735.1 154.994 734.644C154.762 734.18 154.646 733.664 154.646 733.096C154.646 732.168 154.906 731.42 155.426 730.852C155.954 730.284 156.734 730 157.766 730C158.374 730 158.91 730.116 159.374 730.348L159.206 731.296C158.718 731.072 158.23 730.96 157.742 730.96C157.102 730.96 156.61 731.144 156.266 731.512C155.922 731.872 155.75 732.384 155.75 733.048C155.75 733.712 155.914 734.232 156.242 734.608C156.578 734.984 157.07 735.172 157.718 735.172C158.238 735.172 158.738 735.052 159.218 734.812L159.362 735.676C159.186 735.796 158.942 735.9 158.63 735.988C158.326 736.076 158.01 736.12 157.682 736.12ZM165.555 730.12V736H164.595L164.475 735.352C164.283 735.616 164.055 735.812 163.791 735.94C163.535 736.06 163.219 736.12 162.843 736.12C162.139 736.12 161.599 735.908 161.223 735.484C160.855 735.052 160.671 734.404 160.671 733.54V730.12H161.751V733.24C161.751 733.88 161.859 734.36 162.075 734.68C162.299 735 162.647 735.16 163.119 735.16C163.399 735.16 163.659 735.104 163.899 734.992C164.147 734.88 164.339 734.716 164.475 734.5V730.12H165.555ZM168.836 736.12C168.308 736.12 167.92 735.984 167.672 735.712C167.432 735.44 167.312 735.104 167.312 734.704V727H168.392V734.08C168.392 734.432 168.412 734.688 168.452 734.848C168.5 735.008 168.588 735.116 168.716 735.172C168.844 735.228 169.052 735.256 169.34 735.256L169.184 736.12H168.836ZM172.97 736.12C172.37 736.12 171.85 735.988 171.41 735.724C170.97 735.452 170.634 735.084 170.402 734.62C170.17 734.156 170.054 733.636 170.054 733.06C170.054 732.484 170.17 731.964 170.402 731.5C170.634 731.036 170.97 730.672 171.41 730.408C171.85 730.136 172.37 730 172.97 730C173.562 730 174.078 730.136 174.518 730.408C174.966 730.672 175.306 731.036 175.538 731.5C175.77 731.964 175.886 732.484 175.886 733.06C175.886 733.636 175.77 734.156 175.538 734.62C175.306 735.084 174.966 735.452 174.518 735.724C174.078 735.988 173.562 736.12 172.97 736.12ZM172.97 735.16C173.546 735.16 173.99 734.976 174.302 734.608C174.622 734.24 174.782 733.724 174.782 733.06C174.782 732.396 174.622 731.88 174.302 731.512C173.99 731.144 173.546 730.96 172.97 730.96C172.394 730.96 171.946 731.144 171.626 731.512C171.314 731.88 171.158 732.396 171.158 733.06C171.158 733.724 171.314 734.24 171.626 734.608C171.946 734.976 172.394 735.16 172.97 735.16ZM183.103 730C183.847 730 184.415 730.244 184.807 730.732C185.199 731.22 185.395 731.884 185.395 732.724V736H184.315V732.856C184.315 732.208 184.195 731.732 183.955 731.428C183.723 731.116 183.359 730.96 182.863 730.96C182.559 730.96 182.279 731.032 182.023 731.176C181.767 731.312 181.551 731.508 181.375 731.764V736H180.283V727H181.375V730.684C181.607 730.46 181.859 730.292 182.131 730.18C182.411 730.06 182.735 730 183.103 730ZM188.466 736.12C187.922 736.12 187.482 735.96 187.146 735.64C186.818 735.32 186.654 734.912 186.654 734.416C186.654 733.672 187.006 733.14 187.71 732.82C188.414 732.5 189.234 732.332 190.17 732.316C190.17 731.788 190.066 731.432 189.858 731.248C189.658 731.056 189.334 730.96 188.886 730.96C188.638 730.96 188.39 731 188.142 731.08C187.894 731.152 187.626 731.288 187.338 731.488L187.182 730.612C187.422 730.428 187.718 730.28 188.07 730.168C188.422 730.056 188.79 730 189.174 730C189.678 730 190.078 730.088 190.374 730.264C190.678 730.44 190.898 730.732 191.034 731.14C191.178 731.548 191.25 732.108 191.25 732.82V734.02C191.25 734.34 191.262 734.584 191.286 734.752C191.318 734.912 191.382 735.036 191.478 735.124C191.574 735.212 191.722 735.256 191.922 735.256H192.03L191.862 736.12H191.778C191.442 736.12 191.178 736.088 190.986 736.024C190.794 735.96 190.646 735.868 190.542 735.748C190.446 735.628 190.354 735.464 190.266 735.256C189.77 735.832 189.17 736.12 188.466 736.12ZM188.67 735.256C188.958 735.256 189.234 735.184 189.498 735.04C189.77 734.896 189.994 734.704 190.17 734.464V733.06C189.306 733.092 188.686 733.208 188.31 733.408C187.942 733.6 187.758 733.916 187.758 734.356C187.758 734.66 187.838 734.888 187.998 735.04C188.166 735.184 188.39 735.256 188.67 735.256ZM194.832 736.12C194.368 736.12 193.96 736.068 193.608 735.964C193.264 735.852 193 735.732 192.816 735.604L192.948 734.56C193.108 734.704 193.352 734.84 193.68 734.968C194.016 735.096 194.384 735.16 194.784 735.16C195.16 735.16 195.448 735.096 195.648 734.968C195.856 734.84 195.96 734.66 195.96 734.428C195.96 734.156 195.848 733.952 195.624 733.816C195.4 733.672 195.12 733.552 194.784 733.456C194.416 733.36 194.104 733.26 193.848 733.156C193.6 733.044 193.384 732.876 193.2 732.652C193.024 732.428 192.936 732.132 192.936 731.764C192.936 731.26 193.116 730.84 193.476 730.504C193.836 730.168 194.392 730 195.144 730C195.488 730 195.78 730.036 196.02 730.108C196.26 730.172 196.5 730.264 196.74 730.384L196.608 731.368C196.416 731.208 196.204 731.084 195.972 730.996C195.74 730.9 195.472 730.852 195.168 730.852C194.816 730.852 194.536 730.92 194.328 731.056C194.128 731.184 194.028 731.38 194.028 731.644C194.028 731.82 194.076 731.964 194.172 732.076C194.268 732.18 194.404 732.268 194.58 732.34C194.756 732.412 195.028 732.504 195.396 732.616C195.852 732.752 196.244 732.944 196.572 733.192C196.908 733.44 197.076 733.832 197.076 734.368C197.076 734.848 196.904 735.26 196.56 735.604C196.224 735.948 195.648 736.12 194.832 736.12ZM200.461 736.12C199.941 736.12 199.553 735.984 199.297 735.712C199.049 735.44 198.925 735.108 198.925 734.716V730.96H197.917L198.013 730.12H198.925V728.668L200.005 728.56V730.12H201.553V730.96H200.005V734.056C200.005 734.464 200.029 734.744 200.077 734.896C200.125 735.048 200.225 735.148 200.377 735.196C200.537 735.236 200.825 735.256 201.241 735.256H201.517L201.433 736.12H200.461ZM204.144 736.12C203.6 736.12 203.16 735.96 202.824 735.64C202.496 735.32 202.332 734.912 202.332 734.416C202.332 733.672 202.684 733.14 203.388 732.82C204.092 732.5 204.912 732.332 205.848 732.316C205.848 731.788 205.744 731.432 205.536 731.248C205.336 731.056 205.012 730.96 204.564 730.96C204.316 730.96 204.068 731 203.82 731.08C203.572 731.152 203.304 731.288 203.016 731.488L202.86 730.612C203.1 730.428 203.396 730.28 203.748 730.168C204.1 730.056 204.468 730 204.852 730C205.356 730 205.756 730.088 206.052 730.264C206.356 730.44 206.576 730.732 206.712 731.14C206.856 731.548 206.928 732.108 206.928 732.82V734.02C206.928 734.34 206.94 734.584 206.964 734.752C206.996 734.912 207.06 735.036 207.156 735.124C207.252 735.212 207.4 735.256 207.6 735.256H207.708L207.54 736.12H207.456C207.12 736.12 206.856 736.088 206.664 736.024C206.472 735.96 206.324 735.868 206.22 735.748C206.124 735.628 206.032 735.464 205.944 735.256C205.448 735.832 204.848 736.12 204.144 736.12ZM204.348 735.256C204.636 735.256 204.912 735.184 205.176 735.04C205.448 734.896 205.672 734.704 205.848 734.464V733.06C204.984 733.092 204.364 733.208 203.988 733.408C203.62 733.6 203.436 733.916 203.436 734.356C203.436 734.66 203.516 734.888 203.676 735.04C203.844 735.184 204.068 735.256 204.348 735.256ZM216.661 730.12V736H215.701L215.581 735.352C215.389 735.616 215.161 735.812 214.897 735.94C214.641 736.06 214.325 736.12 213.949 736.12C213.245 736.12 212.705 735.908 212.329 735.484C211.961 735.052 211.777 734.404 211.777 733.54V730.12H212.857V733.24C212.857 733.88 212.965 734.36 213.181 734.68C213.405 735 213.753 735.16 214.225 735.16C214.505 735.16 214.765 735.104 215.005 734.992C215.253 734.88 215.445 734.716 215.581 734.5V730.12H216.661ZM221.334 730C222.934 730 223.734 730.92 223.734 732.76V736H222.654V732.76C222.654 732.128 222.534 731.672 222.294 731.392C222.062 731.104 221.67 730.96 221.118 730.96C220.766 730.96 220.446 731.024 220.158 731.152C219.87 731.28 219.654 731.472 219.51 731.728V736H218.43V730.12H219.27L219.39 730.744C219.702 730.464 220.014 730.272 220.326 730.168C220.646 730.056 220.982 730 221.334 730ZM230.804 739C229.972 739 229.296 738.848 228.776 738.544C228.264 738.24 228.008 737.808 228.008 737.248C228.008 736.632 228.348 736.172 229.028 735.868C228.644 735.676 228.452 735.428 228.452 735.124C228.452 734.74 228.684 734.456 229.148 734.272C228.82 734.072 228.568 733.8 228.392 733.456C228.216 733.112 228.128 732.724 228.128 732.292C228.128 731.86 228.224 731.472 228.416 731.128C228.616 730.776 228.896 730.5 229.256 730.3C229.624 730.1 230.056 730 230.552 730C231.08 730 231.56 730.152 231.992 730.456C232.416 730.216 232.904 730.096 233.456 730.096H233.552L233.42 730.816H233.144C233.072 730.816 232.968 730.824 232.832 730.84C232.696 730.856 232.576 730.876 232.472 730.9C232.64 731.092 232.768 731.308 232.856 731.548C232.944 731.788 232.988 732.036 232.988 732.292C232.988 732.74 232.888 733.144 232.688 733.504C232.496 733.856 232.216 734.136 231.848 734.344C231.48 734.544 231.048 734.644 230.552 734.644C230.264 734.644 230 734.608 229.76 734.536C229.576 734.6 229.484 734.704 229.484 734.848C229.484 735.04 229.704 735.168 230.144 735.232L231.716 735.484C232.372 735.588 232.868 735.776 233.204 736.048C233.54 736.32 233.708 736.696 233.708 737.176C233.708 737.776 233.448 738.228 232.928 738.532C232.416 738.844 231.708 739 230.804 739ZM230.552 733.78C231 733.78 231.344 733.648 231.584 733.384C231.832 733.112 231.956 732.752 231.956 732.304C231.956 731.872 231.832 731.524 231.584 731.26C231.344 730.996 231 730.864 230.552 730.864C230.104 730.864 229.76 730.996 229.52 731.26C229.28 731.524 229.16 731.872 229.16 732.304C229.16 732.752 229.28 733.112 229.52 733.384C229.76 733.648 230.104 733.78 230.552 733.78ZM230.9 738.04C231.452 738.04 231.876 737.968 232.172 737.824C232.468 737.68 232.616 737.472 232.616 737.2C232.616 736.992 232.524 736.824 232.34 736.696C232.164 736.576 231.896 736.48 231.536 736.408L229.856 736.12C229.616 736.232 229.42 736.368 229.268 736.528C229.116 736.696 229.04 736.88 229.04 737.08C229.04 737.408 229.204 737.648 229.532 737.8C229.86 737.96 230.316 738.04 230.9 738.04ZM234.705 730.12H235.593L235.725 731.092C236.029 730.716 236.317 730.44 236.589 730.264C236.869 730.088 237.161 730 237.465 730C237.561 730 237.653 730.012 237.741 730.036L237.633 731.224C237.529 731.2 237.409 731.188 237.273 731.188C236.977 731.188 236.697 731.256 236.433 731.392C236.169 731.52 235.977 731.672 235.857 731.848V736H234.705V730.12ZM243.626 730.12V736H242.666L242.546 735.352C242.354 735.616 242.126 735.812 241.862 735.94C241.606 736.06 241.29 736.12 240.914 736.12C240.21 736.12 239.67 735.908 239.294 735.484C238.926 735.052 238.742 734.404 238.742 733.54V730.12H239.822V733.24C239.822 733.88 239.93 734.36 240.146 734.68C240.37 735 240.718 735.16 241.19 735.16C241.47 735.16 241.73 735.104 241.97 734.992C242.218 734.88 242.41 734.716 242.546 734.5V730.12H243.626ZM248.382 730C248.902 730 249.354 730.136 249.738 730.408C250.13 730.672 250.43 731.036 250.638 731.5C250.846 731.964 250.95 732.484 250.95 733.06C250.95 733.644 250.85 734.168 250.65 734.632C250.458 735.088 250.17 735.452 249.786 735.724C249.402 735.988 248.934 736.12 248.382 736.12C247.974 736.12 247.602 736.048 247.266 735.904C246.93 735.76 246.666 735.552 246.474 735.28V738.904H245.394V730.12H246.234L246.354 730.936C246.85 730.312 247.526 730 248.382 730ZM248.178 735.16C248.698 735.16 249.106 734.976 249.402 734.608C249.698 734.232 249.846 733.716 249.846 733.06C249.846 732.404 249.698 731.892 249.402 731.524C249.106 731.148 248.698 730.96 248.178 730.96C247.666 730.96 247.242 731.14 246.906 731.5C246.578 731.86 246.414 732.38 246.414 733.06C246.414 733.764 246.578 734.292 246.906 734.644C247.234 734.988 247.658 735.16 248.178 735.16ZM254.942 736.12C254.342 736.12 253.822 735.988 253.382 735.724C252.942 735.452 252.606 735.084 252.374 734.62C252.142 734.156 252.026 733.636 252.026 733.06C252.026 732.484 252.142 731.964 252.374 731.5C252.606 731.036 252.942 730.672 253.382 730.408C253.822 730.136 254.342 730 254.942 730C255.534 730 256.05 730.136 256.49 730.408C256.938 730.672 257.278 731.036 257.51 731.5C257.742 731.964 257.858 732.484 257.858 733.06C257.858 733.636 257.742 734.156 257.51 734.62C257.278 735.084 256.938 735.452 256.49 735.724C256.05 735.988 255.534 736.12 254.942 736.12ZM254.942 735.16C255.518 735.16 255.962 734.976 256.274 734.608C256.594 734.24 256.754 733.724 256.754 733.06C256.754 732.396 256.594 731.88 256.274 731.512C255.962 731.144 255.518 730.96 254.942 730.96C254.366 730.96 253.918 731.144 253.598 731.512C253.286 731.88 253.13 732.396 253.13 733.06C253.13 733.724 253.286 734.24 253.598 734.608C253.918 734.976 254.366 735.16 254.942 735.16ZM267.475 727V736H266.515L266.395 735.28C266.195 735.552 265.935 735.76 265.615 735.904C265.295 736.048 264.955 736.12 264.595 736.12C264.099 736.12 263.647 735.984 263.239 735.712C262.831 735.44 262.507 735.072 262.267 734.608C262.035 734.144 261.919 733.632 261.919 733.072C261.919 732.528 262.027 732.02 262.243 731.548C262.467 731.076 262.783 730.7 263.191 730.42C263.599 730.14 264.067 730 264.595 730C264.947 730 265.279 730.064 265.591 730.192C265.903 730.32 266.171 730.516 266.395 730.78V727H267.475ZM264.787 735.16C265.075 735.16 265.351 735.088 265.615 734.944C265.879 734.792 266.095 734.56 266.263 734.248C266.431 733.936 266.515 733.544 266.515 733.072C266.515 732.632 266.431 732.252 266.263 731.932C266.095 731.612 265.875 731.372 265.603 731.212C265.339 731.044 265.067 730.96 264.787 730.96C264.243 730.96 263.811 731.16 263.491 731.56C263.179 731.952 263.023 732.456 263.023 733.072C263.023 733.664 263.183 734.16 263.503 734.56C263.823 734.96 264.251 735.16 264.787 735.16ZM272.043 736.12C271.371 736.12 270.795 735.984 270.315 735.712C269.843 735.432 269.483 735.056 269.235 734.584C268.987 734.112 268.863 733.588 268.863 733.012C268.863 732.46 268.975 731.956 269.199 731.5C269.431 731.036 269.763 730.672 270.195 730.408C270.635 730.136 271.151 730 271.743 730C272.495 730 273.103 730.22 273.567 730.66C274.039 731.1 274.275 731.708 274.275 732.484C274.275 732.684 274.259 732.876 274.227 733.06H269.967C270.039 733.82 270.271 734.36 270.663 734.68C271.055 735 271.559 735.16 272.175 735.16C272.791 735.16 273.355 735.044 273.867 734.812L274.011 735.664C273.331 735.968 272.675 736.12 272.043 736.12ZM273.159 732.316C273.159 731.892 273.039 731.56 272.799 731.32C272.559 731.08 272.199 730.96 271.719 730.96C271.255 730.96 270.891 731.076 270.627 731.308C270.363 731.532 270.175 731.868 270.063 732.316H273.159ZM280.027 736.12C279.483 736.12 279.043 735.96 278.707 735.64C278.379 735.32 278.215 734.912 278.215 734.416C278.215 733.672 278.567 733.14 279.271 732.82C279.975 732.5 280.795 732.332 281.731 732.316C281.731 731.788 281.627 731.432 281.419 731.248C281.219 731.056 280.895 730.96 280.447 730.96C280.199 730.96 279.951 731 279.703 731.08C279.455 731.152 279.187 731.288 278.899 731.488L278.743 730.612C278.983 730.428 279.279 730.28 279.631 730.168C279.983 730.056 280.351 730 280.735 730C281.239 730 281.639 730.088 281.935 730.264C282.239 730.44 282.459 730.732 282.595 731.14C282.739 731.548 282.811 732.108 282.811 732.82V734.02C282.811 734.34 282.823 734.584 282.847 734.752C282.879 734.912 282.943 735.036 283.039 735.124C283.135 735.212 283.283 735.256 283.483 735.256H283.591L283.423 736.12H283.339C283.003 736.12 282.739 736.088 282.547 736.024C282.355 735.96 282.207 735.868 282.103 735.748C282.007 735.628 281.915 735.464 281.827 735.256C281.331 735.832 280.731 736.12 280.027 736.12ZM280.231 735.256C280.519 735.256 280.795 735.184 281.059 735.04C281.331 734.896 281.555 734.704 281.731 734.464V733.06C280.867 733.092 280.247 733.208 279.871 733.408C279.503 733.6 279.319 733.916 279.319 734.356C279.319 734.66 279.399 734.888 279.559 735.04C279.727 735.184 279.951 735.256 280.231 735.256ZM284.725 730.12H285.613L285.745 731.092C286.049 730.716 286.337 730.44 286.609 730.264C286.889 730.088 287.181 730 287.485 730C287.581 730 287.673 730.012 287.761 730.036L287.653 731.224C287.549 731.2 287.429 731.188 287.293 731.188C286.997 731.188 286.717 731.256 286.453 731.392C286.189 731.52 285.997 731.672 285.877 731.848V736H284.725V730.12ZM290.85 736.12C290.33 736.12 289.942 735.984 289.686 735.712C289.438 735.44 289.314 735.108 289.314 734.716V730.96H288.306L288.402 730.12H289.314V728.668L290.394 728.56V730.12H291.942V730.96H290.394V734.056C290.394 734.464 290.418 734.744 290.466 734.896C290.514 735.048 290.614 735.148 290.766 735.196C290.926 735.236 291.214 735.256 291.63 735.256H291.906L291.822 736.12H290.85ZM293.165 730.12H294.245V736H293.165V730.12ZM292.589 728.356L294.833 727.036V728.212L292.589 729.088V728.356ZM298.708 736.12C298.068 736.12 297.516 735.988 297.052 735.724C296.596 735.46 296.252 735.1 296.02 734.644C295.788 734.18 295.672 733.664 295.672 733.096C295.672 732.168 295.932 731.42 296.452 730.852C296.98 730.284 297.76 730 298.792 730C299.4 730 299.936 730.116 300.4 730.348L300.232 731.296C299.744 731.072 299.256 730.96 298.768 730.96C298.128 730.96 297.636 731.144 297.292 731.512C296.948 731.872 296.776 732.384 296.776 733.048C296.776 733.712 296.94 734.232 297.268 734.608C297.604 734.984 298.096 735.172 298.744 735.172C299.264 735.172 299.764 735.052 300.244 734.812L300.388 735.676C300.212 735.796 299.968 735.9 299.656 735.988C299.352 736.076 299.036 736.12 298.708 736.12ZM306.581 730.12V736H305.621L305.501 735.352C305.309 735.616 305.081 735.812 304.817 735.94C304.561 736.06 304.245 736.12 303.869 736.12C303.165 736.12 302.625 735.908 302.249 735.484C301.881 735.052 301.697 734.404 301.697 733.54V730.12H302.777V733.24C302.777 733.88 302.885 734.36 303.101 734.68C303.325 735 303.673 735.16 304.145 735.16C304.425 735.16 304.685 735.104 304.925 734.992C305.173 734.88 305.365 734.716 305.501 734.5V730.12H306.581ZM309.862 736.12C309.334 736.12 308.946 735.984 308.698 735.712C308.458 735.44 308.338 735.104 308.338 734.704V727H309.418V734.08C309.418 734.432 309.438 734.688 309.478 734.848C309.526 735.008 309.614 735.116 309.742 735.172C309.87 735.228 310.078 735.256 310.366 735.256L310.21 736.12H309.862ZM313.995 736.12C313.395 736.12 312.875 735.988 312.435 735.724C311.995 735.452 311.659 735.084 311.427 734.62C311.195 734.156 311.079 733.636 311.079 733.06C311.079 732.484 311.195 731.964 311.427 731.5C311.659 731.036 311.995 730.672 312.435 730.408C312.875 730.136 313.395 730 313.995 730C314.587 730 315.103 730.136 315.543 730.408C315.991 730.672 316.331 731.036 316.563 731.5C316.795 731.964 316.911 732.484 316.911 733.06C316.911 733.636 316.795 734.156 316.563 734.62C316.331 735.084 315.991 735.452 315.543 735.724C315.103 735.988 314.587 736.12 313.995 736.12ZM313.995 735.16C314.571 735.16 315.015 734.976 315.327 734.608C315.647 734.24 315.807 733.724 315.807 733.06C315.807 732.396 315.647 731.88 315.327 731.512C315.015 731.144 314.571 730.96 313.995 730.96C313.419 730.96 312.971 731.144 312.651 731.512C312.339 731.88 312.183 732.396 312.183 733.06C312.183 733.724 312.339 734.24 312.651 734.608C312.971 734.976 313.419 735.16 313.995 735.16ZM319.993 736.12C319.529 736.12 319.121 736.068 318.769 735.964C318.425 735.852 318.161 735.732 317.977 735.604L318.109 734.56C318.269 734.704 318.513 734.84 318.841 734.968C319.177 735.096 319.545 735.16 319.945 735.16C320.321 735.16 320.609 735.096 320.809 734.968C321.017 734.84 321.121 734.66 321.121 734.428C321.121 734.156 321.009 733.952 320.785 733.816C320.561 733.672 320.281 733.552 319.945 733.456C319.577 733.36 319.265 733.26 319.009 733.156C318.761 733.044 318.545 732.876 318.361 732.652C318.185 732.428 318.097 732.132 318.097 731.764C318.097 731.26 318.277 730.84 318.637 730.504C318.997 730.168 319.553 730 320.305 730C320.649 730 320.941 730.036 321.181 730.108C321.421 730.172 321.661 730.264 321.901 730.384L321.769 731.368C321.577 731.208 321.365 731.084 321.133 730.996C320.901 730.9 320.633 730.852 320.329 730.852C319.977 730.852 319.697 730.92 319.489 731.056C319.289 731.184 319.189 731.38 319.189 731.644C319.189 731.82 319.237 731.964 319.333 732.076C319.429 732.18 319.565 732.268 319.741 732.34C319.917 732.412 320.189 732.504 320.557 732.616C321.013 732.752 321.405 732.944 321.733 733.192C322.069 733.44 322.237 733.832 322.237 734.368C322.237 734.848 322.065 735.26 321.721 735.604C321.385 735.948 320.809 736.12 319.993 736.12Z" fill="#1E1D1D"/>
<path d="M192.834 593.5L0.820365 496.703L0.820322 3.31332e-05L379.82 0L379.82 496.703L192.834 593.5Z" fill="white"/>
<path fill-rule="evenodd" clip-rule="evenodd" d="M76.5193 0.5L0.820312 41.142V87.2541L121.218 22.5132L248.77 91.5293V132.346L121.233 64.0797V64.0715L121.225 64.0756L121.216 64.0707V64.0806L48.9123 102.797L48.6601 102.661L11.9883 121.956L156.995 201.045L121.216 221.399L0.820312 155.196V195.946L121.216 259.99L121.221 259.992V259.987L230.434 200.62L228.867 199.782L84.7766 122.126L121.225 102.666L291.819 196.169V195.427V154.61V68.5234L165.71 0.5H76.5193ZM121.216 346.818L0.820312 282.7V236.763L121.217 300.807L248.77 232.532L291.819 255.538L121.221 346.816V346.821L121.217 346.818L121.216 346.819V346.818Z" fill="#F1F1F1"/>
<path d="M86.2969 211.737C86.2969 211.737 87.494 219.494 83.9028 221.284C80.3116 223.074 91.6837 229.638 94.6764 229.638C97.6691 229.638 103.056 223.671 103.056 223.671C103.056 223.671 100.063 214.72 100.662 212.93L86.2969 211.737Z" fill="#FFB6B6"/>
<path d="M92.8817 217.704C99.8235 217.704 105.451 212.094 105.451 205.173C105.451 198.252 99.8235 192.642 92.8817 192.642C85.9399 192.642 80.3125 198.252 80.3125 205.173C80.3125 212.094 85.9399 217.704 92.8817 217.704Z" fill="#FFB6B6"/>
<path d="M86.4489 199.354C86.4489 199.354 84.9504 202.587 90.9445 201.294C90.9445 201.294 93.1923 202.587 93.1923 200.648C93.1923 200.648 96.1893 203.881 96.9385 201.941C97.6878 200.001 99.1863 202.587 99.1863 202.587L100.685 199.354L102.183 201.294H107.428C107.428 201.294 108.927 188.362 90.9445 189.655C72.9624 190.948 81.8086 211.438 81.8086 211.438C81.8086 211.438 81.9534 207.76 83.4519 209.7C84.9504 211.64 86.4489 199.354 86.4489 199.354Z" fill="#2F2E41"/>
<path d="M242.655 219.956C242.204 218.629 236.549 214.117 240.014 213.359L242.856 217.136L255.919 204.112L257.233 205.422L242.655 219.956Z" fill="#4CA734"/>
<path d="M282.223 218.59C284.449 218.59 286.254 216.791 286.254 214.571C286.254 212.352 284.449 210.552 282.223 210.552C279.996 210.552 278.191 212.352 278.191 214.571C278.191 216.791 279.996 218.59 282.223 218.59Z" fill="#3F3D56"/>
<path d="M362.242 214.169H297.34V214.973H362.242V214.169Z" fill="#3F3D56"/>
<path d="M368.948 385.547H10.9805V386.447H368.948V385.547Z" fill="#3F3D56"/>
<path d="M67.5379 292.293C67.5379 292.293 64.7503 325.71 64.1517 332.87C63.7413 337.359 62.735 341.774 61.159 345.998C61.159 345.998 59.962 348.385 59.962 350.772V381.204C59.962 381.204 57.5678 381.204 58.1664 383.591C58.7649 385.978 59.3634 390.155 59.3634 390.155H68.3415C68.3415 390.155 67.7429 388.365 69.5385 387.768C71.3341 387.172 69.5385 382.398 69.5385 382.398L79.1151 346.595L93.48 316.759C93.48 316.759 101.859 343.611 103.655 346.595C103.655 346.595 110.239 380.011 111.436 382.995C112.633 385.978 113.232 385.978 112.633 387.172C112.035 388.365 112.035 389.558 112.633 390.155C113.232 390.752 124.604 390.155 124.604 390.155L121.611 347.788L116.224 297.067L88.6917 288.713L67.5379 292.293Z" fill="#2F2E41"/>
<path d="M65.9483 385.381C65.9483 385.381 62.9556 374.64 58.1673 382.994C53.379 391.348 53.379 394.332 53.379 394.332C53.379 394.332 45.5981 405.67 56.3717 404.476C67.1453 403.283 64.7512 397.912 64.7512 397.912C64.7512 397.912 68.9409 395.526 68.9409 393.735C68.9409 391.945 65.9483 385.381 65.9483 385.381Z" fill="#2F2E41"/>
<path d="M114.428 384.188C114.428 384.188 117.421 373.447 122.209 381.801C126.997 390.155 126.997 393.138 126.997 393.138C126.997 393.138 134.778 404.476 124.005 403.283C113.231 402.089 115.625 396.719 115.625 396.719C115.625 396.719 111.436 394.332 111.436 392.542C111.436 390.752 114.428 384.188 114.428 384.188Z" fill="#2F2E41"/>
<path d="M117.422 230.832L102.459 221.794C102.459 221.794 93.9459 231.428 84.7353 220.688L68.9408 224.865L71.335 265.441C71.335 265.441 67.7438 281.553 68.9408 284.536C70.1379 287.52 65.9482 288.713 67.1452 289.31C68.3423 289.907 67.1452 294.084 67.1452 294.084C67.1452 294.084 90.4881 306.018 116.225 297.067L113.831 289.31C114.157 288.296 114.218 287.216 114.008 286.172C113.799 285.127 113.326 284.154 112.634 283.343C112.634 283.343 115.028 279.762 112.035 276.779C112.035 276.779 113.232 271.408 110.24 269.022L109.641 260.667L111.437 256.49L117.422 230.832Z" fill="#CFCCE0"/>
<path d="M122.809 254.7L123.408 267.231C123.408 267.231 125.802 290.503 121.014 300.648V306.018C121.014 306.018 119.817 319.743 113.831 319.146C107.846 318.549 115.627 299.454 115.627 299.454L114.43 273.199L113.233 258.281L122.809 254.7Z" fill="#FFB6B6"/>
<path d="M110.836 231.429L116.807 230.461C121.108 234.581 124.038 239.917 125.201 245.75C126.997 255.297 127.595 257.087 127.595 257.087L113.23 260.668L105.449 245.75L110.836 231.429Z" fill="#CFCCE0"/>
<path d="M179.583 224.619H85.1289V271.397H179.583V224.619Z" fill="white"/>
<path d="M106.847 256.301H91.6799C91.2314 256.3 90.7873 256.388 90.3728 256.558C89.9584 256.729 89.5818 256.98 89.2645 257.296C88.9472 257.612 88.6955 257.987 88.5238 258.4C88.3521 258.813 88.2637 259.256 88.2637 259.703C88.2637 260.15 88.3521 260.592 88.5238 261.005C88.6955 261.418 88.9472 261.794 89.2645 262.11C89.5818 262.426 89.9584 262.676 90.3728 262.847C90.7873 263.018 91.2314 263.105 91.6799 263.105H106.847C107.295 263.105 107.739 263.018 108.154 262.847C108.568 262.676 108.945 262.426 109.262 262.11C109.579 261.794 109.831 261.418 110.003 261.005C110.174 260.592 110.263 260.15 110.263 259.703C110.263 259.256 110.174 258.813 110.003 258.4C109.831 257.987 109.579 257.612 109.262 257.296C108.945 256.98 108.568 256.729 108.154 256.558C107.739 256.388 107.295 256.3 106.847 256.301Z" fill="#4CA734"/>
<path d="M175.527 220.389H90.4916C89.5024 220.389 88.5229 220.583 87.609 220.961C86.6951 221.338 85.8647 221.891 85.1652 222.589C84.4657 223.286 83.9109 224.114 83.5324 225.025C83.1538 225.936 82.959 226.913 82.959 227.899V269.204C82.959 271.195 83.7526 273.105 85.1652 274.514C86.5779 275.922 88.4938 276.713 90.4916 276.713H175.527C177.524 276.713 179.44 275.922 180.853 274.514C182.266 273.105 183.059 271.195 183.059 269.204V227.899C183.059 226.913 182.864 225.936 182.486 225.025C182.107 224.114 181.552 223.286 180.853 222.589C180.153 221.891 179.323 221.338 178.409 220.961C177.495 220.583 176.516 220.389 175.527 220.389ZM106.847 263.861H91.6798C90.5736 263.861 89.5128 263.423 88.7306 262.643C87.9484 261.863 87.509 260.806 87.509 259.703C87.509 258.6 87.9484 257.542 88.7306 256.762C89.5128 255.983 90.5736 255.545 91.6798 255.545H106.847C107.953 255.545 109.014 255.983 109.796 256.762C110.578 257.542 111.017 258.6 111.017 259.703C111.017 260.806 110.578 261.863 109.796 262.643C109.014 263.423 107.953 263.861 106.847 263.861ZM175.855 263.105C175.851 264.307 175.371 265.459 174.518 266.309C173.666 267.158 172.511 267.637 171.305 267.641H159.93C158.724 267.637 157.569 267.158 156.716 266.309C155.864 265.459 155.383 264.307 155.38 263.105V256.301C155.383 255.099 155.864 253.947 156.716 253.097C157.569 252.247 158.724 251.768 159.93 251.764H171.305C172.511 251.768 173.666 252.247 174.518 253.097C175.371 253.947 175.851 255.099 175.855 256.301V263.105Z" fill="#4CA734"/>
<path d="M163.532 261.782H158.602C158.251 261.782 157.913 261.921 157.664 262.169C157.415 262.417 157.275 262.754 157.275 263.105C157.275 263.456 157.415 263.792 157.664 264.04C157.913 264.288 158.251 264.428 158.602 264.428H163.532C163.884 264.428 164.221 264.288 164.47 264.04C164.719 263.792 164.859 263.456 164.859 263.105C164.859 262.754 164.719 262.417 164.47 262.169C164.221 261.921 163.884 261.782 163.532 261.782ZM163.532 263.672H158.602C158.528 263.672 158.454 263.657 158.384 263.629C158.315 263.601 158.252 263.559 158.199 263.506C158.146 263.454 158.104 263.391 158.076 263.322C158.047 263.253 158.032 263.179 158.032 263.105C158.032 263.03 158.047 262.956 158.076 262.887C158.104 262.819 158.146 262.756 158.199 262.703C158.252 262.651 158.315 262.609 158.384 262.58C158.454 262.552 158.528 262.538 158.602 262.538H163.532C163.682 262.538 163.826 262.598 163.933 262.704C164.039 262.811 164.099 262.955 164.099 263.105C164.099 263.255 164.039 263.399 163.933 263.505C163.826 263.611 163.682 263.671 163.532 263.672Z" fill="#4CA734"/>
<path d="M172.633 261.782H167.704C167.352 261.782 167.015 261.921 166.766 262.169C166.517 262.417 166.377 262.754 166.377 263.105C166.377 263.456 166.517 263.792 166.766 264.04C167.015 264.288 167.352 264.428 167.704 264.428H172.633C172.985 264.428 173.323 264.288 173.572 264.04C173.82 263.792 173.96 263.456 173.96 263.105C173.96 262.754 173.82 262.417 173.572 262.169C173.323 261.921 172.985 261.782 172.633 261.782ZM172.633 263.672H167.704C167.629 263.672 167.555 263.657 167.486 263.629C167.417 263.601 167.354 263.559 167.301 263.506C167.248 263.454 167.206 263.391 167.177 263.322C167.149 263.253 167.134 263.179 167.134 263.105C167.134 263.03 167.149 262.956 167.177 262.887C167.206 262.819 167.248 262.756 167.301 262.703C167.354 262.651 167.417 262.609 167.486 262.58C167.555 262.552 167.629 262.538 167.704 262.538H172.633C172.784 262.538 172.928 262.598 173.034 262.704C173.141 262.811 173.2 262.955 173.2 263.105C173.2 263.255 173.141 263.399 173.034 263.505C172.928 263.611 172.784 263.671 172.633 263.672Z" fill="#4CA734"/>
<path d="M163.532 258.38H158.602C158.251 258.38 157.913 258.519 157.664 258.767C157.415 259.015 157.275 259.352 157.275 259.703C157.275 260.054 157.415 260.39 157.664 260.638C157.913 260.886 158.251 261.026 158.602 261.026H163.532C163.884 261.026 164.221 260.886 164.47 260.638C164.719 260.39 164.859 260.054 164.859 259.703C164.859 259.352 164.719 259.015 164.47 258.767C164.221 258.519 163.884 258.38 163.532 258.38ZM163.532 260.27H158.602C158.528 260.27 158.454 260.255 158.385 260.227C158.316 260.198 158.253 260.156 158.2 260.104C158.148 260.051 158.106 259.988 158.077 259.92C158.048 259.851 158.034 259.777 158.034 259.703C158.034 259.628 158.048 259.555 158.077 259.486C158.106 259.417 158.148 259.354 158.2 259.302C158.253 259.249 158.316 259.207 158.385 259.179C158.454 259.15 158.528 259.136 158.602 259.136H163.532C163.606 259.136 163.68 259.15 163.749 259.179C163.818 259.207 163.881 259.249 163.934 259.302C163.987 259.354 164.029 259.417 164.057 259.486C164.086 259.555 164.1 259.628 164.1 259.703C164.1 259.777 164.086 259.851 164.057 259.92C164.029 259.988 163.987 260.051 163.934 260.104C163.881 260.156 163.818 260.198 163.749 260.227C163.68 260.255 163.606 260.27 163.532 260.27Z" fill="#4CA734"/>
<path d="M172.633 258.38H167.704C167.352 258.38 167.015 258.519 166.766 258.767C166.517 259.015 166.377 259.352 166.377 259.703C166.377 260.054 166.517 260.39 166.766 260.638C167.015 260.886 167.352 261.026 167.704 261.026H172.633C172.985 261.026 173.323 260.886 173.572 260.638C173.82 260.39 173.96 260.054 173.96 259.703C173.96 259.352 173.82 259.015 173.572 258.767C173.323 258.519 172.985 258.38 172.633 258.38ZM172.633 260.27H167.704C167.629 260.27 167.555 260.255 167.486 260.227C167.417 260.198 167.355 260.156 167.302 260.104C167.249 260.051 167.207 259.988 167.179 259.92C167.15 259.851 167.135 259.777 167.135 259.703C167.135 259.628 167.15 259.555 167.179 259.486C167.207 259.417 167.249 259.354 167.302 259.302C167.355 259.249 167.417 259.207 167.486 259.179C167.555 259.15 167.629 259.136 167.704 259.136H172.633C172.708 259.136 172.782 259.15 172.851 259.179C172.92 259.207 172.983 259.249 173.035 259.302C173.088 259.354 173.13 259.417 173.159 259.486C173.187 259.555 173.202 259.628 173.202 259.703C173.202 259.777 173.187 259.851 173.159 259.92C173.13 259.988 173.088 260.051 173.035 260.104C172.983 260.156 172.92 260.198 172.851 260.227C172.782 260.255 172.708 260.27 172.633 260.27Z" fill="#4CA734"/>
<path d="M163.532 254.978H158.602C158.251 254.978 157.913 255.117 157.664 255.365C157.415 255.613 157.275 255.95 157.275 256.301C157.275 256.651 157.415 256.988 157.664 257.236C157.913 257.484 158.251 257.624 158.602 257.624H163.532C163.884 257.624 164.221 257.484 164.47 257.236C164.719 256.988 164.859 256.651 164.859 256.301C164.859 255.95 164.719 255.613 164.47 255.365C164.221 255.117 163.884 254.978 163.532 254.978ZM163.532 256.868H158.602C158.528 256.868 158.454 256.853 158.384 256.825C158.315 256.796 158.252 256.755 158.199 256.702C158.146 256.649 158.104 256.587 158.076 256.518C158.047 256.449 158.032 256.375 158.032 256.301C158.032 256.226 158.047 256.152 158.076 256.083C158.104 256.014 158.146 255.952 158.199 255.899C158.252 255.846 158.315 255.805 158.384 255.776C158.454 255.748 158.528 255.733 158.602 255.734H163.532C163.682 255.734 163.826 255.794 163.933 255.9C164.039 256.006 164.099 256.15 164.099 256.301C164.099 256.451 164.039 256.595 163.933 256.701C163.826 256.807 163.682 256.867 163.532 256.868Z" fill="#4CA734"/>
<path d="M172.633 254.978H167.704C167.352 254.978 167.015 255.117 166.766 255.365C166.517 255.613 166.377 255.95 166.377 256.301C166.377 256.651 166.517 256.988 166.766 257.236C167.015 257.484 167.352 257.624 167.704 257.624H172.633C172.985 257.624 173.323 257.484 173.572 257.236C173.82 256.988 173.96 256.651 173.96 256.301C173.96 255.95 173.82 255.613 173.572 255.365C173.323 255.117 172.985 254.978 172.633 254.978ZM172.633 256.868H167.704C167.629 256.868 167.555 256.853 167.486 256.825C167.417 256.796 167.354 256.755 167.301 256.702C167.248 256.649 167.206 256.587 167.177 256.518C167.149 256.449 167.134 256.375 167.134 256.301C167.134 256.226 167.149 256.152 167.177 256.083C167.206 256.014 167.248 255.952 167.301 255.899C167.354 255.846 167.417 255.805 167.486 255.776C167.555 255.748 167.629 255.733 167.704 255.734H172.633C172.784 255.734 172.928 255.794 173.034 255.9C173.141 256.006 173.2 256.15 173.2 256.301C173.2 256.451 173.141 256.595 173.034 256.701C172.928 256.807 172.784 256.867 172.633 256.868Z" fill="#4CA734"/>
<path d="M59.962 247.54C59.962 247.54 54.5752 270.215 61.1591 270.215C67.743 270.215 83.3049 244.556 83.3049 244.556C83.3049 244.556 99.4654 236.202 92.8815 233.219C86.2976 230.235 77.9181 237.992 77.9181 237.992L68.2493 251.375L67.743 244.556L59.962 247.54Z" fill="#FFB6B6"/>
<path d="M72.5317 228.445L68.9405 224.865C68.9405 224.865 61.7581 229.042 61.1596 233.219C60.561 237.396 57.5684 250.523 57.5684 250.523L68.6413 251.418L72.2325 246.048L72.5317 228.445Z" fill="#CFCCE0"/>
<path d="M242.655 264.242C242.204 262.915 236.549 258.403 240.014 257.644L242.856 261.422L255.919 248.398L257.233 249.708L242.655 264.242Z" fill="#4CA734"/>
<path d="M242.655 309.161C242.204 307.834 236.549 303.322 240.014 302.563L242.856 306.341L255.919 293.317L257.233 294.627L242.655 309.161Z" fill="#4CA734"/>
<path d="M282.223 262.876C284.449 262.876 286.254 261.077 286.254 258.857C286.254 256.638 284.449 254.838 282.223 254.838C279.996 254.838 278.191 256.638 278.191 258.857C278.191 261.077 279.996 262.876 282.223 262.876Z" fill="#3F3D56"/>
<path d="M362.242 258.455H297.34V259.259H362.242V258.455Z" fill="#3F3D56"/>
<path d="M282.223 307.795C284.449 307.795 286.254 305.996 286.254 303.776C286.254 301.556 284.449 299.757 282.223 299.757C279.996 299.757 278.191 301.556 278.191 303.776C278.191 305.996 279.996 307.795 282.223 307.795Z" fill="#3F3D56"/>
<path d="M362.242 303.374H297.34V304.178H362.242V303.374Z" fill="#3F3D56"/>
<path d="M252.836 315.15H232.68V294.653H246.386V295.457H233.486V314.346H252.029V305.102H252.836V315.15Z" fill="#3F3D56"/>
<path d="M252.836 270.137H232.68V249.641H246.386V250.445H233.486V269.334H252.029V260.09H252.836V270.137Z" fill="#3F3D56"/>
<path d="M252.836 224.322H232.68V203.825H246.386V204.629H233.486V223.518H252.029V214.274H252.836V224.322Z" fill="#3F3D56"/>
<path d="M127.592 72.1593V76.5502L142.76 67.8392L138.932 65.6438L127.592 72.1593Z" fill="#4CA734"/>
<path d="M127.592 64.5814V68.2641L137.302 62.5984L133.971 60.6863L127.592 64.5814Z" fill="#4CA734"/>
<path d="M127.592 76.5503V72.1594L116.181 65.6438V61.7487L127.592 68.2642V64.5815L112.354 55.5873V55.7289V59.5533V67.8393L127.592 76.5503Z" fill="#4CA734"/>
<path d="M127.592 45.6016V41.2107L112.354 49.9925L116.181 52.1879L127.592 45.6016Z" fill="#4CA734"/>
<path d="M127.593 53.2503V49.5676L119.584 54.171L122.773 56.0123L127.593 53.2503Z" fill="#4CA734"/>
<path d="M127.592 41.2107V45.6016L138.932 52.1879V56.0831L127.592 49.5676V53.2502L142.76 62.1737V62.1029V58.2077V49.9925L127.592 41.2107Z" fill="#4CA734"/>
<path d="M133.971 64.5106L137.302 62.5985L121.142 53.2501L117.882 55.0915L133.971 64.5106Z" fill="#4CA734"/>
<path d="M160.196 63.0235C160.196 64.2275 159.912 65.2898 159.274 66.1396C158.637 66.9895 157.786 67.6977 156.723 68.1934C155.589 68.6892 154.384 68.9016 152.895 68.9016C152.47 68.9016 151.974 68.9016 151.407 68.8308C150.84 68.76 150.06 68.6184 149.068 68.4059C148.076 68.1934 147.083 67.8393 146.091 67.3436V62.5986C147.083 63.1652 148.005 63.7317 148.926 64.0858C149.848 64.5107 150.84 64.6524 151.974 64.6524C152.966 64.6524 153.604 64.5107 153.888 64.1566C154.171 63.8025 154.313 63.5193 154.313 63.236C154.313 62.7402 154.029 62.3153 153.533 61.8904C153.037 61.5363 152.328 61.1822 151.336 60.7572C150.273 60.3323 149.352 59.8366 148.572 59.3408C147.792 58.8451 147.154 58.1369 146.587 57.3578C146.091 56.5788 145.808 55.6581 145.808 54.5958C145.808 53.5335 146.091 52.6128 146.587 51.763C147.083 50.9131 147.863 50.2758 148.926 49.78C149.989 49.2843 151.265 49.001 152.754 49.001C153.817 49.001 154.809 49.0718 155.731 49.2843C156.652 49.4967 157.361 49.7092 157.999 49.9925C158.566 50.2758 158.991 50.4882 159.204 50.6299V55.1624C158.424 54.5958 157.573 54.1001 156.581 53.6752C155.589 53.2502 154.596 53.0378 153.462 53.0378C152.754 53.0378 152.187 53.1794 151.903 53.4627C151.549 53.746 151.407 54.1001 151.407 54.525C151.407 54.8791 151.549 55.2332 151.903 55.5165C152.258 55.7998 152.825 56.1539 153.604 56.508C155.093 57.2162 156.298 57.8536 157.148 58.3493C158.07 58.9159 158.707 59.5533 159.204 60.2615C159.912 61.0405 160.196 61.9612 160.196 63.0235Z" fill="black"/>
<path d="M176.993 68.6184H171.961V61.3238C171.961 61.253 171.961 61.1822 171.961 61.1822C171.961 61.1113 171.961 61.0405 171.961 60.8281C171.961 60.1199 171.819 59.5533 171.535 58.9867C171.252 58.4202 170.685 58.1369 169.905 58.1369C169.267 58.1369 168.7 58.3493 168.204 58.7743C167.708 59.1992 167.283 59.6949 166.858 60.3323V68.6184H161.825V49.4259H166.858V56.5788C167.708 55.729 168.488 55.0916 169.267 54.8083C170.047 54.4542 170.898 54.3125 171.819 54.3125C175.221 54.3125 176.922 56.2247 176.922 60.049V68.6184H176.993Z" fill="black"/>
<path d="M183.798 68.6182H178.766V54.454H183.798V68.6182ZM183.444 51.2671C183.444 51.8336 183.231 52.3294 182.806 52.7543C182.38 53.1792 181.884 53.3917 181.317 53.3917C180.963 53.3917 180.608 53.3209 180.254 53.1084C179.9 52.896 179.687 52.6835 179.474 52.3294C179.262 51.9753 179.191 51.6212 179.191 51.2671C179.191 50.7005 179.404 50.2048 179.829 49.7798C180.254 49.3549 180.75 49.1425 181.317 49.1425C181.884 49.1425 182.38 49.3549 182.806 49.7798C183.231 50.2048 183.444 50.6297 183.444 51.2671Z" fill="black"/>
<path d="M201.375 61.4653C201.375 62.3859 201.234 63.3066 200.95 64.2273C200.667 65.0771 200.241 65.927 199.745 66.6352C199.178 67.3434 198.469 67.91 197.619 68.3349C196.768 68.7598 195.776 68.9723 194.571 68.9723C193.65 68.9723 192.941 68.9015 192.374 68.689C191.807 68.4765 191.311 68.2641 190.815 67.91V75.1337H185.782V54.5956H190.815V55.8704C191.311 55.4455 191.878 55.0914 192.445 54.8081C193.083 54.5248 193.862 54.3832 194.925 54.3832C195.989 54.3832 196.981 54.6665 197.973 55.1622C198.966 55.658 199.745 56.437 200.383 57.5701C201.092 58.4908 201.375 59.8364 201.375 61.4653ZM196.13 61.6069C196.13 60.7571 195.989 60.0488 195.705 59.5531C195.422 58.9865 195.067 58.6324 194.642 58.42C194.217 58.2075 193.791 58.0659 193.295 58.0659C192.728 58.0659 192.232 58.1367 191.807 58.3491C191.452 58.5616 191.098 58.7741 190.744 59.0574V64.4397C190.885 64.5106 191.098 64.6522 191.311 64.723C191.523 64.8647 191.736 64.9355 191.878 65.0063C192.09 65.0771 192.303 65.148 192.516 65.2188C192.728 65.2896 193.012 65.2896 193.224 65.2896C194.004 65.2896 194.642 64.9355 195.209 64.2981C195.847 63.6607 196.13 62.74 196.13 61.6069Z" fill="black"/>
<path d="M235.044 63.1652C235.044 64.794 234.477 66.1396 233.342 67.1311C232.208 68.1226 230.649 68.6184 228.594 68.6184H217.466V49.4259H226.751C227.956 49.4259 229.019 49.5675 229.869 49.78C230.791 49.9925 231.5 50.3466 231.996 50.7007C232.563 51.1256 232.917 51.5505 233.201 52.1171C233.484 52.6837 233.626 53.2502 233.626 53.8876C233.626 54.5958 233.484 55.2332 233.201 55.8706C232.917 56.4372 232.563 56.9329 232.138 57.3578C231.712 57.7119 231.287 57.9952 230.862 58.1369C232.208 58.6326 233.201 59.3408 233.839 60.1199C234.689 60.8989 235.044 61.8904 235.044 63.1652ZM228.239 54.9499C228.239 54.0293 227.956 53.3919 227.318 53.1086C226.68 52.8253 225.759 52.6837 224.483 52.6837H223.278V57.287H224.554C225.9 57.287 226.822 57.1454 227.389 56.8621C227.956 56.4372 228.239 55.8706 228.239 54.9499ZM229.232 62.9527C229.232 61.3238 228.027 60.474 225.617 60.474H223.278V65.4314H225.617C228.027 65.4314 229.232 64.5816 229.232 62.9527Z" fill="black"/>
<path d="M252.125 61.5364C252.125 62.9528 251.842 64.2276 251.204 65.2899C250.566 66.423 249.644 67.2729 248.44 67.9103C247.235 68.5477 245.746 68.9018 243.974 68.9018C242.202 68.9018 240.714 68.5477 239.509 67.9103C238.304 67.2729 237.383 66.423 236.745 65.2899C236.107 64.1568 235.823 62.9528 235.823 61.5364C235.823 60.4741 235.965 59.4826 236.319 58.6327C236.674 57.7829 237.17 57.0039 237.879 56.2956C238.587 55.6583 239.438 55.0917 240.43 54.7376C241.423 54.3835 242.628 54.171 243.903 54.171C245.25 54.171 246.384 54.3835 247.447 54.7376C248.44 55.0917 249.29 55.5874 249.999 56.2956C250.637 56.933 251.204 57.7121 251.487 58.6327C251.983 59.4826 252.125 60.4741 252.125 61.5364ZM246.88 61.5364C246.88 60.4033 246.668 59.5534 246.171 58.916C245.675 58.2786 244.967 57.9953 244.045 57.9953C243.124 57.9953 242.415 58.2786 241.919 58.916C241.423 59.5534 241.21 60.4033 241.21 61.5364C241.21 62.6695 241.423 63.5194 241.919 64.1568C242.415 64.7942 243.124 65.1483 244.045 65.1483C244.967 65.1483 245.675 64.7942 246.171 64.1568C246.668 63.5194 246.88 62.6695 246.88 61.5364Z" fill="black"/>
<path d="M268.287 68.6184H262.12L259.356 64.5816L256.663 68.6184H251.205L256.663 61.678L251.063 54.4542H257.23L259.852 58.2786L262.475 54.4542H267.932L262.617 61.1822L268.287 68.6184Z" fill="black"/>
<path d="M217.819 68.4768H212.432L211.44 67.4145C210.802 67.8394 210.022 68.1936 209.172 68.406C208.321 68.6185 207.471 68.6893 206.62 68.6893C204.848 68.6893 203.431 68.2644 202.509 67.4853C201.588 66.7063 201.092 65.7148 201.092 64.6525C201.092 63.8735 201.304 63.1653 201.801 62.5279C202.297 61.8905 203.218 61.1115 204.565 60.1908C204.14 59.7659 203.856 59.4118 203.573 58.9868C203.289 58.6327 203.147 58.2078 203.006 57.8537C202.864 57.4996 202.793 57.0747 202.793 56.7206C202.793 55.9415 203.006 55.2333 203.431 54.5959C203.856 53.9586 204.494 53.392 205.274 53.0379C206.124 52.613 207.046 52.4713 208.18 52.4713C208.959 52.4713 209.739 52.613 210.377 52.8254C211.015 53.1087 211.511 53.392 211.936 53.8169C212.361 54.2418 212.645 54.5959 212.858 55.0917C213.07 55.5166 213.141 55.9415 213.141 56.3665C213.141 57.1455 212.858 57.9245 212.291 58.6327C211.723 59.3409 211.015 59.9075 210.022 60.4033L212.149 62.6695C212.787 62.103 213.425 61.3239 213.921 60.4033H217.748C216.756 62.2446 215.622 63.8027 214.346 64.9358L217.819 68.4768ZM209.314 65.2191L206.549 62.3154C205.557 62.9528 205.061 63.5902 205.061 64.2276C205.061 64.5817 205.274 65.0066 205.628 65.3607C205.982 65.7148 206.479 65.9273 207.187 65.9273C207.967 65.9273 208.676 65.7148 209.314 65.2191ZM209.952 56.4373C209.952 56.2248 209.881 56.0124 209.81 55.7999C209.668 55.5874 209.526 55.375 209.243 55.3041C208.959 55.1625 208.676 55.0917 208.321 55.0917C207.825 55.0917 207.4 55.2333 207.116 55.5166C206.833 55.7999 206.762 56.0832 206.762 56.3665C206.762 56.5789 206.833 56.7914 206.975 57.0038C207.116 57.2163 207.329 57.4288 207.542 57.7121C207.754 57.9953 208.038 58.2078 208.25 58.4203C209.385 57.9245 209.952 57.2871 209.952 56.4373Z" fill="#4CA734"/>
<path d="M176.122 775.667C175.189 775.667 174.354 775.457 173.616 775.037C172.888 774.617 172.319 774.024 171.908 773.259C171.498 772.484 171.292 771.588 171.292 770.571C171.292 769.553 171.498 768.662 171.908 767.897C172.319 767.122 172.888 766.525 173.616 766.105C174.354 765.685 175.189 765.475 176.122 765.475C177.056 765.475 177.886 765.685 178.614 766.105C179.352 766.525 179.926 767.122 180.336 767.897C180.747 768.662 180.952 769.553 180.952 770.571C180.952 771.588 180.747 772.484 180.336 773.259C179.926 774.024 179.352 774.617 178.614 775.037C177.886 775.457 177.056 775.667 176.122 775.667ZM176.122 774.379C176.85 774.379 177.471 774.215 177.984 773.889C178.498 773.553 178.88 773.1 179.132 772.531C179.394 771.952 179.524 771.299 179.524 770.571C179.524 769.843 179.394 769.194 179.132 768.625C178.88 768.046 178.498 767.593 177.984 767.267C177.471 766.931 176.85 766.763 176.122 766.763C175.394 766.763 174.774 766.931 174.26 767.267C173.747 767.593 173.36 768.046 173.098 768.625C172.846 769.194 172.72 769.843 172.72 770.571C172.72 771.299 172.846 771.952 173.098 772.531C173.36 773.1 173.747 773.553 174.26 773.889C174.774 774.215 175.394 774.379 176.122 774.379ZM190.572 768.471C192.327 768.471 193.204 769.455 193.204 771.425V775.471H191.944V771.439C191.944 770.795 191.818 770.328 191.566 770.039C191.314 769.74 190.903 769.591 190.334 769.591C189.121 769.591 188.514 770.225 188.514 771.495V775.471H187.254V771.691C187.254 770.907 187.114 770.361 186.834 770.053C186.563 769.745 186.167 769.591 185.644 769.591C185.233 769.591 184.869 769.665 184.552 769.815C184.235 769.964 183.992 770.188 183.824 770.487V775.471H182.564V768.611H183.544L183.684 769.339C184.029 769.031 184.375 768.811 184.72 768.681C185.075 768.541 185.453 768.471 185.854 768.471C186.899 768.471 187.637 768.928 188.066 769.843C188.542 768.928 189.377 768.471 190.572 768.471ZM195.142 765.671H196.402V767.071H195.142V765.671ZM195.142 768.611H196.402V775.471H195.142V768.611ZM200.774 775.611C200.168 775.611 199.715 775.452 199.416 775.135C199.127 774.817 198.982 774.43 198.982 773.973V769.591H197.806L197.918 768.611H198.982V766.917L200.242 766.791V768.611H202.048V769.591H200.242V773.203C200.242 773.679 200.27 774.005 200.326 774.183C200.382 774.36 200.499 774.477 200.676 774.533C200.863 774.579 201.199 774.603 201.684 774.603H202.006L201.908 775.611H200.774ZM203.425 765.671H204.685V767.071H203.425V765.671ZM203.425 768.611H204.685V775.471H203.425V768.611ZM206.692 768.611H207.728L207.882 769.745C208.237 769.306 208.573 768.984 208.89 768.779C209.217 768.573 209.557 768.471 209.912 768.471C210.024 768.471 210.131 768.485 210.234 768.513L210.108 769.899C209.987 769.871 209.847 769.857 209.688 769.857C209.343 769.857 209.016 769.936 208.708 770.095C208.4 770.244 208.176 770.421 208.036 770.627V775.471H206.692V768.611Z" fill="black"/>
</svg>
