<svg width="379" height="934" viewBox="0 0 379 934" fill="none" xmlns="http://www.w3.org/2000/svg">
<rect width="379" height="934" fill="#4CA734"/>
<path d="M353.603 405.812V413.146L378.934 398.597L372.542 394.931L353.603 405.812Z" fill="#69D44C"/>
<path d="M353.603 393.156V399.307L369.82 389.844L364.256 386.651L353.603 393.156Z" fill="#69D44C"/>
<path d="M353.604 413.146V405.813L334.545 394.931V388.426L353.604 399.307V393.157L328.153 378.135V378.372V384.759V398.598L353.604 413.146Z" fill="#69D44C"/>
<path d="M353.605 361.459V354.126L328.154 368.792L334.546 372.459L353.605 361.459Z" fill="#69D44C"/>
<path d="M353.605 374.232V368.082L340.229 375.77L345.555 378.845L353.605 374.232Z" fill="#69D44C"/>
<path d="M353.602 354.125V361.458L372.541 372.458V378.963L353.602 368.081V374.232L378.933 389.135V389.017V382.511V368.791L353.602 354.125Z" fill="#69D44C"/>
<path d="M364.255 393.038L369.819 389.844L342.83 374.232L337.385 377.307L364.255 393.038Z" fill="#69D44C"/>
<path d="M353.603 287.771V295.104L378.934 280.556L372.542 276.889L353.603 287.771Z" fill="#30A013"/>
<path d="M353.603 275.115V281.265L369.82 271.803L364.256 268.61L353.603 275.115Z" fill="#30A013"/>
<path d="M353.604 295.104V287.771L334.545 276.889V270.384L353.604 281.266V275.115L328.153 260.094V260.33V266.717V280.556L353.604 295.104Z" fill="#30A013"/>
<path d="M353.605 243.417V236.084L328.154 250.75L334.546 254.417L353.605 243.417Z" fill="#30A013"/>
<path d="M353.605 256.19V250.04L340.229 257.728L345.555 260.803L353.605 256.19Z" fill="#30A013"/>
<path d="M353.602 236.083V243.416L372.541 254.416V260.922L353.602 250.04V256.19L378.933 271.094V270.975V264.47V250.75L353.602 236.083Z" fill="#30A013"/>
<path d="M364.255 274.997L369.819 271.803L342.83 256.19L337.385 259.266L364.255 274.997Z" fill="#30A013"/>
<path d="M353.603 169.729V177.062L378.934 162.514L372.542 158.848L353.603 169.729Z" fill="#30A013"/>
<path d="M353.603 157.073V163.224L369.82 153.761L364.256 150.568L353.603 157.073Z" fill="#30A013"/>
<path d="M353.604 177.063V169.73L334.545 158.848V152.343L353.604 163.224V157.074L328.153 142.052V142.289V148.676V162.515L353.604 177.063Z" fill="#30A013"/>
<path d="M353.605 125.375V118.042L328.154 132.709L334.546 136.375L353.605 125.375Z" fill="#30A013"/>
<path d="M353.605 138.149V131.999L340.229 139.687L345.555 142.762L353.605 138.149Z" fill="#30A013"/>
<path d="M353.602 118.042V125.375L372.541 136.375V142.88L353.602 131.998V138.149L378.933 153.052V152.934V146.428V132.708L353.602 118.042Z" fill="#30A013"/>
<path d="M364.255 156.955L369.819 153.762L342.83 138.149L337.385 141.224L364.255 156.955Z" fill="#30A013"/>
<path d="M353.603 51.6875V59.0207L378.934 44.4725L372.542 40.8059L353.603 51.6875Z" fill="#69D44C"/>
<path d="M353.603 39.0315V45.182L369.82 35.7197L364.256 32.5262L353.603 39.0315Z" fill="#69D44C"/>
<path d="M353.604 59.0211V51.6879L334.545 40.8063V34.301L353.604 45.1826V39.0322L328.153 24.0109V24.2474V30.6344V44.4729L353.604 59.0211Z" fill="#69D44C"/>
<path d="M353.605 7.33323V0L328.154 14.6665L334.546 18.3331L353.605 7.33323Z" fill="#69D44C"/>
<path d="M353.605 20.1072V13.9568L340.229 21.6448L345.555 24.7201L353.605 20.1072Z" fill="#69D44C"/>
<path d="M353.602 0V7.33323L372.541 18.3331V24.8384L353.602 13.9568V20.1072L378.933 35.0103V34.892V28.3867V14.6665L353.602 0Z" fill="#69D44C"/>
<path d="M364.255 38.9134L369.819 35.7199L342.83 20.1072L337.385 23.1824L364.255 38.9134Z" fill="#69D44C"/>
<path d="M252.048 405.812V413.145L277.38 398.597L270.988 394.931L252.048 405.812Z" fill="#30A013"/>
<path d="M252.048 393.156V399.306L268.265 389.844L262.701 386.651L252.048 393.156Z" fill="#30A013"/>
<path d="M252.045 413.146V405.812L232.987 394.931V388.425L252.045 399.307V393.157L226.595 378.135V378.372V384.759V398.597L252.045 413.146Z" fill="#30A013"/>
<path d="M252.045 361.459V354.126L226.595 368.792L232.987 372.459L252.045 361.459Z" fill="#30A013"/>
<path d="M252.048 374.232V368.082L238.672 375.77L243.999 378.845L252.048 374.232Z" fill="#30A013"/>
<path d="M252.048 354.124V361.458L270.988 372.457V378.963L252.048 368.081V374.232L277.38 389.135V389.016V382.511V368.791L252.048 354.124Z" fill="#30A013"/>
<path d="M262.7 393.038L268.263 389.844L241.274 374.232L235.829 377.307L262.7 393.038Z" fill="#30A013"/>
<path d="M302.817 464.833V472.166L328.149 457.618L321.757 453.952L302.817 464.833Z" fill="#30A013"/>
<path d="M302.817 452.177V458.328L319.035 448.866L313.471 445.672L302.817 452.177Z" fill="#30A013"/>
<path d="M302.82 472.167V464.834L283.762 453.952V447.447L302.82 458.328V452.178L277.37 437.157V437.393V443.78V457.619L302.82 472.167Z" fill="#30A013"/>
<path d="M302.821 420.479V413.146L277.371 427.812L283.763 431.479L302.821 420.479Z" fill="#30A013"/>
<path d="M302.821 433.253V427.103L289.445 434.791L294.772 437.866L302.821 433.253Z" fill="#30A013"/>
<path d="M302.82 413.146V420.479L321.76 431.479V437.984L302.82 427.103V433.253L328.152 448.156V448.038V441.533V427.812L302.82 413.146Z" fill="#30A013"/>
<path d="M313.472 452.059L319.036 448.866L292.047 433.253L286.602 436.328L313.472 452.059Z" fill="#30A013"/>
<path d="M252.048 287.771V295.104L277.38 280.556L270.988 276.889L252.048 287.771Z" fill="#30A013"/>
<path d="M252.048 275.115V281.265L268.265 271.803L262.701 268.609L252.048 275.115Z" fill="#30A013"/>
<path d="M252.045 295.104V287.771L232.987 276.889V270.384L252.045 281.265V275.115L226.595 260.094V260.33V266.717V280.556L252.045 295.104Z" fill="#30A013"/>
<path d="M252.045 243.417V236.084L226.595 250.75L232.987 254.417L252.045 243.417Z" fill="#30A013"/>
<path d="M252.048 256.19V250.04L238.672 257.728L243.999 260.803L252.048 256.19Z" fill="#30A013"/>
<path d="M252.048 236.083V243.416L270.988 254.416V260.922L252.048 250.04V256.19L277.38 271.094V270.975V264.47V250.75L252.048 236.083Z" fill="#30A013"/>
<path d="M262.7 274.997L268.263 271.803L241.274 256.19L235.829 259.266L262.7 274.997Z" fill="#30A013"/>
<path d="M302.817 346.791V354.124L328.149 339.576L321.757 335.909L302.817 346.791Z" fill="#358420"/>
<path d="M302.817 334.135V340.286L319.035 330.823L313.471 327.63L302.817 334.135Z" fill="#358420"/>
<path d="M302.82 354.125V346.791L283.762 335.91V329.404L302.82 340.286V334.136L277.37 319.114V319.351V325.738V339.576L302.82 354.125Z" fill="#358420"/>
<path d="M302.821 302.438V295.104L277.371 309.771L283.763 313.438L302.821 302.438Z" fill="#358420"/>
<path d="M302.821 315.211V309.06L289.445 316.748L294.772 319.824L302.821 315.211Z" fill="#358420"/>
<path d="M302.82 295.104V302.437L321.76 313.437V319.942L302.82 309.06V315.211L328.152 330.114V329.996V323.49V309.77L302.82 295.104Z" fill="#358420"/>
<path d="M313.472 334.017L319.036 330.824L292.047 315.211L286.602 318.286L313.472 334.017Z" fill="#358420"/>
<path d="M150.479 405.812V413.146L175.81 398.597L169.418 394.931L150.479 405.812Z" fill="#30A013"/>
<path d="M150.479 393.156V399.307L166.696 389.844L161.132 386.651L150.479 393.156Z" fill="#30A013"/>
<path d="M150.481 413.146V405.813L131.422 394.931V388.426L150.481 399.307V393.157L125.03 378.135V378.372V384.759V398.598L150.481 413.146Z" fill="#30A013"/>
<path d="M150.481 361.459V354.126L125.031 368.792L131.423 372.459L150.481 361.459Z" fill="#30A013"/>
<path d="M150.485 374.232V368.082L137.108 375.77L142.435 378.845L150.485 374.232Z" fill="#30A013"/>
<path d="M150.479 354.125V361.458L169.419 372.458V378.963L150.479 368.081V374.232L175.811 389.135V389.017V382.511V368.791L150.479 354.125Z" fill="#30A013"/>
<path d="M161.132 393.038L166.696 389.845L139.707 374.232L134.262 377.307L161.132 393.038Z" fill="#30A013"/>
<path d="M201.258 464.833V472.166L226.59 457.618L220.198 453.952L201.258 464.833Z" fill="#30A013"/>
<path d="M201.258 452.177V458.328L217.475 448.866L211.911 445.672L201.258 452.177Z" fill="#30A013"/>
<path d="M201.26 472.167V464.834L182.202 453.952V447.447L201.26 458.328V452.178L175.81 437.157V437.393V443.78V457.619L201.26 472.167Z" fill="#30A013"/>
<path d="M201.26 420.479V413.146L175.81 427.812L182.202 431.479L201.26 420.479Z" fill="#30A013"/>
<path d="M201.259 433.253V427.103L187.883 434.791L193.21 437.866L201.259 433.253Z" fill="#30A013"/>
<path d="M201.258 413.146V420.479L220.198 431.479V437.984L201.258 427.103V433.253L226.59 448.156V448.038V441.533V427.812L201.258 413.146Z" fill="#30A013"/>
<path d="M211.912 452.059L217.475 448.866L190.486 433.253L185.041 436.328L211.912 452.059Z" fill="#30A013"/>
<path d="M150.479 287.771V295.104L175.81 280.556L169.418 276.889L150.479 287.771Z" fill="#30A013"/>
<path d="M150.479 275.115V281.265L166.696 271.803L161.132 268.609L150.479 275.115Z" fill="#30A013"/>
<path d="M150.481 295.104V287.771L131.422 276.889V270.384L150.481 281.265V275.115L125.03 260.094V260.33V266.717V280.556L150.481 295.104Z" fill="#30A013"/>
<path d="M150.481 243.417V236.084L125.031 250.75L131.423 254.417L150.481 243.417Z" fill="#30A013"/>
<path d="M150.485 256.19V250.04L137.108 257.728L142.435 260.803L150.485 256.19Z" fill="#30A013"/>
<path d="M150.479 236.083V243.416L169.419 254.416V260.922L150.479 250.04V256.19L175.811 271.094V270.975V264.47V250.75L150.479 236.083Z" fill="#30A013"/>
<path d="M161.132 274.997L166.696 271.803L139.707 256.19L134.262 259.266L161.132 274.997Z" fill="#30A013"/>
<path d="M201.258 346.791V354.124L226.59 339.576L220.198 335.909L201.258 346.791Z" fill="#30A013"/>
<path d="M201.258 334.135V340.286L217.475 330.823L211.911 327.63L201.258 334.135Z" fill="#30A013"/>
<path d="M201.26 354.125V346.791L182.202 335.91V329.404L201.26 340.286V334.136L175.81 319.114V319.351V325.738V339.576L201.26 354.125Z" fill="#30A013"/>
<path d="M201.26 302.437V295.104L175.81 309.771L182.202 313.437L201.26 302.437Z" fill="#30A013"/>
<path d="M201.259 315.211V309.06L187.883 316.748L193.21 319.824L201.259 315.211Z" fill="#30A013"/>
<path d="M201.258 295.104V302.437L220.198 313.437V319.942L201.258 309.06V315.211L226.59 330.114V329.996V323.49V309.77L201.258 295.104Z" fill="#30A013"/>
<path d="M211.912 334.017L217.475 330.824L190.486 315.211L185.041 318.286L211.912 334.017Z" fill="#30A013"/>
<path d="M252.048 169.729V177.062L277.38 162.514L270.988 158.847L252.048 169.729Z" fill="#30A013"/>
<path d="M252.048 157.073V163.223L268.265 153.761L262.701 150.568L252.048 157.073Z" fill="#30A013"/>
<path d="M252.045 177.062V169.729L232.987 158.848V152.342L252.045 163.224V157.073L226.595 142.052V142.289V148.676V162.514L252.045 177.062Z" fill="#30A013"/>
<path d="M252.045 125.375V118.042L226.595 132.708L232.987 136.375L252.045 125.375Z" fill="#30A013"/>
<path d="M252.048 138.149V131.999L238.672 139.687L243.999 142.762L252.048 138.149Z" fill="#30A013"/>
<path d="M252.048 118.041V125.374L270.988 136.374V142.88L252.048 131.998V138.149L277.38 153.052V152.933V146.428V132.708L252.048 118.041Z" fill="#30A013"/>
<path d="M262.7 156.955L268.263 153.762L241.274 138.149L235.829 141.224L262.7 156.955Z" fill="#30A013"/>
<path d="M302.817 228.75V236.083L328.149 221.535L321.757 217.868L302.817 228.75Z" fill="#30A013"/>
<path d="M302.817 216.094V222.244L319.035 212.782L313.471 209.589L302.817 216.094Z" fill="#30A013"/>
<path d="M302.82 236.084V228.75L283.762 217.869V211.363L302.82 222.245V216.095L277.37 201.073V201.31V207.697V221.535L302.82 236.084Z" fill="#30A013"/>
<path d="M302.821 184.396V177.063L277.371 191.729L283.763 195.396L302.821 184.396Z" fill="#30A013"/>
<path d="M302.821 197.17V191.019L289.445 198.707L294.772 201.783L302.821 197.17Z" fill="#30A013"/>
<path d="M302.82 177.062V184.396L321.76 195.395V201.901L302.82 191.019V197.17L328.152 212.073V211.954V205.449V191.729L302.82 177.062Z" fill="#30A013"/>
<path d="M313.472 215.976L319.036 212.782L292.047 197.17L286.602 200.245L313.472 215.976Z" fill="#30A013"/>
<path d="M252.048 51.6875V59.0207L277.38 44.4725L270.988 40.8059L252.048 51.6875Z" fill="#30A013"/>
<path d="M252.048 39.0315V45.182L268.265 35.7197L262.701 32.5262L252.048 39.0315Z" fill="#30A013"/>
<path d="M252.045 59.0211V51.6879L232.987 40.8063V34.301L252.045 45.1826V39.0322L226.595 24.0109V24.2474V30.6344V44.4729L252.045 59.0211Z" fill="#30A013"/>
<path d="M252.045 7.33323V0L226.595 14.6665L232.987 18.3331L252.045 7.33323Z" fill="#30A013"/>
<path d="M252.048 20.1072V13.9568L238.672 21.6448L243.999 24.7201L252.048 20.1072Z" fill="#30A013"/>
<path d="M252.048 0V7.33323L270.988 18.3331V24.8384L252.048 13.9568V20.1072L277.38 35.0103V34.892V28.3867V14.6665L252.048 0Z" fill="#30A013"/>
<path d="M262.7 38.9134L268.263 35.7199L241.274 20.1072L235.829 23.1824L262.7 38.9134Z" fill="#30A013"/>
<path d="M302.817 110.708V118.041L328.149 103.493L321.757 99.8265L302.817 110.708Z" fill="#30A013"/>
<path d="M302.817 98.0522V104.203L319.035 94.7404L313.471 91.5469L302.817 98.0522Z" fill="#30A013"/>
<path d="M302.82 118.041V110.708L283.762 99.8266V93.3213L302.82 104.203V98.0524L277.37 83.0311V83.2677V89.6547V103.493L302.82 118.041Z" fill="#30A013"/>
<path d="M302.821 66.3546V59.0214L277.371 73.6878L283.763 77.3544L302.821 66.3546Z" fill="#30A013"/>
<path d="M302.821 79.128V72.9775L289.445 80.6656L294.772 83.7408L302.821 79.128Z" fill="#30A013"/>
<path d="M302.82 59.021V66.3542L321.76 77.3541V83.8594L302.82 72.9778V79.1282L328.152 94.0312V93.913V87.4077V73.6875L302.82 59.021Z" fill="#30A013"/>
<path d="M313.472 97.9344L319.036 94.7409L292.047 79.1282L286.602 82.2034L313.472 97.9344Z" fill="#30A013"/>
<path d="M150.479 169.729V177.062L175.81 162.514L169.418 158.847L150.479 169.729Z" fill="#358420"/>
<path d="M150.479 157.073V163.223L166.696 153.761L161.132 150.568L150.479 157.073Z" fill="#358420"/>
<path d="M150.481 177.062V169.729L131.422 158.848V152.342L150.481 163.224V157.073L125.03 142.052V142.289V148.676V162.514L150.481 177.062Z" fill="#358420"/>
<path d="M150.481 125.375V118.042L125.031 132.708L131.423 136.375L150.481 125.375Z" fill="#358420"/>
<path d="M150.485 138.149V131.999L137.108 139.687L142.435 142.762L150.485 138.149Z" fill="#358420"/>
<path d="M150.479 118.041V125.374L169.419 136.374V142.88L150.479 131.998V138.149L175.811 153.052V152.933V146.428V132.708L150.479 118.041Z" fill="#358420"/>
<path d="M161.132 156.955L166.696 153.762L139.707 138.149L134.262 141.224L161.132 156.955Z" fill="#358420"/>
<path d="M201.258 228.75V236.083L226.59 221.535L220.198 217.868L201.258 228.75Z" fill="#69D44C"/>
<path d="M201.258 216.094V222.244L217.475 212.782L211.911 209.589L201.258 216.094Z" fill="#69D44C"/>
<path d="M201.26 236.084V228.75L182.202 217.869V211.363L201.26 222.245V216.095L175.81 201.073V201.31V207.697V221.535L201.26 236.084Z" fill="#69D44C"/>
<path d="M201.26 184.396V177.063L175.81 191.729L182.202 195.396L201.26 184.396Z" fill="#69D44C"/>
<path d="M201.259 197.17V191.019L187.883 198.707L193.21 201.783L201.259 197.17Z" fill="#69D44C"/>
<path d="M201.258 177.062V184.396L220.198 195.395V201.901L201.258 191.019V197.17L226.59 212.073V211.954V205.449V191.729L201.258 177.062Z" fill="#69D44C"/>
<path d="M211.912 215.976L217.475 212.782L190.486 197.17L185.041 200.245L211.912 215.976Z" fill="#69D44C"/>
<path d="M150.479 51.6875V59.0207L175.81 44.4725L169.418 40.8059L150.479 51.6875Z" fill="#30A013"/>
<path d="M150.479 39.0315V45.182L166.696 35.7197L161.132 32.5262L150.479 39.0315Z" fill="#30A013"/>
<path d="M150.481 59.0211V51.6879L131.422 40.8063V34.301L150.481 45.1826V39.0322L125.03 24.0109V24.2474V30.6344V44.4729L150.481 59.0211Z" fill="#30A013"/>
<path d="M150.481 7.33347V0.000244141L125.031 14.6667L131.423 18.3333L150.481 7.33347Z" fill="#30A013"/>
<path d="M150.485 20.1072V13.9568L137.108 21.6448L142.435 24.7201L150.485 20.1072Z" fill="#30A013"/>
<path d="M150.479 0V7.33323L169.419 18.3331V24.8384L150.479 13.9568V20.1072L175.811 35.0103V34.892V28.3867V14.6665L150.479 0Z" fill="#30A013"/>
<path d="M161.132 38.9134L166.696 35.7199L139.707 20.1072L134.262 23.1824L161.132 38.9134Z" fill="#30A013"/>
<path d="M201.258 110.708V118.041L226.59 103.493L220.198 99.8265L201.258 110.708Z" fill="#30A013"/>
<path d="M201.258 98.0522V104.203L217.475 94.7404L211.911 91.5469L201.258 98.0522Z" fill="#30A013"/>
<path d="M201.26 118.041V110.708L182.202 99.8266V93.3213L201.26 104.203V98.0524L175.81 83.0311V83.2677V89.6547V103.493L201.26 118.041Z" fill="#30A013"/>
<path d="M201.26 66.3546V59.0214L175.81 73.6878L182.202 77.3544L201.26 66.3546Z" fill="#30A013"/>
<path d="M201.259 79.128V72.9775L187.883 80.6656L193.21 83.7408L201.259 79.128Z" fill="#30A013"/>
<path d="M201.258 59.021V66.3542L220.198 77.3541V83.8594L201.258 72.9778V79.1282L226.59 94.0312V93.913V87.4077V73.6875L201.258 59.021Z" fill="#30A013"/>
<path d="M211.912 97.9344L217.475 94.7409L190.486 79.1282L185.041 82.2034L211.912 97.9344Z" fill="#30A013"/>
<path d="M353.668 877.979V885.312L379 870.764L372.608 867.097L353.668 877.979Z" fill="#30A013"/>
<path d="M353.668 865.323V871.473L369.885 862.011L364.322 858.818L353.668 865.323Z" fill="#30A013"/>
<path d="M353.668 885.312V877.979L334.61 867.098V860.592L353.668 871.474V865.323L328.218 850.302V850.539V856.926V870.764L353.668 885.312Z" fill="#30A013"/>
<path d="M353.668 833.625V826.291L328.218 840.958L334.61 844.624L353.668 833.625Z" fill="#30A013"/>
<path d="M353.671 846.399V840.248L340.295 847.936L345.622 851.012L353.671 846.399Z" fill="#30A013"/>
<path d="M353.668 826.292V833.625L372.608 844.625V851.13L353.668 840.248V846.399L379 861.302V861.184V854.678V840.958L353.668 826.292Z" fill="#30A013"/>
<path d="M364.32 865.205L369.883 862.011L342.894 846.399L337.449 849.474L364.32 865.205Z" fill="#30A013"/>
<path d="M353.668 759.937V767.27L379 752.722L372.608 749.055L353.668 759.937Z" fill="#30A013"/>
<path d="M353.668 747.281V753.431L369.885 743.969L364.322 740.776L353.668 747.281Z" fill="#30A013"/>
<path d="M353.668 767.27V759.937L334.61 749.055V742.55L353.668 753.432V747.281L328.218 732.26V732.497V738.884V752.722L353.668 767.27Z" fill="#30A013"/>
<path d="M353.668 715.583V708.25L328.218 722.916L334.61 726.583L353.668 715.583Z" fill="#30A013"/>
<path d="M353.671 728.357V722.207L340.295 729.895L345.622 732.97L353.671 728.357Z" fill="#30A013"/>
<path d="M353.668 708.25V715.583L372.608 726.583V733.088L353.668 722.206V728.357L379 743.26V743.142V736.636V722.916L353.668 708.25Z" fill="#30A013"/>
<path d="M364.32 747.163L369.883 743.969L342.894 728.357L337.449 731.432L364.32 747.163Z" fill="#30A013"/>
<path d="M353.668 641.896V649.229L379 634.681L372.608 631.014L353.668 641.896Z" fill="#30A013"/>
<path d="M353.668 629.24V635.39L369.885 625.928L364.322 622.735L353.668 629.24Z" fill="#30A013"/>
<path d="M353.668 649.229V641.896L334.61 631.014V624.509L353.668 635.39V629.24L328.218 614.219V614.455V620.842V634.681L353.668 649.229Z" fill="#30A013"/>
<path d="M353.668 597.542V590.208L328.218 604.875L334.61 608.542L353.668 597.542Z" fill="#30A013"/>
<path d="M353.671 610.316V604.165L340.295 611.853L345.622 614.929L353.671 610.316Z" fill="#30A013"/>
<path d="M353.668 590.208V597.541L372.608 608.541V615.046L353.668 604.165V610.315L379 625.218V625.1V618.595V604.875L353.668 590.208Z" fill="#30A013"/>
<path d="M364.32 629.122L369.883 625.928L342.894 610.315L337.449 613.391L364.32 629.122Z" fill="#30A013"/>
<path d="M353.668 523.854V531.188L379 516.639L372.608 512.973L353.668 523.854Z" fill="#358420"/>
<path d="M353.668 511.198V517.349L369.885 507.886L364.322 504.693L353.668 511.198Z" fill="#358420"/>
<path d="M353.668 531.188V523.855L334.61 512.973V506.468L353.668 517.349V511.199L328.218 496.178V496.414V502.801V516.64L353.668 531.188Z" fill="#358420"/>
<path d="M353.668 479.5V472.167L328.218 486.833L334.61 490.5L353.668 479.5Z" fill="#358420"/>
<path d="M353.671 492.274V486.124L340.295 493.812L345.622 496.887L353.671 492.274Z" fill="#358420"/>
<path d="M353.668 472.167V479.5L372.608 490.5V497.005L353.668 486.124V492.274L379 507.177V507.059V500.553V486.833L353.668 472.167Z" fill="#358420"/>
<path d="M364.32 511.08L369.883 507.887L342.894 492.274L337.449 495.349L364.32 511.08Z" fill="#358420"/>
<path d="M252.101 877.979V885.312L277.432 870.764L271.04 867.097L252.101 877.979Z" fill="#358420"/>
<path d="M252.101 865.323V871.473L268.318 862.011L262.754 858.818L252.101 865.323Z" fill="#358420"/>
<path d="M252.102 885.312V877.979L233.044 867.098V860.592L252.102 871.474V865.323L226.651 850.302V850.539V856.926V870.764L252.102 885.312Z" fill="#358420"/>
<path d="M252.103 833.624V826.291L226.652 840.958L233.044 844.624L252.103 833.624Z" fill="#358420"/>
<path d="M252.103 846.399V840.248L238.727 847.936L244.053 851.012L252.103 846.399Z" fill="#358420"/>
<path d="M252.102 826.292V833.625L271.041 844.625V851.13L252.102 840.248V846.399L277.433 861.302V861.184V854.678V840.958L252.102 826.292Z" fill="#358420"/>
<path d="M262.754 865.205L268.317 862.011L241.328 846.399L235.883 849.474L262.754 865.205Z" fill="#358420"/>
<path d="M252.101 759.937V767.27L277.432 752.722L271.04 749.055L252.101 759.937Z" fill="#30A013"/>
<path d="M252.101 747.281V753.432L268.318 743.969L262.754 740.776L252.101 747.281Z" fill="#30A013"/>
<path d="M252.102 767.27V759.937L233.044 749.056V742.55L252.102 753.432V747.281L226.651 732.26V732.497V738.884V752.722L252.102 767.27Z" fill="#30A013"/>
<path d="M252.103 715.584V708.25L226.652 722.917L233.044 726.584L252.103 715.584Z" fill="#30A013"/>
<path d="M252.103 728.357V722.207L238.727 729.895L244.053 732.97L252.103 728.357Z" fill="#30A013"/>
<path d="M252.102 708.25V715.583L271.041 726.583V733.088L252.102 722.207V728.357L277.433 743.26V743.142V736.636V722.916L252.102 708.25Z" fill="#30A013"/>
<path d="M262.754 747.163L268.317 743.97L241.328 728.357L235.883 731.432L262.754 747.163Z" fill="#30A013"/>
<path d="M302.887 818.958V826.291L328.219 811.743L321.826 808.076L302.887 818.958Z" fill="#30A013"/>
<path d="M302.887 806.302V812.452L319.104 802.99L313.54 799.797L302.887 806.302Z" fill="#30A013"/>
<path d="M302.887 826.291V818.958L283.829 808.076V801.571L302.887 812.453V806.302L277.437 791.281V791.517V797.904V811.743L302.887 826.291Z" fill="#30A013"/>
<path d="M302.885 774.604V767.271L277.435 781.937L283.827 785.604L302.885 774.604Z" fill="#30A013"/>
<path d="M302.888 787.378V781.227L289.512 788.916L294.839 791.991L302.888 787.378Z" fill="#30A013"/>
<path d="M302.885 767.271V774.604L321.824 785.604V792.109L302.885 781.227V787.378L328.217 802.281V802.163V795.657V781.937L302.885 767.271Z" fill="#30A013"/>
<path d="M313.539 806.184L319.102 802.991L292.113 787.378L286.668 790.453L313.539 806.184Z" fill="#30A013"/>
<path d="M150.54 877.979V885.312L175.872 870.764L169.48 867.097L150.54 877.979Z" fill="#30A013"/>
<path d="M150.54 865.323V871.473L166.757 862.011L161.194 858.818L150.54 865.323Z" fill="#30A013"/>
<path d="M150.539 885.312V877.979L131.481 867.098V860.592L150.539 871.474V865.323L125.089 850.302V850.539V856.926V870.764L150.539 885.312Z" fill="#30A013"/>
<path d="M150.539 833.625V826.291L125.089 840.958L131.481 844.624L150.539 833.625Z" fill="#30A013"/>
<path d="M150.542 846.399V840.248L137.166 847.936L142.493 851.012L150.542 846.399Z" fill="#30A013"/>
<path d="M150.54 826.292V833.625L169.48 844.625V851.13L150.54 840.248V846.399L175.872 861.302V861.184V854.678V840.958L150.54 826.292Z" fill="#30A013"/>
<path d="M161.194 865.205L166.758 862.011L139.768 846.399L134.323 849.474L161.194 865.205Z" fill="#30A013"/>
<path d="M150.54 759.937V767.27L175.872 752.722L169.48 749.055L150.54 759.937Z" fill="#69D44C"/>
<path d="M150.54 747.281V753.431L166.757 743.969L161.194 740.776L150.54 747.281Z" fill="#69D44C"/>
<path d="M150.539 767.27V759.937L131.481 749.055V742.55L150.539 753.432V747.281L125.089 732.26V732.497V738.884V752.722L150.539 767.27Z" fill="#69D44C"/>
<path d="M150.539 715.583V708.25L125.089 722.916L131.481 726.583L150.539 715.583Z" fill="#69D44C"/>
<path d="M150.542 728.357V722.207L137.166 729.895L142.493 732.97L150.542 728.357Z" fill="#69D44C"/>
<path d="M150.54 708.25V715.583L169.48 726.583V733.088L150.54 722.206V728.357L175.872 743.26V743.142V736.636V722.916L150.54 708.25Z" fill="#69D44C"/>
<path d="M161.194 747.163L166.758 743.969L139.768 728.357L134.323 731.432L161.194 747.163Z" fill="#69D44C"/>
<path d="M201.321 818.958V826.291L226.653 811.743L220.261 808.076L201.321 818.958Z" fill="#30A013"/>
<path d="M201.321 806.302V812.453L217.538 802.99L211.975 799.797L201.321 806.302Z" fill="#30A013"/>
<path d="M201.322 826.291V818.958L182.264 808.077V801.571L201.322 812.453V806.302L175.872 791.281V791.518V797.905V811.743L201.322 826.291Z" fill="#30A013"/>
<path d="M201.322 774.604V767.271L175.872 781.937L182.264 785.604L201.322 774.604Z" fill="#30A013"/>
<path d="M201.321 787.378V781.228L187.944 788.916L193.271 791.991L201.321 787.378Z" fill="#30A013"/>
<path d="M201.321 767.271V774.604L220.261 785.604V792.109L201.321 781.227V787.378L226.653 802.281V802.163V795.657V781.937L201.321 767.271Z" fill="#30A013"/>
<path d="M211.974 806.184L217.538 802.991L190.549 787.378L185.104 790.453L211.974 806.184Z" fill="#30A013"/>
<path d="M252.101 641.896V649.229L277.432 634.681L271.04 631.014L252.101 641.896Z" fill="#30A013"/>
<path d="M252.101 629.24V635.39L268.318 625.928L262.754 622.735L252.101 629.24Z" fill="#30A013"/>
<path d="M252.102 649.229V641.896L233.044 631.014V624.509L252.102 635.39V629.24L226.651 614.219V614.455V620.842V634.681L252.102 649.229Z" fill="#30A013"/>
<path d="M252.103 597.542V590.209L226.652 604.875L233.044 608.542L252.103 597.542Z" fill="#30A013"/>
<path d="M252.103 610.316V604.165L238.727 611.853L244.053 614.929L252.103 610.316Z" fill="#30A013"/>
<path d="M252.102 590.208V597.541L271.041 608.541V615.046L252.102 604.165V610.315L277.433 625.218V625.1V618.595V604.875L252.102 590.208Z" fill="#30A013"/>
<path d="M262.754 629.122L268.317 625.928L241.328 610.315L235.883 613.391L262.754 629.122Z" fill="#30A013"/>
<path d="M302.887 700.916V708.249L328.219 693.701L321.826 690.035L302.887 700.916Z" fill="#30A013"/>
<path d="M302.887 688.26V694.411L319.104 684.948L313.54 681.755L302.887 688.26Z" fill="#30A013"/>
<path d="M302.887 708.25V700.916L283.829 690.035V683.53L302.887 694.411V688.261L277.437 673.239V673.476V679.863V693.702L302.887 708.25Z" fill="#30A013"/>
<path d="M302.885 656.562V649.229L277.435 663.896L283.827 667.562L302.885 656.562Z" fill="#30A013"/>
<path d="M302.888 669.336V663.186L289.512 670.874L294.839 673.949L302.888 669.336Z" fill="#30A013"/>
<path d="M302.885 649.229V656.562L321.824 667.562V674.067L302.885 663.186V669.336L328.217 684.239V684.121V677.616V663.895L302.885 649.229Z" fill="#30A013"/>
<path d="M313.539 688.142L319.102 684.949L292.113 669.336L286.668 672.411L313.539 688.142Z" fill="#30A013"/>
<path d="M252.101 523.854V531.188L277.432 516.639L271.04 512.973L252.101 523.854Z" fill="#30A013"/>
<path d="M252.101 511.198V517.349L268.318 507.886L262.754 504.693L252.101 511.198Z" fill="#30A013"/>
<path d="M252.102 531.188V523.854L233.044 512.973V506.468L252.102 517.349V511.199L226.651 496.177V496.414V502.801V516.639L252.102 531.188Z" fill="#30A013"/>
<path d="M252.103 479.5V472.167L226.652 486.834L233.044 490.5L252.103 479.5Z" fill="#30A013"/>
<path d="M252.103 492.274V486.124L238.727 493.812L244.053 496.887L252.103 492.274Z" fill="#30A013"/>
<path d="M252.102 472.167V479.5L271.041 490.5V497.005L252.102 486.123V492.274L277.433 507.177V507.058V500.553V486.833L252.102 472.167Z" fill="#30A013"/>
<path d="M262.754 511.08L268.317 507.887L241.328 492.274L235.883 495.349L262.754 511.08Z" fill="#30A013"/>
<path d="M302.887 582.875V590.208L328.219 575.66L321.826 571.993L302.887 582.875Z" fill="#69D44C"/>
<path d="M302.887 570.219V576.369L319.104 566.907L313.54 563.714L302.887 570.219Z" fill="#69D44C"/>
<path d="M302.887 590.208V582.875L283.829 571.993V565.488L302.887 576.37V570.219L277.437 555.198V555.434V561.821V575.66L302.887 590.208Z" fill="#69D44C"/>
<path d="M302.885 538.521V531.188L277.435 545.854L283.827 549.521L302.885 538.521Z" fill="#69D44C"/>
<path d="M302.888 551.295V545.144L289.512 552.832L294.839 555.908L302.888 551.295Z" fill="#69D44C"/>
<path d="M302.885 531.187V538.521L321.824 549.52V556.026L302.885 545.144V551.295L328.217 566.198V566.079V559.574V545.854L302.885 531.187Z" fill="#69D44C"/>
<path d="M313.539 570.101L319.102 566.908L292.113 551.295L286.668 554.37L313.539 570.101Z" fill="#69D44C"/>
<path d="M150.54 641.896V649.229L175.872 634.681L169.48 631.014L150.54 641.896Z" fill="#30A013"/>
<path d="M150.54 629.24V635.39L166.757 625.928L161.194 622.735L150.54 629.24Z" fill="#30A013"/>
<path d="M150.539 649.229V641.896L131.481 631.014V624.509L150.539 635.39V629.24L125.089 614.219V614.455V620.842V634.681L150.539 649.229Z" fill="#30A013"/>
<path d="M150.539 597.542V590.209L125.089 604.876L131.481 608.542L150.539 597.542Z" fill="#30A013"/>
<path d="M150.542 610.316V604.165L137.166 611.853L142.493 614.929L150.542 610.316Z" fill="#30A013"/>
<path d="M150.54 590.208V597.541L169.48 608.541V615.046L150.54 604.165V610.315L175.872 625.218V625.1V618.595V604.875L150.54 590.208Z" fill="#30A013"/>
<path d="M161.194 629.122L166.758 625.928L139.768 610.315L134.323 613.391L161.194 629.122Z" fill="#30A013"/>
<path d="M201.321 700.916V708.249L226.653 693.701L220.261 690.035L201.321 700.916Z" fill="#358420"/>
<path d="M201.321 688.26V694.411L217.538 684.948L211.975 681.755L201.321 688.26Z" fill="#358420"/>
<path d="M201.322 708.25V700.916L182.264 690.035V683.53L201.322 694.411V688.261L175.872 673.239V673.476V679.863V693.701L201.322 708.25Z" fill="#358420"/>
<path d="M201.322 656.562V649.229L175.872 663.895L182.264 667.562L201.322 656.562Z" fill="#358420"/>
<path d="M201.321 669.336V663.186L187.944 670.874L193.271 673.949L201.321 669.336Z" fill="#358420"/>
<path d="M201.321 649.229V656.562L220.261 667.562V674.067L201.321 663.186V669.336L226.653 684.239V684.121V677.616V663.895L201.321 649.229Z" fill="#358420"/>
<path d="M211.974 688.142L217.538 684.949L190.549 669.336L185.104 672.411L211.974 688.142Z" fill="#358420"/>
<path d="M150.54 523.854V531.188L175.872 516.639L169.48 512.973L150.54 523.854Z" fill="#30A013"/>
<path d="M150.54 511.198V517.349L166.757 507.886L161.194 504.693L150.54 511.198Z" fill="#30A013"/>
<path d="M150.539 531.188V523.855L131.481 512.973V506.468L150.539 517.349V511.199L125.089 496.178V496.414V502.801V516.64L150.539 531.188Z" fill="#30A013"/>
<path d="M150.539 479.5V472.167L125.089 486.834L131.481 490.5L150.539 479.5Z" fill="#30A013"/>
<path d="M150.542 492.274V486.124L137.166 493.812L142.493 496.887L150.542 492.274Z" fill="#30A013"/>
<path d="M150.54 472.167V479.5L169.48 490.5V497.005L150.54 486.124V492.274L175.872 507.177V507.059V500.554V486.833L150.54 472.167Z" fill="#30A013"/>
<path d="M161.194 511.08L166.758 507.887L139.768 492.274L134.323 495.349L161.194 511.08Z" fill="#30A013"/>
<path d="M201.321 582.875V590.208L226.653 575.66L220.261 571.993L201.321 582.875Z" fill="#30A013"/>
<path d="M201.321 570.219V576.369L217.538 566.907L211.975 563.714L201.321 570.219Z" fill="#30A013"/>
<path d="M201.322 590.208V582.875L182.264 571.993V565.488L201.322 576.37V570.219L175.872 555.198V555.434V561.821V575.66L201.322 590.208Z" fill="#30A013"/>
<path d="M201.322 538.521V531.188L175.872 545.854L182.264 549.521L201.322 538.521Z" fill="#30A013"/>
<path d="M201.321 551.295V545.144L187.944 552.832L193.271 555.908L201.321 551.295Z" fill="#30A013"/>
<path d="M201.321 531.187V538.521L220.261 549.52V556.026L201.321 545.144V551.295L226.653 566.198V566.079V559.574V545.854L201.321 531.187Z" fill="#30A013"/>
<path d="M211.974 570.101L217.538 566.908L190.549 551.295L185.104 554.37L211.974 570.101Z" fill="#30A013"/>
<path fill-rule="evenodd" clip-rule="evenodd" d="M201.321 885.313V885.312L201.322 885.312L201.322 885.312V885.313L226.653 899.978V913.699V920.204V920.322L201.321 905.419V899.269L220.261 910.15V903.645L201.322 892.646L182.264 903.645L175.872 899.979L201.321 885.313ZM201.322 924.343L175.872 909.322V909.559V915.946V929.784L183.247 934H196.069L182.264 926.118V919.613L201.321 930.494V930.494L201.322 930.494L201.322 930.494V930.493L217.481 921.065L217.539 921.032L217.538 921.032L217.538 921.032L217.503 921.012L195.91 908.52L201.32 905.419V899.269L190.584 905.439L190.55 905.419L185.104 908.495L206.635 921.099L201.322 924.343ZM226.653 929.784L219.312 934H206.541L220.261 926.117L226.653 929.784Z" fill="#30A013"/>
<path fill-rule="evenodd" clip-rule="evenodd" d="M302.657 885.313V885.312L302.658 885.312L302.658 885.312V885.313L327.989 899.978V913.699V920.204V920.322L302.657 905.419V899.269L321.597 910.15V903.645L302.658 892.646L283.6 903.645L277.208 899.979L302.657 885.313ZM302.658 924.343L277.208 909.322V909.559V915.946V929.784L284.583 934H297.405L283.6 926.118V919.613L302.657 930.494V930.494L302.658 930.494L302.658 930.494V930.493L318.817 921.065L318.875 921.032L318.874 921.032L318.874 921.032L318.839 921.012L297.246 908.52L302.656 905.419V899.269L291.92 905.439L291.886 905.419L286.44 908.495L307.971 921.099L302.658 924.343ZM327.989 929.784L320.648 934H307.877L321.597 926.117L327.989 929.784Z" fill="#69D44C"/>
<path d="M92.1543 487.607V494.421L115.693 480.902L109.753 477.495L92.1543 487.607Z" fill="white"/>
<path d="M92.1543 475.847V481.562L107.223 472.77L102.054 469.802L92.1543 475.847Z" fill="white"/>
<path d="M92.1552 494.421V487.607L74.4464 477.496V471.451L92.1552 481.562V475.847L68.5068 461.89V462.109V468.044V480.903L92.1552 494.421Z" fill="white"/>
<path d="M92.1552 446.393V439.579L68.5068 453.207L74.4464 456.614L92.1552 446.393Z" fill="white"/>
<path d="M92.1557 458.263V452.548L79.7266 459.691L84.6762 462.549L92.1557 458.263Z" fill="white"/>
<path d="M92.1543 439.579V446.393L109.753 456.614V462.659L92.1543 452.548V458.263L115.693 472.11V472.001V465.956V453.207L92.1543 439.579Z" fill="white"/>
<path d="M102.052 475.737L107.222 472.77L82.1436 458.263L77.084 461.12L102.052 475.737Z" fill="white"/>
<path d="M142.754 473.429C142.754 475.298 142.314 476.946 141.324 478.265C140.334 479.584 139.015 480.683 137.365 481.452C135.605 482.222 133.735 482.551 131.425 482.551C130.765 482.551 129.995 482.551 129.115 482.441C128.235 482.331 127.025 482.112 125.485 481.782C123.946 481.452 122.406 480.903 120.866 480.133V472.77C122.406 473.649 123.836 474.528 125.265 475.078C126.695 475.737 128.235 475.957 129.995 475.957C131.535 475.957 132.525 475.737 132.965 475.188C133.405 474.638 133.625 474.199 133.625 473.759C133.625 472.99 133.185 472.33 132.415 471.671C131.645 471.121 130.545 470.572 129.005 469.912C127.355 469.253 125.925 468.484 124.715 467.714C123.506 466.945 122.516 465.846 121.636 464.637C120.866 463.428 120.426 461.999 120.426 460.351C120.426 458.702 120.866 457.273 121.636 455.955C122.406 454.636 123.616 453.647 125.265 452.877C126.915 452.108 128.895 451.668 131.205 451.668C132.855 451.668 134.395 451.778 135.825 452.108C137.255 452.438 138.355 452.767 139.345 453.207C140.224 453.647 140.884 453.976 141.214 454.196V461.23C140.004 460.351 138.685 459.581 137.145 458.922C135.605 458.263 134.065 457.933 132.305 457.933C131.205 457.933 130.325 458.153 129.885 458.592C129.335 459.032 129.115 459.581 129.115 460.241C129.115 460.79 129.335 461.34 129.885 461.779C130.435 462.219 131.315 462.769 132.525 463.318C134.835 464.417 136.705 465.406 138.025 466.176C139.454 467.055 140.444 468.044 141.214 469.143C142.314 470.352 142.754 471.781 142.754 473.429Z" fill="white"/>
<path d="M168.821 482.112H161.011V470.791C161.011 470.682 161.011 470.572 161.011 470.572C161.011 470.462 161.011 470.352 161.011 470.022C161.011 468.923 160.791 468.044 160.351 467.165C159.911 466.285 159.031 465.846 157.821 465.846C156.831 465.846 155.952 466.176 155.182 466.835C154.412 467.494 153.752 468.264 153.092 469.253V482.112H145.282V452.328H153.092V463.428C154.412 462.109 155.622 461.12 156.831 460.68C158.041 460.131 159.361 459.911 160.791 459.911C166.071 459.911 168.711 462.878 168.711 468.813V482.112H168.821Z" fill="white"/>
<path d="M179.379 482.112H171.569V460.131H179.379V482.112ZM178.829 455.185C178.829 456.064 178.499 456.834 177.839 457.493C177.179 458.153 176.409 458.482 175.529 458.482C174.979 458.482 174.429 458.372 173.879 458.043C173.329 457.713 172.999 457.383 172.669 456.834C172.339 456.284 172.229 455.735 172.229 455.185C172.229 454.306 172.559 453.537 173.219 452.877C173.879 452.218 174.649 451.888 175.529 451.888C176.409 451.888 177.179 452.218 177.839 452.877C178.499 453.537 178.829 454.196 178.829 455.185Z" fill="white"/>
<path d="M206.658 471.011C206.658 472.44 206.438 473.869 205.998 475.298C205.558 476.616 204.898 477.935 204.129 479.034C203.249 480.133 202.149 481.013 200.829 481.672C199.509 482.331 197.969 482.661 196.099 482.661C194.669 482.661 193.569 482.551 192.689 482.222C191.809 481.892 191.039 481.562 190.269 481.013V492.223H182.46V460.351H190.269V462.329C191.039 461.669 191.919 461.12 192.799 460.68C193.789 460.241 194.999 460.021 196.649 460.021C198.299 460.021 199.839 460.461 201.379 461.23C202.919 461.999 204.129 463.208 205.118 464.967C206.218 466.395 206.658 468.484 206.658 471.011ZM198.519 471.231C198.519 469.912 198.299 468.813 197.859 468.044C197.419 467.165 196.869 466.615 196.209 466.285C195.549 465.956 194.889 465.736 194.119 465.736C193.239 465.736 192.469 465.846 191.809 466.176C191.259 466.505 190.709 466.835 190.159 467.275V475.627C190.379 475.737 190.709 475.957 191.039 476.067C191.369 476.287 191.699 476.397 191.919 476.507C192.249 476.616 192.579 476.726 192.909 476.836C193.239 476.946 193.679 476.946 194.009 476.946C195.219 476.946 196.209 476.397 197.089 475.407C198.079 474.418 198.519 472.99 198.519 471.231Z" fill="white"/>
<path d="M258.903 473.649C258.903 476.177 258.023 478.265 256.263 479.804C254.503 481.342 252.084 482.112 248.894 482.112H231.625V452.328H246.034C247.904 452.328 249.554 452.547 250.874 452.877C252.304 453.207 253.404 453.756 254.173 454.306C255.053 454.965 255.603 455.625 256.043 456.504C256.483 457.383 256.703 458.262 256.703 459.252C256.703 460.351 256.483 461.34 256.043 462.329C255.603 463.208 255.053 463.977 254.393 464.637C253.733 465.186 253.074 465.626 252.414 465.846C254.503 466.615 256.043 467.714 257.033 468.923C258.353 470.132 258.903 471.671 258.903 473.649ZM248.344 460.9C248.344 459.471 247.904 458.482 246.914 458.043C245.924 457.603 244.494 457.383 242.514 457.383H240.644V464.527H242.624C244.714 464.527 246.144 464.307 247.024 463.867C247.904 463.208 248.344 462.329 248.344 460.9ZM249.884 473.319C249.884 470.791 248.014 469.473 244.274 469.473H240.644V477.166H244.274C248.014 477.166 249.884 475.847 249.884 473.319Z" fill="white"/>
<path d="M285.409 471.121C285.409 473.319 284.969 475.297 283.979 476.946C282.989 478.704 281.559 480.023 279.689 481.012C277.819 482.002 275.509 482.551 272.759 482.551C270.01 482.551 267.7 482.002 265.83 481.012C263.96 480.023 262.53 478.704 261.54 476.946C260.55 475.188 260.11 473.319 260.11 471.121C260.11 469.473 260.33 467.934 260.88 466.615C261.43 465.296 262.2 464.087 263.3 462.988C264.4 461.999 265.72 461.12 267.26 460.57C268.8 460.021 270.67 459.691 272.65 459.691C274.739 459.691 276.499 460.021 278.149 460.57C279.689 461.12 281.009 461.889 282.109 462.988C283.099 463.977 283.979 465.186 284.419 466.615C285.189 467.934 285.409 469.473 285.409 471.121ZM277.269 471.121C277.269 469.363 276.939 468.044 276.169 467.055C275.399 466.066 274.299 465.626 272.869 465.626C271.44 465.626 270.34 466.066 269.57 467.055C268.8 468.044 268.47 469.363 268.47 471.121C268.47 472.88 268.8 474.198 269.57 475.188C270.34 476.177 271.44 476.726 272.869 476.726C274.299 476.726 275.399 476.177 276.169 475.188C276.939 474.198 277.269 472.88 277.269 471.121Z" fill="white"/>
<path d="M310.491 482.112H300.922L296.632 475.847L292.452 482.112H283.983L292.452 471.341L283.763 460.131H293.332L297.402 466.066L301.472 460.131H309.941L301.691 470.572L310.491 482.112Z" fill="white"/>
<path d="M232.174 481.892H223.815L222.275 480.244C221.285 480.903 220.075 481.453 218.755 481.782C217.435 482.112 216.115 482.222 214.795 482.222C212.045 482.222 209.846 481.563 208.416 480.354C206.986 479.145 206.216 477.606 206.216 475.957C206.216 474.748 206.546 473.649 207.316 472.66C208.086 471.671 209.516 470.462 211.605 469.033C210.946 468.374 210.506 467.825 210.066 467.165C209.626 466.616 209.406 465.956 209.186 465.407C208.966 464.857 208.856 464.198 208.856 463.648C208.856 462.439 209.186 461.34 209.846 460.351C210.506 459.362 211.495 458.483 212.705 457.933C214.025 457.274 215.455 457.054 217.215 457.054C218.425 457.054 219.635 457.274 220.625 457.603C221.615 458.043 222.385 458.483 223.045 459.142C223.705 459.802 224.145 460.351 224.475 461.12C224.805 461.78 224.915 462.439 224.915 463.099C224.915 464.308 224.475 465.517 223.595 466.616C222.715 467.715 221.615 468.594 220.075 469.363L223.375 472.88C224.365 472.001 225.355 470.792 226.124 469.363H232.064C230.524 472.221 228.764 474.639 226.784 476.397L232.174 481.892ZM218.975 476.837L214.685 472.331C213.145 473.32 212.375 474.309 212.375 475.298C212.375 475.848 212.705 476.507 213.255 477.056C213.805 477.606 214.575 477.936 215.675 477.936C216.885 477.936 217.985 477.606 218.975 476.837ZM219.965 463.209C219.965 462.879 219.855 462.549 219.745 462.219C219.525 461.89 219.305 461.56 218.865 461.45C218.425 461.23 217.985 461.12 217.435 461.12C216.665 461.12 216.005 461.34 215.565 461.78C215.125 462.219 215.015 462.659 215.015 463.099C215.015 463.428 215.125 463.758 215.345 464.088C215.565 464.418 215.895 464.747 216.225 465.187C216.555 465.626 216.995 465.956 217.325 466.286C219.085 465.517 219.965 464.527 219.965 463.209Z" fill="white"/>
<path d="M145.899 422.287C148.027 422.975 149.091 424.447 149.091 426.703C149.091 428.207 148.603 429.383 147.627 430.231C146.651 431.063 145.315 431.479 143.619 431.479H136.611V414.679H142.947C146.147 414.679 147.747 416.031 147.747 418.735C147.747 420.399 147.131 421.583 145.899 422.287ZM139.683 421.279H142.491C143.243 421.279 143.803 421.127 144.171 420.823C144.539 420.503 144.723 420.015 144.723 419.359C144.723 418.671 144.539 418.175 144.171 417.871C143.803 417.567 143.243 417.415 142.491 417.415H139.683V421.279ZM143.163 428.743C144.059 428.743 144.739 428.567 145.203 428.215C145.683 427.847 145.923 427.231 145.923 426.367C145.923 425.519 145.675 424.919 145.179 424.567C144.699 424.199 144.027 424.015 143.163 424.015H139.683V428.743H143.163ZM151.338 414.679H154.314V417.655H151.338V414.679ZM151.338 419.479H154.314V431.479H151.338V419.479ZM163.187 431.719C161.795 431.719 160.603 431.439 159.611 430.879C158.635 430.303 157.899 429.543 157.403 428.599C156.923 427.639 156.683 426.575 156.683 425.407C156.683 424.287 156.915 423.263 157.379 422.335C157.843 421.407 158.515 420.671 159.395 420.127C160.275 419.567 161.323 419.287 162.539 419.287C163.659 419.287 164.603 419.519 165.371 419.983C166.155 420.447 166.739 421.071 167.123 421.855C167.523 422.639 167.723 423.519 167.723 424.495C167.723 424.975 167.659 425.519 167.531 426.127H159.779C159.939 427.183 160.355 427.975 161.027 428.503C161.699 429.015 162.507 429.271 163.451 429.271C164.747 429.271 165.947 428.943 167.051 428.287L167.195 430.807C166.683 431.079 166.083 431.303 165.395 431.479C164.723 431.639 163.987 431.719 163.187 431.719ZM164.699 424.111C164.699 423.487 164.523 422.935 164.171 422.455C163.819 421.975 163.275 421.735 162.539 421.735C161.803 421.735 161.211 421.951 160.763 422.383C160.315 422.815 160.011 423.391 159.851 424.111H164.699ZM176.103 419.287C177.591 419.287 178.719 419.783 179.487 420.775C180.255 421.767 180.639 423.103 180.639 424.783V431.479H177.663V425.023C177.663 423.903 177.471 423.079 177.087 422.551C176.719 422.007 176.119 421.735 175.287 421.735C174.375 421.735 173.623 422.079 173.031 422.767V431.479H170.055V419.479H172.839L172.887 420.319C173.895 419.631 174.967 419.287 176.103 419.287ZM181.949 419.479H184.877L187.829 427.783L190.781 419.479H193.709L189.101 431.479H186.557L181.949 419.479ZM201.048 431.719C199.656 431.719 198.464 431.439 197.472 430.879C196.496 430.303 195.76 429.543 195.264 428.599C194.784 427.639 194.544 426.575 194.544 425.407C194.544 424.287 194.776 423.263 195.24 422.335C195.704 421.407 196.376 420.671 197.256 420.127C198.136 419.567 199.184 419.287 200.4 419.287C201.52 419.287 202.464 419.519 203.232 419.983C204.016 420.447 204.6 421.071 204.984 421.855C205.384 422.639 205.584 423.519 205.584 424.495C205.584 424.975 205.52 425.519 205.392 426.127H197.64C197.8 427.183 198.216 427.975 198.888 428.503C199.56 429.015 200.368 429.271 201.312 429.271C202.608 429.271 203.808 428.943 204.912 428.287L205.056 430.807C204.544 431.079 203.944 431.303 203.256 431.479C202.584 431.639 201.848 431.719 201.048 431.719ZM202.56 424.111C202.56 423.487 202.384 422.935 202.032 422.455C201.68 421.975 201.136 421.735 200.4 421.735C199.664 421.735 199.072 421.951 198.624 422.383C198.176 422.815 197.872 423.391 197.712 424.111H202.56ZM213.964 419.287C215.452 419.287 216.58 419.783 217.348 420.775C218.116 421.767 218.5 423.103 218.5 424.783V431.479H215.524V425.023C215.524 423.903 215.332 423.079 214.948 422.551C214.58 422.007 213.98 421.735 213.148 421.735C212.236 421.735 211.484 422.079 210.892 422.767V431.479H207.916V419.479H210.7L210.748 420.319C211.756 419.631 212.828 419.287 213.964 419.287ZM221.458 414.679H224.434V417.655H221.458V414.679ZM221.458 419.479H224.434V431.479H221.458V419.479ZM238.467 413.479V431.479H235.659L235.611 430.711C235.147 431.047 234.659 431.303 234.147 431.479C233.651 431.639 233.059 431.719 232.371 431.719C231.203 431.719 230.195 431.439 229.347 430.879C228.515 430.319 227.883 429.567 227.451 428.623C227.019 427.679 226.803 426.639 226.803 425.503C226.803 424.367 227.019 423.327 227.451 422.383C227.883 421.439 228.515 420.687 229.347 420.127C230.195 419.567 231.203 419.287 232.371 419.287C233.539 419.287 234.579 419.607 235.491 420.247V413.479H238.467ZM232.803 429.271C233.747 429.271 234.451 428.935 234.915 428.263C235.395 427.591 235.635 426.671 235.635 425.503C235.635 424.335 235.395 423.415 234.915 422.743C234.451 422.071 233.747 421.735 232.803 421.735C231.875 421.735 231.147 422.079 230.619 422.767C230.107 423.455 229.851 424.367 229.851 425.503C229.851 426.639 230.107 427.551 230.619 428.239C231.147 428.927 231.875 429.271 232.803 429.271ZM246.982 431.719C245.718 431.719 244.622 431.439 243.694 430.879C242.766 430.319 242.054 429.567 241.558 428.623C241.062 427.679 240.814 426.639 240.814 425.503C240.814 424.367 241.062 423.319 241.558 422.359C242.054 421.399 242.766 420.639 243.694 420.079C244.622 419.519 245.718 419.239 246.982 419.239C248.246 419.239 249.342 419.519 250.27 420.079C251.198 420.639 251.91 421.399 252.406 422.359C252.902 423.319 253.15 424.367 253.15 425.503C253.15 426.639 252.902 427.679 252.406 428.623C251.91 429.567 251.198 430.319 250.27 430.879C249.342 431.439 248.246 431.719 246.982 431.719ZM246.982 429.271C247.958 429.271 248.718 428.927 249.262 428.239C249.822 427.551 250.102 426.639 250.102 425.503C250.102 424.351 249.822 423.431 249.262 422.743C248.718 422.039 247.958 421.687 246.982 421.687C246.006 421.687 245.238 422.039 244.678 422.743C244.134 423.431 243.862 424.351 243.862 425.503C243.862 426.639 244.134 427.551 244.678 428.239C245.238 428.927 246.006 429.271 246.982 429.271ZM263.805 431.719C262.813 431.719 261.981 431.399 261.309 430.759C260.653 430.103 260.325 429.223 260.325 428.119C260.325 427.079 260.701 426.247 261.453 425.623C262.205 424.983 263.093 424.535 264.117 424.279C265.141 424.007 266.125 423.855 267.069 423.823C267.037 423.119 266.853 422.615 266.517 422.311C266.197 422.007 265.661 421.855 264.909 421.855C264.381 421.855 263.861 421.927 263.349 422.071C262.853 422.215 262.277 422.447 261.621 422.767L261.357 420.343C262.813 419.639 264.269 419.287 265.725 419.287C267.133 419.287 268.205 419.671 268.941 420.439C269.693 421.207 270.069 422.431 270.069 424.111V427.351C270.069 427.959 270.093 428.399 270.141 428.671C270.205 428.927 270.301 429.095 270.429 429.175C270.573 429.239 270.805 429.271 271.125 429.271H271.509L271.245 431.719H270.165C269.509 431.719 268.957 431.599 268.509 431.359C268.061 431.103 267.717 430.759 267.477 430.327C267.093 430.759 266.565 431.103 265.893 431.359C265.237 431.599 264.541 431.719 263.805 431.719ZM265.053 429.439C265.357 429.439 265.701 429.367 266.085 429.223C266.469 429.063 266.805 428.847 267.093 428.575V425.839C266.133 425.887 265.285 426.095 264.549 426.463C263.813 426.831 263.445 427.343 263.445 427.999C263.445 428.495 263.573 428.863 263.829 429.103C264.085 429.327 264.493 429.439 265.053 429.439Z" fill="white"/>
</svg>
