<svg width="6" height="11" viewBox="0 0 6 11" fill="none" xmlns="http://www.w3.org/2000/svg">
<path d="M5.52 7.13C5.52 7.61667 5.36333 8.04333 5.05 8.41C4.74333 8.77667 4.22667 9.00667 3.5 9.1L3.58 10.44H2.67L2.74 9.14C2.34667 9.13333 1.93667 9.08 1.51 8.98C1.08333 8.88 0.743333 8.77 0.49 8.65L0.63 7.42C1.49667 7.83333 2.28 8.04 2.98 8.04C3.37333 8.04 3.68 7.96667 3.9 7.82C4.12 7.67333 4.23 7.45333 4.23 7.16C4.23 6.93333 4.17 6.75 4.05 6.61C3.93667 6.47 3.76667 6.35 3.54 6.25C3.31333 6.14333 2.97667 6.01667 2.53 5.87C2.09667 5.73 1.73667 5.58 1.45 5.42C1.16333 5.25333 0.933333 5.04333 0.76 4.79C0.593333 4.53 0.51 4.20667 0.51 3.82C0.51 3.26667 0.703333 2.81667 1.09 2.47C1.47667 2.11667 2.03 1.91667 2.75 1.87L2.67 0.56H3.58L3.5 1.88C4.12667 1.93333 4.71 2.08 5.25 2.32L5.13 3.52C4.73 3.32667 4.35667 3.18333 4.01 3.09C3.67 2.99667 3.32333 2.95 2.97 2.95C2.57 2.95 2.26 3.02 2.04 3.16C1.82 3.29333 1.71 3.5 1.71 3.78C1.71 3.98 1.76333 4.14667 1.87 4.28C1.98333 4.40667 2.13667 4.51333 2.33 4.6C2.53 4.68667 2.81667 4.79 3.19 4.91C3.99 5.15667 4.57667 5.44667 4.95 5.78C5.33 6.10667 5.52 6.55667 5.52 7.13Z" fill="#DADADA"/>
</svg>
