<svg width="21" height="20" viewBox="0 0 21 20" fill="none" xmlns="http://www.w3.org/2000/svg">
<path d="M18.1673 15.51C18.1208 15.3394 17.9456 15.2382 17.7747 15.2831L15.906 15.7835C15.7341 15.8294 15.632 16.0061 15.678 16.178C15.7158 16.3189 15.8435 16.4169 15.9894 16.4169H15.9907C16.0189 16.4168 16.0469 16.4132 16.0742 16.4059L17.9413 15.9056C18.1129 15.8588 18.2141 15.6816 18.1673 15.51Z" fill="#4CA734"/>
<path d="M18.5036 16.7541C18.4571 16.5836 18.2819 16.4824 18.1109 16.5272L16.2419 17.0276C16.07 17.0736 15.968 17.2502 16.014 17.4221C16.0517 17.5631 16.1794 17.6611 16.3254 17.661C16.3535 17.6611 16.3816 17.6573 16.4088 17.6497L18.2775 17.1497C18.4492 17.1029 18.5504 16.9258 18.5036 16.7541Z" fill="#4CA734"/>
<path d="M20.248 18.2898C20.2479 18.2895 20.2479 18.2893 20.2478 18.289L15.4114 0.238633C15.3653 0.0672271 15.1893 -0.0346657 15.0177 0.0108437L10.6597 1.17846C10.6 1.19618 10.5468 1.2313 10.507 1.27931V0.587565C10.507 0.409635 10.3628 0.265374 10.1848 0.265374H1.1635C0.985569 0.265374 0.841309 0.409635 0.841309 0.587565V19.2746C0.841309 19.4526 0.985569 19.5968 1.1635 19.5968H10.1848C10.3628 19.5968 10.507 19.4526 10.507 19.2746V1.85313L15.2684 19.6236C15.3061 19.7644 15.4338 19.8623 15.5796 19.8623C15.6074 19.8621 15.6351 19.8584 15.6621 19.8514L20.0191 18.6837C20.1911 18.6382 20.2936 18.4618 20.248 18.2898ZM5.35198 18.9524H1.48569V0.909756H5.35198V18.9524ZM9.86265 18.9524H5.99636V0.909756H9.86265V18.9524ZM15.8074 19.1458L11.1379 1.71749L14.8724 0.716441L19.5419 18.1447L15.8074 19.1458Z" fill="#4CA734"/>
<path d="M4.38571 2.19824H2.45256C2.27463 2.19824 2.13037 2.3425 2.13037 2.52043C2.13037 2.69836 2.27463 2.84262 2.45256 2.84262H4.38571C4.56364 2.84262 4.7079 2.69836 4.7079 2.52043C4.7079 2.3425 4.56364 2.19824 4.38571 2.19824Z" fill="#4CA734"/>
<path d="M4.38571 3.4873H2.45256C2.27463 3.4873 2.13037 3.63157 2.13037 3.8095C2.13037 3.98743 2.27463 4.13169 2.45256 4.13169H4.38571C4.56364 4.13169 4.7079 3.98743 4.7079 3.8095C4.7079 3.63157 4.56364 3.4873 4.38571 3.4873Z" fill="#4CA734"/>
<path d="M8.89596 3.4873H6.96282C6.78489 3.4873 6.64062 3.63157 6.64062 3.8095C6.64062 3.98743 6.78489 4.13169 6.96282 4.13169H8.89596C9.07389 4.13169 9.21815 3.98743 9.21815 3.8095C9.21815 3.63157 9.07389 3.4873 8.89596 3.4873Z" fill="#4CA734"/>
<path d="M14.6759 2.44548C14.6345 2.27242 14.4606 2.16573 14.2876 2.20718C14.2819 2.20855 14.2763 2.21004 14.2708 2.21169L12.4021 2.71173C12.23 2.75691 12.1271 2.93307 12.1723 3.10516C12.2174 3.27725 12.3936 3.38015 12.5657 3.33496C12.5667 3.33472 12.5676 3.33444 12.5686 3.3342L14.4377 2.83384C14.6107 2.7924 14.7174 2.61853 14.6759 2.44548Z" fill="#4CA734"/>
<path d="M15.0011 3.68515C14.955 3.51326 14.7783 3.41128 14.6064 3.45736H14.6051L12.738 3.95772C12.5659 4.00291 12.463 4.17906 12.5082 4.35115C12.5534 4.52324 12.7295 4.62614 12.9016 4.58096C12.9026 4.58071 12.9036 4.58043 12.9046 4.58019L14.7733 4.07983C14.9452 4.03376 15.0471 3.85703 15.0011 3.68515Z" fill="#4CA734"/>
<path d="M8.89596 15.7305H6.96282C6.78489 15.7305 6.64062 15.8747 6.64062 16.0527C6.64062 16.2306 6.78489 16.3749 6.96282 16.3749H8.89596C9.07389 16.3749 9.21815 16.2306 9.21815 16.0527C9.21815 15.8747 9.07389 15.7305 8.89596 15.7305Z" fill="#4CA734"/>
<path d="M8.89596 17.0205H6.96282C6.78489 17.0205 6.64062 17.1648 6.64062 17.3427C6.64062 17.5206 6.78489 17.6649 6.96282 17.6649H8.89596C9.07389 17.6649 9.21815 17.5206 9.21815 17.3427C9.21815 17.1648 9.07389 17.0205 8.89596 17.0205Z" fill="#4CA734"/>
<path d="M4.38571 15.7305H2.45256C2.27463 15.7305 2.13037 15.8747 2.13037 16.0527C2.13037 16.2306 2.27463 16.3749 2.45256 16.3749H4.38571C4.56364 16.3749 4.7079 16.2306 4.7079 16.0527C4.7079 15.8747 4.56364 15.7305 4.38571 15.7305Z" fill="#4CA734"/>
<path d="M4.38571 17.0205H2.45256C2.27463 17.0205 2.13037 17.1648 2.13037 17.3427C2.13037 17.5206 2.27463 17.6649 2.45256 17.6649H4.38571C4.56364 17.6649 4.7079 17.5206 4.7079 17.3427C4.7079 17.1648 4.56364 17.0205 4.38571 17.0205Z" fill="#4CA734"/>
</svg>
