<svg width="28" height="28" viewBox="0 0 28 28" fill="none" xmlns="http://www.w3.org/2000/svg">
<circle cx="14" cy="14" r="14" fill="#ACACAC"/>
<path d="M13.4869 15.038C14.0283 14.2073 14.3969 13.582 14.5929 13.162C14.7983 12.742 14.9009 12.3453 14.9009 11.972C14.9009 11.5707 14.7843 11.258 14.5509 11.034C14.3269 10.8007 14.0143 10.684 13.6129 10.684C13.1649 10.684 12.7496 10.7913 12.3669 11.006C11.9843 11.2207 11.6109 11.51 11.2469 11.874L11.0229 10.068C11.4616 9.71333 11.9189 9.44733 12.3949 9.27C12.8709 9.09267 13.3983 9.004 13.9769 9.004C14.5463 9.004 15.0316 9.12533 15.4329 9.368C15.8343 9.60133 16.1329 9.91867 16.3289 10.32C16.5343 10.7213 16.6369 11.1647 16.6369 11.65C16.6369 12.2007 16.5156 12.7653 16.2729 13.344C16.0396 13.9227 15.6243 14.6647 15.0269 15.57L13.8789 17.32H16.9869V19H10.9109L13.4869 15.038Z" fill="#F3F3F3"/>
</svg>
