<svg width="21" height="11" viewBox="0 0 21 11" fill="none" xmlns="http://www.w3.org/2000/svg">
<path d="M20.492 10.1302C20.4995 10.1287 20.5068 10.1267 20.5142 10.1248C20.5205 10.1232 20.5269 10.1218 20.5331 10.1199C20.5403 10.1177 20.5474 10.115 20.5544 10.1125C20.5607 10.1102 20.567 10.1082 20.5732 10.1056C20.5798 10.1028 20.5862 10.0996 20.5927 10.0965C20.599 10.0935 20.6054 10.0907 20.6116 10.0874C20.6178 10.0841 20.6236 10.0803 20.6297 10.0767C20.6358 10.073 20.6421 10.0695 20.6481 10.0655C20.6545 10.0612 20.6605 10.0565 20.6667 10.0518C20.6719 10.048 20.6772 10.0443 20.6823 10.0402C20.6916 10.0325 20.7006 10.0243 20.7092 10.0158C20.7108 10.0143 20.7125 10.013 20.714 10.0115C20.7157 10.0099 20.717 10.0081 20.7186 10.0064C20.7269 9.99783 20.735 9.98904 20.7427 9.97979C20.7471 9.97435 20.751 9.96869 20.7551 9.96308C20.7594 9.95729 20.7639 9.95168 20.7679 9.94567C20.7722 9.93925 20.776 9.9326 20.7799 9.92601C20.7832 9.92046 20.7867 9.91502 20.7898 9.90929C20.7934 9.90264 20.7964 9.89576 20.7996 9.88899C20.8024 9.88298 20.8054 9.87702 20.808 9.87084C20.8108 9.86418 20.813 9.85742 20.8154 9.85065C20.8178 9.84406 20.8203 9.83753 20.8223 9.83082C20.8244 9.82399 20.8259 9.81705 20.8277 9.81011C20.8293 9.80329 20.8313 9.79658 20.8326 9.7897C20.8343 9.78155 20.8352 9.77333 20.8364 9.76512C20.8372 9.75934 20.8383 9.75361 20.8389 9.74777C20.8403 9.73337 20.8411 9.71897 20.8411 9.70451V0.433733C20.8411 0.194139 20.6469 0 20.4074 0H6.74477C6.74095 0 6.73725 0.000462331 6.73343 0.000577993C6.72516 0.000809317 6.71695 0.00115649 6.70874 0.00185046C6.7022 0.00237094 6.69572 0.00312289 6.68925 0.00399036C6.68185 0.00491565 6.6745 0.00601437 6.66716 0.00734448C6.66027 0.00855893 6.65345 0.0100046 6.64668 0.011566C6.6398 0.0131853 6.63292 0.0149204 6.6261 0.0168867C6.61933 0.0187951 6.61268 0.0208767 6.60609 0.0230743C6.59932 0.0253875 6.59255 0.0278168 6.5859 0.030477C6.5796 0.0329637 6.57341 0.035508 6.56728 0.0382839C6.56046 0.0413489 6.55369 0.0446456 6.54698 0.0480577C6.54126 0.0510071 6.53565 0.0540141 6.5301 0.0571948C6.52339 0.0610117 6.5168 0.0650599 6.51026 0.0692237C6.50488 0.0726936 6.49962 0.0762789 6.49441 0.0799223C6.48828 0.0842596 6.48221 0.0887705 6.47626 0.0935126C6.47082 0.09785 6.4655 0.102303 6.46024 0.106872C6.45503 0.11144 6.44989 0.116009 6.44485 0.120867C6.43913 0.126361 6.43363 0.132086 6.4282 0.137869C6.42548 0.140761 6.42259 0.143305 6.41999 0.146255C6.41843 0.14799 6.41721 0.149898 6.41571 0.151633C6.41027 0.157937 6.40518 0.164529 6.40009 0.17118C6.39639 0.176038 6.39257 0.180895 6.3891 0.185869C6.38459 0.192346 6.38043 0.198997 6.37627 0.205705C6.37285 0.211199 6.36933 0.216635 6.3662 0.222244C6.36256 0.228722 6.35938 0.235372 6.35608 0.242023C6.35308 0.248095 6.34995 0.254167 6.34723 0.260355C6.3444 0.26689 6.34191 0.273657 6.33943 0.280307C6.33694 0.286842 6.3344 0.293319 6.33226 0.299912C6.33012 0.306562 6.32838 0.313328 6.32653 0.320095C6.32468 0.327034 6.32271 0.333916 6.32115 0.340914C6.31971 0.347449 6.31872 0.3541 6.31757 0.360692C6.3163 0.36821 6.31502 0.375728 6.3141 0.383246C6.31335 0.389492 6.313 0.395853 6.31254 0.402215C6.31196 0.410311 6.31144 0.418408 6.31132 0.426562C6.31126 0.428933 6.31097 0.431246 6.31097 0.433617V3.10842C6.31097 3.34801 6.50511 3.54215 6.74471 3.54215C6.9843 3.54215 7.17844 3.34801 7.17844 3.10842V1.39691L11.0347 4.81108C11.0145 4.82525 10.9952 4.84092 10.9771 4.85891L7.17838 8.65766V5.80728C7.17838 5.56768 6.98424 5.37355 6.74465 5.37355C6.50506 5.37355 6.31092 5.56768 6.31092 5.80728V6.33724H4.06996C3.83037 6.33724 3.63623 6.53138 3.63623 6.77098C3.63623 7.01057 3.83037 7.20471 4.06996 7.20471H6.31092V9.7048C6.31092 9.9444 6.50506 10.1385 6.74465 10.1385H20.4072C20.4215 10.1385 20.4358 10.1378 20.45 10.1364C20.4567 10.1358 20.4631 10.1345 20.4696 10.1336C20.4772 10.1325 20.4846 10.1317 20.492 10.1302ZM19.9736 8.65771L16.1748 4.85897C16.1723 4.85654 16.1697 4.85451 16.1672 4.8522L19.0231 2.42925C19.2057 2.27426 19.2282 2.00061 19.0732 1.81792C18.9183 1.63535 18.6447 1.61279 18.4619 1.76784L13.582 5.90796L7.8889 0.867524H19.9736V8.65771V8.65771ZM11.5906 5.47244C11.6215 5.4415 11.6466 5.40703 11.6662 5.37037L13.2885 6.8066C13.3705 6.87918 13.4732 6.91561 13.576 6.91561C13.6758 6.91561 13.7756 6.88132 13.8567 6.81261L15.5099 5.40998C15.5249 5.43196 15.5419 5.45295 15.5613 5.47244L19.3601 9.27119H7.79185L11.5906 5.47244Z" fill="#4CA734"/>
<path d="M1.27504 4.93973H8.60033C8.83992 4.93973 9.03406 4.74559 9.03406 4.506C9.03406 4.2664 8.83992 4.07227 8.60033 4.07227H1.27504C1.03545 4.07227 0.841309 4.2664 0.841309 4.506C0.841309 4.74559 1.03545 4.93973 1.27504 4.93973Z" fill="#4CA734"/>
<path d="M2.03383 2.54959H5.32297C5.56256 2.54959 5.7567 2.35546 5.7567 2.11586C5.7567 1.87627 5.56256 1.68213 5.32297 1.68213H2.03383C1.79424 1.68213 1.6001 1.87627 1.6001 2.11586C1.6001 2.35546 1.79424 2.54959 2.03383 2.54959Z" fill="#4CA734"/>
<path d="M4.45575 8.16895H1.27504C1.03545 8.16895 0.841309 8.36308 0.841309 8.60268C0.841309 8.84227 1.03545 9.03641 1.27504 9.03641H4.45575C4.69534 9.03641 4.88948 8.84227 4.88948 8.60268C4.88948 8.36308 4.69534 8.16895 4.45575 8.16895Z" fill="#4CA734"/>
</svg>
