<svg width="16" height="15" viewBox="0 0 16 15" fill="none" xmlns="http://www.w3.org/2000/svg">
<path d="M14.1225 15H2.5601C1.61195 15 0.841309 14.2294 0.841309 13.2812V1.71879C0.841309 0.770645 1.61195 0 2.5601 0H12.2526C12.8694 0 13.4738 0.250053 13.9094 0.686874L15.1544 1.93188C15.5975 2.37499 15.8413 2.96379 15.8413 3.58932V13.2812C15.8413 14.2294 15.0707 15 14.1225 15V15ZM2.5601 0.9375C2.12946 0.9375 1.77881 1.28815 1.77881 1.71879V13.2812C1.77881 13.7119 2.12946 14.0625 2.5601 14.0625H14.1225C14.5532 14.0625 14.9038 13.7119 14.9038 13.2812V3.58932C14.9038 3.21373 14.7576 2.86068 14.4919 2.59495L13.2469 1.34995C12.9851 1.08753 12.6232 0.9375 12.2526 0.9375H2.5601Z" fill="#4CA734"/>
<path d="M10.3726 4.37496H3.81006C3.55131 4.37496 3.34131 4.16496 3.34131 3.90621V0.46875C3.34131 0.209999 3.55131 0 3.81006 0C4.06881 0 4.27881 0.209999 4.27881 0.46875V3.43746H9.90381V0.46875C9.90381 0.209999 10.1138 0 10.3726 0C10.6313 0 10.8413 0.209999 10.8413 0.46875V3.90621C10.8413 4.16496 10.6313 4.37496 10.3726 4.37496Z" fill="#4CA734"/>
<path d="M8.34131 12.1875C6.79063 12.1875 5.52881 10.9257 5.52881 9.375C5.52881 7.82433 6.79063 6.5625 8.34131 6.5625C9.89198 6.5625 11.1538 7.82433 11.1538 9.375C11.1538 10.9257 9.89198 12.1875 8.34131 12.1875ZM8.34131 7.5C7.30756 7.5 6.46631 8.34126 6.46631 9.375C6.46631 10.4087 7.30756 11.25 8.34131 11.25C9.37505 11.25 10.2163 10.4087 10.2163 9.375C10.2163 8.34126 9.37505 7.5 8.34131 7.5Z" fill="#4CA734"/>
</svg>
