<svg width="20" height="19" viewBox="0 0 20 19" fill="none" xmlns="http://www.w3.org/2000/svg">
<path d="M17.0588 2.78248C15.2645 0.988182 12.8788 0 10.3413 0C7.80367 0 5.41808 0.988182 3.62379 2.78248C1.82949 4.57677 0.841309 6.96236 0.841309 9.5C0.841309 12.0375 1.82949 14.4232 3.62379 16.2175C5.41808 18.0118 7.80367 19 10.3413 19C12.8788 19 15.2645 18.0118 17.0588 16.2175C18.8531 14.4232 19.8413 12.0375 19.8413 9.5C19.8413 6.96236 18.8531 4.57677 17.0588 2.78248V2.78248ZM5.60392 16.4167C6.00125 14.129 7.9837 12.4415 10.3413 12.4415C12.6991 12.4415 14.6814 14.129 15.0787 16.4167C13.7299 17.3434 12.0979 17.8867 10.3413 17.8867C8.5847 17.8867 6.95276 17.3434 5.60392 16.4167ZM7.32066 8.30757C7.32066 6.64185 8.67574 5.28693 10.3413 5.28693C12.0069 5.28693 13.362 6.642 13.362 8.30757C13.362 9.97314 12.0069 11.3282 10.3413 11.3282C8.67574 11.3282 7.32066 9.97314 7.32066 8.30757V8.30757ZM16.043 15.6445C15.7433 14.5795 15.1483 13.6132 14.3142 12.8584C13.8025 12.3953 13.22 12.0298 12.5938 11.7722C13.7257 11.034 14.4754 9.75672 14.4754 8.30757C14.4754 6.0281 12.6208 4.17365 10.3413 4.17365C8.06184 4.17365 6.20738 6.0281 6.20738 8.30757C6.20738 9.75672 6.95711 11.034 8.0888 11.7722C7.46272 12.0298 6.88013 12.3951 6.36843 12.8583C5.53448 13.6131 4.93929 14.5793 4.63966 15.6444C2.9893 14.1117 1.95459 11.9246 1.95459 9.5C1.95459 4.87553 5.71684 1.11328 10.3413 1.11328C14.9658 1.11328 18.728 4.87553 18.728 9.5C18.728 11.9247 17.6933 14.1119 16.043 15.6445V15.6445Z" fill="#4CA734"/>
</svg>
