<svg width="21" height="20" viewBox="0 0 21 20" fill="none" xmlns="http://www.w3.org/2000/svg">
<path d="M19.3896 7.44583L18.4142 7.28043C18.3274 7.03873 18.2293 6.80161 18.1208 6.57104L18.6952 5.76752C19.1949 5.06546 19.1146 4.11728 18.5063 3.51486L17.3342 2.34268C17.003 2.01141 16.5638 1.82892 16.0978 1.82892C15.7308 1.82892 15.3799 1.94199 15.0854 2.15393L14.2788 2.72842C14.0293 2.61047 13.7762 2.50626 13.5214 2.41623L13.3601 1.46057C13.2182 0.614166 12.4922 0 11.6337 0H9.97781C9.11951 0 8.39349 0.614166 8.25189 1.45889L8.08237 2.45193C7.84296 2.53937 7.6069 2.6387 7.37573 2.74963L6.5838 2.17926C6.28687 1.96548 5.93454 1.85257 5.56482 1.85257C5.09424 1.85257 4.65494 2.03537 4.32733 2.3674L3.15256 3.53836C2.54587 4.14505 2.46637 5.09247 2.96365 5.79102L3.5473 6.61102C3.43973 6.8425 3.34299 7.08069 3.25754 7.32376L2.30173 7.48505C1.45547 7.62711 0.841309 8.35312 0.841309 9.21143V10.8673C0.841309 11.7256 1.45547 12.4516 2.3002 12.5934L3.29324 12.7628C3.38068 13.0023 3.48016 13.2385 3.59094 13.4695L3.02271 14.2599C2.52298 14.962 2.60324 15.9103 3.21161 16.5126L4.38364 17.6848C4.7149 18.0161 5.15405 18.1985 5.62006 18.1985C5.98703 18.1985 6.33798 18.0855 6.63232 17.8737L7.45233 17.29C7.66779 17.3901 7.89117 17.4818 8.12051 17.5644L8.28302 18.5396C8.42508 19.3858 9.15109 20 10.0094 20H11.6691C12.5274 20 13.2536 19.3858 13.3953 18.5406L13.5607 17.5652C13.8024 17.4783 14.0396 17.3802 14.2701 17.2717L15.071 17.8442C15.368 18.058 15.7203 18.1711 16.09 18.1711C16.5559 18.1711 16.995 17.9886 17.3263 17.6573L18.4983 16.4851C19.1052 15.8784 19.1845 14.931 18.6872 14.2325L18.1123 13.4251C18.2237 13.1892 18.3221 12.9523 18.4068 12.7167L19.3807 12.5543C20.227 12.4123 20.8412 11.6862 20.8412 10.8279V9.17542C20.8508 8.31619 20.241 7.58926 19.3896 7.44583V7.44583ZM19.6693 10.8279C19.6693 11.1116 19.4663 11.3516 19.1874 11.3985L17.8956 11.6138C17.6573 11.6534 17.465 11.8216 17.3934 12.0528C17.2787 12.4246 17.1211 12.8047 16.9253 13.1819C16.8145 13.3946 16.8322 13.6481 16.9714 13.8431L17.7326 14.9121C17.8968 15.1428 17.8704 15.4559 17.6698 15.6566L16.4977 16.8286C16.3862 16.9402 16.2452 16.9992 16.09 16.9992C15.9677 16.9992 15.8521 16.9626 15.7542 16.8921L14.6897 16.1313C14.494 15.9908 14.2394 15.9731 14.0257 16.0849C13.6677 16.2723 13.2873 16.4299 12.895 16.553C12.6661 16.6248 12.499 16.8164 12.4592 17.0523L12.2398 18.3455C12.1929 18.6252 11.9529 18.8281 11.6691 18.8281H10.0094C9.72559 18.8281 9.48572 18.6252 9.43887 18.3463L9.22357 17.0544C9.1842 16.8176 9.01758 16.6257 8.7887 16.5533C8.40204 16.4313 8.03384 16.2799 7.69403 16.1034C7.60141 16.0553 7.50116 16.0316 7.40137 16.0316C7.27228 16.0316 7.1438 16.0713 7.03378 16.1496L5.95026 16.9208C5.8526 16.9911 5.74152 17.0267 5.62006 17.0267C5.46487 17.0267 5.32388 16.9678 5.21234 16.8561L4.03818 15.6821C3.83783 15.4837 3.81235 15.1715 3.97577 14.9419L4.73245 13.8893C4.87482 13.6917 4.89221 13.4354 4.77747 13.2198C4.58505 12.8589 4.4256 12.4805 4.30338 12.0949C4.23105 11.8675 4.04016 11.7014 3.80518 11.6612L2.49567 11.438C2.21613 11.391 2.01318 11.151 2.01318 10.8673V9.21143C2.01318 8.92776 2.21613 8.68774 2.49612 8.64075L3.77206 8.42545C4.01056 8.38531 4.20267 8.21671 4.27362 7.98477C4.39401 7.59079 4.54889 7.20978 4.73398 6.85272C4.84415 6.64047 4.82645 6.38763 4.68774 6.19247L3.9184 5.11154C3.75406 4.88083 3.78046 4.56772 3.9805 4.36768L5.15649 3.19565L5.16077 3.19122C5.26651 3.08365 5.40994 3.02444 5.56482 3.02444C5.68719 3.02444 5.80286 3.06107 5.89899 3.13034L6.95612 3.8913C7.15402 4.03381 7.41068 4.0509 7.62552 3.93616C7.98639 3.74374 8.36481 3.58429 8.74994 3.46222C8.97729 3.39005 9.14346 3.19946 9.1839 2.96387L9.40729 1.65436C9.45413 1.37482 9.69415 1.17188 9.97797 1.17188H11.6339C11.9175 1.17188 12.1575 1.37482 12.2045 1.65482L12.4198 2.93121C12.4601 3.16986 12.629 3.36182 12.8611 3.43262C13.2568 3.55286 13.6514 3.71521 14.0342 3.91541C14.2469 4.02649 14.5004 4.00909 14.6963 3.86978L15.7678 3.10669C15.8653 3.03635 15.9763 3.00079 16.098 3.00079C16.253 3.00079 16.394 3.05969 16.5057 3.17139L17.6797 4.3454C17.88 4.54376 17.9057 4.85596 17.7412 5.08682L16.9796 6.15234C16.8398 6.34827 16.8224 6.60248 16.934 6.81549C17.1215 7.17346 17.279 7.55386 17.4023 7.94632C17.4742 8.1752 17.6656 8.34213 17.9016 8.38196L19.1937 8.60123L19.1947 8.60138C19.4735 8.64822 19.6732 8.88474 19.6693 9.16382V10.8279Z" fill="#4CA734"/>
<path d="M10.8412 6C8.69702 6 6.95264 7.74438 6.95264 9.88855C6.95264 12.0327 8.69702 13.7771 10.8412 13.7771C12.9854 13.7771 14.7297 12.0327 14.7297 9.88855C14.7297 7.74438 12.9854 6 10.8412 6ZM10.8412 12.6052C9.34323 12.6052 8.12451 11.3865 8.12451 9.88855C8.12451 8.39059 9.34323 7.17188 10.8412 7.17188C12.3391 7.17188 13.5579 8.39059 13.5579 9.88855C13.5579 11.3865 12.3391 12.6052 10.8412 12.6052Z" fill="#4CA734"/>
</svg>
